solid OpenSCAD_Model
  facet normal 0.994522 0.104529 0
    outer loop
      vertex 11 0 2.00488
      vertex 10.7596 2.28703 0
      vertex 10.7596 2.28703 2.04727
    endloop
  endfacet
  facet normal 0.994522 0.104529 0
    outer loop
      vertex 10.7596 2.28703 0
      vertex 11 0 2.00488
      vertex 11 0 0
    endloop
  endfacet
  facet normal -0.994522 0.104529 0
    outer loop
      vertex -11 0 0
      vertex -10.7596 2.28703 5.84169
      vertex -10.7596 2.28703 0
    endloop
  endfacet
  facet normal -0.994522 0.104529 0
    outer loop
      vertex -10.7596 2.28703 5.84169
      vertex -11 0 0
      vertex -11 0 5.88408
    endloop
  endfacet
  facet normal 0 1 0
    outer loop
      vertex -1.14981 10.9397 0
      vertex 1.14981 10.9397 3.74174
      vertex 1.14981 10.9397 0
    endloop
  endfacet
  facet normal 0 1 0
    outer loop
      vertex 1.14981 10.9397 3.74174
      vertex -1.14981 10.9397 0
      vertex -1.14981 10.9397 4.14722
    endloop
  endfacet
  facet normal 0 -1 0
    outer loop
      vertex -1.14981 -10.9397 0
      vertex 1.14981 -10.9397 3.74174
      vertex -1.14981 -10.9397 4.14722
    endloop
  endfacet
  facet normal 0 -1 -0
    outer loop
      vertex 1.14981 -10.9397 3.74174
      vertex -1.14981 -10.9397 0
      vertex 1.14981 -10.9397 0
    endloop
  endfacet
  facet normal 0.743145 0.66913 0
    outer loop
      vertex 8.89919 6.46564 2.37531
      vertex 7.36044 8.17459 0
      vertex 7.36044 8.17459 2.64664
    endloop
  endfacet
  facet normal 0.743145 0.66913 0
    outer loop
      vertex 7.36044 8.17459 0
      vertex 8.89919 6.46564 2.37531
      vertex 8.89919 6.46564 0
    endloop
  endfacet
  facet normal 0.951057 0.309017 0
    outer loop
      vertex 10.7596 2.28703 2.04727
      vertex 10.049 4.4741 0
      vertex 10.049 4.4741 2.17257
    endloop
  endfacet
  facet normal 0.951057 0.309017 0
    outer loop
      vertex 10.049 4.4741 0
      vertex 10.7596 2.28703 2.04727
      vertex 10.7596 2.28703 0
    endloop
  endfacet
  facet normal -0.587785 0.809017 0
    outer loop
      vertex -7.36044 8.17459 0
      vertex -5.5 9.52628 4.91428
      vertex -5.5 9.52628 0
    endloop
  endfacet
  facet normal -0.587785 0.809017 0
    outer loop
      vertex -5.5 9.52628 4.91428
      vertex -7.36044 8.17459 0
      vertex -7.36044 8.17459 5.24232
    endloop
  endfacet
  facet normal -0.207912 0.978148 0
    outer loop
      vertex -3.39919 10.4616 0
      vertex -1.14981 10.9397 4.14722
      vertex -1.14981 10.9397 0
    endloop
  endfacet
  facet normal -0.207912 0.978148 0
    outer loop
      vertex -1.14981 10.9397 4.14722
      vertex -3.39919 10.4616 0
      vertex -3.39919 10.4616 4.54385
    endloop
  endfacet
  facet normal 0.866025 -0.5 0
    outer loop
      vertex 8.89919 -6.46564 0
      vertex 10.049 -4.4741 2.17257
      vertex 8.89919 -6.46564 2.37531
    endloop
  endfacet
  facet normal 0.866025 -0.5 0
    outer loop
      vertex 10.049 -4.4741 2.17257
      vertex 8.89919 -6.46564 0
      vertex 10.049 -4.4741 0
    endloop
  endfacet
  facet normal 0.866025 0.5 0
    outer loop
      vertex 10.049 4.4741 2.17257
      vertex 8.89919 6.46564 0
      vertex 8.89919 6.46564 2.37531
    endloop
  endfacet
  facet normal 0.866025 0.5 0
    outer loop
      vertex 8.89919 6.46564 0
      vertex 10.049 4.4741 2.17257
      vertex 10.049 4.4741 0
    endloop
  endfacet
  facet normal 0.406737 0.913545 0
    outer loop
      vertex 3.39919 10.4616 0
      vertex 5.5 9.52628 2.97468
      vertex 5.5 9.52628 0
    endloop
  endfacet
  facet normal 0.406737 0.913545 0
    outer loop
      vertex 5.5 9.52628 2.97468
      vertex 3.39919 10.4616 0
      vertex 3.39919 10.4616 3.34511
    endloop
  endfacet
  facet normal 0.207912 0.978148 0
    outer loop
      vertex 1.14981 10.9397 0
      vertex 3.39919 10.4616 3.34511
      vertex 3.39919 10.4616 0
    endloop
  endfacet
  facet normal 0.207912 0.978148 0
    outer loop
      vertex 3.39919 10.4616 3.34511
      vertex 1.14981 10.9397 0
      vertex 1.14981 10.9397 3.74174
    endloop
  endfacet
  facet normal 0.587785 0.809017 0
    outer loop
      vertex 5.5 9.52628 0
      vertex 7.36044 8.17459 2.64664
      vertex 7.36044 8.17459 0
    endloop
  endfacet
  facet normal 0.587785 0.809017 0
    outer loop
      vertex 7.36044 8.17459 2.64664
      vertex 5.5 9.52628 0
      vertex 5.5 9.52628 2.97468
    endloop
  endfacet
  facet normal -0.866025 0.5 0
    outer loop
      vertex -10.049 4.4741 0
      vertex -8.89919 6.46564 5.51365
      vertex -8.89919 6.46564 0
    endloop
  endfacet
  facet normal -0.866025 0.5 0
    outer loop
      vertex -8.89919 6.46564 5.51365
      vertex -10.049 4.4741 0
      vertex -10.049 4.4741 5.71639
    endloop
  endfacet
  facet normal -0.743145 0.66913 0
    outer loop
      vertex -8.89919 6.46564 0
      vertex -7.36044 8.17459 5.24232
      vertex -7.36044 8.17459 0
    endloop
  endfacet
  facet normal -0.743145 0.66913 0
    outer loop
      vertex -7.36044 8.17459 5.24232
      vertex -8.89919 6.46564 0
      vertex -8.89919 6.46564 5.51365
    endloop
  endfacet
  facet normal -0.951057 0.309017 0
    outer loop
      vertex -10.7596 2.28703 0
      vertex -10.049 4.4741 5.71639
      vertex -10.049 4.4741 0
    endloop
  endfacet
  facet normal -0.951057 0.309017 0
    outer loop
      vertex -10.049 4.4741 5.71639
      vertex -10.7596 2.28703 0
      vertex -10.7596 2.28703 5.84169
    endloop
  endfacet
  facet normal -0.406737 0.913545 0
    outer loop
      vertex -5.5 9.52628 0
      vertex -3.39919 10.4616 4.54385
      vertex -3.39919 10.4616 0
    endloop
  endfacet
  facet normal -0.406737 0.913545 0
    outer loop
      vertex -3.39919 10.4616 4.54385
      vertex -5.5 9.52628 0
      vertex -5.5 9.52628 4.91428
    endloop
  endfacet
  facet normal 0.994522 -0.104529 0
    outer loop
      vertex 10.7596 -2.28703 0
      vertex 11 0 2.00488
      vertex 10.7596 -2.28703 2.04727
    endloop
  endfacet
  facet normal 0.994522 -0.104529 0
    outer loop
      vertex 11 0 2.00488
      vertex 10.7596 -2.28703 0
      vertex 11 0 0
    endloop
  endfacet
  facet normal 0 0 -1
    outer loop
      vertex 10 0 0
      vertex 11 0 0
      vertex 10.7596 -2.28703 0
    endloop
  endfacet
  facet normal 0 0 -1
    outer loop
      vertex 9.78148 -2.07912 0
      vertex 10.7596 -2.28703 0
      vertex 10.049 -4.4741 0
    endloop
  endfacet
  facet normal 0 0 -1
    outer loop
      vertex 11 0 0
      vertex 10 0 0
      vertex 10.7596 2.28703 0
    endloop
  endfacet
  facet normal 0 0 -1
    outer loop
      vertex 9.78148 2.07912 0
      vertex 10.7596 2.28703 0
      vertex 10 0 0
    endloop
  endfacet
  facet normal 0 0 -1
    outer loop
      vertex 10.7596 -2.28703 0
      vertex 9.78148 -2.07912 0
      vertex 10 0 0
    endloop
  endfacet
  facet normal 0 0 -1
    outer loop
      vertex 10.049 -4.4741 0
      vertex 9.13545 -4.06737 0
      vertex 9.78148 -2.07912 0
    endloop
  endfacet
  facet normal 0 0 -1
    outer loop
      vertex 8.89919 -6.46564 0
      vertex 9.13545 -4.06737 0
      vertex 10.049 -4.4741 0
    endloop
  endfacet
  facet normal 0 0 -1
    outer loop
      vertex 8.89919 -6.46564 0
      vertex 8.09017 -5.87785 0
      vertex 9.13545 -4.06737 0
    endloop
  endfacet
  facet normal 0 0 -1
    outer loop
      vertex 7.36044 -8.17459 0
      vertex 8.09017 -5.87785 0
      vertex 8.89919 -6.46564 0
    endloop
  endfacet
  facet normal 0 0 -1
    outer loop
      vertex 7.36044 -8.17459 0
      vertex 6.69131 -7.43145 0
      vertex 8.09017 -5.87785 0
    endloop
  endfacet
  facet normal 0 0 -1
    outer loop
      vertex 5.5 -9.52628 0
      vertex 6.69131 -7.43145 0
      vertex 7.36044 -8.17459 0
    endloop
  endfacet
  facet normal 0 0 -1
    outer loop
      vertex 5.5 -9.52628 0
      vertex 5 -8.66025 0
      vertex 6.69131 -7.43145 0
    endloop
  endfacet
  facet normal 0 0 -1
    outer loop
      vertex 3.39919 -10.4616 0
      vertex 5 -8.66025 0
      vertex 5.5 -9.52628 0
    endloop
  endfacet
  facet normal 0 0 -1
    outer loop
      vertex 3.39919 -10.4616 0
      vertex 3.09017 -9.51056 0
      vertex 5 -8.66025 0
    endloop
  endfacet
  facet normal 0 0 -1
    outer loop
      vertex 1.14981 -10.9397 0
      vertex 3.09017 -9.51056 0
      vertex 3.39919 -10.4616 0
    endloop
  endfacet
  facet normal 0 0 -1
    outer loop
      vertex 1.14981 -10.9397 0
      vertex 1.04528 -9.94522 0
      vertex 3.09017 -9.51056 0
    endloop
  endfacet
  facet normal 0 0 -1
    outer loop
      vertex 1.14981 -10.9397 0
      vertex -1.04528 -9.94522 0
      vertex 1.04528 -9.94522 0
    endloop
  endfacet
  facet normal 0 0 -1
    outer loop
      vertex -1.14981 -10.9397 0
      vertex -1.04528 -9.94522 0
      vertex 1.14981 -10.9397 0
    endloop
  endfacet
  facet normal 0 0 -1
    outer loop
      vertex -1.14981 -10.9397 0
      vertex -3.09017 -9.51056 0
      vertex -1.04528 -9.94522 0
    endloop
  endfacet
  facet normal 0 0 -1
    outer loop
      vertex -3.39919 -10.4616 0
      vertex -3.09017 -9.51056 0
      vertex -1.14981 -10.9397 0
    endloop
  endfacet
  facet normal 0 0 -1
    outer loop
      vertex -3.39919 -10.4616 0
      vertex -5 -8.66025 0
      vertex -3.09017 -9.51056 0
    endloop
  endfacet
  facet normal 0 0 -1
    outer loop
      vertex -5.5 -9.52628 0
      vertex -5 -8.66025 0
      vertex -3.39919 -10.4616 0
    endloop
  endfacet
  facet normal 0 0 -1
    outer loop
      vertex -5.5 -9.52628 0
      vertex -6.69131 -7.43145 0
      vertex -5 -8.66025 0
    endloop
  endfacet
  facet normal 0 0 -1
    outer loop
      vertex -7.36044 -8.17459 0
      vertex -6.69131 -7.43145 0
      vertex -5.5 -9.52628 0
    endloop
  endfacet
  facet normal 0 0 -1
    outer loop
      vertex -7.36044 -8.17459 0
      vertex -8.09017 -5.87785 0
      vertex -6.69131 -7.43145 0
    endloop
  endfacet
  facet normal 0 0 -1
    outer loop
      vertex -8.89919 -6.46564 0
      vertex -8.09017 -5.87785 0
      vertex -7.36044 -8.17459 0
    endloop
  endfacet
  facet normal 0 0 -1
    outer loop
      vertex -8.89919 -6.46564 0
      vertex -9.13545 -4.06737 0
      vertex -8.09017 -5.87785 0
    endloop
  endfacet
  facet normal 0 0 -1
    outer loop
      vertex -10.049 -4.4741 0
      vertex -9.13545 -4.06737 0
      vertex -8.89919 -6.46564 0
    endloop
  endfacet
  facet normal 0 0 -1
    outer loop
      vertex -10.7596 -2.28703 0
      vertex -9.78148 -2.07912 0
      vertex -10.049 -4.4741 0
    endloop
  endfacet
  facet normal -0 0 -1
    outer loop
      vertex -9.13545 -4.06737 0
      vertex -10.049 -4.4741 0
      vertex -9.78148 -2.07912 0
    endloop
  endfacet
  facet normal -0 0 -1
    outer loop
      vertex 10.7596 2.28703 0
      vertex 9.78148 2.07912 0
      vertex 10.049 4.4741 0
    endloop
  endfacet
  facet normal 0 0 -1
    outer loop
      vertex 9.13545 4.06737 0
      vertex 10.049 4.4741 0
      vertex 9.78148 2.07912 0
    endloop
  endfacet
  facet normal 0 0 -1
    outer loop
      vertex 9.13545 4.06737 0
      vertex 8.89919 6.46564 0
      vertex 10.049 4.4741 0
    endloop
  endfacet
  facet normal 0 0 -1
    outer loop
      vertex 8.09017 5.87785 0
      vertex 8.89919 6.46564 0
      vertex 9.13545 4.06737 0
    endloop
  endfacet
  facet normal 0 0 -1
    outer loop
      vertex 8.09017 5.87785 0
      vertex 7.36044 8.17459 0
      vertex 8.89919 6.46564 0
    endloop
  endfacet
  facet normal 0 0 -1
    outer loop
      vertex 6.69131 7.43145 0
      vertex 7.36044 8.17459 0
      vertex 8.09017 5.87785 0
    endloop
  endfacet
  facet normal 0 0 -1
    outer loop
      vertex 6.69131 7.43145 0
      vertex 5.5 9.52628 0
      vertex 7.36044 8.17459 0
    endloop
  endfacet
  facet normal 0 0 -1
    outer loop
      vertex 5 8.66025 0
      vertex 5.5 9.52628 0
      vertex 6.69131 7.43145 0
    endloop
  endfacet
  facet normal 0 0 -1
    outer loop
      vertex 5 8.66025 0
      vertex 3.39919 10.4616 0
      vertex 5.5 9.52628 0
    endloop
  endfacet
  facet normal 0 0 -1
    outer loop
      vertex 3.09017 9.51056 0
      vertex 3.39919 10.4616 0
      vertex 5 8.66025 0
    endloop
  endfacet
  facet normal 0 0 -1
    outer loop
      vertex 3.09017 9.51056 0
      vertex 1.14981 10.9397 0
      vertex 3.39919 10.4616 0
    endloop
  endfacet
  facet normal 0 0 -1
    outer loop
      vertex 1.04528 9.94522 0
      vertex 1.14981 10.9397 0
      vertex 3.09017 9.51056 0
    endloop
  endfacet
  facet normal 0 0 -1
    outer loop
      vertex -1.04528 9.94522 0
      vertex 1.14981 10.9397 0
      vertex 1.04528 9.94522 0
    endloop
  endfacet
  facet normal 0 0 -1
    outer loop
      vertex -1.04528 9.94522 0
      vertex -1.14981 10.9397 0
      vertex 1.14981 10.9397 0
    endloop
  endfacet
  facet normal 0 0 -1
    outer loop
      vertex -3.09017 9.51056 0
      vertex -1.14981 10.9397 0
      vertex -1.04528 9.94522 0
    endloop
  endfacet
  facet normal 0 0 -1
    outer loop
      vertex -3.09017 9.51056 0
      vertex -3.39919 10.4616 0
      vertex -1.14981 10.9397 0
    endloop
  endfacet
  facet normal 0 0 -1
    outer loop
      vertex -5 8.66025 0
      vertex -3.39919 10.4616 0
      vertex -3.09017 9.51056 0
    endloop
  endfacet
  facet normal 0 0 -1
    outer loop
      vertex -5 8.66025 0
      vertex -5.5 9.52628 0
      vertex -3.39919 10.4616 0
    endloop
  endfacet
  facet normal 0 0 -1
    outer loop
      vertex -6.69131 7.43145 0
      vertex -5.5 9.52628 0
      vertex -5 8.66025 0
    endloop
  endfacet
  facet normal 0 0 -1
    outer loop
      vertex -6.69131 7.43145 0
      vertex -7.36044 8.17459 0
      vertex -5.5 9.52628 0
    endloop
  endfacet
  facet normal 0 0 -1
    outer loop
      vertex -8.09017 5.87785 0
      vertex -7.36044 8.17459 0
      vertex -6.69131 7.43145 0
    endloop
  endfacet
  facet normal 0 0 -1
    outer loop
      vertex -8.09017 5.87785 0
      vertex -8.89919 6.46564 0
      vertex -7.36044 8.17459 0
    endloop
  endfacet
  facet normal 0 0 -1
    outer loop
      vertex -9.13545 4.06737 0
      vertex -8.89919 6.46564 0
      vertex -8.09017 5.87785 0
    endloop
  endfacet
  facet normal 0 0 -1
    outer loop
      vertex -10.049 4.4741 0
      vertex -9.13545 4.06737 0
      vertex -9.78148 2.07912 0
    endloop
  endfacet
  facet normal 0 0 -1
    outer loop
      vertex -9.13545 4.06737 0
      vertex -10.049 4.4741 0
      vertex -8.89919 6.46564 0
    endloop
  endfacet
  facet normal 0 0 -1
    outer loop
      vertex -10.7596 2.28703 0
      vertex -9.78148 2.07912 0
      vertex -10 0 0
    endloop
  endfacet
  facet normal -0 0 -1
    outer loop
      vertex -9.78148 -2.07912 0
      vertex -10.7596 -2.28703 0
      vertex -10 0 0
    endloop
  endfacet
  facet normal 0 0 -1
    outer loop
      vertex -11 0 0
      vertex -10 0 0
      vertex -10.7596 -2.28703 0
    endloop
  endfacet
  facet normal 0 0 -1
    outer loop
      vertex -9.78148 2.07912 0
      vertex -10.7596 2.28703 0
      vertex -10.049 4.4741 0
    endloop
  endfacet
  facet normal 0 0 -1
    outer loop
      vertex -10 0 0
      vertex -11 0 0
      vertex -10.7596 2.28703 0
    endloop
  endfacet
  facet normal 0.207912 -0.978148 0
    outer loop
      vertex 1.14981 -10.9397 0
      vertex 3.39919 -10.4616 3.34511
      vertex 1.14981 -10.9397 3.74174
    endloop
  endfacet
  facet normal 0.207912 -0.978148 0
    outer loop
      vertex 3.39919 -10.4616 3.34511
      vertex 1.14981 -10.9397 0
      vertex 3.39919 -10.4616 0
    endloop
  endfacet
  facet normal 0.587785 -0.809017 0
    outer loop
      vertex 5.5 -9.52628 0
      vertex 7.36044 -8.17459 2.64664
      vertex 5.5 -9.52628 2.97468
    endloop
  endfacet
  facet normal 0.587785 -0.809017 0
    outer loop
      vertex 7.36044 -8.17459 2.64664
      vertex 5.5 -9.52628 0
      vertex 7.36044 -8.17459 0
    endloop
  endfacet
  facet normal 0.743145 -0.66913 0
    outer loop
      vertex 7.36044 -8.17459 0
      vertex 8.89919 -6.46564 2.37531
      vertex 7.36044 -8.17459 2.64664
    endloop
  endfacet
  facet normal 0.743145 -0.66913 0
    outer loop
      vertex 8.89919 -6.46564 2.37531
      vertex 7.36044 -8.17459 0
      vertex 8.89919 -6.46564 0
    endloop
  endfacet
  facet normal 0.951057 -0.309017 0
    outer loop
      vertex 10.049 -4.4741 0
      vertex 10.7596 -2.28703 2.04727
      vertex 10.049 -4.4741 2.17257
    endloop
  endfacet
  facet normal 0.951057 -0.309017 0
    outer loop
      vertex 10.7596 -2.28703 2.04727
      vertex 10.049 -4.4741 0
      vertex 10.7596 -2.28703 0
    endloop
  endfacet
  facet normal -0.587785 -0.809017 0
    outer loop
      vertex -7.36044 -8.17459 0
      vertex -5.5 -9.52628 4.91428
      vertex -7.36044 -8.17459 5.24232
    endloop
  endfacet
  facet normal -0.587785 -0.809017 -0
    outer loop
      vertex -5.5 -9.52628 4.91428
      vertex -7.36044 -8.17459 0
      vertex -5.5 -9.52628 0
    endloop
  endfacet
  facet normal -0.866025 -0.5 -0
    outer loop
      vertex -8.89919 -6.46564 5.51365
      vertex -10.049 -4.4741 0
      vertex -8.89919 -6.46564 0
    endloop
  endfacet
  facet normal -0.866025 -0.5 0
    outer loop
      vertex -10.049 -4.4741 0
      vertex -8.89919 -6.46564 5.51365
      vertex -10.049 -4.4741 5.71639
    endloop
  endfacet
  facet normal -0.743145 -0.66913 -0
    outer loop
      vertex -7.36044 -8.17459 5.24232
      vertex -8.89919 -6.46564 0
      vertex -7.36044 -8.17459 0
    endloop
  endfacet
  facet normal -0.743145 -0.66913 0
    outer loop
      vertex -8.89919 -6.46564 0
      vertex -7.36044 -8.17459 5.24232
      vertex -8.89919 -6.46564 5.51365
    endloop
  endfacet
  facet normal 0.406737 -0.913545 0
    outer loop
      vertex 3.39919 -10.4616 0
      vertex 5.5 -9.52628 2.97468
      vertex 3.39919 -10.4616 3.34511
    endloop
  endfacet
  facet normal 0.406737 -0.913545 0
    outer loop
      vertex 5.5 -9.52628 2.97468
      vertex 3.39919 -10.4616 0
      vertex 5.5 -9.52628 0
    endloop
  endfacet
  facet normal -0.207912 -0.978148 0
    outer loop
      vertex -3.39919 -10.4616 0
      vertex -1.14981 -10.9397 4.14722
      vertex -3.39919 -10.4616 4.54385
    endloop
  endfacet
  facet normal -0.207912 -0.978148 -0
    outer loop
      vertex -1.14981 -10.9397 4.14722
      vertex -3.39919 -10.4616 0
      vertex -1.14981 -10.9397 0
    endloop
  endfacet
  facet normal -0.951057 -0.309017 -0
    outer loop
      vertex -10.049 -4.4741 5.71639
      vertex -10.7596 -2.28703 0
      vertex -10.049 -4.4741 0
    endloop
  endfacet
  facet normal -0.951057 -0.309017 0
    outer loop
      vertex -10.7596 -2.28703 0
      vertex -10.049 -4.4741 5.71639
      vertex -10.7596 -2.28703 5.84169
    endloop
  endfacet
  facet normal -0.994522 -0.104529 -0
    outer loop
      vertex -10.7596 -2.28703 5.84169
      vertex -11 0 0
      vertex -10.7596 -2.28703 0
    endloop
  endfacet
  facet normal -0.994522 -0.104529 0
    outer loop
      vertex -11 0 0
      vertex -10.7596 -2.28703 5.84169
      vertex -11 0 5.88408
    endloop
  endfacet
  facet normal -0.406737 -0.913545 0
    outer loop
      vertex -5.5 -9.52628 0
      vertex -3.39919 -10.4616 4.54385
      vertex -5.5 -9.52628 4.91428
    endloop
  endfacet
  facet normal -0.406737 -0.913545 -0
    outer loop
      vertex -3.39919 -10.4616 4.54385
      vertex -5.5 -9.52628 0
      vertex -3.39919 -10.4616 0
    endloop
  endfacet
  facet normal -0.994522 -0.104529 -0
    outer loop
      vertex 10 0 2.18121
      vertex 9.78148 2.07912 0
      vertex 10 0 0
    endloop
  endfacet
  facet normal -0.994522 -0.104529 0
    outer loop
      vertex 9.78148 2.07912 0
      vertex 10 0 2.18121
      vertex 9.78148 2.07912 2.21974
    endloop
  endfacet
  facet normal 0.994522 -0.104529 0
    outer loop
      vertex -10 0 0
      vertex -9.78148 2.07912 5.66922
      vertex -10 0 5.70775
    endloop
  endfacet
  facet normal 0.994522 -0.104529 0
    outer loop
      vertex -9.78148 2.07912 5.66922
      vertex -10 0 0
      vertex -9.78148 2.07912 0
    endloop
  endfacet
  facet normal 0 -1 0
    outer loop
      vertex -1.04528 9.94522 0
      vertex 1.04528 9.94522 3.76017
      vertex -1.04528 9.94522 4.12879
    endloop
  endfacet
  facet normal 0 -1 -0
    outer loop
      vertex 1.04528 9.94522 3.76017
      vertex -1.04528 9.94522 0
      vertex 1.04528 9.94522 0
    endloop
  endfacet
  facet normal 0 1 0
    outer loop
      vertex -1.04528 -9.94522 0
      vertex 1.04528 -9.94522 3.76017
      vertex 1.04528 -9.94522 0
    endloop
  endfacet
  facet normal 0 1 0
    outer loop
      vertex 1.04528 -9.94522 3.76017
      vertex -1.04528 -9.94522 0
      vertex -1.04528 -9.94522 4.12879
    endloop
  endfacet
  facet normal -0.587785 -0.809017 0
    outer loop
      vertex 5 8.66025 0
      vertex 6.69131 7.43145 2.76462
      vertex 5 8.66025 3.06284
    endloop
  endfacet
  facet normal -0.587785 -0.809017 -0
    outer loop
      vertex 6.69131 7.43145 2.76462
      vertex 5 8.66025 0
      vertex 6.69131 7.43145 0
    endloop
  endfacet
  facet normal -0.406737 -0.913545 0
    outer loop
      vertex 3.09017 9.51056 0
      vertex 5 8.66025 3.06284
      vertex 3.09017 9.51056 3.3996
    endloop
  endfacet
  facet normal -0.406737 -0.913545 -0
    outer loop
      vertex 5 8.66025 3.06284
      vertex 3.09017 9.51056 0
      vertex 5 8.66025 0
    endloop
  endfacet
  facet normal 0.743145 -0.669131 0
    outer loop
      vertex -8.09017 5.87785 0
      vertex -6.69131 7.43145 5.12434
      vertex -8.09017 5.87785 5.37099
    endloop
  endfacet
  facet normal 0.743145 -0.669131 0
    outer loop
      vertex -6.69131 7.43145 5.12434
      vertex -8.09017 5.87785 0
      vertex -6.69131 7.43145 0
    endloop
  endfacet
  facet normal 0.866026 -0.5 0
    outer loop
      vertex -9.13545 4.06737 0
      vertex -8.09017 5.87785 5.37099
      vertex -9.13545 4.06737 5.55531
    endloop
  endfacet
  facet normal 0.866026 -0.5 0
    outer loop
      vertex -8.09017 5.87785 5.37099
      vertex -9.13545 4.06737 0
      vertex -8.09017 5.87785 0
    endloop
  endfacet
  facet normal 0.406737 -0.913545 0
    outer loop
      vertex -5 8.66025 0
      vertex -3.09017 9.51056 4.48936
      vertex -5 8.66025 4.82611
    endloop
  endfacet
  facet normal 0.406737 -0.913545 0
    outer loop
      vertex -3.09017 9.51056 4.48936
      vertex -5 8.66025 0
      vertex -3.09017 9.51056 0
    endloop
  endfacet
  facet normal -0.866026 -0.5 -0
    outer loop
      vertex 9.13545 4.06737 2.33365
      vertex 8.09017 5.87785 0
      vertex 9.13545 4.06737 0
    endloop
  endfacet
  facet normal -0.866026 -0.5 0
    outer loop
      vertex 8.09017 5.87785 0
      vertex 9.13545 4.06737 2.33365
      vertex 8.09017 5.87785 2.51796
    endloop
  endfacet
  facet normal -0.951057 -0.309017 -0
    outer loop
      vertex 9.78148 2.07912 2.21974
      vertex 9.13545 4.06737 0
      vertex 9.78148 2.07912 0
    endloop
  endfacet
  facet normal -0.951057 -0.309017 0
    outer loop
      vertex 9.13545 4.06737 0
      vertex 9.78148 2.07912 2.21974
      vertex 9.13545 4.06737 2.33365
    endloop
  endfacet
  facet normal -0.743145 -0.669131 -0
    outer loop
      vertex 8.09017 5.87785 2.51796
      vertex 6.69131 7.43145 0
      vertex 8.09017 5.87785 0
    endloop
  endfacet
  facet normal -0.743145 -0.669131 0
    outer loop
      vertex 6.69131 7.43145 0
      vertex 8.09017 5.87785 2.51796
      vertex 6.69131 7.43145 2.76462
    endloop
  endfacet
  facet normal -0.207911 -0.978148 0
    outer loop
      vertex 1.04528 9.94522 0
      vertex 3.09017 9.51056 3.3996
      vertex 1.04528 9.94522 3.76017
    endloop
  endfacet
  facet normal -0.207911 -0.978148 -0
    outer loop
      vertex 3.09017 9.51056 3.3996
      vertex 1.04528 9.94522 0
      vertex 3.09017 9.51056 0
    endloop
  endfacet
  facet normal 0.951057 -0.309017 0
    outer loop
      vertex -9.78148 2.07912 0
      vertex -9.13545 4.06737 5.55531
      vertex -9.78148 2.07912 5.66922
    endloop
  endfacet
  facet normal 0.951057 -0.309017 0
    outer loop
      vertex -9.13545 4.06737 5.55531
      vertex -9.78148 2.07912 0
      vertex -9.13545 4.06737 0
    endloop
  endfacet
  facet normal 0.587785 -0.809017 0
    outer loop
      vertex -6.69131 7.43145 0
      vertex -5 8.66025 4.82611
      vertex -6.69131 7.43145 5.12434
    endloop
  endfacet
  facet normal 0.587785 -0.809017 0
    outer loop
      vertex -5 8.66025 4.82611
      vertex -6.69131 7.43145 0
      vertex -5 8.66025 0
    endloop
  endfacet
  facet normal 0.207911 -0.978148 0
    outer loop
      vertex -3.09017 9.51056 0
      vertex -1.04528 9.94522 4.12879
      vertex -3.09017 9.51056 4.48936
    endloop
  endfacet
  facet normal 0.207911 -0.978148 0
    outer loop
      vertex -1.04528 9.94522 4.12879
      vertex -3.09017 9.51056 0
      vertex -1.04528 9.94522 0
    endloop
  endfacet
  facet normal -0.994522 0.104529 0
    outer loop
      vertex 9.78148 -2.07912 0
      vertex 10 0 2.18121
      vertex 10 0 0
    endloop
  endfacet
  facet normal -0.994522 0.104529 0
    outer loop
      vertex 10 0 2.18121
      vertex 9.78148 -2.07912 0
      vertex 9.78148 -2.07912 2.21974
    endloop
  endfacet
  facet normal -0.207911 0.978148 0
    outer loop
      vertex 1.04528 -9.94522 0
      vertex 3.09017 -9.51056 3.3996
      vertex 3.09017 -9.51056 0
    endloop
  endfacet
  facet normal -0.207911 0.978148 0
    outer loop
      vertex 3.09017 -9.51056 3.3996
      vertex 1.04528 -9.94522 0
      vertex 1.04528 -9.94522 3.76017
    endloop
  endfacet
  facet normal -0.743145 0.669131 0
    outer loop
      vertex 6.69131 -7.43145 0
      vertex 8.09017 -5.87785 2.51796
      vertex 8.09017 -5.87785 0
    endloop
  endfacet
  facet normal -0.743145 0.669131 0
    outer loop
      vertex 8.09017 -5.87785 2.51796
      vertex 6.69131 -7.43145 0
      vertex 6.69131 -7.43145 2.76462
    endloop
  endfacet
  facet normal -0.951057 0.309017 0
    outer loop
      vertex 9.13545 -4.06737 0
      vertex 9.78148 -2.07912 2.21974
      vertex 9.78148 -2.07912 0
    endloop
  endfacet
  facet normal -0.951057 0.309017 0
    outer loop
      vertex 9.78148 -2.07912 2.21974
      vertex 9.13545 -4.06737 0
      vertex 9.13545 -4.06737 2.33365
    endloop
  endfacet
  facet normal -0.866026 0.5 0
    outer loop
      vertex 8.09017 -5.87785 0
      vertex 9.13545 -4.06737 2.33365
      vertex 9.13545 -4.06737 0
    endloop
  endfacet
  facet normal -0.866026 0.5 0
    outer loop
      vertex 9.13545 -4.06737 2.33365
      vertex 8.09017 -5.87785 0
      vertex 8.09017 -5.87785 2.51796
    endloop
  endfacet
  facet normal 0.866026 0.5 0
    outer loop
      vertex -8.09017 -5.87785 5.37099
      vertex -9.13545 -4.06737 0
      vertex -9.13545 -4.06737 5.55531
    endloop
  endfacet
  facet normal 0.866026 0.5 0
    outer loop
      vertex -9.13545 -4.06737 0
      vertex -8.09017 -5.87785 5.37099
      vertex -8.09017 -5.87785 0
    endloop
  endfacet
  facet normal -0.587785 0.809017 0
    outer loop
      vertex 5 -8.66025 0
      vertex 6.69131 -7.43145 2.76462
      vertex 6.69131 -7.43145 0
    endloop
  endfacet
  facet normal -0.587785 0.809017 0
    outer loop
      vertex 6.69131 -7.43145 2.76462
      vertex 5 -8.66025 0
      vertex 5 -8.66025 3.06284
    endloop
  endfacet
  facet normal -0.406737 0.913545 0
    outer loop
      vertex 3.09017 -9.51056 0
      vertex 5 -8.66025 3.06284
      vertex 5 -8.66025 0
    endloop
  endfacet
  facet normal -0.406737 0.913545 0
    outer loop
      vertex 5 -8.66025 3.06284
      vertex 3.09017 -9.51056 0
      vertex 3.09017 -9.51056 3.3996
    endloop
  endfacet
  facet normal 0.207911 0.978148 0
    outer loop
      vertex -3.09017 -9.51056 0
      vertex -1.04528 -9.94522 4.12879
      vertex -1.04528 -9.94522 0
    endloop
  endfacet
  facet normal 0.207911 0.978148 0
    outer loop
      vertex -1.04528 -9.94522 4.12879
      vertex -3.09017 -9.51056 0
      vertex -3.09017 -9.51056 4.48936
    endloop
  endfacet
  facet normal 0.406737 0.913545 0
    outer loop
      vertex -5 -8.66025 0
      vertex -3.09017 -9.51056 4.48936
      vertex -3.09017 -9.51056 0
    endloop
  endfacet
  facet normal 0.406737 0.913545 0
    outer loop
      vertex -3.09017 -9.51056 4.48936
      vertex -5 -8.66025 0
      vertex -5 -8.66025 4.82611
    endloop
  endfacet
  facet normal 0.743145 0.669131 0
    outer loop
      vertex -6.69131 -7.43145 5.12434
      vertex -8.09017 -5.87785 0
      vertex -8.09017 -5.87785 5.37099
    endloop
  endfacet
  facet normal 0.743145 0.669131 0
    outer loop
      vertex -8.09017 -5.87785 0
      vertex -6.69131 -7.43145 5.12434
      vertex -6.69131 -7.43145 0
    endloop
  endfacet
  facet normal 0.951057 0.309017 0
    outer loop
      vertex -9.13545 -4.06737 5.55531
      vertex -9.78148 -2.07912 0
      vertex -9.78148 -2.07912 5.66922
    endloop
  endfacet
  facet normal 0.951057 0.309017 0
    outer loop
      vertex -9.78148 -2.07912 0
      vertex -9.13545 -4.06737 5.55531
      vertex -9.13545 -4.06737 0
    endloop
  endfacet
  facet normal 0.994522 0.104529 0
    outer loop
      vertex -9.78148 -2.07912 5.66922
      vertex -10 0 0
      vertex -10 0 5.70775
    endloop
  endfacet
  facet normal 0.994522 0.104529 0
    outer loop
      vertex -10 0 0
      vertex -9.78148 -2.07912 5.66922
      vertex -9.78148 -2.07912 0
    endloop
  endfacet
  facet normal 0.587785 0.809017 0
    outer loop
      vertex -6.69131 -7.43145 0
      vertex -5 -8.66025 4.82611
      vertex -5 -8.66025 0
    endloop
  endfacet
  facet normal 0.587785 0.809017 0
    outer loop
      vertex -5 -8.66025 4.82611
      vertex -6.69131 -7.43145 0
      vertex -6.69131 -7.43145 5.12434
    endloop
  endfacet
  facet normal 0.173648 -1.2966e-009 0.984808
    outer loop
      vertex 10 0 2.18121
      vertex 11 0 2.00488
      vertex 10.7596 2.28703 2.04727
    endloop
  endfacet
  facet normal 0.173648 -1.87143e-008 0.984808
    outer loop
      vertex 9.78148 2.07912 2.21974
      vertex 10.7596 2.28703 2.04727
      vertex 10.049 4.4741 2.17257
    endloop
  endfacet
  facet normal 0.173648 1.2966e-009 0.984808
    outer loop
      vertex 11 0 2.00488
      vertex 10 0 2.18121
      vertex 10.7596 -2.28703 2.04727
    endloop
  endfacet
  facet normal 0.173648 6.32716e-008 0.984808
    outer loop
      vertex 9.78148 -2.07912 2.21974
      vertex 10.7596 -2.28703 2.04727
      vertex 10 0 2.18121
    endloop
  endfacet
  facet normal 0.173648 -6.32716e-008 0.984808
    outer loop
      vertex 10.7596 2.28703 2.04727
      vertex 9.78148 2.07912 2.21974
      vertex 10 0 2.18121
    endloop
  endfacet
  facet normal 0.173648 1.49336e-009 0.984808
    outer loop
      vertex 10.049 4.4741 2.17257
      vertex 9.13545 4.06737 2.33365
      vertex 9.78148 2.07912 2.21974
    endloop
  endfacet
  facet normal 0.173648 4.85389e-008 0.984808
    outer loop
      vertex 8.89919 6.46564 2.37531
      vertex 9.13545 4.06737 2.33365
      vertex 10.049 4.4741 2.17257
    endloop
  endfacet
  facet normal 0.173648 3.89651e-008 0.984808
    outer loop
      vertex 8.89919 6.46564 2.37531
      vertex 8.09017 5.87785 2.51796
      vertex 9.13545 4.06737 2.33365
    endloop
  endfacet
  facet normal 0.173648 -8.64113e-008 0.984808
    outer loop
      vertex 7.36044 8.17459 2.64664
      vertex 8.09017 5.87785 2.51796
      vertex 8.89919 6.46564 2.37531
    endloop
  endfacet
  facet normal 0.173648 -1.18513e-007 0.984808
    outer loop
      vertex 7.36044 8.17459 2.64664
      vertex 6.69131 7.43145 2.76462
      vertex 8.09017 5.87785 2.51796
    endloop
  endfacet
  facet normal 0.173648 -1.3537e-007 0.984808
    outer loop
      vertex 5.5 9.52628 2.97468
      vertex 6.69131 7.43145 2.76462
      vertex 7.36044 8.17459 2.64664
    endloop
  endfacet
  facet normal 0.173648 -1.03052e-007 0.984808
    outer loop
      vertex 5.5 9.52628 2.97468
      vertex 5 8.66025 3.06284
      vertex 6.69131 7.43145 2.76462
    endloop
  endfacet
  facet normal 0.173648 -1.17602e-007 0.984808
    outer loop
      vertex 3.39919 10.4616 3.34511
      vertex 5 8.66025 3.06284
      vertex 5.5 9.52628 2.97468
    endloop
  endfacet
  facet normal 0.173648 -1.72782e-007 0.984808
    outer loop
      vertex 3.39919 10.4616 3.34511
      vertex 3.09017 9.51056 3.3996
      vertex 5 8.66025 3.06284
    endloop
  endfacet
  facet normal 0.173648 -1.62577e-007 0.984808
    outer loop
      vertex 1.14981 10.9397 3.74174
      vertex 3.09017 9.51056 3.3996
      vertex 3.39919 10.4616 3.34511
    endloop
  endfacet
  facet normal 0.173648 3.90991e-009 0.984808
    outer loop
      vertex 1.14981 10.9397 3.74174
      vertex 1.04528 9.94522 3.76017
      vertex 3.09017 9.51056 3.3996
    endloop
  endfacet
  facet normal 0.173648 -1.18045e-008 0.984808
    outer loop
      vertex 1.14981 10.9397 3.74174
      vertex -1.04528 9.94522 4.12879
      vertex 1.04528 9.94522 3.76017
    endloop
  endfacet
  facet normal 0.173648 1.07314e-008 0.984808
    outer loop
      vertex -1.14981 10.9397 4.14722
      vertex -1.04528 9.94522 4.12879
      vertex 1.14981 10.9397 3.74174
    endloop
  endfacet
  facet normal 0.173648 -3.90991e-009 0.984808
    outer loop
      vertex -1.14981 10.9397 4.14722
      vertex -3.09017 9.51056 4.48936
      vertex -1.04528 9.94522 4.12879
    endloop
  endfacet
  facet normal 0.173648 1.62577e-007 0.984808
    outer loop
      vertex -3.39919 10.4616 4.54385
      vertex -3.09017 9.51056 4.48936
      vertex -1.14981 10.9397 4.14722
    endloop
  endfacet
  facet normal 0.173648 1.62498e-007 0.984808
    outer loop
      vertex -3.39919 10.4616 4.54385
      vertex -5 8.66025 4.82611
      vertex -3.09017 9.51056 4.48936
    endloop
  endfacet
  facet normal 0.173648 1.02475e-007 0.984808
    outer loop
      vertex -5.5 9.52628 4.91428
      vertex -5 8.66025 4.82611
      vertex -3.39919 10.4616 4.54385
    endloop
  endfacet
  facet normal 0.173648 1.19692e-007 0.984808
    outer loop
      vertex -5.5 9.52628 4.91428
      vertex -6.69131 7.43145 5.12434
      vertex -5 8.66025 4.82611
    endloop
  endfacet
  facet normal 0.173648 1.55615e-007 0.984808
    outer loop
      vertex -7.36044 8.17459 5.24232
      vertex -6.69131 7.43145 5.12434
      vertex -5.5 9.52628 4.91428
    endloop
  endfacet
  facet normal 0.173648 4.29474e-008 0.984808
    outer loop
      vertex -7.36044 8.17459 5.24232
      vertex -8.09017 5.87785 5.37099
      vertex -6.69131 7.43145 5.12434
    endloop
  endfacet
  facet normal 0.173648 -7.15637e-008 0.984808
    outer loop
      vertex -8.89919 6.46564 5.51365
      vertex -8.09017 5.87785 5.37099
      vertex -7.36044 8.17459 5.24232
    endloop
  endfacet
  facet normal 0.173648 -6.56471e-008 0.984808
    outer loop
      vertex -8.89919 6.46564 5.51365
      vertex -9.13545 4.06737 5.55531
      vertex -8.09017 5.87785 5.37099
    endloop
  endfacet
  facet normal 0.173648 -4.85389e-008 0.984808
    outer loop
      vertex -10.049 4.4741 5.71639
      vertex -9.13545 4.06737 5.55531
      vertex -8.89919 6.46564 5.51365
    endloop
  endfacet
  facet normal 0.173649 -5.42414e-008 0.984808
    outer loop
      vertex -10.7596 2.28703 5.84169
      vertex -9.78148 2.07912 5.66922
      vertex -10.049 4.4741 5.71639
    endloop
  endfacet
  facet normal 0.173648 -1.04661e-007 0.984808
    outer loop
      vertex -9.13545 4.06737 5.55531
      vertex -10.049 4.4741 5.71639
      vertex -9.78148 2.07912 5.66922
    endloop
  endfacet
  facet normal 0.173648 1.87143e-008 0.984808
    outer loop
      vertex 10.7596 -2.28703 2.04727
      vertex 9.78148 -2.07912 2.21974
      vertex 10.049 -4.4741 2.17257
    endloop
  endfacet
  facet normal 0.173648 -1.49336e-009 0.984808
    outer loop
      vertex 9.13545 -4.06737 2.33365
      vertex 10.049 -4.4741 2.17257
      vertex 9.78148 -2.07912 2.21974
    endloop
  endfacet
  facet normal 0.173648 -4.85389e-008 0.984808
    outer loop
      vertex 9.13545 -4.06737 2.33365
      vertex 8.89919 -6.46564 2.37531
      vertex 10.049 -4.4741 2.17257
    endloop
  endfacet
  facet normal 0.173648 -3.89651e-008 0.984808
    outer loop
      vertex 8.09017 -5.87785 2.51796
      vertex 8.89919 -6.46564 2.37531
      vertex 9.13545 -4.06737 2.33365
    endloop
  endfacet
  facet normal 0.173648 8.64113e-008 0.984808
    outer loop
      vertex 8.09017 -5.87785 2.51796
      vertex 7.36044 -8.17459 2.64664
      vertex 8.89919 -6.46564 2.37531
    endloop
  endfacet
  facet normal 0.173648 1.18513e-007 0.984808
    outer loop
      vertex 6.69131 -7.43145 2.76462
      vertex 7.36044 -8.17459 2.64664
      vertex 8.09017 -5.87785 2.51796
    endloop
  endfacet
  facet normal 0.173648 1.3537e-007 0.984808
    outer loop
      vertex 6.69131 -7.43145 2.76462
      vertex 5.5 -9.52628 2.97468
      vertex 7.36044 -8.17459 2.64664
    endloop
  endfacet
  facet normal 0.173648 1.03052e-007 0.984808
    outer loop
      vertex 5 -8.66025 3.06284
      vertex 5.5 -9.52628 2.97468
      vertex 6.69131 -7.43145 2.76462
    endloop
  endfacet
  facet normal 0.173648 1.17602e-007 0.984808
    outer loop
      vertex 5 -8.66025 3.06284
      vertex 3.39919 -10.4616 3.34511
      vertex 5.5 -9.52628 2.97468
    endloop
  endfacet
  facet normal 0.173648 1.72782e-007 0.984808
    outer loop
      vertex 3.09017 -9.51056 3.3996
      vertex 3.39919 -10.4616 3.34511
      vertex 5 -8.66025 3.06284
    endloop
  endfacet
  facet normal 0.173648 1.62577e-007 0.984808
    outer loop
      vertex 3.09017 -9.51056 3.3996
      vertex 1.14981 -10.9397 3.74174
      vertex 3.39919 -10.4616 3.34511
    endloop
  endfacet
  facet normal 0.173648 -3.90991e-009 0.984808
    outer loop
      vertex 1.04528 -9.94522 3.76017
      vertex 1.14981 -10.9397 3.74174
      vertex 3.09017 -9.51056 3.3996
    endloop
  endfacet
  facet normal 0.173648 1.18045e-008 0.984808
    outer loop
      vertex -1.04528 -9.94522 4.12879
      vertex 1.14981 -10.9397 3.74174
      vertex 1.04528 -9.94522 3.76017
    endloop
  endfacet
  facet normal 0.173648 -1.07314e-008 0.984808
    outer loop
      vertex -1.04528 -9.94522 4.12879
      vertex -1.14981 -10.9397 4.14722
      vertex 1.14981 -10.9397 3.74174
    endloop
  endfacet
  facet normal 0.173648 3.90991e-009 0.984808
    outer loop
      vertex -3.09017 -9.51056 4.48936
      vertex -1.14981 -10.9397 4.14722
      vertex -1.04528 -9.94522 4.12879
    endloop
  endfacet
  facet normal 0.173648 -1.62577e-007 0.984808
    outer loop
      vertex -3.09017 -9.51056 4.48936
      vertex -3.39919 -10.4616 4.54385
      vertex -1.14981 -10.9397 4.14722
    endloop
  endfacet
  facet normal 0.173648 -1.37885e-007 0.984808
    outer loop
      vertex -5 -8.66025 4.82611
      vertex -3.39919 -10.4616 4.54385
      vertex -3.09017 -9.51056 4.48936
    endloop
  endfacet
  facet normal 0.173648 -6.62699e-008 0.984808
    outer loop
      vertex -5 -8.66025 4.82611
      vertex -5.5 -9.52628 4.91428
      vertex -3.39919 -10.4616 4.54385
    endloop
  endfacet
  facet normal 0.173648 -1.59517e-007 0.984808
    outer loop
      vertex -6.69131 -7.43145 5.12434
      vertex -5.5 -9.52628 4.91428
      vertex -5 -8.66025 4.82611
    endloop
  endfacet
  facet normal 0.173648 -2.04066e-007 0.984808
    outer loop
      vertex -6.69131 -7.43145 5.12434
      vertex -7.36044 -8.17459 5.24232
      vertex -5.5 -9.52628 4.91428
    endloop
  endfacet
  facet normal 0.173648 -4.29474e-008 0.984808
    outer loop
      vertex -8.09017 -5.87785 5.37099
      vertex -7.36044 -8.17459 5.24232
      vertex -6.69131 -7.43145 5.12434
    endloop
  endfacet
  facet normal 0.173648 7.15637e-008 0.984808
    outer loop
      vertex -8.09017 -5.87785 5.37099
      vertex -8.89919 -6.46564 5.51365
      vertex -7.36044 -8.17459 5.24232
    endloop
  endfacet
  facet normal 0.173648 6.56471e-008 0.984808
    outer loop
      vertex -9.13545 -4.06737 5.55531
      vertex -8.89919 -6.46564 5.51365
      vertex -8.09017 -5.87785 5.37099
    endloop
  endfacet
  facet normal 0.173648 1.04661e-007 0.984808
    outer loop
      vertex -10.049 -4.4741 5.71639
      vertex -9.13545 -4.06737 5.55531
      vertex -9.78148 -2.07912 5.66922
    endloop
  endfacet
  facet normal 0.173648 4.85389e-008 0.984808
    outer loop
      vertex -9.13545 -4.06737 5.55531
      vertex -10.049 -4.4741 5.71639
      vertex -8.89919 -6.46564 5.51365
    endloop
  endfacet
  facet normal 0.173649 -1.49056e-007 0.984808
    outer loop
      vertex -10.7596 -2.28703 5.84169
      vertex -9.78148 -2.07912 5.66922
      vertex -10 0 5.70775
    endloop
  endfacet
  facet normal 0.173649 1.49056e-007 0.984808
    outer loop
      vertex -9.78148 2.07912 5.66922
      vertex -10.7596 2.28703 5.84169
      vertex -10 0 5.70775
    endloop
  endfacet
  facet normal 0.173648 -7.66897e-008 0.984808
    outer loop
      vertex -11 0 5.88408
      vertex -10 0 5.70775
      vertex -10.7596 2.28703 5.84169
    endloop
  endfacet
  facet normal 0.173649 5.42414e-008 0.984808
    outer loop
      vertex -9.78148 -2.07912 5.66922
      vertex -10.7596 -2.28703 5.84169
      vertex -10.049 -4.4741 5.71639
    endloop
  endfacet
  facet normal 0.173648 7.66897e-008 0.984808
    outer loop
      vertex -10 0 5.70775
      vertex -11 0 5.88408
      vertex -10.7596 -2.28703 5.84169
    endloop
  endfacet
endsolid OpenSCAD_Model
