solid OpenSCAD_Model
  facet normal -1 0 0
    outer loop
      vertex 0 0 0
      vertex 0 12.6 14.5
      vertex 0 12.6 0
    endloop
  endfacet
  facet normal -1 -0 0
    outer loop
      vertex 0 12.6 14.5
      vertex 0 0 0
      vertex 0 0 14.5
    endloop
  endfacet
  facet normal 0 0 1
    outer loop
      vertex 17.4 13.5 15
      vertex 16.9 12.8 15
      vertex 17.4 -0.5 15
    endloop
  endfacet
  facet normal 0 0 1
    outer loop
      vertex 17.4 13.5 15
      vertex -0.5 12.8 15
      vertex 16.9 12.8 15
    endloop
  endfacet
  facet normal 0 0 1
    outer loop
      vertex -1 -0.5 15
      vertex -0.5 12.8 15
      vertex -1 13.5 15
    endloop
  endfacet
  facet normal -0 0 1
    outer loop
      vertex -1 13.5 15
      vertex -0.5 12.8 15
      vertex 17.4 13.5 15
    endloop
  endfacet
  facet normal -0 0 1
    outer loop
      vertex 16.9 -0.2 15
      vertex 17.4 -0.5 15
      vertex 16.9 12.8 15
    endloop
  endfacet
  facet normal -0 0 1
    outer loop
      vertex -0.5 -0.2 15
      vertex 17.4 -0.5 15
      vertex 16.9 -0.2 15
    endloop
  endfacet
  facet normal 0 0 1
    outer loop
      vertex -0.5 -0.2 15
      vertex -1 -0.5 15
      vertex 17.4 -0.5 15
    endloop
  endfacet
  facet normal 0 0 1
    outer loop
      vertex -0.5 12.8 15
      vertex -1 -0.5 15
      vertex -0.5 -0.2 15
    endloop
  endfacet
  facet normal 1 -0 0
    outer loop
      vertex 16.4 0 14.5
      vertex 16.4 12.6 0
      vertex 16.4 12.6 14.5
    endloop
  endfacet
  facet normal 1 0 0
    outer loop
      vertex 16.4 12.6 0
      vertex 16.4 0 14.5
      vertex 16.4 0 0
    endloop
  endfacet
  facet normal 0 0 -1
    outer loop
      vertex 16.4 0 0
      vertex 15.2 1.2 0
      vertex 16.4 12.6 0
    endloop
  endfacet
  facet normal 0 0 -1
    outer loop
      vertex 16.4 0 0
      vertex 1.2 1.2 0
      vertex 15.2 1.2 0
    endloop
  endfacet
  facet normal 0 0 -1
    outer loop
      vertex 0 12.6 0
      vertex 1.2 1.2 0
      vertex 0 0 0
    endloop
  endfacet
  facet normal 0 0 -1
    outer loop
      vertex 0 0 0
      vertex 1.2 1.2 0
      vertex 16.4 0 0
    endloop
  endfacet
  facet normal 0 0 -1
    outer loop
      vertex 15.2 11.8 0
      vertex 16.4 12.6 0
      vertex 15.2 1.2 0
    endloop
  endfacet
  facet normal 0 0 -1
    outer loop
      vertex 1.2 11.8 0
      vertex 16.4 12.6 0
      vertex 15.2 11.8 0
    endloop
  endfacet
  facet normal 0 0 -1
    outer loop
      vertex 1.2 11.8 0
      vertex 0 12.6 0
      vertex 16.4 12.6 0
    endloop
  endfacet
  facet normal 0 0 -1
    outer loop
      vertex 1.2 1.2 0
      vertex 0 12.6 0
      vertex 1.2 11.8 0
    endloop
  endfacet
  facet normal 0 -1 0
    outer loop
      vertex 0 0 0
      vertex 16.4 0 14.5
      vertex 0 0 14.5
    endloop
  endfacet
  facet normal 0 -1 -0
    outer loop
      vertex 16.4 0 14.5
      vertex 0 0 0
      vertex 16.4 0 0
    endloop
  endfacet
  facet normal 0 1 -0
    outer loop
      vertex 16.4 12.6 0
      vertex 0 12.6 14.5
      vertex 16.4 12.6 14.5
    endloop
  endfacet
  facet normal 0 1 0
    outer loop
      vertex 0 12.6 14.5
      vertex 16.4 12.6 0
      vertex 0 12.6 0
    endloop
  endfacet
  facet normal -1 0 0
    outer loop
      vertex -0.5 -0.2 15
      vertex -0.5 12.8 22
      vertex -0.5 12.8 15
    endloop
  endfacet
  facet normal -1 -0 0
    outer loop
      vertex -0.5 12.8 22
      vertex -0.5 -0.2 15
      vertex -0.5 -0.2 22
    endloop
  endfacet
  facet normal 0 0 1
    outer loop
      vertex 15.2 1.2 22
      vertex 16.9 12.8 22
      vertex 15.2 11.8 22
    endloop
  endfacet
  facet normal 0 0 1
    outer loop
      vertex 16.9 12.8 22
      vertex 1.2 11.8 22
      vertex 15.2 11.8 22
    endloop
  endfacet
  facet normal 0 0 1
    outer loop
      vertex 1.2 11.8 22
      vertex -0.5 12.8 22
      vertex 1.2 1.2 22
    endloop
  endfacet
  facet normal -0 0 1
    outer loop
      vertex -0.5 12.8 22
      vertex 1.2 11.8 22
      vertex 16.9 12.8 22
    endloop
  endfacet
  facet normal 0 0 1
    outer loop
      vertex 16.9 12.8 22
      vertex 15.2 1.2 22
      vertex 16.9 -0.2 22
    endloop
  endfacet
  facet normal -0 0 1
    outer loop
      vertex 1.2 1.2 22
      vertex 16.9 -0.2 22
      vertex 15.2 1.2 22
    endloop
  endfacet
  facet normal 0 0 1
    outer loop
      vertex 1.2 1.2 22
      vertex -0.5 -0.2 22
      vertex 16.9 -0.2 22
    endloop
  endfacet
  facet normal 0 0 1
    outer loop
      vertex -0.5 -0.2 22
      vertex 1.2 1.2 22
      vertex -0.5 12.8 22
    endloop
  endfacet
  facet normal 1 -0 0
    outer loop
      vertex 16.9 -0.2 22
      vertex 16.9 12.8 15
      vertex 16.9 12.8 22
    endloop
  endfacet
  facet normal 1 0 0
    outer loop
      vertex 16.9 12.8 15
      vertex 16.9 -0.2 22
      vertex 16.9 -0.2 15
    endloop
  endfacet
  facet normal 0 1 -0
    outer loop
      vertex 16.9 12.8 15
      vertex -0.5 12.8 22
      vertex 16.9 12.8 22
    endloop
  endfacet
  facet normal 0 1 0
    outer loop
      vertex -0.5 12.8 22
      vertex 16.9 12.8 15
      vertex -0.5 12.8 15
    endloop
  endfacet
  facet normal 0 -1 0
    outer loop
      vertex -0.5 -0.2 15
      vertex 16.9 -0.2 22
      vertex -0.5 -0.2 22
    endloop
  endfacet
  facet normal 0 -1 -0
    outer loop
      vertex 16.9 -0.2 22
      vertex -0.5 -0.2 15
      vertex 16.9 -0.2 15
    endloop
  endfacet
  facet normal -1 0 0
    outer loop
      vertex -1 -0.5 14.5
      vertex -1 13.5 15
      vertex -1 13.5 14.5
    endloop
  endfacet
  facet normal -1 -0 0
    outer loop
      vertex -1 13.5 15
      vertex -1 -0.5 14.5
      vertex -1 -0.5 15
    endloop
  endfacet
  facet normal 1 -0 0
    outer loop
      vertex 17.4 -0.5 15
      vertex 17.4 13.5 14.5
      vertex 17.4 13.5 15
    endloop
  endfacet
  facet normal 1 0 0
    outer loop
      vertex 17.4 13.5 14.5
      vertex 17.4 -0.5 15
      vertex 17.4 -0.5 14.5
    endloop
  endfacet
  facet normal 0 1 -0
    outer loop
      vertex 17.4 13.5 14.5
      vertex -1 13.5 15
      vertex 17.4 13.5 15
    endloop
  endfacet
  facet normal 0 1 0
    outer loop
      vertex -1 13.5 15
      vertex 17.4 13.5 14.5
      vertex -1 13.5 14.5
    endloop
  endfacet
  facet normal 0 0 -1
    outer loop
      vertex 16.4 12.6 14.5
      vertex 17.4 -0.5 14.5
      vertex 16.4 0 14.5
    endloop
  endfacet
  facet normal 0 0 -1
    outer loop
      vertex 17.4 -0.5 14.5
      vertex 0 0 14.5
      vertex 16.4 0 14.5
    endloop
  endfacet
  facet normal -0 0 -1
    outer loop
      vertex 0 0 14.5
      vertex -1 -0.5 14.5
      vertex 0 12.6 14.5
    endloop
  endfacet
  facet normal 0 0 -1
    outer loop
      vertex -1 -0.5 14.5
      vertex 0 0 14.5
      vertex 17.4 -0.5 14.5
    endloop
  endfacet
  facet normal 0 0 -1
    outer loop
      vertex 17.4 -0.5 14.5
      vertex 16.4 12.6 14.5
      vertex 17.4 13.5 14.5
    endloop
  endfacet
  facet normal 0 0 -1
    outer loop
      vertex 0 12.6 14.5
      vertex 17.4 13.5 14.5
      vertex 16.4 12.6 14.5
    endloop
  endfacet
  facet normal 0 0 -1
    outer loop
      vertex 0 12.6 14.5
      vertex -1 13.5 14.5
      vertex 17.4 13.5 14.5
    endloop
  endfacet
  facet normal 0 0 -1
    outer loop
      vertex -1 13.5 14.5
      vertex 0 12.6 14.5
      vertex -1 -0.5 14.5
    endloop
  endfacet
  facet normal 0 -1 0
    outer loop
      vertex -1 -0.5 14.5
      vertex 17.4 -0.5 15
      vertex -1 -0.5 15
    endloop
  endfacet
  facet normal 0 -1 -0
    outer loop
      vertex 17.4 -0.5 15
      vertex -1 -0.5 14.5
      vertex 17.4 -0.5 14.5
    endloop
  endfacet
  facet normal 1 -0 0
    outer loop
      vertex 1.2 1.2 22
      vertex 1.2 11.8 0
      vertex 1.2 11.8 22
    endloop
  endfacet
  facet normal 1 0 0
    outer loop
      vertex 1.2 11.8 0
      vertex 1.2 1.2 22
      vertex 1.2 1.2 0
    endloop
  endfacet
  facet normal -1 0 0
    outer loop
      vertex 15.2 1.2 0
      vertex 15.2 11.8 22
      vertex 15.2 11.8 0
    endloop
  endfacet
  facet normal -1 -0 0
    outer loop
      vertex 15.2 11.8 22
      vertex 15.2 1.2 0
      vertex 15.2 1.2 22
    endloop
  endfacet
  facet normal 0 1 -0
    outer loop
      vertex 15.2 1.2 0
      vertex 1.2 1.2 22
      vertex 15.2 1.2 22
    endloop
  endfacet
  facet normal 0 1 0
    outer loop
      vertex 1.2 1.2 22
      vertex 15.2 1.2 0
      vertex 1.2 1.2 0
    endloop
  endfacet
  facet normal 0 -1 0
    outer loop
      vertex 1.2 11.8 0
      vertex 15.2 11.8 22
      vertex 1.2 11.8 22
    endloop
  endfacet
  facet normal 0 -1 -0
    outer loop
      vertex 15.2 11.8 22
      vertex 1.2 11.8 0
      vertex 15.2 11.8 0
    endloop
  endfacet
endsolid OpenSCAD_Model
