solid OpenSCAD_Model
  facet normal 0.996917 0.0784594 0
    outer loop
      vertex 4 0 1
      vertex 3.95075 0.625737 0
      vertex 3.95075 0.625737 1
    endloop
  endfacet
  facet normal 0.996917 0.0784594 0
    outer loop
      vertex 3.95075 0.625737 0
      vertex 4 0 1
      vertex 4 0 0
    endloop
  endfacet
  facet normal -0.996917 0.0784594 0
    outer loop
      vertex -4 0 0
      vertex -3.95075 0.625737 1
      vertex -3.95075 0.625737 0
    endloop
  endfacet
  facet normal -0.996917 0.0784594 0
    outer loop
      vertex -3.95075 0.625737 1
      vertex -4 0 0
      vertex -4 0 1
    endloop
  endfacet
  facet normal 0.0784594 0.996917 -0
    outer loop
      vertex 0.625737 3.95075 0
      vertex 0 4 1
      vertex 0.625737 3.95075 1
    endloop
  endfacet
  facet normal 0.0784594 0.996917 0
    outer loop
      vertex 0 4 1
      vertex 0.625737 3.95075 0
      vertex 0 4 0
    endloop
  endfacet
  facet normal -0.0784594 -0.996917 0
    outer loop
      vertex -0.625737 -3.95075 0
      vertex 0 -4 1
      vertex -0.625737 -3.95075 1
    endloop
  endfacet
  facet normal -0.0784594 -0.996917 -0
    outer loop
      vertex 0 -4 1
      vertex -0.625737 -3.95075 0
      vertex 0 -4 0
    endloop
  endfacet
  facet normal 0.649449 0.760405 -0
    outer loop
      vertex 2.82843 2.82843 0
      vertex 2.35114 3.23607 1
      vertex 2.82843 2.82843 1
    endloop
  endfacet
  facet normal 0.649449 0.760405 0
    outer loop
      vertex 2.35114 3.23607 1
      vertex 2.82843 2.82843 0
      vertex 2.35114 3.23607 0
    endloop
  endfacet
  facet normal -0.649449 0.760405 0
    outer loop
      vertex -2.35114 3.23607 0
      vertex -2.82843 2.82843 1
      vertex -2.35114 3.23607 1
    endloop
  endfacet
  facet normal -0.649449 0.760405 0
    outer loop
      vertex -2.82843 2.82843 1
      vertex -2.35114 3.23607 0
      vertex -2.82843 2.82843 0
    endloop
  endfacet
  facet normal -0.382684 0.92388 0
    outer loop
      vertex -1.23607 3.80423 0
      vertex -1.81596 3.56403 1
      vertex -1.23607 3.80423 1
    endloop
  endfacet
  facet normal -0.382684 0.92388 0
    outer loop
      vertex -1.81596 3.56403 1
      vertex -1.23607 3.80423 0
      vertex -1.81596 3.56403 0
    endloop
  endfacet
  facet normal 0.85264 -0.522498 0
    outer loop
      vertex 3.23607 -2.35114 1
      vertex 3.56403 -1.81596 0
      vertex 3.56403 -1.81596 1
    endloop
  endfacet
  facet normal 0.85264 -0.522498 0
    outer loop
      vertex 3.56403 -1.81596 0
      vertex 3.23607 -2.35114 1
      vertex 3.23607 -2.35114 0
    endloop
  endfacet
  facet normal 0.85264 0.522498 0
    outer loop
      vertex 3.56403 1.81596 1
      vertex 3.23607 2.35114 0
      vertex 3.23607 2.35114 1
    endloop
  endfacet
  facet normal 0.85264 0.522498 0
    outer loop
      vertex 3.23607 2.35114 0
      vertex 3.56403 1.81596 1
      vertex 3.56403 1.81596 0
    endloop
  endfacet
  facet normal 0.97237 0.233445 0
    outer loop
      vertex 3.95075 0.625737 1
      vertex 3.80423 1.23607 0
      vertex 3.80423 1.23607 1
    endloop
  endfacet
  facet normal 0.97237 0.233445 0
    outer loop
      vertex 3.80423 1.23607 0
      vertex 3.95075 0.625737 1
      vertex 3.95075 0.625737 0
    endloop
  endfacet
  facet normal 0.760405 0.649449 0
    outer loop
      vertex 3.23607 2.35114 1
      vertex 2.82843 2.82843 0
      vertex 2.82843 2.82843 1
    endloop
  endfacet
  facet normal 0.760405 0.649449 0
    outer loop
      vertex 2.82843 2.82843 0
      vertex 3.23607 2.35114 1
      vertex 3.23607 2.35114 0
    endloop
  endfacet
  facet normal 0.382684 0.92388 -0
    outer loop
      vertex 1.81596 3.56403 0
      vertex 1.23607 3.80423 1
      vertex 1.81596 3.56403 1
    endloop
  endfacet
  facet normal 0.382684 0.92388 0
    outer loop
      vertex 1.23607 3.80423 1
      vertex 1.81596 3.56403 0
      vertex 1.23607 3.80423 0
    endloop
  endfacet
  facet normal 0.233445 0.97237 -0
    outer loop
      vertex 1.23607 3.80423 0
      vertex 0.625737 3.95075 1
      vertex 1.23607 3.80423 1
    endloop
  endfacet
  facet normal 0.233445 0.97237 0
    outer loop
      vertex 0.625737 3.95075 1
      vertex 1.23607 3.80423 0
      vertex 0.625737 3.95075 0
    endloop
  endfacet
  facet normal 0.522498 0.85264 -0
    outer loop
      vertex 2.35114 3.23607 0
      vertex 1.81596 3.56403 1
      vertex 2.35114 3.23607 1
    endloop
  endfacet
  facet normal 0.522498 0.85264 0
    outer loop
      vertex 1.81596 3.56403 1
      vertex 2.35114 3.23607 0
      vertex 1.81596 3.56403 0
    endloop
  endfacet
  facet normal -0.85264 0.522498 0
    outer loop
      vertex -3.56403 1.81596 0
      vertex -3.23607 2.35114 1
      vertex -3.23607 2.35114 0
    endloop
  endfacet
  facet normal -0.85264 0.522498 0
    outer loop
      vertex -3.23607 2.35114 1
      vertex -3.56403 1.81596 0
      vertex -3.56403 1.81596 1
    endloop
  endfacet
  facet normal -0.760405 0.649449 0
    outer loop
      vertex -3.23607 2.35114 0
      vertex -2.82843 2.82843 1
      vertex -2.82843 2.82843 0
    endloop
  endfacet
  facet normal -0.760405 0.649449 0
    outer loop
      vertex -2.82843 2.82843 1
      vertex -3.23607 2.35114 0
      vertex -3.23607 2.35114 1
    endloop
  endfacet
  facet normal -0.92388 0.382684 0
    outer loop
      vertex -3.80423 1.23607 0
      vertex -3.56403 1.81596 1
      vertex -3.56403 1.81596 0
    endloop
  endfacet
  facet normal -0.92388 0.382684 0
    outer loop
      vertex -3.56403 1.81596 1
      vertex -3.80423 1.23607 0
      vertex -3.80423 1.23607 1
    endloop
  endfacet
  facet normal -0.522498 0.85264 0
    outer loop
      vertex -1.81596 3.56403 0
      vertex -2.35114 3.23607 1
      vertex -1.81596 3.56403 1
    endloop
  endfacet
  facet normal -0.522498 0.85264 0
    outer loop
      vertex -2.35114 3.23607 1
      vertex -1.81596 3.56403 0
      vertex -2.35114 3.23607 0
    endloop
  endfacet
  facet normal -0.233445 0.97237 0
    outer loop
      vertex -0.625737 3.95075 0
      vertex -1.23607 3.80423 1
      vertex -0.625737 3.95075 1
    endloop
  endfacet
  facet normal -0.233445 0.97237 0
    outer loop
      vertex -1.23607 3.80423 1
      vertex -0.625737 3.95075 0
      vertex -1.23607 3.80423 0
    endloop
  endfacet
  facet normal 0.760405 -0.649449 0
    outer loop
      vertex 2.82843 -2.82843 1
      vertex 3.23607 -2.35114 0
      vertex 3.23607 -2.35114 1
    endloop
  endfacet
  facet normal 0.760405 -0.649449 0
    outer loop
      vertex 3.23607 -2.35114 0
      vertex 2.82843 -2.82843 1
      vertex 2.82843 -2.82843 0
    endloop
  endfacet
  facet normal 0.522498 -0.85264 0
    outer loop
      vertex 1.81596 -3.56403 0
      vertex 2.35114 -3.23607 1
      vertex 1.81596 -3.56403 1
    endloop
  endfacet
  facet normal 0.522498 -0.85264 0
    outer loop
      vertex 2.35114 -3.23607 1
      vertex 1.81596 -3.56403 0
      vertex 2.35114 -3.23607 0
    endloop
  endfacet
  facet normal -0.522498 -0.85264 0
    outer loop
      vertex -2.35114 -3.23607 0
      vertex -1.81596 -3.56403 1
      vertex -2.35114 -3.23607 1
    endloop
  endfacet
  facet normal -0.522498 -0.85264 -0
    outer loop
      vertex -1.81596 -3.56403 1
      vertex -2.35114 -3.23607 0
      vertex -1.81596 -3.56403 0
    endloop
  endfacet
  facet normal -0.649449 -0.760405 0
    outer loop
      vertex -2.82843 -2.82843 0
      vertex -2.35114 -3.23607 1
      vertex -2.82843 -2.82843 1
    endloop
  endfacet
  facet normal -0.649449 -0.760405 -0
    outer loop
      vertex -2.35114 -3.23607 1
      vertex -2.82843 -2.82843 0
      vertex -2.35114 -3.23607 0
    endloop
  endfacet
  facet normal -0.382684 -0.92388 0
    outer loop
      vertex -1.81596 -3.56403 0
      vertex -1.23607 -3.80423 1
      vertex -1.81596 -3.56403 1
    endloop
  endfacet
  facet normal -0.382684 -0.92388 -0
    outer loop
      vertex -1.23607 -3.80423 1
      vertex -1.81596 -3.56403 0
      vertex -1.23607 -3.80423 0
    endloop
  endfacet
  facet normal -0.85264 -0.522498 0
    outer loop
      vertex -3.23607 -2.35114 0
      vertex -3.56403 -1.81596 1
      vertex -3.56403 -1.81596 0
    endloop
  endfacet
  facet normal -0.85264 -0.522498 0
    outer loop
      vertex -3.56403 -1.81596 1
      vertex -3.23607 -2.35114 0
      vertex -3.23607 -2.35114 1
    endloop
  endfacet
  facet normal -0.760405 -0.649449 0
    outer loop
      vertex -2.82843 -2.82843 0
      vertex -3.23607 -2.35114 1
      vertex -3.23607 -2.35114 0
    endloop
  endfacet
  facet normal -0.760405 -0.649449 0
    outer loop
      vertex -3.23607 -2.35114 1
      vertex -2.82843 -2.82843 0
      vertex -2.82843 -2.82843 1
    endloop
  endfacet
  facet normal 0 0 -1
    outer loop
      vertex 3.95075 -0.625737 0
      vertex 3.95075 0.625737 0
      vertex 4 0 0
    endloop
  endfacet
  facet normal 0 0 -1
    outer loop
      vertex 3.80423 -1.23607 0
      vertex 3.95075 0.625737 0
      vertex 3.95075 -0.625737 0
    endloop
  endfacet
  facet normal 0 0 -1
    outer loop
      vertex 3.80423 -1.23607 0
      vertex 3.80423 1.23607 0
      vertex 3.95075 0.625737 0
    endloop
  endfacet
  facet normal 0 0 -1
    outer loop
      vertex 3.56403 -1.81596 0
      vertex 3.80423 1.23607 0
      vertex 3.80423 -1.23607 0
    endloop
  endfacet
  facet normal 0 0 -1
    outer loop
      vertex 3.56403 -1.81596 0
      vertex 3.56403 1.81596 0
      vertex 3.80423 1.23607 0
    endloop
  endfacet
  facet normal 0 0 -1
    outer loop
      vertex 3.23607 -2.35114 0
      vertex 3.56403 1.81596 0
      vertex 3.56403 -1.81596 0
    endloop
  endfacet
  facet normal 0 0 -1
    outer loop
      vertex 3.23607 -2.35114 0
      vertex 3.23607 2.35114 0
      vertex 3.56403 1.81596 0
    endloop
  endfacet
  facet normal 0 0 -1
    outer loop
      vertex 2.82843 -2.82843 0
      vertex 3.23607 2.35114 0
      vertex 3.23607 -2.35114 0
    endloop
  endfacet
  facet normal 0 0 -1
    outer loop
      vertex 2.82843 -2.82843 0
      vertex 2.82843 2.82843 0
      vertex 3.23607 2.35114 0
    endloop
  endfacet
  facet normal 0 0 -1
    outer loop
      vertex 2.35114 -3.23607 0
      vertex 2.82843 2.82843 0
      vertex 2.82843 -2.82843 0
    endloop
  endfacet
  facet normal 0 0 -1
    outer loop
      vertex 2.35114 -3.23607 0
      vertex 2.35114 3.23607 0
      vertex 2.82843 2.82843 0
    endloop
  endfacet
  facet normal 0 0 -1
    outer loop
      vertex 1.81596 -3.56403 0
      vertex 2.35114 3.23607 0
      vertex 2.35114 -3.23607 0
    endloop
  endfacet
  facet normal 0 0 -1
    outer loop
      vertex 1.81596 -3.56403 0
      vertex 1.81596 3.56403 0
      vertex 2.35114 3.23607 0
    endloop
  endfacet
  facet normal 0 0 -1
    outer loop
      vertex 1.23607 -3.80423 0
      vertex 1.81596 3.56403 0
      vertex 1.81596 -3.56403 0
    endloop
  endfacet
  facet normal 0 0 -1
    outer loop
      vertex 1.23607 -3.80423 0
      vertex 1.23607 3.80423 0
      vertex 1.81596 3.56403 0
    endloop
  endfacet
  facet normal 0 0 -1
    outer loop
      vertex 0.625737 -3.95075 0
      vertex 1.23607 3.80423 0
      vertex 1.23607 -3.80423 0
    endloop
  endfacet
  facet normal 0 0 -1
    outer loop
      vertex 0.625737 -3.95075 0
      vertex 0.625737 3.95075 0
      vertex 1.23607 3.80423 0
    endloop
  endfacet
  facet normal 0 0 -1
    outer loop
      vertex 0 -4 0
      vertex 0.625737 3.95075 0
      vertex 0.625737 -3.95075 0
    endloop
  endfacet
  facet normal 0 0 -1
    outer loop
      vertex 0 -4 0
      vertex 0 4 0
      vertex 0.625737 3.95075 0
    endloop
  endfacet
  facet normal 0 0 -1
    outer loop
      vertex -0.625737 -3.95075 0
      vertex 0 4 0
      vertex 0 -4 0
    endloop
  endfacet
  facet normal 0 0 -1
    outer loop
      vertex -0.625737 -3.95075 0
      vertex -0.625737 3.95075 0
      vertex 0 4 0
    endloop
  endfacet
  facet normal 0 0 -1
    outer loop
      vertex -1.23607 -3.80423 0
      vertex -0.625737 3.95075 0
      vertex -0.625737 -3.95075 0
    endloop
  endfacet
  facet normal 0 0 -1
    outer loop
      vertex -1.23607 -3.80423 0
      vertex -1.23607 3.80423 0
      vertex -0.625737 3.95075 0
    endloop
  endfacet
  facet normal 0 0 -1
    outer loop
      vertex -1.81596 -3.56403 0
      vertex -1.23607 3.80423 0
      vertex -1.23607 -3.80423 0
    endloop
  endfacet
  facet normal 0 0 -1
    outer loop
      vertex -1.81596 -3.56403 0
      vertex -1.81596 3.56403 0
      vertex -1.23607 3.80423 0
    endloop
  endfacet
  facet normal 0 0 -1
    outer loop
      vertex -2.35114 -3.23607 0
      vertex -1.81596 3.56403 0
      vertex -1.81596 -3.56403 0
    endloop
  endfacet
  facet normal 0 0 -1
    outer loop
      vertex -2.35114 -3.23607 0
      vertex -2.35114 3.23607 0
      vertex -1.81596 3.56403 0
    endloop
  endfacet
  facet normal 0 0 -1
    outer loop
      vertex -2.82843 -2.82843 0
      vertex -2.35114 3.23607 0
      vertex -2.35114 -3.23607 0
    endloop
  endfacet
  facet normal 0 0 -1
    outer loop
      vertex -2.82843 -2.82843 0
      vertex -2.82843 2.82843 0
      vertex -2.35114 3.23607 0
    endloop
  endfacet
  facet normal 0 0 -1
    outer loop
      vertex -3.23607 -2.35114 0
      vertex -2.82843 2.82843 0
      vertex -2.82843 -2.82843 0
    endloop
  endfacet
  facet normal 0 0 -1
    outer loop
      vertex -3.23607 -2.35114 0
      vertex -3.23607 2.35114 0
      vertex -2.82843 2.82843 0
    endloop
  endfacet
  facet normal 0 0 -1
    outer loop
      vertex -3.56403 -1.81596 0
      vertex -3.23607 2.35114 0
      vertex -3.23607 -2.35114 0
    endloop
  endfacet
  facet normal 0 0 -1
    outer loop
      vertex -3.56403 -1.81596 0
      vertex -3.56403 1.81596 0
      vertex -3.23607 2.35114 0
    endloop
  endfacet
  facet normal 0 0 -1
    outer loop
      vertex -3.80423 -1.23607 0
      vertex -3.56403 1.81596 0
      vertex -3.56403 -1.81596 0
    endloop
  endfacet
  facet normal 0 0 -1
    outer loop
      vertex -3.80423 -1.23607 0
      vertex -3.80423 1.23607 0
      vertex -3.56403 1.81596 0
    endloop
  endfacet
  facet normal 0 0 -1
    outer loop
      vertex -3.95075 -0.625737 0
      vertex -3.80423 1.23607 0
      vertex -3.80423 -1.23607 0
    endloop
  endfacet
  facet normal 0 0 -1
    outer loop
      vertex -3.95075 -0.625737 0
      vertex -3.95075 0.625737 0
      vertex -3.80423 1.23607 0
    endloop
  endfacet
  facet normal 0 -0 -1
    outer loop
      vertex -3.95075 0.625737 0
      vertex -3.95075 -0.625737 0
      vertex -4 0 0
    endloop
  endfacet
  facet normal 0.92388 0.382684 0
    outer loop
      vertex 3.80423 1.23607 1
      vertex 3.56403 1.81596 0
      vertex 3.56403 1.81596 1
    endloop
  endfacet
  facet normal 0.92388 0.382684 0
    outer loop
      vertex 3.56403 1.81596 0
      vertex 3.80423 1.23607 1
      vertex 3.80423 1.23607 0
    endloop
  endfacet
  facet normal -0.97237 0.233445 0
    outer loop
      vertex -3.95075 0.625737 0
      vertex -3.80423 1.23607 1
      vertex -3.80423 1.23607 0
    endloop
  endfacet
  facet normal -0.97237 0.233445 0
    outer loop
      vertex -3.80423 1.23607 1
      vertex -3.95075 0.625737 0
      vertex -3.95075 0.625737 1
    endloop
  endfacet
  facet normal 0 0 1
    outer loop
      vertex 1.5 0 1
      vertex 4 0 1
      vertex 3.95075 0.625737 1
    endloop
  endfacet
  facet normal 0 0 1
    outer loop
      vertex 1.48153 0.234652 1
      vertex 3.95075 0.625737 1
      vertex 3.80423 1.23607 1
    endloop
  endfacet
  facet normal 0 0 1
    outer loop
      vertex 4 0 1
      vertex 1.5 0 1
      vertex 3.95075 -0.625737 1
    endloop
  endfacet
  facet normal 0 0 1
    outer loop
      vertex 1.42658 0.463525 1
      vertex 3.80423 1.23607 1
      vertex 3.56403 1.81596 1
    endloop
  endfacet
  facet normal -0 0 1
    outer loop
      vertex 1.48153 -0.234652 1
      vertex 3.95075 -0.625737 1
      vertex 1.5 0 1
    endloop
  endfacet
  facet normal 0 0 1
    outer loop
      vertex 1.33651 0.680985 1
      vertex 3.56403 1.81596 1
      vertex 3.23607 2.35114 1
    endloop
  endfacet
  facet normal 0 0 1
    outer loop
      vertex 3.95075 -0.625737 1
      vertex 1.48153 -0.234652 1
      vertex 3.80423 -1.23607 1
    endloop
  endfacet
  facet normal 0 0 1
    outer loop
      vertex 1.21352 0.881678 1
      vertex 3.23607 2.35114 1
      vertex 2.82843 2.82843 1
    endloop
  endfacet
  facet normal -0 0 1
    outer loop
      vertex 1.42658 -0.463525 1
      vertex 3.80423 -1.23607 1
      vertex 1.48153 -0.234652 1
    endloop
  endfacet
  facet normal 0 0 1
    outer loop
      vertex 1.06066 1.06066 1
      vertex 2.82843 2.82843 1
      vertex 2.35114 3.23607 1
    endloop
  endfacet
  facet normal 0 0 1
    outer loop
      vertex 3.80423 -1.23607 1
      vertex 1.42658 -0.463525 1
      vertex 3.56403 -1.81596 1
    endloop
  endfacet
  facet normal 0 0 1
    outer loop
      vertex 0.881678 1.21352 1
      vertex 2.35114 3.23607 1
      vertex 1.81596 3.56403 1
    endloop
  endfacet
  facet normal -0 0 1
    outer loop
      vertex 1.33651 -0.680985 1
      vertex 3.56403 -1.81596 1
      vertex 1.42658 -0.463525 1
    endloop
  endfacet
  facet normal 0 0 1
    outer loop
      vertex 3.56403 -1.81596 1
      vertex 1.33651 -0.680985 1
      vertex 3.23607 -2.35114 1
    endloop
  endfacet
  facet normal 0 0 1
    outer loop
      vertex 3.95075 0.625737 1
      vertex 1.48153 0.234652 1
      vertex 1.5 0 1
    endloop
  endfacet
  facet normal 0 0 1
    outer loop
      vertex 3.80423 1.23607 1
      vertex 1.42658 0.463525 1
      vertex 1.48153 0.234652 1
    endloop
  endfacet
  facet normal 0 0 1
    outer loop
      vertex 3.56403 1.81596 1
      vertex 1.33651 0.680985 1
      vertex 1.42658 0.463525 1
    endloop
  endfacet
  facet normal 0 0 1
    outer loop
      vertex 0.680985 1.33651 1
      vertex 1.81596 3.56403 1
      vertex 1.23607 3.80423 1
    endloop
  endfacet
  facet normal 0 0 1
    outer loop
      vertex 3.23607 2.35114 1
      vertex 1.21352 0.881678 1
      vertex 1.33651 0.680985 1
    endloop
  endfacet
  facet normal 0 0 1
    outer loop
      vertex 2.82843 2.82843 1
      vertex 1.06066 1.06066 1
      vertex 1.21352 0.881678 1
    endloop
  endfacet
  facet normal 0 0 1
    outer loop
      vertex 2.35114 3.23607 1
      vertex 0.881678 1.21352 1
      vertex 1.06066 1.06066 1
    endloop
  endfacet
  facet normal 0 0 1
    outer loop
      vertex 1.81596 3.56403 1
      vertex 0.680985 1.33651 1
      vertex 0.881678 1.21352 1
    endloop
  endfacet
  facet normal 0 0 1
    outer loop
      vertex 0.463525 1.42658 1
      vertex 1.23607 3.80423 1
      vertex 0.625737 3.95075 1
    endloop
  endfacet
  facet normal 0 0 1
    outer loop
      vertex 1.23607 3.80423 1
      vertex 0.463525 1.42658 1
      vertex 0.680985 1.33651 1
    endloop
  endfacet
  facet normal 0 0 1
    outer loop
      vertex 0.625737 3.95075 1
      vertex 0.234652 1.48153 1
      vertex 0.463525 1.42658 1
    endloop
  endfacet
  facet normal 0 0 1
    outer loop
      vertex 0 4 1
      vertex 0.234652 1.48153 1
      vertex 0.625737 3.95075 1
    endloop
  endfacet
  facet normal 0 0 1
    outer loop
      vertex 0 4 1
      vertex 0 1.5 1
      vertex 0.234652 1.48153 1
    endloop
  endfacet
  facet normal 0 0 1
    outer loop
      vertex 0 4 1
      vertex -0.234652 1.48153 1
      vertex 0 1.5 1
    endloop
  endfacet
  facet normal -0 0 1
    outer loop
      vertex -0.625737 3.95075 1
      vertex -0.234652 1.48153 1
      vertex 0 4 1
    endloop
  endfacet
  facet normal 0 0 1
    outer loop
      vertex -0.234652 1.48153 1
      vertex -0.625737 3.95075 1
      vertex -0.463525 1.42658 1
    endloop
  endfacet
  facet normal -0 0 1
    outer loop
      vertex -1.23607 3.80423 1
      vertex -0.463525 1.42658 1
      vertex -0.625737 3.95075 1
    endloop
  endfacet
  facet normal 0 0 1
    outer loop
      vertex -0.463525 1.42658 1
      vertex -1.23607 3.80423 1
      vertex -0.680985 1.33651 1
    endloop
  endfacet
  facet normal -0 0 1
    outer loop
      vertex -1.81596 3.56403 1
      vertex -0.680985 1.33651 1
      vertex -1.23607 3.80423 1
    endloop
  endfacet
  facet normal 0 0 1
    outer loop
      vertex -0.680985 1.33651 1
      vertex -1.81596 3.56403 1
      vertex -0.881678 1.21352 1
    endloop
  endfacet
  facet normal -0 0 1
    outer loop
      vertex -2.35114 3.23607 1
      vertex -0.881678 1.21352 1
      vertex -1.81596 3.56403 1
    endloop
  endfacet
  facet normal 0 0 1
    outer loop
      vertex -0.881678 1.21352 1
      vertex -2.35114 3.23607 1
      vertex -1.06066 1.06066 1
    endloop
  endfacet
  facet normal -0 0 1
    outer loop
      vertex -2.82843 2.82843 1
      vertex -1.06066 1.06066 1
      vertex -2.35114 3.23607 1
    endloop
  endfacet
  facet normal 0 0 1
    outer loop
      vertex -1.06066 1.06066 1
      vertex -2.82843 2.82843 1
      vertex -1.21352 0.881678 1
    endloop
  endfacet
  facet normal -0 0 1
    outer loop
      vertex -3.23607 2.35114 1
      vertex -1.21352 0.881678 1
      vertex -2.82843 2.82843 1
    endloop
  endfacet
  facet normal 0 0 1
    outer loop
      vertex -1.21352 0.881678 1
      vertex -3.23607 2.35114 1
      vertex -1.33651 0.680985 1
    endloop
  endfacet
  facet normal -0 0 1
    outer loop
      vertex 1.21352 -0.881678 1
      vertex 3.23607 -2.35114 1
      vertex 1.33651 -0.680985 1
    endloop
  endfacet
  facet normal 0 0 1
    outer loop
      vertex 3.23607 -2.35114 1
      vertex 1.21352 -0.881678 1
      vertex 2.82843 -2.82843 1
    endloop
  endfacet
  facet normal -0 0 1
    outer loop
      vertex 1.06066 -1.06066 1
      vertex 2.82843 -2.82843 1
      vertex 1.21352 -0.881678 1
    endloop
  endfacet
  facet normal 0 0 1
    outer loop
      vertex 2.82843 -2.82843 1
      vertex 1.06066 -1.06066 1
      vertex 2.35114 -3.23607 1
    endloop
  endfacet
  facet normal -0 0 1
    outer loop
      vertex 0.881678 -1.21352 1
      vertex 2.35114 -3.23607 1
      vertex 1.06066 -1.06066 1
    endloop
  endfacet
  facet normal 0 0 1
    outer loop
      vertex 2.35114 -3.23607 1
      vertex 0.881678 -1.21352 1
      vertex 1.81596 -3.56403 1
    endloop
  endfacet
  facet normal -0 0 1
    outer loop
      vertex 0.680985 -1.33651 1
      vertex 1.81596 -3.56403 1
      vertex 0.881678 -1.21352 1
    endloop
  endfacet
  facet normal 0 0 1
    outer loop
      vertex 1.81596 -3.56403 1
      vertex 0.680985 -1.33651 1
      vertex 1.23607 -3.80423 1
    endloop
  endfacet
  facet normal -0 0 1
    outer loop
      vertex 0.463525 -1.42658 1
      vertex 1.23607 -3.80423 1
      vertex 0.680985 -1.33651 1
    endloop
  endfacet
  facet normal 0 0 1
    outer loop
      vertex 1.23607 -3.80423 1
      vertex 0.463525 -1.42658 1
      vertex 0.625737 -3.95075 1
    endloop
  endfacet
  facet normal -0 0 1
    outer loop
      vertex 0.234652 -1.48153 1
      vertex 0.625737 -3.95075 1
      vertex 0.463525 -1.42658 1
    endloop
  endfacet
  facet normal -0 0 1
    outer loop
      vertex 0 -1.5 1
      vertex 0.625737 -3.95075 1
      vertex 0.234652 -1.48153 1
    endloop
  endfacet
  facet normal 0 0 1
    outer loop
      vertex 0 -1.5 1
      vertex 0 -4 1
      vertex 0.625737 -3.95075 1
    endloop
  endfacet
  facet normal 0 0 1
    outer loop
      vertex -0.234652 -1.48153 1
      vertex 0 -4 1
      vertex 0 -1.5 1
    endloop
  endfacet
  facet normal 0 0 1
    outer loop
      vertex -0.625737 -3.95075 1
      vertex -0.234652 -1.48153 1
      vertex -0.463525 -1.42658 1
    endloop
  endfacet
  facet normal 0 0 1
    outer loop
      vertex -0.234652 -1.48153 1
      vertex -0.625737 -3.95075 1
      vertex 0 -4 1
    endloop
  endfacet
  facet normal 0 0 1
    outer loop
      vertex -1.23607 -3.80423 1
      vertex -0.463525 -1.42658 1
      vertex -0.680985 -1.33651 1
    endloop
  endfacet
  facet normal 0 0 1
    outer loop
      vertex -1.81596 -3.56403 1
      vertex -0.680985 -1.33651 1
      vertex -0.881678 -1.21352 1
    endloop
  endfacet
  facet normal 0 0 1
    outer loop
      vertex -2.35114 -3.23607 1
      vertex -0.881678 -1.21352 1
      vertex -1.06066 -1.06066 1
    endloop
  endfacet
  facet normal 0 0 1
    outer loop
      vertex -2.82843 -2.82843 1
      vertex -1.06066 -1.06066 1
      vertex -1.21352 -0.881678 1
    endloop
  endfacet
  facet normal 0 0 1
    outer loop
      vertex -0.463525 -1.42658 1
      vertex -1.23607 -3.80423 1
      vertex -0.625737 -3.95075 1
    endloop
  endfacet
  facet normal 0 0 1
    outer loop
      vertex -3.23607 -2.35114 1
      vertex -1.21352 -0.881678 1
      vertex -1.33651 -0.680985 1
    endloop
  endfacet
  facet normal 0 0 1
    outer loop
      vertex -3.56403 -1.81596 1
      vertex -1.33651 -0.680985 1
      vertex -1.42658 -0.463525 1
    endloop
  endfacet
  facet normal 0 0 1
    outer loop
      vertex -3.80423 -1.23607 1
      vertex -1.42658 -0.463525 1
      vertex -1.48153 -0.234652 1
    endloop
  endfacet
  facet normal 0 0 1
    outer loop
      vertex -3.95075 -0.625737 1
      vertex -1.48153 -0.234652 1
      vertex -1.5 0 1
    endloop
  endfacet
  facet normal -0 0 1
    outer loop
      vertex -3.56403 1.81596 1
      vertex -1.33651 0.680985 1
      vertex -3.23607 2.35114 1
    endloop
  endfacet
  facet normal 0 0 1
    outer loop
      vertex -0.680985 -1.33651 1
      vertex -1.81596 -3.56403 1
      vertex -1.23607 -3.80423 1
    endloop
  endfacet
  facet normal 0 0 1
    outer loop
      vertex -1.33651 0.680985 1
      vertex -3.56403 1.81596 1
      vertex -1.42658 0.463525 1
    endloop
  endfacet
  facet normal 0 0 1
    outer loop
      vertex -0.881678 -1.21352 1
      vertex -2.35114 -3.23607 1
      vertex -1.81596 -3.56403 1
    endloop
  endfacet
  facet normal -0 0 1
    outer loop
      vertex -3.80423 1.23607 1
      vertex -1.42658 0.463525 1
      vertex -3.56403 1.81596 1
    endloop
  endfacet
  facet normal 0 0 1
    outer loop
      vertex -1.06066 -1.06066 1
      vertex -2.82843 -2.82843 1
      vertex -2.35114 -3.23607 1
    endloop
  endfacet
  facet normal 0 0 1
    outer loop
      vertex -1.42658 0.463525 1
      vertex -3.80423 1.23607 1
      vertex -1.48153 0.234652 1
    endloop
  endfacet
  facet normal 0 0 1
    outer loop
      vertex -1.21352 -0.881678 1
      vertex -3.23607 -2.35114 1
      vertex -2.82843 -2.82843 1
    endloop
  endfacet
  facet normal -0 0 1
    outer loop
      vertex -3.95075 0.625737 1
      vertex -1.48153 0.234652 1
      vertex -3.80423 1.23607 1
    endloop
  endfacet
  facet normal 0 0 1
    outer loop
      vertex -1.33651 -0.680985 1
      vertex -3.56403 -1.81596 1
      vertex -3.23607 -2.35114 1
    endloop
  endfacet
  facet normal 0 0 1
    outer loop
      vertex -1.48153 0.234652 1
      vertex -3.95075 0.625737 1
      vertex -1.5 0 1
    endloop
  endfacet
  facet normal 0 0 1
    outer loop
      vertex -1.42658 -0.463525 1
      vertex -3.80423 -1.23607 1
      vertex -3.56403 -1.81596 1
    endloop
  endfacet
  facet normal 0 0 1
    outer loop
      vertex -4 0 1
      vertex -1.5 0 1
      vertex -3.95075 0.625737 1
    endloop
  endfacet
  facet normal 0 0 1
    outer loop
      vertex -1.48153 -0.234652 1
      vertex -3.95075 -0.625737 1
      vertex -3.80423 -1.23607 1
    endloop
  endfacet
  facet normal 0 0 1
    outer loop
      vertex -1.5 0 1
      vertex -4 0 1
      vertex -3.95075 -0.625737 1
    endloop
  endfacet
  facet normal -0.0784594 0.996917 0
    outer loop
      vertex 0 4 0
      vertex -0.625737 3.95075 1
      vertex 0 4 1
    endloop
  endfacet
  facet normal -0.0784594 0.996917 0
    outer loop
      vertex -0.625737 3.95075 1
      vertex 0 4 0
      vertex -0.625737 3.95075 0
    endloop
  endfacet
  facet normal 0.996917 -0.0784594 0
    outer loop
      vertex 3.95075 -0.625737 1
      vertex 4 0 0
      vertex 4 0 1
    endloop
  endfacet
  facet normal 0.996917 -0.0784594 0
    outer loop
      vertex 4 0 0
      vertex 3.95075 -0.625737 1
      vertex 3.95075 -0.625737 0
    endloop
  endfacet
  facet normal 0.0784594 -0.996917 0
    outer loop
      vertex 0 -4 0
      vertex 0.625737 -3.95075 1
      vertex 0 -4 1
    endloop
  endfacet
  facet normal 0.0784594 -0.996917 0
    outer loop
      vertex 0.625737 -3.95075 1
      vertex 0 -4 0
      vertex 0.625737 -3.95075 0
    endloop
  endfacet
  facet normal 0.382684 -0.92388 0
    outer loop
      vertex 1.23607 -3.80423 0
      vertex 1.81596 -3.56403 1
      vertex 1.23607 -3.80423 1
    endloop
  endfacet
  facet normal 0.382684 -0.92388 0
    outer loop
      vertex 1.81596 -3.56403 1
      vertex 1.23607 -3.80423 0
      vertex 1.81596 -3.56403 0
    endloop
  endfacet
  facet normal 0.649449 -0.760405 0
    outer loop
      vertex 2.35114 -3.23607 0
      vertex 2.82843 -2.82843 1
      vertex 2.35114 -3.23607 1
    endloop
  endfacet
  facet normal 0.649449 -0.760405 0
    outer loop
      vertex 2.82843 -2.82843 1
      vertex 2.35114 -3.23607 0
      vertex 2.82843 -2.82843 0
    endloop
  endfacet
  facet normal 0.92388 -0.382684 0
    outer loop
      vertex 3.56403 -1.81596 1
      vertex 3.80423 -1.23607 0
      vertex 3.80423 -1.23607 1
    endloop
  endfacet
  facet normal 0.92388 -0.382684 0
    outer loop
      vertex 3.80423 -1.23607 0
      vertex 3.56403 -1.81596 1
      vertex 3.56403 -1.81596 0
    endloop
  endfacet
  facet normal 0.97237 -0.233445 0
    outer loop
      vertex 3.80423 -1.23607 1
      vertex 3.95075 -0.625737 0
      vertex 3.95075 -0.625737 1
    endloop
  endfacet
  facet normal 0.97237 -0.233445 0
    outer loop
      vertex 3.95075 -0.625737 0
      vertex 3.80423 -1.23607 1
      vertex 3.80423 -1.23607 0
    endloop
  endfacet
  facet normal -0.233445 -0.97237 0
    outer loop
      vertex -1.23607 -3.80423 0
      vertex -0.625737 -3.95075 1
      vertex -1.23607 -3.80423 1
    endloop
  endfacet
  facet normal -0.233445 -0.97237 -0
    outer loop
      vertex -0.625737 -3.95075 1
      vertex -1.23607 -3.80423 0
      vertex -0.625737 -3.95075 0
    endloop
  endfacet
  facet normal -0.92388 -0.382684 0
    outer loop
      vertex -3.56403 -1.81596 0
      vertex -3.80423 -1.23607 1
      vertex -3.80423 -1.23607 0
    endloop
  endfacet
  facet normal -0.92388 -0.382684 0
    outer loop
      vertex -3.80423 -1.23607 1
      vertex -3.56403 -1.81596 0
      vertex -3.56403 -1.81596 1
    endloop
  endfacet
  facet normal -0.996917 -0.0784594 0
    outer loop
      vertex -3.95075 -0.625737 0
      vertex -4 0 1
      vertex -4 0 0
    endloop
  endfacet
  facet normal -0.996917 -0.0784594 0
    outer loop
      vertex -4 0 1
      vertex -3.95075 -0.625737 0
      vertex -3.95075 -0.625737 1
    endloop
  endfacet
  facet normal 0.233445 -0.97237 0
    outer loop
      vertex 0.625737 -3.95075 0
      vertex 1.23607 -3.80423 1
      vertex 0.625737 -3.95075 1
    endloop
  endfacet
  facet normal 0.233445 -0.97237 0
    outer loop
      vertex 1.23607 -3.80423 1
      vertex 0.625737 -3.95075 0
      vertex 1.23607 -3.80423 0
    endloop
  endfacet
  facet normal -0.97237 -0.233445 0
    outer loop
      vertex -3.80423 -1.23607 0
      vertex -3.95075 -0.625737 1
      vertex -3.95075 -0.625737 0
    endloop
  endfacet
  facet normal -0.97237 -0.233445 0
    outer loop
      vertex -3.95075 -0.625737 1
      vertex -3.80423 -1.23607 0
      vertex -3.80423 -1.23607 1
    endloop
  endfacet
  facet normal 0.996917 0.0784609 0
    outer loop
      vertex 1.5 0 20
      vertex 1.48153 0.234652 1
      vertex 1.48153 0.234652 20
    endloop
  endfacet
  facet normal 0.996917 0.0784609 0
    outer loop
      vertex 1.48153 0.234652 1
      vertex 1.5 0 20
      vertex 1.5 0 1
    endloop
  endfacet
  facet normal -0.996917 0.0784609 0
    outer loop
      vertex -1.5 0 1
      vertex -1.48153 0.234652 20
      vertex -1.48153 0.234652 1
    endloop
  endfacet
  facet normal -0.996917 0.0784609 0
    outer loop
      vertex -1.48153 0.234652 20
      vertex -1.5 0 1
      vertex -1.5 0 20
    endloop
  endfacet
  facet normal 0.0784609 0.996917 -0
    outer loop
      vertex 0.234652 1.48153 1
      vertex 0 1.5 20
      vertex 0.234652 1.48153 20
    endloop
  endfacet
  facet normal 0.0784609 0.996917 0
    outer loop
      vertex 0 1.5 20
      vertex 0.234652 1.48153 1
      vertex 0 1.5 1
    endloop
  endfacet
  facet normal 0.649449 0.760405 -0
    outer loop
      vertex 1.06066 1.06066 1
      vertex 0.881678 1.21352 20
      vertex 1.06066 1.06066 20
    endloop
  endfacet
  facet normal 0.649449 0.760405 0
    outer loop
      vertex 0.881678 1.21352 20
      vertex 1.06066 1.06066 1
      vertex 0.881678 1.21352 1
    endloop
  endfacet
  facet normal -0.649449 0.760405 0
    outer loop
      vertex -0.881678 1.21352 1
      vertex -1.06066 1.06066 20
      vertex -0.881678 1.21352 20
    endloop
  endfacet
  facet normal -0.649449 0.760405 0
    outer loop
      vertex -1.06066 1.06066 20
      vertex -0.881678 1.21352 1
      vertex -1.06066 1.06066 1
    endloop
  endfacet
  facet normal -0.382681 0.92388 0
    outer loop
      vertex -0.463525 1.42658 1
      vertex -0.680985 1.33651 20
      vertex -0.463525 1.42658 20
    endloop
  endfacet
  facet normal -0.382681 0.92388 0
    outer loop
      vertex -0.680985 1.33651 20
      vertex -0.463525 1.42658 1
      vertex -0.680985 1.33651 1
    endloop
  endfacet
  facet normal 0.852639 -0.5225 0
    outer loop
      vertex 1.21352 -0.881678 20
      vertex 1.33651 -0.680985 1
      vertex 1.33651 -0.680985 20
    endloop
  endfacet
  facet normal 0.852639 -0.5225 0
    outer loop
      vertex 1.33651 -0.680985 1
      vertex 1.21352 -0.881678 20
      vertex 1.21352 -0.881678 1
    endloop
  endfacet
  facet normal -0.97237 -0.233446 0
    outer loop
      vertex -1.42658 -0.463525 1
      vertex -1.48153 -0.234652 20
      vertex -1.48153 -0.234652 1
    endloop
  endfacet
  facet normal -0.97237 -0.233446 0
    outer loop
      vertex -1.48153 -0.234652 20
      vertex -1.42658 -0.463525 1
      vertex -1.42658 -0.463525 20
    endloop
  endfacet
  facet normal 0.92388 0.382681 0
    outer loop
      vertex 1.42658 0.463525 20
      vertex 1.33651 0.680985 1
      vertex 1.33651 0.680985 20
    endloop
  endfacet
  facet normal 0.92388 0.382681 0
    outer loop
      vertex 1.33651 0.680985 1
      vertex 1.42658 0.463525 20
      vertex 1.42658 0.463525 1
    endloop
  endfacet
  facet normal 0.97237 0.233446 0
    outer loop
      vertex 1.48153 0.234652 20
      vertex 1.42658 0.463525 1
      vertex 1.42658 0.463525 20
    endloop
  endfacet
  facet normal 0.97237 0.233446 0
    outer loop
      vertex 1.42658 0.463525 1
      vertex 1.48153 0.234652 20
      vertex 1.48153 0.234652 1
    endloop
  endfacet
  facet normal 0.852639 0.5225 0
    outer loop
      vertex 1.33651 0.680985 20
      vertex 1.21352 0.881678 1
      vertex 1.21352 0.881678 20
    endloop
  endfacet
  facet normal 0.852639 0.5225 0
    outer loop
      vertex 1.21352 0.881678 1
      vertex 1.33651 0.680985 20
      vertex 1.33651 0.680985 1
    endloop
  endfacet
  facet normal 0.382681 0.92388 -0
    outer loop
      vertex 0.680985 1.33651 1
      vertex 0.463525 1.42658 20
      vertex 0.680985 1.33651 20
    endloop
  endfacet
  facet normal 0.382681 0.92388 0
    outer loop
      vertex 0.463525 1.42658 20
      vertex 0.680985 1.33651 1
      vertex 0.463525 1.42658 1
    endloop
  endfacet
  facet normal 0.233446 0.97237 -0
    outer loop
      vertex 0.463525 1.42658 1
      vertex 0.234652 1.48153 20
      vertex 0.463525 1.42658 20
    endloop
  endfacet
  facet normal 0.233446 0.97237 0
    outer loop
      vertex 0.234652 1.48153 20
      vertex 0.463525 1.42658 1
      vertex 0.234652 1.48153 1
    endloop
  endfacet
  facet normal 0.5225 0.852639 -0
    outer loop
      vertex 0.881678 1.21352 1
      vertex 0.680985 1.33651 20
      vertex 0.881678 1.21352 20
    endloop
  endfacet
  facet normal 0.5225 0.852639 0
    outer loop
      vertex 0.680985 1.33651 20
      vertex 0.881678 1.21352 1
      vertex 0.680985 1.33651 1
    endloop
  endfacet
  facet normal -0.852639 0.5225 0
    outer loop
      vertex -1.33651 0.680985 1
      vertex -1.21352 0.881678 20
      vertex -1.21352 0.881678 1
    endloop
  endfacet
  facet normal -0.852639 0.5225 0
    outer loop
      vertex -1.21352 0.881678 20
      vertex -1.33651 0.680985 1
      vertex -1.33651 0.680985 20
    endloop
  endfacet
  facet normal -0.760405 0.649449 0
    outer loop
      vertex -1.21352 0.881678 1
      vertex -1.06066 1.06066 20
      vertex -1.06066 1.06066 1
    endloop
  endfacet
  facet normal -0.760405 0.649449 0
    outer loop
      vertex -1.06066 1.06066 20
      vertex -1.21352 0.881678 1
      vertex -1.21352 0.881678 20
    endloop
  endfacet
  facet normal 0 0 1
    outer loop
      vertex 1.48153 0.234652 20
      vertex 1.48153 -0.234652 20
      vertex 1.5 0 20
    endloop
  endfacet
  facet normal 0 0 1
    outer loop
      vertex 1.42658 0.463525 20
      vertex 1.48153 -0.234652 20
      vertex 1.48153 0.234652 20
    endloop
  endfacet
  facet normal 0 0 1
    outer loop
      vertex 1.42658 0.463525 20
      vertex 1.42658 -0.463525 20
      vertex 1.48153 -0.234652 20
    endloop
  endfacet
  facet normal 0 0 1
    outer loop
      vertex 1.33651 0.680985 20
      vertex 1.42658 -0.463525 20
      vertex 1.42658 0.463525 20
    endloop
  endfacet
  facet normal 0 0 1
    outer loop
      vertex 1.33651 0.680985 20
      vertex 1.33651 -0.680985 20
      vertex 1.42658 -0.463525 20
    endloop
  endfacet
  facet normal 0 0 1
    outer loop
      vertex 1.21352 0.881678 20
      vertex 1.33651 -0.680985 20
      vertex 1.33651 0.680985 20
    endloop
  endfacet
  facet normal 0 0 1
    outer loop
      vertex 1.21352 0.881678 20
      vertex 1.21352 -0.881678 20
      vertex 1.33651 -0.680985 20
    endloop
  endfacet
  facet normal 0 0 1
    outer loop
      vertex 1.06066 1.06066 20
      vertex 1.21352 -0.881678 20
      vertex 1.21352 0.881678 20
    endloop
  endfacet
  facet normal 0 0 1
    outer loop
      vertex 1.06066 1.06066 20
      vertex 1.06066 -1.06066 20
      vertex 1.21352 -0.881678 20
    endloop
  endfacet
  facet normal 0 0 1
    outer loop
      vertex 0.881678 1.21352 20
      vertex 1.06066 -1.06066 20
      vertex 1.06066 1.06066 20
    endloop
  endfacet
  facet normal 0 0 1
    outer loop
      vertex 0.881678 1.21352 20
      vertex 0.881678 -1.21352 20
      vertex 1.06066 -1.06066 20
    endloop
  endfacet
  facet normal 0 0 1
    outer loop
      vertex 0.680985 1.33651 20
      vertex 0.881678 -1.21352 20
      vertex 0.881678 1.21352 20
    endloop
  endfacet
  facet normal 0 0 1
    outer loop
      vertex 0.680985 1.33651 20
      vertex 0.680985 -1.33651 20
      vertex 0.881678 -1.21352 20
    endloop
  endfacet
  facet normal 0 0 1
    outer loop
      vertex 0.463525 1.42658 20
      vertex 0.680985 -1.33651 20
      vertex 0.680985 1.33651 20
    endloop
  endfacet
  facet normal 0 0 1
    outer loop
      vertex 0.463525 1.42658 20
      vertex 0.463525 -1.42658 20
      vertex 0.680985 -1.33651 20
    endloop
  endfacet
  facet normal 0 0 1
    outer loop
      vertex 0.234652 1.48153 20
      vertex 0.463525 -1.42658 20
      vertex 0.463525 1.42658 20
    endloop
  endfacet
  facet normal 0 0 1
    outer loop
      vertex 0.234652 1.48153 20
      vertex 0.234652 -1.48153 20
      vertex 0.463525 -1.42658 20
    endloop
  endfacet
  facet normal 0 0 1
    outer loop
      vertex 0 1.5 20
      vertex 0.234652 -1.48153 20
      vertex 0.234652 1.48153 20
    endloop
  endfacet
  facet normal 0 0 1
    outer loop
      vertex 0 1.5 20
      vertex 0 -1.5 20
      vertex 0.234652 -1.48153 20
    endloop
  endfacet
  facet normal -0 0 1
    outer loop
      vertex -0.234652 1.48153 20
      vertex 0 -1.5 20
      vertex 0 1.5 20
    endloop
  endfacet
  facet normal 0 0 1
    outer loop
      vertex -0.234652 1.48153 20
      vertex -0.234652 -1.48153 20
      vertex 0 -1.5 20
    endloop
  endfacet
  facet normal -0 0 1
    outer loop
      vertex -0.463525 1.42658 20
      vertex -0.234652 -1.48153 20
      vertex -0.234652 1.48153 20
    endloop
  endfacet
  facet normal 0 0 1
    outer loop
      vertex -0.463525 1.42658 20
      vertex -0.463525 -1.42658 20
      vertex -0.234652 -1.48153 20
    endloop
  endfacet
  facet normal -0 0 1
    outer loop
      vertex -0.680985 1.33651 20
      vertex -0.463525 -1.42658 20
      vertex -0.463525 1.42658 20
    endloop
  endfacet
  facet normal 0 0 1
    outer loop
      vertex -0.680985 1.33651 20
      vertex -0.680985 -1.33651 20
      vertex -0.463525 -1.42658 20
    endloop
  endfacet
  facet normal -0 0 1
    outer loop
      vertex -0.881678 1.21352 20
      vertex -0.680985 -1.33651 20
      vertex -0.680985 1.33651 20
    endloop
  endfacet
  facet normal 0 0 1
    outer loop
      vertex -0.881678 1.21352 20
      vertex -0.881678 -1.21352 20
      vertex -0.680985 -1.33651 20
    endloop
  endfacet
  facet normal -0 0 1
    outer loop
      vertex -1.06066 1.06066 20
      vertex -0.881678 -1.21352 20
      vertex -0.881678 1.21352 20
    endloop
  endfacet
  facet normal 0 0 1
    outer loop
      vertex -1.06066 1.06066 20
      vertex -1.06066 -1.06066 20
      vertex -0.881678 -1.21352 20
    endloop
  endfacet
  facet normal -0 0 1
    outer loop
      vertex -1.21352 0.881678 20
      vertex -1.06066 -1.06066 20
      vertex -1.06066 1.06066 20
    endloop
  endfacet
  facet normal 0 0 1
    outer loop
      vertex -1.21352 0.881678 20
      vertex -1.21352 -0.881678 20
      vertex -1.06066 -1.06066 20
    endloop
  endfacet
  facet normal -0 0 1
    outer loop
      vertex -1.33651 0.680985 20
      vertex -1.21352 -0.881678 20
      vertex -1.21352 0.881678 20
    endloop
  endfacet
  facet normal 0 0 1
    outer loop
      vertex -1.33651 0.680985 20
      vertex -1.33651 -0.680985 20
      vertex -1.21352 -0.881678 20
    endloop
  endfacet
  facet normal -0 0 1
    outer loop
      vertex -1.42658 0.463525 20
      vertex -1.33651 -0.680985 20
      vertex -1.33651 0.680985 20
    endloop
  endfacet
  facet normal 0 0 1
    outer loop
      vertex -1.42658 0.463525 20
      vertex -1.42658 -0.463525 20
      vertex -1.33651 -0.680985 20
    endloop
  endfacet
  facet normal -0 0 1
    outer loop
      vertex -1.48153 0.234652 20
      vertex -1.42658 -0.463525 20
      vertex -1.42658 0.463525 20
    endloop
  endfacet
  facet normal 0 0 1
    outer loop
      vertex -1.48153 0.234652 20
      vertex -1.48153 -0.234652 20
      vertex -1.42658 -0.463525 20
    endloop
  endfacet
  facet normal 0 -0 1
    outer loop
      vertex -1.48153 -0.234652 20
      vertex -1.48153 0.234652 20
      vertex -1.5 0 20
    endloop
  endfacet
  facet normal -0.5225 0.852639 0
    outer loop
      vertex -0.680985 1.33651 1
      vertex -0.881678 1.21352 20
      vertex -0.680985 1.33651 20
    endloop
  endfacet
  facet normal -0.5225 0.852639 0
    outer loop
      vertex -0.881678 1.21352 20
      vertex -0.680985 1.33651 1
      vertex -0.881678 1.21352 1
    endloop
  endfacet
  facet normal -0.0784609 0.996917 0
    outer loop
      vertex 0 1.5 1
      vertex -0.234652 1.48153 20
      vertex 0 1.5 20
    endloop
  endfacet
  facet normal -0.0784609 0.996917 0
    outer loop
      vertex -0.234652 1.48153 20
      vertex 0 1.5 1
      vertex -0.234652 1.48153 1
    endloop
  endfacet
  facet normal 0.233446 -0.97237 0
    outer loop
      vertex 0.234652 -1.48153 1
      vertex 0.463525 -1.42658 20
      vertex 0.234652 -1.48153 20
    endloop
  endfacet
  facet normal 0.233446 -0.97237 0
    outer loop
      vertex 0.463525 -1.42658 20
      vertex 0.234652 -1.48153 1
      vertex 0.463525 -1.42658 1
    endloop
  endfacet
  facet normal 0.0784609 -0.996917 0
    outer loop
      vertex 0 -1.5 1
      vertex 0.234652 -1.48153 20
      vertex 0 -1.5 20
    endloop
  endfacet
  facet normal 0.0784609 -0.996917 0
    outer loop
      vertex 0.234652 -1.48153 20
      vertex 0 -1.5 1
      vertex 0.234652 -1.48153 1
    endloop
  endfacet
  facet normal 0.760405 -0.649449 0
    outer loop
      vertex 1.06066 -1.06066 20
      vertex 1.21352 -0.881678 1
      vertex 1.21352 -0.881678 20
    endloop
  endfacet
  facet normal 0.760405 -0.649449 0
    outer loop
      vertex 1.21352 -0.881678 1
      vertex 1.06066 -1.06066 20
      vertex 1.06066 -1.06066 1
    endloop
  endfacet
  facet normal 0.5225 -0.852639 0
    outer loop
      vertex 0.680985 -1.33651 1
      vertex 0.881678 -1.21352 20
      vertex 0.680985 -1.33651 20
    endloop
  endfacet
  facet normal 0.5225 -0.852639 0
    outer loop
      vertex 0.881678 -1.21352 20
      vertex 0.680985 -1.33651 1
      vertex 0.881678 -1.21352 1
    endloop
  endfacet
  facet normal -0.649449 -0.760405 0
    outer loop
      vertex -1.06066 -1.06066 1
      vertex -0.881678 -1.21352 20
      vertex -1.06066 -1.06066 20
    endloop
  endfacet
  facet normal -0.649449 -0.760405 -0
    outer loop
      vertex -0.881678 -1.21352 20
      vertex -1.06066 -1.06066 1
      vertex -0.881678 -1.21352 1
    endloop
  endfacet
  facet normal -0.382681 -0.92388 0
    outer loop
      vertex -0.680985 -1.33651 1
      vertex -0.463525 -1.42658 20
      vertex -0.680985 -1.33651 20
    endloop
  endfacet
  facet normal -0.382681 -0.92388 -0
    outer loop
      vertex -0.463525 -1.42658 20
      vertex -0.680985 -1.33651 1
      vertex -0.463525 -1.42658 1
    endloop
  endfacet
  facet normal -0.852639 -0.5225 0
    outer loop
      vertex -1.21352 -0.881678 1
      vertex -1.33651 -0.680985 20
      vertex -1.33651 -0.680985 1
    endloop
  endfacet
  facet normal -0.852639 -0.5225 0
    outer loop
      vertex -1.33651 -0.680985 20
      vertex -1.21352 -0.881678 1
      vertex -1.21352 -0.881678 20
    endloop
  endfacet
  facet normal -0.760405 -0.649449 0
    outer loop
      vertex -1.06066 -1.06066 1
      vertex -1.21352 -0.881678 20
      vertex -1.21352 -0.881678 1
    endloop
  endfacet
  facet normal -0.760405 -0.649449 0
    outer loop
      vertex -1.21352 -0.881678 20
      vertex -1.06066 -1.06066 1
      vertex -1.06066 -1.06066 20
    endloop
  endfacet
  facet normal -0.996917 -0.0784609 0
    outer loop
      vertex -1.48153 -0.234652 1
      vertex -1.5 0 20
      vertex -1.5 0 1
    endloop
  endfacet
  facet normal -0.996917 -0.0784609 0
    outer loop
      vertex -1.5 0 20
      vertex -1.48153 -0.234652 1
      vertex -1.48153 -0.234652 20
    endloop
  endfacet
  facet normal 0.760405 0.649449 0
    outer loop
      vertex 1.21352 0.881678 20
      vertex 1.06066 1.06066 1
      vertex 1.06066 1.06066 20
    endloop
  endfacet
  facet normal 0.760405 0.649449 0
    outer loop
      vertex 1.06066 1.06066 1
      vertex 1.21352 0.881678 20
      vertex 1.21352 0.881678 1
    endloop
  endfacet
  facet normal -0.92388 0.382681 0
    outer loop
      vertex -1.42658 0.463525 1
      vertex -1.33651 0.680985 20
      vertex -1.33651 0.680985 1
    endloop
  endfacet
  facet normal -0.92388 0.382681 0
    outer loop
      vertex -1.33651 0.680985 20
      vertex -1.42658 0.463525 1
      vertex -1.42658 0.463525 20
    endloop
  endfacet
  facet normal -0.97237 0.233446 0
    outer loop
      vertex -1.48153 0.234652 1
      vertex -1.42658 0.463525 20
      vertex -1.42658 0.463525 1
    endloop
  endfacet
  facet normal -0.97237 0.233446 0
    outer loop
      vertex -1.42658 0.463525 20
      vertex -1.48153 0.234652 1
      vertex -1.48153 0.234652 20
    endloop
  endfacet
  facet normal 0.649449 -0.760405 0
    outer loop
      vertex 0.881678 -1.21352 1
      vertex 1.06066 -1.06066 20
      vertex 0.881678 -1.21352 20
    endloop
  endfacet
  facet normal 0.649449 -0.760405 0
    outer loop
      vertex 1.06066 -1.06066 20
      vertex 0.881678 -1.21352 1
      vertex 1.06066 -1.06066 1
    endloop
  endfacet
  facet normal -0.5225 -0.852639 0
    outer loop
      vertex -0.881678 -1.21352 1
      vertex -0.680985 -1.33651 20
      vertex -0.881678 -1.21352 20
    endloop
  endfacet
  facet normal -0.5225 -0.852639 -0
    outer loop
      vertex -0.680985 -1.33651 20
      vertex -0.881678 -1.21352 1
      vertex -0.680985 -1.33651 1
    endloop
  endfacet
  facet normal -0.0784609 -0.996917 0
    outer loop
      vertex -0.234652 -1.48153 1
      vertex 0 -1.5 20
      vertex -0.234652 -1.48153 20
    endloop
  endfacet
  facet normal -0.0784609 -0.996917 -0
    outer loop
      vertex 0 -1.5 20
      vertex -0.234652 -1.48153 1
      vertex 0 -1.5 1
    endloop
  endfacet
  facet normal -0.92388 -0.382681 0
    outer loop
      vertex -1.33651 -0.680985 1
      vertex -1.42658 -0.463525 20
      vertex -1.42658 -0.463525 1
    endloop
  endfacet
  facet normal -0.92388 -0.382681 0
    outer loop
      vertex -1.42658 -0.463525 20
      vertex -1.33651 -0.680985 1
      vertex -1.33651 -0.680985 20
    endloop
  endfacet
  facet normal -0.233446 0.97237 0
    outer loop
      vertex -0.234652 1.48153 1
      vertex -0.463525 1.42658 20
      vertex -0.234652 1.48153 20
    endloop
  endfacet
  facet normal -0.233446 0.97237 0
    outer loop
      vertex -0.463525 1.42658 20
      vertex -0.234652 1.48153 1
      vertex -0.463525 1.42658 1
    endloop
  endfacet
  facet normal 0.382681 -0.92388 0
    outer loop
      vertex 0.463525 -1.42658 1
      vertex 0.680985 -1.33651 20
      vertex 0.463525 -1.42658 20
    endloop
  endfacet
  facet normal 0.382681 -0.92388 0
    outer loop
      vertex 0.680985 -1.33651 20
      vertex 0.463525 -1.42658 1
      vertex 0.680985 -1.33651 1
    endloop
  endfacet
  facet normal 0.92388 -0.382681 0
    outer loop
      vertex 1.33651 -0.680985 20
      vertex 1.42658 -0.463525 1
      vertex 1.42658 -0.463525 20
    endloop
  endfacet
  facet normal 0.92388 -0.382681 0
    outer loop
      vertex 1.42658 -0.463525 1
      vertex 1.33651 -0.680985 20
      vertex 1.33651 -0.680985 1
    endloop
  endfacet
  facet normal 0.97237 -0.233446 0
    outer loop
      vertex 1.42658 -0.463525 20
      vertex 1.48153 -0.234652 1
      vertex 1.48153 -0.234652 20
    endloop
  endfacet
  facet normal 0.97237 -0.233446 0
    outer loop
      vertex 1.48153 -0.234652 1
      vertex 1.42658 -0.463525 20
      vertex 1.42658 -0.463525 1
    endloop
  endfacet
  facet normal 0.996917 -0.0784609 0
    outer loop
      vertex 1.48153 -0.234652 20
      vertex 1.5 0 1
      vertex 1.5 0 20
    endloop
  endfacet
  facet normal 0.996917 -0.0784609 0
    outer loop
      vertex 1.5 0 1
      vertex 1.48153 -0.234652 20
      vertex 1.48153 -0.234652 1
    endloop
  endfacet
  facet normal -0.233446 -0.97237 0
    outer loop
      vertex -0.463525 -1.42658 1
      vertex -0.234652 -1.48153 20
      vertex -0.463525 -1.42658 20
    endloop
  endfacet
  facet normal -0.233446 -0.97237 -0
    outer loop
      vertex -0.234652 -1.48153 20
      vertex -0.463525 -1.42658 1
      vertex -0.234652 -1.48153 1
    endloop
  endfacet
endsolid OpenSCAD_Model
