solid OpenSCAD_Model
  facet normal -1 0 0
    outer loop
      vertex 0 12.1286 0.946521
      vertex 0 15.2541 13.7227
      vertex 0 14.0535 0
    endloop
  endfacet
  facet normal -1 -0 0
    outer loop
      vertex 0 15.2541 13.7227
      vertex 0 12.1286 0.946521
      vertex 0 13.2617 13.8971
    endloop
  endfacet
  facet normal -1 0 0
    outer loop
      vertex 0 0 0
      vertex 0 12.1286 0.946521
      vertex 0 14.0535 0
    endloop
  endfacet
  facet normal -1 -0 0
    outer loop
      vertex 0 2.1667 1.81808
      vertex 0 0 0
      vertex 0 1.30734 14.9429
    endloop
  endfacet
  facet normal -1 -0 0
    outer loop
      vertex 0 12.1286 0.946521
      vertex 0 0 0
      vertex 0 2.1667 1.81808
    endloop
  endfacet
  facet normal -1 -0 0
    outer loop
      vertex 0 3.29973 14.7686
      vertex 0 2.1667 1.81808
      vertex 0 1.30734 14.9429
    endloop
  endfacet
  facet normal -0 0.0871558 0.996195
    outer loop
      vertex 0 3.29973 14.7686
      vertex 15 1.30734 14.9429
      vertex 15 3.29973 14.7686
    endloop
  endfacet
  facet normal 0 0.0871558 0.996195
    outer loop
      vertex 15 1.30734 14.9429
      vertex 0 3.29973 14.7686
      vertex 0 1.30734 14.9429
    endloop
  endfacet
  facet normal 9.60612e-08 0.0871558 0.996195
    outer loop
      vertex 60 15.2541 13.7227
      vertex 58 13.2617 13.8971
      vertex 60 1.30734 14.9429
    endloop
  endfacet
  facet normal -0 0.0871558 0.996195
    outer loop
      vertex 0 15.2541 13.7227
      vertex 58 13.2617 13.8971
      vertex 60 15.2541 13.7227
    endloop
  endfacet
  facet normal 0 0.0871558 0.996195
    outer loop
      vertex 58 13.2617 13.8971
      vertex 0 15.2541 13.7227
      vertex 0 13.2617 13.8971
    endloop
  endfacet
  facet normal -9.70825e-08 0.0871557 0.996195
    outer loop
      vertex 58 3.29973 14.7686
      vertex 60 1.30734 14.9429
      vertex 58 13.2617 13.8971
    endloop
  endfacet
  facet normal 0 0.0871558 0.996195
    outer loop
      vertex 37 1.30734 14.9429
      vertex 58 3.29973 14.7686
      vertex 37 3.29973 14.7686
    endloop
  endfacet
  facet normal 0 0.0871558 0.996195
    outer loop
      vertex 58 3.29973 14.7686
      vertex 37 1.30734 14.9429
      vertex 60 1.30734 14.9429
    endloop
  endfacet
  facet normal 1 -0 0
    outer loop
      vertex 60 -20 5
      vertex 60 2.07795e-08 2.37511e-07
      vertex 60 0.437443 5
    endloop
  endfacet
  facet normal 1 0 0
    outer loop
      vertex 60 2.07795e-08 2.37511e-07
      vertex 60 -20 5
      vertex 60 -20 3.79155e-07
    endloop
  endfacet
  facet normal 1 0 0
    outer loop
      vertex 60 1.30734 14.9429
      vertex 60 14.4909 5
      vertex 60 15.2541 13.7227
    endloop
  endfacet
  facet normal 1 0 0
    outer loop
      vertex 60 14.4909 5
      vertex 60 1.30734 14.9429
      vertex 60 0.437443 5
    endloop
  endfacet
  facet normal 1 0 0
    outer loop
      vertex 60 14.4909 5
      vertex 60 0.437443 5
      vertex 60 14.0535 1.37982e-07
    endloop
  endfacet
  facet normal 1 -0 0
    outer loop
      vertex 60 2.07795e-08 2.37511e-07
      vertex 60 14.0535 1.37982e-07
      vertex 60 0.437443 5
    endloop
  endfacet
  facet normal 1 0 0
    outer loop
      vertex 60 14.0535 1.37982e-07
      vertex 60 2.07795e-08 2.37511e-07
      vertex 60 14.0535 0
    endloop
  endfacet
  facet normal 1 0 0
    outer loop
      vertex 60 14.0535 0
      vertex 60 2.07795e-08 2.37511e-07
      vertex 60 0 0
    endloop
  endfacet
  facet normal 1 -0 0
    outer loop
      vertex 60 14.4909 5
      vertex 60 140 -7.53997e-07
      vertex 60 140 5
    endloop
  endfacet
  facet normal 1 0 0
    outer loop
      vertex 60 140 -7.53997e-07
      vertex 60 14.4909 5
      vertex 60 14.0535 1.37982e-07
    endloop
  endfacet
  facet normal 0 1 0
    outer loop
      vertex 60 14.0535 1.37982e-07
      vertex 60 14.0535 0
      vertex 50 14.0535 1.37982e-07
    endloop
  endfacet
  facet normal 0 0.996195 -0.0871557
    outer loop
      vertex 50 14.4909 5
      vertex 60 15.2541 13.7227
      vertex 60 14.4909 5
    endloop
  endfacet
  facet normal 0 0.996195 -0.0871557
    outer loop
      vertex 60 15.2541 13.7227
      vertex 50 14.4909 5
      vertex 0 15.2541 13.7227
    endloop
  endfacet
  facet normal 2.40518e-10 0.996195 -0.0871558
    outer loop
      vertex 0 14.0535 0
      vertex 50 14.4909 5
      vertex 50 14.0535 1.37982e-07
    endloop
  endfacet
  facet normal -7.55817e-09 0.996195 -0.0871558
    outer loop
      vertex 50 14.4909 5
      vertex 0 14.0535 0
      vertex 0 15.2541 13.7227
    endloop
  endfacet
  facet normal 0 1 0
    outer loop
      vertex 0 14.0535 0
      vertex 50 14.0535 1.37982e-07
      vertex 60 14.0535 0
    endloop
  endfacet
  facet normal 0 -0.996195 0.0871557
    outer loop
      vertex 0 1.30734 14.9429
      vertex 15 0.348623 3.98478
      vertex 15 1.30734 14.9429
    endloop
  endfacet
  facet normal 0 -0.996195 0.0871557
    outer loop
      vertex 15 0.348623 3.98478
      vertex 50 2.07795e-08 2.37511e-07
      vertex 37 0.348623 3.98478
    endloop
  endfacet
  facet normal 1.1348e-09 -0.996195 0.0871557
    outer loop
      vertex 0 0 0
      vertex 15 0.348623 3.98478
      vertex 0 1.30734 14.9429
    endloop
  endfacet
  facet normal 0 -0.996195 0.0871557
    outer loop
      vertex 0 0 0
      vertex 50 2.07795e-08 2.37511e-07
      vertex 15 0.348623 3.98478
    endloop
  endfacet
  facet normal 0 -0.996195 0.0871557
    outer loop
      vertex 60 0 0
      vertex 50 2.07795e-08 2.37511e-07
      vertex 0 0 0
    endloop
  endfacet
  facet normal 0 -0.996195 0.0871557
    outer loop
      vertex 50 2.07795e-08 2.37511e-07
      vertex 60 0 0
      vertex 60 2.07795e-08 2.37511e-07
    endloop
  endfacet
  facet normal 0 -0.996195 0.0871557
    outer loop
      vertex 37 1.30734 14.9429
      vertex 50 0.437443 5
      vertex 60 1.30734 14.9429
    endloop
  endfacet
  facet normal 2.25276e-09 -0.996195 0.0871557
    outer loop
      vertex 37 0.348623 3.98478
      vertex 50 0.437443 5
      vertex 37 1.30734 14.9429
    endloop
  endfacet
  facet normal 1.43281e-09 -0.996195 0.0871557
    outer loop
      vertex 50 0.437443 5
      vertex 37 0.348623 3.98478
      vertex 50 2.07795e-08 2.37511e-07
    endloop
  endfacet
  facet normal 0 -0.996195 0.0871557
    outer loop
      vertex 60 1.30734 14.9429
      vertex 50 0.437443 5
      vertex 60 0.437443 5
    endloop
  endfacet
  facet normal -1 0 0
    outer loop
      vertex 50 -20 5
      vertex 50 2.07795e-08 2.37511e-07
      vertex 50 -20 3.79155e-07
    endloop
  endfacet
  facet normal -1 0 0
    outer loop
      vertex 50 2.07795e-08 2.37511e-07
      vertex 50 -20 5
      vertex 50 0.437443 5
    endloop
  endfacet
  facet normal -1 0 0
    outer loop
      vertex 50 140 -7.53997e-07
      vertex 50 14.4909 5
      vertex 50 140 5
    endloop
  endfacet
  facet normal -1 0 -0
    outer loop
      vertex 50 14.4909 5
      vertex 50 140 -7.53997e-07
      vertex 50 14.0535 1.37982e-07
    endloop
  endfacet
  facet normal -0 0 1
    outer loop
      vertex 50 0.437443 5
      vertex 60 -20 5
      vertex 60 0.437443 5
    endloop
  endfacet
  facet normal 0 0 1
    outer loop
      vertex 60 -20 5
      vertex 50 0.437443 5
      vertex 50 -20 5
    endloop
  endfacet
  facet normal 0 -3.79922e-09 1
    outer loop
      vertex 50 140 5
      vertex 60 14.4909 5
      vertex 60 140 5
    endloop
  endfacet
  facet normal 0 -3.79922e-09 1
    outer loop
      vertex 60 14.4909 5
      vertex 50 140 5
      vertex 50 14.4909 5
    endloop
  endfacet
  facet normal 0 1 -0
    outer loop
      vertex 60 140 -7.53997e-07
      vertex 50 140 5
      vertex 60 140 5
    endloop
  endfacet
  facet normal 0 1 0
    outer loop
      vertex 50 140 5
      vertex 60 140 -7.53997e-07
      vertex 50 140 -7.53997e-07
    endloop
  endfacet
  facet normal 0 -7.0822e-09 -1
    outer loop
      vertex 50 14.0535 1.37982e-07
      vertex 60 140 -7.53997e-07
      vertex 60 14.0535 1.37982e-07
    endloop
  endfacet
  facet normal -0 -7.0822e-09 -1
    outer loop
      vertex 60 140 -7.53997e-07
      vertex 50 14.0535 1.37982e-07
      vertex 50 140 -7.53997e-07
    endloop
  endfacet
  facet normal 0 -7.0822e-09 -1
    outer loop
      vertex 50 -20 3.79155e-07
      vertex 60 2.07795e-08 2.37511e-07
      vertex 60 -20 3.79155e-07
    endloop
  endfacet
  facet normal -0 -7.0822e-09 -1
    outer loop
      vertex 60 2.07795e-08 2.37511e-07
      vertex 50 -20 3.79155e-07
      vertex 50 2.07795e-08 2.37511e-07
    endloop
  endfacet
  facet normal 0 -1 0
    outer loop
      vertex 50 -20 3.79155e-07
      vertex 60 -20 5
      vertex 50 -20 5
    endloop
  endfacet
  facet normal 0 -1 -0
    outer loop
      vertex 60 -20 5
      vertex 50 -20 3.79155e-07
      vertex 60 -20 3.79155e-07
    endloop
  endfacet
  facet normal -1 0 0
    outer loop
      vertex 58 12.1286 0.946521
      vertex 58 3.29973 14.7686
      vertex 58 13.2617 13.8971
    endloop
  endfacet
  facet normal -1 0 -0
    outer loop
      vertex 58 3.29973 14.7686
      vertex 58 12.1286 0.946521
      vertex 58 2.1667 1.81808
    endloop
  endfacet
  facet normal 0 -0.996195 0.0871558
    outer loop
      vertex 0 12.1286 0.946521
      vertex 58 13.2617 13.8971
      vertex 0 13.2617 13.8971
    endloop
  endfacet
  facet normal 0 -0.996195 0.0871558
    outer loop
      vertex 58 13.2617 13.8971
      vertex 0 12.1286 0.946521
      vertex 58 12.1286 0.946521
    endloop
  endfacet
  facet normal -0 0.0871557 0.996195
    outer loop
      vertex 0 12.1286 0.946521
      vertex 58 2.1667 1.81808
      vertex 58 12.1286 0.946521
    endloop
  endfacet
  facet normal 0 0.0871557 0.996195
    outer loop
      vertex 58 2.1667 1.81808
      vertex 0 12.1286 0.946521
      vertex 0 2.1667 1.81808
    endloop
  endfacet
  facet normal 0 0.996195 -0.0871557
    outer loop
      vertex 58 3.29973 14.7686
      vertex 37 2.34101 3.81047
      vertex 37 3.29973 14.7686
    endloop
  endfacet
  facet normal 0 0.996195 -0.0871558
    outer loop
      vertex 0 2.1667 1.81808
      vertex 37 2.34101 3.81047
      vertex 58 2.1667 1.81808
    endloop
  endfacet
  facet normal 7.30256e-09 0.996195 -0.0871557
    outer loop
      vertex 58 2.1667 1.81808
      vertex 37 2.34101 3.81047
      vertex 58 3.29973 14.7686
    endloop
  endfacet
  facet normal 0 0.996195 -0.0871557
    outer loop
      vertex 15 2.34101 3.81047
      vertex 0 3.29973 14.7686
      vertex 15 3.29973 14.7686
    endloop
  endfacet
  facet normal -1.02236e-08 0.996195 -0.0871557
    outer loop
      vertex 15 2.34101 3.81047
      vertex 0 2.1667 1.81808
      vertex 0 3.29973 14.7686
    endloop
  endfacet
  facet normal 0 0.996195 -0.0871558
    outer loop
      vertex 37 2.34101 3.81047
      vertex 0 2.1667 1.81808
      vertex 15 2.34101 3.81047
    endloop
  endfacet
  facet normal 1 0 0
    outer loop
      vertex 15 1.30734 14.9429
      vertex 15 2.34101 3.81047
      vertex 15 3.29973 14.7686
    endloop
  endfacet
  facet normal 1 0 0
    outer loop
      vertex 15 2.34101 3.81047
      vertex 15 1.30734 14.9429
      vertex 15 0.348623 3.98478
    endloop
  endfacet
  facet normal -1 0 0
    outer loop
      vertex 37 2.34101 3.81047
      vertex 37 1.30734 14.9429
      vertex 37 3.29973 14.7686
    endloop
  endfacet
  facet normal -1 0 -0
    outer loop
      vertex 37 1.30734 14.9429
      vertex 37 2.34101 3.81047
      vertex 37 0.348623 3.98478
    endloop
  endfacet
  facet normal -0 0.0871558 0.996195
    outer loop
      vertex 15 2.34101 3.81047
      vertex 37 0.348623 3.98478
      vertex 37 2.34101 3.81047
    endloop
  endfacet
  facet normal 0 0.0871558 0.996195
    outer loop
      vertex 37 0.348623 3.98478
      vertex 15 2.34101 3.81047
      vertex 15 0.348623 3.98478
    endloop
  endfacet
  facet normal 0 0 -1
    outer loop
      vertex 0 0 0
      vertex 60 14.0535 0
      vertex 60 0 0
    endloop
  endfacet
  facet normal -0 0 -1
    outer loop
      vertex 60 14.0535 0
      vertex 0 0 0
      vertex 0 14.0535 0
    endloop
  endfacet
endsolid OpenSCAD_Model
