solid OpenSCAD_Model
  facet normal -1 0 0
    outer loop
      vertex 0 0 0
      vertex 0 4 45
      vertex 0 4 0
    endloop
  endfacet
  facet normal -1 -0 0
    outer loop
      vertex 0 4 45
      vertex 0 0 0
      vertex 0 0 59.9282
    endloop
  endfacet
  facet normal 1 0 0
    outer loop
      vertex 6.5 0 0
      vertex 6.5 4 45
      vertex 6.5 0 59.9282
    endloop
  endfacet
  facet normal 1 0 0
    outer loop
      vertex 6.5 4 45
      vertex 6.5 0 0
      vertex 6.5 4 0
    endloop
  endfacet
  facet normal 0 1 -0
    outer loop
      vertex 6.5 4 0
      vertex 0 4 45
      vertex 6.5 4 45
    endloop
  endfacet
  facet normal 0 1 0
    outer loop
      vertex 0 4 45
      vertex 6.5 4 0
      vertex 0 4 0
    endloop
  endfacet
  facet normal 0 0 -1
    outer loop
      vertex 6.5 0 0
      vertex 5.5 1.25 0
      vertex 6.5 4 0
    endloop
  endfacet
  facet normal 0 0 -1
    outer loop
      vertex 6.5 0 0
      vertex 1 1.25 0
      vertex 5.5 1.25 0
    endloop
  endfacet
  facet normal -0 0 -1
    outer loop
      vertex 1 1.25 0
      vertex 0 0 0
      vertex 1 2.75 0
    endloop
  endfacet
  facet normal 0 0 -1
    outer loop
      vertex 0 0 0
      vertex 1 1.25 0
      vertex 6.5 0 0
    endloop
  endfacet
  facet normal 0 0 -1
    outer loop
      vertex 5.5 2.75 0
      vertex 6.5 4 0
      vertex 5.5 1.25 0
    endloop
  endfacet
  facet normal 0 0 -1
    outer loop
      vertex 1 2.75 0
      vertex 6.5 4 0
      vertex 5.5 2.75 0
    endloop
  endfacet
  facet normal 0 0 -1
    outer loop
      vertex 1 2.75 0
      vertex 0 4 0
      vertex 6.5 4 0
    endloop
  endfacet
  facet normal 0 0 -1
    outer loop
      vertex 0 4 0
      vertex 1 2.75 0
      vertex 0 0 0
    endloop
  endfacet
  facet normal 0 -1 0
    outer loop
      vertex 0 0 0
      vertex 6.5 0 59.9282
      vertex 0 0 59.9282
    endloop
  endfacet
  facet normal 0 -1 -0
    outer loop
      vertex 6.5 0 59.9282
      vertex 0 0 0
      vertex 6.5 0 0
    endloop
  endfacet
  facet normal 1 0 0
    outer loop
      vertex 1 1.25 0
      vertex 1 2.75 49.6651
      vertex 1 1.25 55.2631
    endloop
  endfacet
  facet normal 1 0 0
    outer loop
      vertex 1 2.75 49.6651
      vertex 1 1.25 0
      vertex 1 2.75 0
    endloop
  endfacet
  facet normal -1 0 0
    outer loop
      vertex 5.5 1.25 0
      vertex 5.5 2.75 49.6651
      vertex 5.5 2.75 0
    endloop
  endfacet
  facet normal -1 -0 0
    outer loop
      vertex 5.5 2.75 49.6651
      vertex 5.5 1.25 0
      vertex 5.5 1.25 55.2631
    endloop
  endfacet
  facet normal 0 -1 0
    outer loop
      vertex 1 2.75 0
      vertex 5.5 2.75 49.6651
      vertex 1 2.75 49.6651
    endloop
  endfacet
  facet normal 0 -1 -0
    outer loop
      vertex 5.5 2.75 49.6651
      vertex 1 2.75 0
      vertex 5.5 2.75 0
    endloop
  endfacet
  facet normal 0 1 -0
    outer loop
      vertex 5.5 1.25 0
      vertex 1 1.25 55.2631
      vertex 5.5 1.25 55.2631
    endloop
  endfacet
  facet normal 0 1 0
    outer loop
      vertex 1 1.25 55.2631
      vertex 5.5 1.25 0
      vertex 1 1.25 0
    endloop
  endfacet
  facet normal 0 0.965926 0.258819
    outer loop
      vertex 6.5 0 59.9282
      vertex 5.5 1.25 55.2631
      vertex 0 0 59.9282
    endloop
  endfacet
  facet normal 1.15187e-06 0.965926 0.258819
    outer loop
      vertex 6.5 0 59.9282
      vertex 5.5 2.75 49.6651
      vertex 5.5 1.25 55.2631
    endloop
  endfacet
  facet normal 0 0.965926 0.258819
    outer loop
      vertex 5.5 2.75 49.6651
      vertex 6.5 4 45
      vertex 1 2.75 49.6651
    endloop
  endfacet
  facet normal -4.31951e-07 0.965926 0.258819
    outer loop
      vertex 6.5 4 45
      vertex 5.5 2.75 49.6651
      vertex 6.5 0 59.9282
    endloop
  endfacet
  facet normal -0 0.965926 0.258819
    outer loop
      vertex 1 1.25 55.2631
      vertex 0 0 59.9282
      vertex 5.5 1.25 55.2631
    endloop
  endfacet
  facet normal -1.15187e-06 0.965926 0.258819
    outer loop
      vertex 1 2.75 49.6651
      vertex 0 0 59.9282
      vertex 1 1.25 55.2631
    endloop
  endfacet
  facet normal 4.31951e-07 0.965926 0.258819
    outer loop
      vertex 1 2.75 49.6651
      vertex 0 4 45
      vertex 0 0 59.9282
    endloop
  endfacet
  facet normal -0 0.965926 0.258819
    outer loop
      vertex 0 4 45
      vertex 1 2.75 49.6651
      vertex 6.5 4 45
    endloop
  endfacet
endsolid OpenSCAD_Model
