solid OpenSCAD_Model
  facet normal 0.978148 0.207912 0
    outer loop
      vertex 4.5 0 11.8
      vertex 4.11095 1.83031 0
      vertex 4.11095 1.83031 11.8
    endloop
  endfacet
  facet normal 0.978148 0.207912 0
    outer loop
      vertex 4.11095 1.83031 0
      vertex 4.5 0 11.8
      vertex 4.5 0 0
    endloop
  endfacet
  facet normal -1 0 0
    outer loop
      vertex -4.40166 -0.935602 0
      vertex -4.40166 0.935602 11.8
      vertex -4.40166 0.935602 0
    endloop
  endfacet
  facet normal -1 -0 0
    outer loop
      vertex -4.40166 0.935602 11.8
      vertex -4.40166 -0.935602 0
      vertex -4.40166 -0.935602 11.8
    endloop
  endfacet
  facet normal 0.104529 0.994522 -0
    outer loop
      vertex 1.39058 4.27975 0
      vertex -0.470378 4.47535 11.8
      vertex 1.39058 4.27975 11.8
    endloop
  endfacet
  facet normal 0.104529 0.994522 0
    outer loop
      vertex -0.470378 4.47535 11.8
      vertex 1.39058 4.27975 0
      vertex -0.470378 4.47535 0
    endloop
  endfacet
  facet normal 0.809017 0.587785 0
    outer loop
      vertex 4.11095 1.83031 11.8
      vertex 3.01109 3.34415 0
      vertex 3.01109 3.34415 11.8
    endloop
  endfacet
  facet normal 0.809017 0.587785 0
    outer loop
      vertex 3.01109 3.34415 0
      vertex 4.11095 1.83031 11.8
      vertex 4.11095 1.83031 0
    endloop
  endfacet
  facet normal 0.104529 -0.994522 0
    outer loop
      vertex -0.470378 -4.47535 0
      vertex 1.39058 -4.27975 11.8
      vertex -0.470378 -4.47535 11.8
    endloop
  endfacet
  facet normal 0.104529 -0.994522 0
    outer loop
      vertex 1.39058 -4.27975 11.8
      vertex -0.470378 -4.47535 0
      vertex 1.39058 -4.27975 0
    endloop
  endfacet
  facet normal 0.5 -0.866025 0
    outer loop
      vertex 1.39058 -4.27975 0
      vertex 3.01109 -3.34415 11.8
      vertex 1.39058 -4.27975 11.8
    endloop
  endfacet
  facet normal 0.5 -0.866025 0
    outer loop
      vertex 3.01109 -3.34415 11.8
      vertex 1.39058 -4.27975 0
      vertex 3.01109 -3.34415 0
    endloop
  endfacet
  facet normal 0.5 0.866025 -0
    outer loop
      vertex 3.01109 3.34415 0
      vertex 1.39058 4.27975 11.8
      vertex 3.01109 3.34415 11.8
    endloop
  endfacet
  facet normal 0.5 0.866025 0
    outer loop
      vertex 1.39058 4.27975 11.8
      vertex 3.01109 3.34415 0
      vertex 1.39058 4.27975 0
    endloop
  endfacet
  facet normal -0.66913 0.743145 0
    outer loop
      vertex -2.25 3.89711 0
      vertex -3.64058 2.64503 11.8
      vertex -2.25 3.89711 11.8
    endloop
  endfacet
  facet normal -0.66913 0.743145 0
    outer loop
      vertex -3.64058 2.64503 11.8
      vertex -2.25 3.89711 0
      vertex -3.64058 2.64503 0
    endloop
  endfacet
  facet normal -0.913545 0.406737 0
    outer loop
      vertex -4.40166 0.935602 0
      vertex -3.64058 2.64503 11.8
      vertex -3.64058 2.64503 0
    endloop
  endfacet
  facet normal -0.913545 0.406737 0
    outer loop
      vertex -3.64058 2.64503 11.8
      vertex -4.40166 0.935602 0
      vertex -4.40166 0.935602 11.8
    endloop
  endfacet
  facet normal 0 0 1
    outer loop
      vertex 3.5 0 11.8
      vertex 4.5 0 11.8
      vertex 4.11095 1.83031 11.8
    endloop
  endfacet
  facet normal 0 0 1
    outer loop
      vertex 4.5 0 11.8
      vertex 3.5 0 11.8
      vertex 4.11095 -1.83031 11.8
    endloop
  endfacet
  facet normal -0 0 1
    outer loop
      vertex 2.94439 1.89224 11.8
      vertex 4.11095 1.83031 11.8
      vertex 3.01109 3.34415 11.8
    endloop
  endfacet
  facet normal 0 0 1
    outer loop
      vertex 4.11095 1.83031 11.8
      vertex 2.94439 1.89224 11.8
      vertex 3.5 0 11.8
    endloop
  endfacet
  facet normal 0 0 1
    outer loop
      vertex 3.01109 3.34415 11.8
      vertex 1.45395 3.18371 11.8
      vertex 2.94439 1.89224 11.8
    endloop
  endfacet
  facet normal 0 0 1
    outer loop
      vertex 1.39058 4.27975 11.8
      vertex 1.45395 3.18371 11.8
      vertex 3.01109 3.34415 11.8
    endloop
  endfacet
  facet normal 0 0 1
    outer loop
      vertex -0.498101 3.46437 11.8
      vertex 1.39058 4.27975 11.8
      vertex -0.470378 4.47535 11.8
    endloop
  endfacet
  facet normal 0 0 1
    outer loop
      vertex 1.39058 4.27975 11.8
      vertex -0.498101 3.46437 11.8
      vertex 1.45395 3.18371 11.8
    endloop
  endfacet
  facet normal -0 0 1
    outer loop
      vertex -2.25 3.89711 11.8
      vertex -0.498101 3.46437 11.8
      vertex -0.470378 4.47535 11.8
    endloop
  endfacet
  facet normal 0 0 1
    outer loop
      vertex -2.25 3.89711 11.8
      vertex -2.29201 2.64512 11.8
      vertex -0.498101 3.46437 11.8
    endloop
  endfacet
  facet normal 0 0 1
    outer loop
      vertex -3.64058 2.64503 11.8
      vertex -2.29201 2.64512 11.8
      vertex -2.25 3.89711 11.8
    endloop
  endfacet
  facet normal 0 0 1
    outer loop
      vertex -4.40166 0.935602 11.8
      vertex -3.35822 0.986063 11.8
      vertex -3.64058 2.64503 11.8
    endloop
  endfacet
  facet normal 0 0 1
    outer loop
      vertex -2.29201 2.64512 11.8
      vertex -3.64058 2.64503 11.8
      vertex -3.35822 0.986063 11.8
    endloop
  endfacet
  facet normal 0 0 1
    outer loop
      vertex 2.94439 -1.89224 11.8
      vertex 4.11095 -1.83031 11.8
      vertex 3.5 0 11.8
    endloop
  endfacet
  facet normal 0 0 1
    outer loop
      vertex 4.11095 -1.83031 11.8
      vertex 2.94439 -1.89224 11.8
      vertex 3.01109 -3.34415 11.8
    endloop
  endfacet
  facet normal -0 0 1
    outer loop
      vertex 1.45395 -3.18371 11.8
      vertex 3.01109 -3.34415 11.8
      vertex 2.94439 -1.89224 11.8
    endloop
  endfacet
  facet normal 0 0 1
    outer loop
      vertex 1.45395 -3.18371 11.8
      vertex 1.39058 -4.27975 11.8
      vertex 3.01109 -3.34415 11.8
    endloop
  endfacet
  facet normal -0 0 1
    outer loop
      vertex -0.498101 -3.46437 11.8
      vertex 1.39058 -4.27975 11.8
      vertex 1.45395 -3.18371 11.8
    endloop
  endfacet
  facet normal 0 0 1
    outer loop
      vertex 1.39058 -4.27975 11.8
      vertex -0.498101 -3.46437 11.8
      vertex -0.470378 -4.47535 11.8
    endloop
  endfacet
  facet normal 0 0 1
    outer loop
      vertex -0.498101 -3.46437 11.8
      vertex -2.25 -3.89711 11.8
      vertex -0.470378 -4.47535 11.8
    endloop
  endfacet
  facet normal 0 0 1
    outer loop
      vertex -2.29201 -2.64512 11.8
      vertex -2.25 -3.89711 11.8
      vertex -0.498101 -3.46437 11.8
    endloop
  endfacet
  facet normal -0 0 1
    outer loop
      vertex -3.64058 -2.64503 11.8
      vertex -2.29201 -2.64512 11.8
      vertex -3.35822 -0.986063 11.8
    endloop
  endfacet
  facet normal 0 0 1
    outer loop
      vertex -2.29201 -2.64512 11.8
      vertex -3.64058 -2.64503 11.8
      vertex -2.25 -3.89711 11.8
    endloop
  endfacet
  facet normal 0 0 1
    outer loop
      vertex -3.35822 0.986063 11.8
      vertex -4.40166 0.935602 11.8
      vertex -3.35822 -0.986063 11.8
    endloop
  endfacet
  facet normal -0 0 1
    outer loop
      vertex -4.40166 -0.935602 11.8
      vertex -3.35822 -0.986063 11.8
      vertex -4.40166 0.935602 11.8
    endloop
  endfacet
  facet normal 0 0 1
    outer loop
      vertex -3.35822 -0.986063 11.8
      vertex -4.40166 -0.935602 11.8
      vertex -3.64058 -2.64503 11.8
    endloop
  endfacet
  facet normal -0.309017 0.951056 0
    outer loop
      vertex -0.470378 4.47535 0
      vertex -2.25 3.89711 11.8
      vertex -0.470378 4.47535 11.8
    endloop
  endfacet
  facet normal -0.309017 0.951056 0
    outer loop
      vertex -2.25 3.89711 11.8
      vertex -0.470378 4.47535 0
      vertex -2.25 3.89711 0
    endloop
  endfacet
  facet normal 0.978148 -0.207912 0
    outer loop
      vertex 4.11095 -1.83031 11.8
      vertex 4.5 0 0
      vertex 4.5 0 11.8
    endloop
  endfacet
  facet normal 0.978148 -0.207912 0
    outer loop
      vertex 4.5 0 0
      vertex 4.11095 -1.83031 11.8
      vertex 4.11095 -1.83031 0
    endloop
  endfacet
  facet normal 0 0 -1
    outer loop
      vertex 3.5 0 0
      vertex 4.5 0 0
      vertex 4.11095 -1.83031 0
    endloop
  endfacet
  facet normal 0 0 -1
    outer loop
      vertex 4.5 0 0
      vertex 3.5 0 0
      vertex 4.11095 1.83031 0
    endloop
  endfacet
  facet normal 0 0 -1
    outer loop
      vertex 2.94439 -1.89224 0
      vertex 4.11095 -1.83031 0
      vertex 3.01109 -3.34415 0
    endloop
  endfacet
  facet normal -0 0 -1
    outer loop
      vertex 4.11095 -1.83031 0
      vertex 2.94439 -1.89224 0
      vertex 3.5 0 0
    endloop
  endfacet
  facet normal 0 0 -1
    outer loop
      vertex 3.01109 -3.34415 0
      vertex 1.45395 -3.18371 0
      vertex 2.94439 -1.89224 0
    endloop
  endfacet
  facet normal 0 0 -1
    outer loop
      vertex 1.39058 -4.27975 0
      vertex 1.45395 -3.18371 0
      vertex 3.01109 -3.34415 0
    endloop
  endfacet
  facet normal 0 0 -1
    outer loop
      vertex -0.498101 -3.46437 0
      vertex 1.39058 -4.27975 0
      vertex -0.470378 -4.47535 0
    endloop
  endfacet
  facet normal 0 0 -1
    outer loop
      vertex 1.39058 -4.27975 0
      vertex -0.498101 -3.46437 0
      vertex 1.45395 -3.18371 0
    endloop
  endfacet
  facet normal 0 0 -1
    outer loop
      vertex -2.25 -3.89711 0
      vertex -0.498101 -3.46437 0
      vertex -0.470378 -4.47535 0
    endloop
  endfacet
  facet normal 0 0 -1
    outer loop
      vertex -2.25 -3.89711 0
      vertex -2.29201 -2.64512 0
      vertex -0.498101 -3.46437 0
    endloop
  endfacet
  facet normal 0 0 -1
    outer loop
      vertex -3.64058 -2.64503 0
      vertex -2.29201 -2.64512 0
      vertex -2.25 -3.89711 0
    endloop
  endfacet
  facet normal 0 0 -1
    outer loop
      vertex -4.40166 -0.935602 0
      vertex -3.35822 -0.986063 0
      vertex -3.64058 -2.64503 0
    endloop
  endfacet
  facet normal 0 0 -1
    outer loop
      vertex -2.29201 -2.64512 0
      vertex -3.64058 -2.64503 0
      vertex -3.35822 -0.986063 0
    endloop
  endfacet
  facet normal 0 0 -1
    outer loop
      vertex 2.94439 1.89224 0
      vertex 4.11095 1.83031 0
      vertex 3.5 0 0
    endloop
  endfacet
  facet normal 0 0 -1
    outer loop
      vertex 4.11095 1.83031 0
      vertex 2.94439 1.89224 0
      vertex 3.01109 3.34415 0
    endloop
  endfacet
  facet normal 0 0 -1
    outer loop
      vertex 1.45395 3.18371 0
      vertex 3.01109 3.34415 0
      vertex 2.94439 1.89224 0
    endloop
  endfacet
  facet normal 0 0 -1
    outer loop
      vertex 1.45395 3.18371 0
      vertex 1.39058 4.27975 0
      vertex 3.01109 3.34415 0
    endloop
  endfacet
  facet normal 0 0 -1
    outer loop
      vertex -0.498101 3.46437 0
      vertex 1.39058 4.27975 0
      vertex 1.45395 3.18371 0
    endloop
  endfacet
  facet normal -0 0 -1
    outer loop
      vertex 1.39058 4.27975 0
      vertex -0.498101 3.46437 0
      vertex -0.470378 4.47535 0
    endloop
  endfacet
  facet normal 0 0 -1
    outer loop
      vertex -0.498101 3.46437 0
      vertex -2.25 3.89711 0
      vertex -0.470378 4.47535 0
    endloop
  endfacet
  facet normal 0 0 -1
    outer loop
      vertex -2.29201 2.64512 0
      vertex -2.25 3.89711 0
      vertex -0.498101 3.46437 0
    endloop
  endfacet
  facet normal 0 0 -1
    outer loop
      vertex -3.64058 2.64503 0
      vertex -2.29201 2.64512 0
      vertex -3.35822 0.986063 0
    endloop
  endfacet
  facet normal -0 0 -1
    outer loop
      vertex -2.29201 2.64512 0
      vertex -3.64058 2.64503 0
      vertex -2.25 3.89711 0
    endloop
  endfacet
  facet normal 0 0 -1
    outer loop
      vertex -3.35822 -0.986063 0
      vertex -4.40166 -0.935602 0
      vertex -3.35822 0.986063 0
    endloop
  endfacet
  facet normal 0 0 -1
    outer loop
      vertex -4.40166 0.935602 0
      vertex -3.35822 0.986063 0
      vertex -4.40166 -0.935602 0
    endloop
  endfacet
  facet normal -0 0 -1
    outer loop
      vertex -3.35822 0.986063 0
      vertex -4.40166 0.935602 0
      vertex -3.64058 2.64503 0
    endloop
  endfacet
  facet normal -0.309017 -0.951056 0
    outer loop
      vertex -2.25 -3.89711 0
      vertex -0.470378 -4.47535 11.8
      vertex -2.25 -3.89711 11.8
    endloop
  endfacet
  facet normal -0.309017 -0.951056 -0
    outer loop
      vertex -0.470378 -4.47535 11.8
      vertex -2.25 -3.89711 0
      vertex -0.470378 -4.47535 0
    endloop
  endfacet
  facet normal 0.809017 -0.587785 0
    outer loop
      vertex 3.01109 -3.34415 11.8
      vertex 4.11095 -1.83031 0
      vertex 4.11095 -1.83031 11.8
    endloop
  endfacet
  facet normal 0.809017 -0.587785 0
    outer loop
      vertex 4.11095 -1.83031 0
      vertex 3.01109 -3.34415 11.8
      vertex 3.01109 -3.34415 0
    endloop
  endfacet
  facet normal -0.669131 -0.743145 0
    outer loop
      vertex -3.64058 -2.64503 0
      vertex -2.25 -3.89711 11.8
      vertex -3.64058 -2.64503 11.8
    endloop
  endfacet
  facet normal -0.669131 -0.743145 -0
    outer loop
      vertex -2.25 -3.89711 11.8
      vertex -3.64058 -2.64503 0
      vertex -2.25 -3.89711 0
    endloop
  endfacet
  facet normal -0.913545 -0.406737 0
    outer loop
      vertex -3.64058 -2.64503 0
      vertex -4.40166 -0.935602 11.8
      vertex -4.40166 -0.935602 0
    endloop
  endfacet
  facet normal -0.913545 -0.406737 0
    outer loop
      vertex -4.40166 -0.935602 11.8
      vertex -3.64058 -2.64503 0
      vertex -3.64058 -2.64503 11.8
    endloop
  endfacet
  facet normal -0.959493 -0.281733 0
    outer loop
      vertex 3.5 0 0
      vertex 2.94439 1.89224 11.8
      vertex 2.94439 1.89224 0
    endloop
  endfacet
  facet normal -0.959493 -0.281733 0
    outer loop
      vertex 2.94439 1.89224 11.8
      vertex 3.5 0 0
      vertex 3.5 0 11.8
    endloop
  endfacet
  facet normal 1 -0 0
    outer loop
      vertex -3.35822 -0.986063 11.8
      vertex -3.35822 0.986063 0
      vertex -3.35822 0.986063 11.8
    endloop
  endfacet
  facet normal 1 0 0
    outer loop
      vertex -3.35822 0.986063 0
      vertex -3.35822 -0.986063 11.8
      vertex -3.35822 -0.986063 0
    endloop
  endfacet
  facet normal 0.415415 -0.909632 0
    outer loop
      vertex -2.29201 2.64512 0
      vertex -0.498101 3.46437 11.8
      vertex -2.29201 2.64512 11.8
    endloop
  endfacet
  facet normal 0.415415 -0.909632 0
    outer loop
      vertex -0.498101 3.46437 11.8
      vertex -2.29201 2.64512 0
      vertex -0.498101 3.46437 0
    endloop
  endfacet
  facet normal 0.841254 -0.540641 0
    outer loop
      vertex -3.35822 0.986063 11.8
      vertex -2.29201 2.64512 0
      vertex -2.29201 2.64512 11.8
    endloop
  endfacet
  facet normal 0.841254 -0.540641 0
    outer loop
      vertex -2.29201 2.64512 0
      vertex -3.35822 0.986063 11.8
      vertex -3.35822 0.986063 0
    endloop
  endfacet
  facet normal -0.142315 0.989821 0
    outer loop
      vertex 1.45395 -3.18371 0
      vertex -0.498101 -3.46437 11.8
      vertex 1.45395 -3.18371 11.8
    endloop
  endfacet
  facet normal -0.142315 0.989821 0
    outer loop
      vertex -0.498101 -3.46437 11.8
      vertex 1.45395 -3.18371 0
      vertex -0.498101 -3.46437 0
    endloop
  endfacet
  facet normal -0.654861 0.75575 0
    outer loop
      vertex 2.94439 -1.89224 0
      vertex 1.45395 -3.18371 11.8
      vertex 2.94439 -1.89224 11.8
    endloop
  endfacet
  facet normal -0.654861 0.75575 0
    outer loop
      vertex 1.45395 -3.18371 11.8
      vertex 2.94439 -1.89224 0
      vertex 1.45395 -3.18371 0
    endloop
  endfacet
  facet normal -0.142315 -0.989821 0
    outer loop
      vertex -0.498101 3.46437 0
      vertex 1.45395 3.18371 11.8
      vertex -0.498101 3.46437 11.8
    endloop
  endfacet
  facet normal -0.142315 -0.989821 -0
    outer loop
      vertex 1.45395 3.18371 11.8
      vertex -0.498101 3.46437 0
      vertex 1.45395 3.18371 0
    endloop
  endfacet
  facet normal -0.654861 -0.75575 0
    outer loop
      vertex 1.45395 3.18371 0
      vertex 2.94439 1.89224 11.8
      vertex 1.45395 3.18371 11.8
    endloop
  endfacet
  facet normal -0.654861 -0.75575 -0
    outer loop
      vertex 2.94439 1.89224 11.8
      vertex 1.45395 3.18371 0
      vertex 2.94439 1.89224 0
    endloop
  endfacet
  facet normal -0.959493 0.281733 0
    outer loop
      vertex 2.94439 -1.89224 0
      vertex 3.5 0 11.8
      vertex 3.5 0 0
    endloop
  endfacet
  facet normal -0.959493 0.281733 0
    outer loop
      vertex 3.5 0 11.8
      vertex 2.94439 -1.89224 0
      vertex 2.94439 -1.89224 11.8
    endloop
  endfacet
  facet normal 0.415415 0.909632 -0
    outer loop
      vertex -0.498101 -3.46437 0
      vertex -2.29201 -2.64512 11.8
      vertex -0.498101 -3.46437 11.8
    endloop
  endfacet
  facet normal 0.415415 0.909632 0
    outer loop
      vertex -2.29201 -2.64512 11.8
      vertex -0.498101 -3.46437 0
      vertex -2.29201 -2.64512 0
    endloop
  endfacet
  facet normal 0.841254 0.540641 0
    outer loop
      vertex -2.29201 -2.64512 11.8
      vertex -3.35822 -0.986063 0
      vertex -3.35822 -0.986063 11.8
    endloop
  endfacet
  facet normal 0.841254 0.540641 0
    outer loop
      vertex -3.35822 -0.986063 0
      vertex -2.29201 -2.64512 11.8
      vertex -2.29201 -2.64512 0
    endloop
  endfacet
endsolid OpenSCAD_Model
