solid OpenSCAD_Model
  facet normal -1 0 0
    outer loop
      vertex 0 14.3 0
      vertex 0 2 10
      vertex 0 14.3 10
    endloop
  endfacet
  facet normal -1 0 0
    outer loop
      vertex 0 0 0
      vertex 0 2 10
      vertex 0 14.3 0
    endloop
  endfacet
  facet normal -1 0 0
    outer loop
      vertex 0 0 19
      vertex 0 2 10
      vertex 0 0 0
    endloop
  endfacet
  facet normal -1 0 0
    outer loop
      vertex 0 2 10
      vertex 0 0 19
      vertex 0 2 19
    endloop
  endfacet
  facet normal 0 0 1
    outer loop
      vertex 34.3 14.3 10
      vertex 32.3 12.3 10
      vertex 34.3 2 10
    endloop
  endfacet
  facet normal 0 0 1
    outer loop
      vertex 34.3 14.3 10
      vertex 2 12.3 10
      vertex 32.3 12.3 10
    endloop
  endfacet
  facet normal -0 0 1
    outer loop
      vertex 0 14.3 10
      vertex 2 12.3 10
      vertex 34.3 14.3 10
    endloop
  endfacet
  facet normal 0 0 1
    outer loop
      vertex 0 2 10
      vertex 2 12.3 10
      vertex 0 14.3 10
    endloop
  endfacet
  facet normal 0 0 1
    outer loop
      vertex 2 12.3 10
      vertex 0 2 10
      vertex 2 2 10
    endloop
  endfacet
  facet normal 0 0 1
    outer loop
      vertex 34.3 2 10
      vertex 32.3 12.3 10
      vertex 32.3 2 10
    endloop
  endfacet
  facet normal 1 0 0
    outer loop
      vertex 34.3 2 19
      vertex 34.3 0 19
      vertex 34.3 2 10
    endloop
  endfacet
  facet normal 1 -0 0
    outer loop
      vertex 34.3 2 10
      vertex 34.3 14.3 0
      vertex 34.3 14.3 10
    endloop
  endfacet
  facet normal 1 0 0
    outer loop
      vertex 34.3 2 10
      vertex 34.3 0 0
      vertex 34.3 14.3 0
    endloop
  endfacet
  facet normal 1 0 0
    outer loop
      vertex 34.3 0 0
      vertex 34.3 2 10
      vertex 34.3 0 19
    endloop
  endfacet
  facet normal 0 1 -0
    outer loop
      vertex 34.3 14.3 0
      vertex 0 14.3 10
      vertex 34.3 14.3 10
    endloop
  endfacet
  facet normal 0 1 0
    outer loop
      vertex 0 14.3 10
      vertex 34.3 14.3 0
      vertex 0 14.3 0
    endloop
  endfacet
  facet normal 0 0 -1
    outer loop
      vertex 0 0 0
      vertex 34.3 14.3 0
      vertex 34.3 0 0
    endloop
  endfacet
  facet normal -0 0 -1
    outer loop
      vertex 34.3 14.3 0
      vertex 0 0 0
      vertex 0 14.3 0
    endloop
  endfacet
  facet normal 0 -1 0
    outer loop
      vertex 0 0 0
      vertex 34.3 0 19
      vertex 0 0 19
    endloop
  endfacet
  facet normal 0 -1 -0
    outer loop
      vertex 34.3 0 19
      vertex 0 0 0
      vertex 34.3 0 0
    endloop
  endfacet
  facet normal 1 -0 0
    outer loop
      vertex 2 2 10
      vertex 2 12.3 2
      vertex 2 12.3 10
    endloop
  endfacet
  facet normal 1 0 0
    outer loop
      vertex 2 12.3 2
      vertex 2 2 10
      vertex 2 2 2
    endloop
  endfacet
  facet normal -1 0 0
    outer loop
      vertex 32.3 2 2
      vertex 32.3 12.3 10
      vertex 32.3 12.3 2
    endloop
  endfacet
  facet normal -1 -0 0
    outer loop
      vertex 32.3 12.3 10
      vertex 32.3 2 2
      vertex 32.3 2 10
    endloop
  endfacet
  facet normal -0 0 1
    outer loop
      vertex 2 12.3 2
      vertex 32.3 2 2
      vertex 32.3 12.3 2
    endloop
  endfacet
  facet normal 0 0 1
    outer loop
      vertex 32.3 2 2
      vertex 2 12.3 2
      vertex 2 2 2
    endloop
  endfacet
  facet normal 0 1 -0
    outer loop
      vertex 32.3 2 2
      vertex 2 2 10
      vertex 32.3 2 10
    endloop
  endfacet
  facet normal 0 1 0
    outer loop
      vertex 2 2 10
      vertex 32.3 2 2
      vertex 2 2 2
    endloop
  endfacet
  facet normal 0 -1 0
    outer loop
      vertex 2 12.3 2
      vertex 32.3 12.3 10
      vertex 2 12.3 10
    endloop
  endfacet
  facet normal 0 -1 -0
    outer loop
      vertex 32.3 12.3 10
      vertex 2 12.3 2
      vertex 32.3 12.3 2
    endloop
  endfacet
  facet normal -0 0 1
    outer loop
      vertex 0 2 19
      vertex 34.3 0 19
      vertex 34.3 2 19
    endloop
  endfacet
  facet normal 0 0 1
    outer loop
      vertex 34.3 0 19
      vertex 0 2 19
      vertex 0 0 19
    endloop
  endfacet
  facet normal 0 1 0
    outer loop
      vertex 32.3 2 10
      vertex 34.3 2 19
      vertex 34.3 2 10
    endloop
  endfacet
  facet normal 0 1 0
    outer loop
      vertex 34.3 2 19
      vertex 32.3 2 10
      vertex 0 2 19
    endloop
  endfacet
  facet normal 0 1 -0
    outer loop
      vertex 2 2 10
      vertex 0 2 19
      vertex 32.3 2 10
    endloop
  endfacet
  facet normal 0 1 0
    outer loop
      vertex 0 2 19
      vertex 2 2 10
      vertex 0 2 10
    endloop
  endfacet
endsolid OpenSCAD_Model
