solid OpenSCAD_Model
  facet normal -1 0 0
    outer loop
      vertex -7.5 7.5 0
      vertex -7.5 1.5 2
      vertex -7.5 7.5 2
    endloop
  endfacet
  facet normal -1 0 0
    outer loop
      vertex -7.5 1.5 2
      vertex -7.5 -1.5 2
      vertex -7.5 1.5 6.18
    endloop
  endfacet
  facet normal -1 0 0
    outer loop
      vertex -7.5 7.5 0
      vertex -7.5 -1.5 2
      vertex -7.5 1.5 2
    endloop
  endfacet
  facet normal -1 0 0
    outer loop
      vertex -7.5 -7.5 0
      vertex -7.5 -1.5 2
      vertex -7.5 7.5 0
    endloop
  endfacet
  facet normal -1 -0 0
    outer loop
      vertex -7.5 -1.5 2
      vertex -7.5 -7.5 0
      vertex -7.5 -7.5 2
    endloop
  endfacet
  facet normal -1 -0 0
    outer loop
      vertex -7.5 1.5 6.18
      vertex -7.5 -1.5 2
      vertex -7.5 -1.5 6.18
    endloop
  endfacet
  facet normal -0 0 1
    outer loop
      vertex -7.5 7.5 2
      vertex 7.5 1.5 2
      vertex 7.5 7.5 2
    endloop
  endfacet
  facet normal 0 0 1
    outer loop
      vertex 7.5 1.5 2
      vertex -7.5 7.5 2
      vertex -7.5 1.5 2
    endloop
  endfacet
  facet normal -0 0 1
    outer loop
      vertex -7.5 -1.5 2
      vertex 7.5 -7.5 2
      vertex 7.5 -1.5 2
    endloop
  endfacet
  facet normal 0 0 1
    outer loop
      vertex 7.5 -7.5 2
      vertex -7.5 -1.5 2
      vertex -7.5 -7.5 2
    endloop
  endfacet
  facet normal 1 0 0
    outer loop
      vertex 7.5 1.5 6.18
      vertex 7.5 -1.5 6.18
      vertex 7.5 1.5 2
    endloop
  endfacet
  facet normal 1 -0 0
    outer loop
      vertex 7.5 1.5 2
      vertex 7.5 7.5 0
      vertex 7.5 7.5 2
    endloop
  endfacet
  facet normal 1 0 0
    outer loop
      vertex 7.5 -1.5 2
      vertex 7.5 1.5 2
      vertex 7.5 -1.5 6.18
    endloop
  endfacet
  facet normal 1 -0 0
    outer loop
      vertex 7.5 -1.5 2
      vertex 7.5 7.5 0
      vertex 7.5 1.5 2
    endloop
  endfacet
  facet normal 1 0 0
    outer loop
      vertex 7.5 -7.5 0
      vertex 7.5 -1.5 2
      vertex 7.5 -7.5 2
    endloop
  endfacet
  facet normal 1 0 0
    outer loop
      vertex 7.5 -1.5 2
      vertex 7.5 -7.5 0
      vertex 7.5 7.5 0
    endloop
  endfacet
  facet normal 0 0 -1
    outer loop
      vertex -7.5 -7.5 0
      vertex 7.5 7.5 0
      vertex 7.5 -7.5 0
    endloop
  endfacet
  facet normal -0 0 -1
    outer loop
      vertex 7.5 7.5 0
      vertex -7.5 -7.5 0
      vertex -7.5 7.5 0
    endloop
  endfacet
  facet normal 0 -1 0
    outer loop
      vertex -7.5 -7.5 0
      vertex 7.5 -7.5 2
      vertex -7.5 -7.5 2
    endloop
  endfacet
  facet normal 0 -1 -0
    outer loop
      vertex 7.5 -7.5 2
      vertex -7.5 -7.5 0
      vertex 7.5 -7.5 0
    endloop
  endfacet
  facet normal 0 1 -0
    outer loop
      vertex 7.5 7.5 0
      vertex -7.5 7.5 2
      vertex 7.5 7.5 2
    endloop
  endfacet
  facet normal 0 1 0
    outer loop
      vertex -7.5 7.5 2
      vertex 7.5 7.5 0
      vertex -7.5 7.5 0
    endloop
  endfacet
  facet normal -0 0 1
    outer loop
      vertex -7.5 1.5 6.18
      vertex 7.5 -1.5 6.18
      vertex 7.5 1.5 6.18
    endloop
  endfacet
  facet normal 0 0 1
    outer loop
      vertex 7.5 -1.5 6.18
      vertex -7.5 1.5 6.18
      vertex -7.5 -1.5 6.18
    endloop
  endfacet
  facet normal 0 1 -0
    outer loop
      vertex 7.5 1.5 2
      vertex -7.5 1.5 6.18
      vertex 7.5 1.5 6.18
    endloop
  endfacet
  facet normal 0 1 0
    outer loop
      vertex -7.5 1.5 6.18
      vertex 7.5 1.5 2
      vertex -7.5 1.5 2
    endloop
  endfacet
  facet normal 0 -1 0
    outer loop
      vertex -7.5 -1.5 2
      vertex 7.5 -1.5 6.18
      vertex -7.5 -1.5 6.18
    endloop
  endfacet
  facet normal 0 -1 -0
    outer loop
      vertex 7.5 -1.5 6.18
      vertex -7.5 -1.5 2
      vertex 7.5 -1.5 2
    endloop
  endfacet
endsolid OpenSCAD_Model
