solid OpenSCAD_Model
  facet normal -0.93358 0.35837 0
    outer loop
      vertex -3.3287 1.08156 0
      vertex -3.19741 1.42358 2.3
      vertex -3.19741 1.42358 0
    endloop
  endfacet
  facet normal -0.93358 0.35837 0
    outer loop
      vertex -3.19741 1.42358 2.3
      vertex -3.3287 1.08156 0
      vertex -3.3287 1.08156 2.3
    endloop
  endfacet
  facet normal 0.987688 0.156434 0
    outer loop
      vertex 3.48083 0.365849 2.3
      vertex 3.42352 0.727691 0
      vertex 3.42352 0.727691 2.3
    endloop
  endfacet
  facet normal 0.987688 0.156434 0
    outer loop
      vertex 3.42352 0.727691 0
      vertex 3.48083 0.365849 2.3
      vertex 3.48083 0.365849 0
    endloop
  endfacet
  facet normal 0.99863 0.0523269 0
    outer loop
      vertex 3.5 0 2.3
      vertex 3.48083 0.365849 0
      vertex 3.48083 0.365849 2.3
    endloop
  endfacet
  facet normal 0.99863 0.0523269 0
    outer loop
      vertex 3.48083 0.365849 0
      vertex 3.5 0 2.3
      vertex 3.5 0 0
    endloop
  endfacet
  facet normal 0.965925 0.258822 0
    outer loop
      vertex 3.42352 0.727691 2.3
      vertex 3.3287 1.08156 0
      vertex 3.3287 1.08156 2.3
    endloop
  endfacet
  facet normal 0.965925 0.258822 0
    outer loop
      vertex 3.3287 1.08156 0
      vertex 3.42352 0.727691 2.3
      vertex 3.42352 0.727691 0
    endloop
  endfacet
  facet normal 0.544638 -0.838671 0
    outer loop
      vertex 1.75 -3.03109 0
      vertex 2.05725 -2.83156 2.3
      vertex 1.75 -3.03109 2.3
    endloop
  endfacet
  facet normal 0.544638 -0.838671 0
    outer loop
      vertex 2.05725 -2.83156 2.3
      vertex 1.75 -3.03109 0
      vertex 2.05725 -2.83156 0
    endloop
  endfacet
  facet normal -0.629314 -0.777151 0
    outer loop
      vertex -2.34196 -2.60101 0
      vertex -2.05725 -2.83156 2.3
      vertex -2.34196 -2.60101 2.3
    endloop
  endfacet
  facet normal -0.629314 -0.777151 -0
    outer loop
      vertex -2.05725 -2.83156 2.3
      vertex -2.34196 -2.60101 0
      vertex -2.05725 -2.83156 0
    endloop
  endfacet
  facet normal -0.0523269 0.99863 0
    outer loop
      vertex 0 3.5 0
      vertex -0.365849 3.48083 2.3
      vertex 0 3.5 2.3
    endloop
  endfacet
  facet normal -0.0523269 0.99863 0
    outer loop
      vertex -0.365849 3.48083 2.3
      vertex 0 3.5 0
      vertex -0.365849 3.48083 0
    endloop
  endfacet
  facet normal 0.0523269 -0.99863 0
    outer loop
      vertex 0 -3.5 0
      vertex 0.365849 -3.48083 2.3
      vertex 0 -3.5 2.3
    endloop
  endfacet
  facet normal 0.0523269 -0.99863 0
    outer loop
      vertex 0.365849 -3.48083 2.3
      vertex 0 -3.5 0
      vertex 0.365849 -3.48083 0
    endloop
  endfacet
  facet normal -0.987688 -0.156434 0
    outer loop
      vertex -3.42352 -0.727691 0
      vertex -3.48083 -0.365849 2.3
      vertex -3.48083 -0.365849 0
    endloop
  endfacet
  facet normal -0.987688 -0.156434 0
    outer loop
      vertex -3.48083 -0.365849 2.3
      vertex -3.42352 -0.727691 0
      vertex -3.42352 -0.727691 2.3
    endloop
  endfacet
  facet normal 0.453992 -0.891006 0
    outer loop
      vertex 1.42358 -3.19741 0
      vertex 1.75 -3.03109 2.3
      vertex 1.42358 -3.19741 2.3
    endloop
  endfacet
  facet normal 0.453992 -0.891006 0
    outer loop
      vertex 1.75 -3.03109 2.3
      vertex 1.42358 -3.19741 0
      vertex 1.75 -3.03109 0
    endloop
  endfacet
  facet normal 0.93358 -0.35837 0
    outer loop
      vertex 3.19741 -1.42358 2.3
      vertex 3.3287 -1.08156 0
      vertex 3.3287 -1.08156 2.3
    endloop
  endfacet
  facet normal 0.93358 -0.35837 0
    outer loop
      vertex 3.3287 -1.08156 0
      vertex 3.19741 -1.42358 2.3
      vertex 3.19741 -1.42358 0
    endloop
  endfacet
  facet normal -0.987688 0.156434 0
    outer loop
      vertex -3.48083 0.365849 0
      vertex -3.42352 0.727691 2.3
      vertex -3.42352 0.727691 0
    endloop
  endfacet
  facet normal -0.987688 0.156434 0
    outer loop
      vertex -3.42352 0.727691 2.3
      vertex -3.48083 0.365849 0
      vertex -3.48083 0.365849 2.3
    endloop
  endfacet
  facet normal -0.453992 -0.891006 0
    outer loop
      vertex -1.75 -3.03109 0
      vertex -1.42358 -3.19741 2.3
      vertex -1.75 -3.03109 2.3
    endloop
  endfacet
  facet normal -0.453992 -0.891006 -0
    outer loop
      vertex -1.42358 -3.19741 2.3
      vertex -1.75 -3.03109 0
      vertex -1.42358 -3.19741 0
    endloop
  endfacet
  facet normal 0.707107 0.707107 0
    outer loop
      vertex 2.60101 2.34196 2.3
      vertex 2.34196 2.60101 0
      vertex 2.34196 2.60101 2.3
    endloop
  endfacet
  facet normal 0.707107 0.707107 0
    outer loop
      vertex 2.34196 2.60101 0
      vertex 2.60101 2.34196 2.3
      vertex 2.60101 2.34196 0
    endloop
  endfacet
  facet normal 0.156434 -0.987688 0
    outer loop
      vertex 0.365849 -3.48083 0
      vertex 0.727691 -3.42352 2.3
      vertex 0.365849 -3.48083 2.3
    endloop
  endfacet
  facet normal 0.156434 -0.987688 0
    outer loop
      vertex 0.727691 -3.42352 2.3
      vertex 0.365849 -3.48083 0
      vertex 0.727691 -3.42352 0
    endloop
  endfacet
  facet normal -0.93358 -0.35837 0
    outer loop
      vertex -3.19741 -1.42358 0
      vertex -3.3287 -1.08156 2.3
      vertex -3.3287 -1.08156 0
    endloop
  endfacet
  facet normal -0.93358 -0.35837 0
    outer loop
      vertex -3.3287 -1.08156 2.3
      vertex -3.19741 -1.42358 0
      vertex -3.19741 -1.42358 2.3
    endloop
  endfacet
  facet normal 0.156434 0.987688 -0
    outer loop
      vertex 0.727691 3.42352 0
      vertex 0.365849 3.48083 2.3
      vertex 0.727691 3.42352 2.3
    endloop
  endfacet
  facet normal 0.156434 0.987688 0
    outer loop
      vertex 0.365849 3.48083 2.3
      vertex 0.727691 3.42352 0
      vertex 0.365849 3.48083 0
    endloop
  endfacet
  facet normal 0.35837 0.93358 -0
    outer loop
      vertex 1.42358 3.19741 0
      vertex 1.08156 3.3287 2.3
      vertex 1.42358 3.19741 2.3
    endloop
  endfacet
  facet normal 0.35837 0.93358 0
    outer loop
      vertex 1.08156 3.3287 2.3
      vertex 1.42358 3.19741 0
      vertex 1.08156 3.3287 0
    endloop
  endfacet
  facet normal -0.965925 -0.258822 0
    outer loop
      vertex -3.3287 -1.08156 0
      vertex -3.42352 -0.727691 2.3
      vertex -3.42352 -0.727691 0
    endloop
  endfacet
  facet normal -0.965925 -0.258822 0
    outer loop
      vertex -3.42352 -0.727691 2.3
      vertex -3.3287 -1.08156 0
      vertex -3.3287 -1.08156 2.3
    endloop
  endfacet
  facet normal 0.987688 -0.156434 0
    outer loop
      vertex 3.42352 -0.727691 2.3
      vertex 3.48083 -0.365849 0
      vertex 3.48083 -0.365849 2.3
    endloop
  endfacet
  facet normal 0.987688 -0.156434 0
    outer loop
      vertex 3.48083 -0.365849 0
      vertex 3.42352 -0.727691 2.3
      vertex 3.42352 -0.727691 0
    endloop
  endfacet
  facet normal 0.629314 0.777151 -0
    outer loop
      vertex 2.34196 2.60101 0
      vertex 2.05725 2.83156 2.3
      vertex 2.34196 2.60101 2.3
    endloop
  endfacet
  facet normal 0.629314 0.777151 0
    outer loop
      vertex 2.05725 2.83156 2.3
      vertex 2.34196 2.60101 0
      vertex 2.05725 2.83156 0
    endloop
  endfacet
  facet normal 0.838671 0.544638 0
    outer loop
      vertex 3.03109 1.75 2.3
      vertex 2.83156 2.05725 0
      vertex 2.83156 2.05725 2.3
    endloop
  endfacet
  facet normal 0.838671 0.544638 0
    outer loop
      vertex 2.83156 2.05725 0
      vertex 3.03109 1.75 2.3
      vertex 3.03109 1.75 0
    endloop
  endfacet
  facet normal -0.258822 0.965925 0
    outer loop
      vertex -0.727691 3.42352 0
      vertex -1.08156 3.3287 2.3
      vertex -0.727691 3.42352 2.3
    endloop
  endfacet
  facet normal -0.258822 0.965925 0
    outer loop
      vertex -1.08156 3.3287 2.3
      vertex -0.727691 3.42352 0
      vertex -1.08156 3.3287 0
    endloop
  endfacet
  facet normal -0.0523269 -0.99863 0
    outer loop
      vertex -0.365849 -3.48083 0
      vertex 0 -3.5 2.3
      vertex -0.365849 -3.48083 2.3
    endloop
  endfacet
  facet normal -0.0523269 -0.99863 -0
    outer loop
      vertex 0 -3.5 2.3
      vertex -0.365849 -3.48083 0
      vertex 0 -3.5 0
    endloop
  endfacet
  facet normal 0.99863 -0.0523269 0
    outer loop
      vertex 3.48083 -0.365849 2.3
      vertex 3.5 0 0
      vertex 3.5 0 2.3
    endloop
  endfacet
  facet normal 0.99863 -0.0523269 0
    outer loop
      vertex 3.5 0 0
      vertex 3.48083 -0.365849 2.3
      vertex 3.48083 -0.365849 0
    endloop
  endfacet
  facet normal -0.544638 -0.838671 0
    outer loop
      vertex -2.05725 -2.83156 0
      vertex -1.75 -3.03109 2.3
      vertex -2.05725 -2.83156 2.3
    endloop
  endfacet
  facet normal -0.544638 -0.838671 -0
    outer loop
      vertex -1.75 -3.03109 2.3
      vertex -2.05725 -2.83156 0
      vertex -1.75 -3.03109 0
    endloop
  endfacet
  facet normal 0.838671 -0.544638 0
    outer loop
      vertex 2.83156 -2.05725 2.3
      vertex 3.03109 -1.75 0
      vertex 3.03109 -1.75 2.3
    endloop
  endfacet
  facet normal 0.838671 -0.544638 0
    outer loop
      vertex 3.03109 -1.75 0
      vertex 2.83156 -2.05725 2.3
      vertex 2.83156 -2.05725 0
    endloop
  endfacet
  facet normal -0.544638 0.838671 0
    outer loop
      vertex -1.75 3.03109 0
      vertex -2.05725 2.83156 2.3
      vertex -1.75 3.03109 2.3
    endloop
  endfacet
  facet normal -0.544638 0.838671 0
    outer loop
      vertex -2.05725 2.83156 2.3
      vertex -1.75 3.03109 0
      vertex -2.05725 2.83156 0
    endloop
  endfacet
  facet normal -0.99863 0.0523269 0
    outer loop
      vertex -3.5 0 0
      vertex -3.48083 0.365849 2.3
      vertex -3.48083 0.365849 0
    endloop
  endfacet
  facet normal -0.99863 0.0523269 0
    outer loop
      vertex -3.48083 0.365849 2.3
      vertex -3.5 0 0
      vertex -3.5 0 2.3
    endloop
  endfacet
  facet normal 0.965925 -0.258822 0
    outer loop
      vertex 3.3287 -1.08156 2.3
      vertex 3.42352 -0.727691 0
      vertex 3.42352 -0.727691 2.3
    endloop
  endfacet
  facet normal 0.965925 -0.258822 0
    outer loop
      vertex 3.42352 -0.727691 0
      vertex 3.3287 -1.08156 2.3
      vertex 3.3287 -1.08156 0
    endloop
  endfacet
  facet normal -0.629314 0.777151 0
    outer loop
      vertex -2.05725 2.83156 0
      vertex -2.34196 2.60101 2.3
      vertex -2.05725 2.83156 2.3
    endloop
  endfacet
  facet normal -0.629314 0.777151 0
    outer loop
      vertex -2.34196 2.60101 2.3
      vertex -2.05725 2.83156 0
      vertex -2.34196 2.60101 0
    endloop
  endfacet
  facet normal -0.891006 0.453992 0
    outer loop
      vertex -3.19741 1.42358 0
      vertex -3.03109 1.75 2.3
      vertex -3.03109 1.75 0
    endloop
  endfacet
  facet normal -0.891006 0.453992 0
    outer loop
      vertex -3.03109 1.75 2.3
      vertex -3.19741 1.42358 0
      vertex -3.19741 1.42358 2.3
    endloop
  endfacet
  facet normal -0.99863 -0.0523269 0
    outer loop
      vertex -3.48083 -0.365849 0
      vertex -3.5 0 2.3
      vertex -3.5 0 0
    endloop
  endfacet
  facet normal -0.99863 -0.0523269 0
    outer loop
      vertex -3.5 0 2.3
      vertex -3.48083 -0.365849 0
      vertex -3.48083 -0.365849 2.3
    endloop
  endfacet
  facet normal -0.838671 0.544638 0
    outer loop
      vertex -3.03109 1.75 0
      vertex -2.83156 2.05725 2.3
      vertex -2.83156 2.05725 0
    endloop
  endfacet
  facet normal -0.838671 0.544638 0
    outer loop
      vertex -2.83156 2.05725 2.3
      vertex -3.03109 1.75 0
      vertex -3.03109 1.75 2.3
    endloop
  endfacet
  facet normal 0.453992 0.891006 -0
    outer loop
      vertex 1.75 3.03109 0
      vertex 1.42358 3.19741 2.3
      vertex 1.75 3.03109 2.3
    endloop
  endfacet
  facet normal 0.453992 0.891006 0
    outer loop
      vertex 1.42358 3.19741 2.3
      vertex 1.75 3.03109 0
      vertex 1.42358 3.19741 0
    endloop
  endfacet
  facet normal -0.707107 -0.707107 0
    outer loop
      vertex -2.34196 -2.60101 0
      vertex -2.60101 -2.34196 2.3
      vertex -2.60101 -2.34196 0
    endloop
  endfacet
  facet normal -0.707107 -0.707107 0
    outer loop
      vertex -2.60101 -2.34196 2.3
      vertex -2.34196 -2.60101 0
      vertex -2.34196 -2.60101 2.3
    endloop
  endfacet
  facet normal 0.258822 0.965925 -0
    outer loop
      vertex 1.08156 3.3287 0
      vertex 0.727691 3.42352 2.3
      vertex 1.08156 3.3287 2.3
    endloop
  endfacet
  facet normal 0.258822 0.965925 0
    outer loop
      vertex 0.727691 3.42352 2.3
      vertex 1.08156 3.3287 0
      vertex 0.727691 3.42352 0
    endloop
  endfacet
  facet normal 0.777151 -0.629314 0
    outer loop
      vertex 2.60101 -2.34196 2.3
      vertex 2.83156 -2.05725 0
      vertex 2.83156 -2.05725 2.3
    endloop
  endfacet
  facet normal 0.777151 -0.629314 0
    outer loop
      vertex 2.83156 -2.05725 0
      vertex 2.60101 -2.34196 2.3
      vertex 2.60101 -2.34196 0
    endloop
  endfacet
  facet normal 0.777151 0.629314 0
    outer loop
      vertex 2.83156 2.05725 2.3
      vertex 2.60101 2.34196 0
      vertex 2.60101 2.34196 2.3
    endloop
  endfacet
  facet normal 0.777151 0.629314 0
    outer loop
      vertex 2.60101 2.34196 0
      vertex 2.83156 2.05725 2.3
      vertex 2.83156 2.05725 0
    endloop
  endfacet
  facet normal 0.544638 0.838671 -0
    outer loop
      vertex 2.05725 2.83156 0
      vertex 1.75 3.03109 2.3
      vertex 2.05725 2.83156 2.3
    endloop
  endfacet
  facet normal 0.544638 0.838671 0
    outer loop
      vertex 1.75 3.03109 2.3
      vertex 2.05725 2.83156 0
      vertex 1.75 3.03109 0
    endloop
  endfacet
  facet normal -0.156434 0.987688 0
    outer loop
      vertex -0.365849 3.48083 0
      vertex -0.727691 3.42352 2.3
      vertex -0.365849 3.48083 2.3
    endloop
  endfacet
  facet normal -0.156434 0.987688 0
    outer loop
      vertex -0.727691 3.42352 2.3
      vertex -0.365849 3.48083 0
      vertex -0.727691 3.42352 0
    endloop
  endfacet
  facet normal -0.891006 -0.453992 0
    outer loop
      vertex -3.03109 -1.75 0
      vertex -3.19741 -1.42358 2.3
      vertex -3.19741 -1.42358 0
    endloop
  endfacet
  facet normal -0.891006 -0.453992 0
    outer loop
      vertex -3.19741 -1.42358 2.3
      vertex -3.03109 -1.75 0
      vertex -3.03109 -1.75 2.3
    endloop
  endfacet
  facet normal 0.93358 0.35837 0
    outer loop
      vertex 3.3287 1.08156 2.3
      vertex 3.19741 1.42358 0
      vertex 3.19741 1.42358 2.3
    endloop
  endfacet
  facet normal 0.93358 0.35837 0
    outer loop
      vertex 3.19741 1.42358 0
      vertex 3.3287 1.08156 2.3
      vertex 3.3287 1.08156 0
    endloop
  endfacet
  facet normal 0.891006 0.453992 0
    outer loop
      vertex 3.19741 1.42358 2.3
      vertex 3.03109 1.75 0
      vertex 3.03109 1.75 2.3
    endloop
  endfacet
  facet normal 0.891006 0.453992 0
    outer loop
      vertex 3.03109 1.75 0
      vertex 3.19741 1.42358 2.3
      vertex 3.19741 1.42358 0
    endloop
  endfacet
  facet normal -0.453992 0.891006 0
    outer loop
      vertex -1.42358 3.19741 0
      vertex -1.75 3.03109 2.3
      vertex -1.42358 3.19741 2.3
    endloop
  endfacet
  facet normal -0.453992 0.891006 0
    outer loop
      vertex -1.75 3.03109 2.3
      vertex -1.42358 3.19741 0
      vertex -1.75 3.03109 0
    endloop
  endfacet
  facet normal 0.629314 -0.777151 0
    outer loop
      vertex 2.05725 -2.83156 0
      vertex 2.34196 -2.60101 2.3
      vertex 2.05725 -2.83156 2.3
    endloop
  endfacet
  facet normal 0.629314 -0.777151 0
    outer loop
      vertex 2.34196 -2.60101 2.3
      vertex 2.05725 -2.83156 0
      vertex 2.34196 -2.60101 0
    endloop
  endfacet
  facet normal -0.777151 -0.629314 0
    outer loop
      vertex -2.60101 -2.34196 0
      vertex -2.83156 -2.05725 2.3
      vertex -2.83156 -2.05725 0
    endloop
  endfacet
  facet normal -0.777151 -0.629314 0
    outer loop
      vertex -2.83156 -2.05725 2.3
      vertex -2.60101 -2.34196 0
      vertex -2.60101 -2.34196 2.3
    endloop
  endfacet
  facet normal -0.965925 0.258822 0
    outer loop
      vertex -3.42352 0.727691 0
      vertex -3.3287 1.08156 2.3
      vertex -3.3287 1.08156 0
    endloop
  endfacet
  facet normal -0.965925 0.258822 0
    outer loop
      vertex -3.3287 1.08156 2.3
      vertex -3.42352 0.727691 0
      vertex -3.42352 0.727691 2.3
    endloop
  endfacet
  facet normal 0.0523269 0.99863 -0
    outer loop
      vertex 0.365849 3.48083 0
      vertex 0 3.5 2.3
      vertex 0.365849 3.48083 2.3
    endloop
  endfacet
  facet normal 0.0523269 0.99863 0
    outer loop
      vertex 0 3.5 2.3
      vertex 0.365849 3.48083 0
      vertex 0 3.5 0
    endloop
  endfacet
  facet normal 0.35837 -0.93358 0
    outer loop
      vertex 1.08156 -3.3287 0
      vertex 1.42358 -3.19741 2.3
      vertex 1.08156 -3.3287 2.3
    endloop
  endfacet
  facet normal 0.35837 -0.93358 0
    outer loop
      vertex 1.42358 -3.19741 2.3
      vertex 1.08156 -3.3287 0
      vertex 1.42358 -3.19741 0
    endloop
  endfacet
  facet normal 0.258822 -0.965925 0
    outer loop
      vertex 0.727691 -3.42352 0
      vertex 1.08156 -3.3287 2.3
      vertex 0.727691 -3.42352 2.3
    endloop
  endfacet
  facet normal 0.258822 -0.965925 0
    outer loop
      vertex 1.08156 -3.3287 2.3
      vertex 0.727691 -3.42352 0
      vertex 1.08156 -3.3287 0
    endloop
  endfacet
  facet normal -0.777151 0.629314 0
    outer loop
      vertex -2.83156 2.05725 0
      vertex -2.60101 2.34196 2.3
      vertex -2.60101 2.34196 0
    endloop
  endfacet
  facet normal -0.777151 0.629314 0
    outer loop
      vertex -2.60101 2.34196 2.3
      vertex -2.83156 2.05725 0
      vertex -2.83156 2.05725 2.3
    endloop
  endfacet
  facet normal -0.258822 -0.965925 0
    outer loop
      vertex -1.08156 -3.3287 0
      vertex -0.727691 -3.42352 2.3
      vertex -1.08156 -3.3287 2.3
    endloop
  endfacet
  facet normal -0.258822 -0.965925 -0
    outer loop
      vertex -0.727691 -3.42352 2.3
      vertex -1.08156 -3.3287 0
      vertex -0.727691 -3.42352 0
    endloop
  endfacet
  facet normal -0.838671 -0.544638 0
    outer loop
      vertex -2.83156 -2.05725 0
      vertex -3.03109 -1.75 2.3
      vertex -3.03109 -1.75 0
    endloop
  endfacet
  facet normal -0.838671 -0.544638 0
    outer loop
      vertex -3.03109 -1.75 2.3
      vertex -2.83156 -2.05725 0
      vertex -2.83156 -2.05725 2.3
    endloop
  endfacet
  facet normal -0.35837 -0.93358 0
    outer loop
      vertex -1.42358 -3.19741 0
      vertex -1.08156 -3.3287 2.3
      vertex -1.42358 -3.19741 2.3
    endloop
  endfacet
  facet normal -0.35837 -0.93358 -0
    outer loop
      vertex -1.08156 -3.3287 2.3
      vertex -1.42358 -3.19741 0
      vertex -1.08156 -3.3287 0
    endloop
  endfacet
  facet normal 0.707107 -0.707107 0
    outer loop
      vertex 2.34196 -2.60101 2.3
      vertex 2.60101 -2.34196 0
      vertex 2.60101 -2.34196 2.3
    endloop
  endfacet
  facet normal 0.707107 -0.707107 0
    outer loop
      vertex 2.60101 -2.34196 0
      vertex 2.34196 -2.60101 2.3
      vertex 2.34196 -2.60101 0
    endloop
  endfacet
  facet normal 0.891006 -0.453992 0
    outer loop
      vertex 3.03109 -1.75 2.3
      vertex 3.19741 -1.42358 0
      vertex 3.19741 -1.42358 2.3
    endloop
  endfacet
  facet normal 0.891006 -0.453992 0
    outer loop
      vertex 3.19741 -1.42358 0
      vertex 3.03109 -1.75 2.3
      vertex 3.03109 -1.75 0
    endloop
  endfacet
  facet normal -0.707107 0.707107 0
    outer loop
      vertex -2.60101 2.34196 0
      vertex -2.34196 2.60101 2.3
      vertex -2.34196 2.60101 0
    endloop
  endfacet
  facet normal -0.707107 0.707107 0
    outer loop
      vertex -2.34196 2.60101 2.3
      vertex -2.60101 2.34196 0
      vertex -2.60101 2.34196 2.3
    endloop
  endfacet
  facet normal -0.35837 0.93358 0
    outer loop
      vertex -1.08156 3.3287 0
      vertex -1.42358 3.19741 2.3
      vertex -1.08156 3.3287 2.3
    endloop
  endfacet
  facet normal -0.35837 0.93358 0
    outer loop
      vertex -1.42358 3.19741 2.3
      vertex -1.08156 3.3287 0
      vertex -1.42358 3.19741 0
    endloop
  endfacet
  facet normal 0 0 -1
    outer loop
      vertex 3.48083 -0.365849 0
      vertex 1.74041 -0.182924 0
      vertex 1.75 0 0
    endloop
  endfacet
  facet normal 0 0 -1
    outer loop
      vertex 2.05725 -2.83156 0
      vertex 1.71176 -0.363845 0
      vertex 1.74041 -0.182924 0
    endloop
  endfacet
  facet normal 0 0 -1
    outer loop
      vertex 2.05725 -2.83156 0
      vertex 1.66435 -0.540779 0
      vertex 1.71176 -0.363845 0
    endloop
  endfacet
  facet normal 0 0 -1
    outer loop
      vertex 2.05725 -2.83156 0
      vertex 1.5987 -0.711788 0
      vertex 1.66435 -0.540779 0
    endloop
  endfacet
  facet normal 0 0 -1
    outer loop
      vertex 2.05725 -2.83156 0
      vertex 1.51554 -0.875 0
      vertex 1.5987 -0.711788 0
    endloop
  endfacet
  facet normal 0 0 -1
    outer loop
      vertex 0.875 -1.51554 0
      vertex 1.75 -3.03109 0
      vertex 1.42358 -3.19741 0
    endloop
  endfacet
  facet normal 0 0 -1
    outer loop
      vertex 2.05725 -2.83156 0
      vertex 1.41578 -1.02862 0
      vertex 1.51554 -0.875 0
    endloop
  endfacet
  facet normal 0 0 -1
    outer loop
      vertex 2.05725 -2.83156 0
      vertex 1.3005 -1.17098 0
      vertex 1.41578 -1.02862 0
    endloop
  endfacet
  facet normal 0 0 -1
    outer loop
      vertex 2.05725 -2.83156 0
      vertex 1.17098 -1.3005 0
      vertex 1.3005 -1.17098 0
    endloop
  endfacet
  facet normal 0 0 -1
    outer loop
      vertex 0.711788 -1.5987 0
      vertex 1.42358 -3.19741 0
      vertex 1.08156 -3.3287 0
    endloop
  endfacet
  facet normal 0 0 -1
    outer loop
      vertex 2.05725 -2.83156 0
      vertex 1.02862 -1.41578 0
      vertex 1.17098 -1.3005 0
    endloop
  endfacet
  facet normal 0 0 -1
    outer loop
      vertex 1.75 -3.03109 0
      vertex 0.875 -1.51554 0
      vertex 1.02862 -1.41578 0
    endloop
  endfacet
  facet normal 0 0 -1
    outer loop
      vertex 0.540779 -1.66435 0
      vertex 1.08156 -3.3287 0
      vertex 0.727691 -3.42352 0
    endloop
  endfacet
  facet normal 0 0 -1
    outer loop
      vertex 1.42358 -3.19741 0
      vertex 0.711788 -1.5987 0
      vertex 0.875 -1.51554 0
    endloop
  endfacet
  facet normal 0 0 -1
    outer loop
      vertex 1.08156 -3.3287 0
      vertex 0.540779 -1.66435 0
      vertex 0.711788 -1.5987 0
    endloop
  endfacet
  facet normal 0 0 -1
    outer loop
      vertex 0.363845 -1.71176 0
      vertex 0.727691 -3.42352 0
      vertex 0.365849 -3.48083 0
    endloop
  endfacet
  facet normal 0 0 -1
    outer loop
      vertex 0.727691 -3.42352 0
      vertex 0.363845 -1.71176 0
      vertex 0.540779 -1.66435 0
    endloop
  endfacet
  facet normal 0 0 -1
    outer loop
      vertex 0.365849 -3.48083 0
      vertex 0.182924 -1.74041 0
      vertex 0.363845 -1.71176 0
    endloop
  endfacet
  facet normal 0 0 -1
    outer loop
      vertex 0 -3.5 0
      vertex 0.182924 -1.74041 0
      vertex 0.365849 -3.48083 0
    endloop
  endfacet
  facet normal 0 0 -1
    outer loop
      vertex 0 -3.5 0
      vertex 0 -1.75 0
      vertex 0.182924 -1.74041 0
    endloop
  endfacet
  facet normal 0 0 -1
    outer loop
      vertex 0 -3.5 0
      vertex -0.182924 -1.74041 0
      vertex 0 -1.75 0
    endloop
  endfacet
  facet normal 0 0 -1
    outer loop
      vertex -0.365849 -3.48083 0
      vertex -0.182924 -1.74041 0
      vertex 0 -3.5 0
    endloop
  endfacet
  facet normal -0 0 -1
    outer loop
      vertex -0.182924 -1.74041 0
      vertex -0.365849 -3.48083 0
      vertex -0.363845 -1.71176 0
    endloop
  endfacet
  facet normal 0 0 -1
    outer loop
      vertex -0.727691 -3.42352 0
      vertex -0.363845 -1.71176 0
      vertex -0.365849 -3.48083 0
    endloop
  endfacet
  facet normal -0 0 -1
    outer loop
      vertex -0.363845 -1.71176 0
      vertex -0.727691 -3.42352 0
      vertex -0.540779 -1.66435 0
    endloop
  endfacet
  facet normal 0 0 -1
    outer loop
      vertex -1.08156 -3.3287 0
      vertex -0.540779 -1.66435 0
      vertex -0.727691 -3.42352 0
    endloop
  endfacet
  facet normal -0 0 -1
    outer loop
      vertex -0.540779 -1.66435 0
      vertex -1.08156 -3.3287 0
      vertex -0.711788 -1.5987 0
    endloop
  endfacet
  facet normal 0 0 -1
    outer loop
      vertex -1.42358 -3.19741 0
      vertex -0.711788 -1.5987 0
      vertex -1.08156 -3.3287 0
    endloop
  endfacet
  facet normal -0 0 -1
    outer loop
      vertex -0.711788 -1.5987 0
      vertex -1.42358 -3.19741 0
      vertex -0.875 -1.51554 0
    endloop
  endfacet
  facet normal 0 0 -1
    outer loop
      vertex -1.75 -3.03109 0
      vertex -0.875 -1.51554 0
      vertex -1.42358 -3.19741 0
    endloop
  endfacet
  facet normal -0 0 -1
    outer loop
      vertex -0.875 -1.51554 0
      vertex -1.75 -3.03109 0
      vertex -1.02862 -1.41578 0
    endloop
  endfacet
  facet normal 0 0 -1
    outer loop
      vertex -2.05725 -2.83156 0
      vertex -1.02862 -1.41578 0
      vertex -1.75 -3.03109 0
    endloop
  endfacet
  facet normal -0 0 -1
    outer loop
      vertex -1.02862 -1.41578 0
      vertex -2.05725 -2.83156 0
      vertex -1.17098 -1.3005 0
    endloop
  endfacet
  facet normal 0 0 -1
    outer loop
      vertex -2.34196 -2.60101 0
      vertex -1.17098 -1.3005 0
      vertex -2.05725 -2.83156 0
    endloop
  endfacet
  facet normal -0 0 -1
    outer loop
      vertex -1.17098 -1.3005 0
      vertex -2.34196 -2.60101 0
      vertex -1.3005 -1.17098 0
    endloop
  endfacet
  facet normal 0 0 -1
    outer loop
      vertex -2.60101 -2.34196 0
      vertex -1.3005 -1.17098 0
      vertex -2.34196 -2.60101 0
    endloop
  endfacet
  facet normal -0 0 -1
    outer loop
      vertex -1.3005 -1.17098 0
      vertex -2.60101 -2.34196 0
      vertex -1.41578 -1.02862 0
    endloop
  endfacet
  facet normal 0 0 -1
    outer loop
      vertex -2.83156 -2.05725 0
      vertex -1.41578 -1.02862 0
      vertex -2.60101 -2.34196 0
    endloop
  endfacet
  facet normal -0 0 -1
    outer loop
      vertex -1.41578 -1.02862 0
      vertex -2.83156 -2.05725 0
      vertex -1.51554 -0.875 0
    endloop
  endfacet
  facet normal 0 0 -1
    outer loop
      vertex -3.03109 -1.75 0
      vertex -1.51554 -0.875 0
      vertex -2.83156 -2.05725 0
    endloop
  endfacet
  facet normal -0 0 -1
    outer loop
      vertex -1.51554 -0.875 0
      vertex -3.03109 -1.75 0
      vertex -1.5987 -0.711788 0
    endloop
  endfacet
  facet normal 0 0 -1
    outer loop
      vertex -3.19741 -1.42358 0
      vertex -1.5987 -0.711788 0
      vertex -3.03109 -1.75 0
    endloop
  endfacet
  facet normal 0 0 -1
    outer loop
      vertex -1.75 0 0
      vertex -2.05725 2.83156 0
      vertex -1.75 3.03109 0
    endloop
  endfacet
  facet normal -0 0 -1
    outer loop
      vertex -1.5987 -0.711788 0
      vertex -3.19741 -1.42358 0
      vertex -1.66435 -0.540779 0
    endloop
  endfacet
  facet normal 0 0 -1
    outer loop
      vertex -1.75 0 0
      vertex -2.34196 2.60101 0
      vertex -2.05725 2.83156 0
    endloop
  endfacet
  facet normal 0 0 -1
    outer loop
      vertex -3.3287 -1.08156 0
      vertex -1.66435 -0.540779 0
      vertex -3.19741 -1.42358 0
    endloop
  endfacet
  facet normal 0 0 -1
    outer loop
      vertex -1.75 0 0
      vertex -2.60101 2.34196 0
      vertex -2.34196 2.60101 0
    endloop
  endfacet
  facet normal -0 0 -1
    outer loop
      vertex -1.66435 -0.540779 0
      vertex -3.3287 -1.08156 0
      vertex -1.71176 -0.363845 0
    endloop
  endfacet
  facet normal 0 0 -1
    outer loop
      vertex -1.75 0 0
      vertex -2.83156 2.05725 0
      vertex -2.60101 2.34196 0
    endloop
  endfacet
  facet normal 0 0 -1
    outer loop
      vertex -3.42352 -0.727691 0
      vertex -1.71176 -0.363845 0
      vertex -3.3287 -1.08156 0
    endloop
  endfacet
  facet normal 0 0 -1
    outer loop
      vertex -1.75 0 0
      vertex -3.03109 1.75 0
      vertex -2.83156 2.05725 0
    endloop
  endfacet
  facet normal -0 0 -1
    outer loop
      vertex -1.71176 -0.363845 0
      vertex -3.42352 -0.727691 0
      vertex -1.74041 -0.182924 0
    endloop
  endfacet
  facet normal 0 0 -1
    outer loop
      vertex -1.75 0 0
      vertex -3.19741 1.42358 0
      vertex -3.03109 1.75 0
    endloop
  endfacet
  facet normal 0 0 -1
    outer loop
      vertex -3.48083 -0.365849 0
      vertex -1.74041 -0.182924 0
      vertex -3.42352 -0.727691 0
    endloop
  endfacet
  facet normal 0 0 -1
    outer loop
      vertex -1.75 0 0
      vertex -3.3287 1.08156 0
      vertex -3.19741 1.42358 0
    endloop
  endfacet
  facet normal -0 0 -1
    outer loop
      vertex -1.74041 -0.182924 0
      vertex -3.48083 -0.365849 0
      vertex -1.75 0 0
    endloop
  endfacet
  facet normal 0 0 -1
    outer loop
      vertex -1.75 0 0
      vertex -3.42352 0.727691 0
      vertex -3.3287 1.08156 0
    endloop
  endfacet
  facet normal 0 0 -1
    outer loop
      vertex -3.5 0 0
      vertex -1.75 0 0
      vertex -3.48083 -0.365849 0
    endloop
  endfacet
  facet normal 0 0 -1
    outer loop
      vertex -1.75 0 0
      vertex -3.48083 0.365849 0
      vertex -3.42352 0.727691 0
    endloop
  endfacet
  facet normal 0 0 -1
    outer loop
      vertex -1.75 0 0
      vertex -3.5 0 0
      vertex -3.48083 0.365849 0
    endloop
  endfacet
  facet normal 0 0 -1
    outer loop
      vertex 1.75 0 0
      vertex 3.5 0 0
      vertex 3.48083 -0.365849 0
    endloop
  endfacet
  facet normal 0 0 -1
    outer loop
      vertex 1.74041 -0.182924 0
      vertex 3.48083 -0.365849 0
      vertex 3.42352 -0.727691 0
    endloop
  endfacet
  facet normal 0 0 -1
    outer loop
      vertex 3.5 0 0
      vertex 1.75 0 0
      vertex 3.48083 0.365849 0
    endloop
  endfacet
  facet normal 0 0 -1
    outer loop
      vertex 1.74041 -0.182924 0
      vertex 3.42352 -0.727691 0
      vertex 3.3287 -1.08156 0
    endloop
  endfacet
  facet normal 0 0 -1
    outer loop
      vertex 1.74041 0.182924 0
      vertex 3.48083 0.365849 0
      vertex 1.75 0 0
    endloop
  endfacet
  facet normal 0 0 -1
    outer loop
      vertex 1.74041 -0.182924 0
      vertex 3.3287 -1.08156 0
      vertex 3.19741 -1.42358 0
    endloop
  endfacet
  facet normal -0 0 -1
    outer loop
      vertex 3.48083 0.365849 0
      vertex 1.74041 0.182924 0
      vertex 3.42352 0.727691 0
    endloop
  endfacet
  facet normal 0 0 -1
    outer loop
      vertex 1.74041 -0.182924 0
      vertex 3.19741 -1.42358 0
      vertex 3.03109 -1.75 0
    endloop
  endfacet
  facet normal 0 0 -1
    outer loop
      vertex 1.71176 0.363845 0
      vertex 3.42352 0.727691 0
      vertex 1.74041 0.182924 0
    endloop
  endfacet
  facet normal 0 0 -1
    outer loop
      vertex 1.74041 -0.182924 0
      vertex 3.03109 -1.75 0
      vertex 2.83156 -2.05725 0
    endloop
  endfacet
  facet normal -0 0 -1
    outer loop
      vertex 3.42352 0.727691 0
      vertex 1.71176 0.363845 0
      vertex 3.3287 1.08156 0
    endloop
  endfacet
  facet normal 0 0 -1
    outer loop
      vertex 1.74041 -0.182924 0
      vertex 2.83156 -2.05725 0
      vertex 2.60101 -2.34196 0
    endloop
  endfacet
  facet normal 0 0 -1
    outer loop
      vertex 1.66435 0.540779 0
      vertex 3.3287 1.08156 0
      vertex 1.71176 0.363845 0
    endloop
  endfacet
  facet normal 0 0 -1
    outer loop
      vertex 1.74041 -0.182924 0
      vertex 2.60101 -2.34196 0
      vertex 2.34196 -2.60101 0
    endloop
  endfacet
  facet normal -0 0 -1
    outer loop
      vertex 3.3287 1.08156 0
      vertex 1.66435 0.540779 0
      vertex 3.19741 1.42358 0
    endloop
  endfacet
  facet normal 0 0 -1
    outer loop
      vertex 1.74041 -0.182924 0
      vertex 2.34196 -2.60101 0
      vertex 2.05725 -2.83156 0
    endloop
  endfacet
  facet normal 0 0 -1
    outer loop
      vertex 1.5987 0.711788 0
      vertex 3.19741 1.42358 0
      vertex 1.66435 0.540779 0
    endloop
  endfacet
  facet normal 0 0 -1
    outer loop
      vertex 1.02862 -1.41578 0
      vertex 2.05725 -2.83156 0
      vertex 1.75 -3.03109 0
    endloop
  endfacet
  facet normal -0 0 -1
    outer loop
      vertex 3.19741 1.42358 0
      vertex 1.5987 0.711788 0
      vertex 3.03109 1.75 0
    endloop
  endfacet
  facet normal 0 0 -1
    outer loop
      vertex 1.51554 0.875 0
      vertex 3.03109 1.75 0
      vertex 1.5987 0.711788 0
    endloop
  endfacet
  facet normal -0 0 -1
    outer loop
      vertex 3.03109 1.75 0
      vertex 1.51554 0.875 0
      vertex 2.83156 2.05725 0
    endloop
  endfacet
  facet normal 0 0 -1
    outer loop
      vertex 1.41578 1.02862 0
      vertex 2.83156 2.05725 0
      vertex 1.51554 0.875 0
    endloop
  endfacet
  facet normal -0 0 -1
    outer loop
      vertex 2.83156 2.05725 0
      vertex 1.41578 1.02862 0
      vertex 2.60101 2.34196 0
    endloop
  endfacet
  facet normal 0 0 -1
    outer loop
      vertex 1.3005 1.17098 0
      vertex 2.60101 2.34196 0
      vertex 1.41578 1.02862 0
    endloop
  endfacet
  facet normal -0 0 -1
    outer loop
      vertex 2.60101 2.34196 0
      vertex 1.3005 1.17098 0
      vertex 2.34196 2.60101 0
    endloop
  endfacet
  facet normal 0 0 -1
    outer loop
      vertex 1.17098 1.3005 0
      vertex 2.34196 2.60101 0
      vertex 1.3005 1.17098 0
    endloop
  endfacet
  facet normal -0 0 -1
    outer loop
      vertex 2.34196 2.60101 0
      vertex 1.17098 1.3005 0
      vertex 2.05725 2.83156 0
    endloop
  endfacet
  facet normal 0 0 -1
    outer loop
      vertex 1.02862 1.41578 0
      vertex 2.05725 2.83156 0
      vertex 1.17098 1.3005 0
    endloop
  endfacet
  facet normal -0 0 -1
    outer loop
      vertex 2.05725 2.83156 0
      vertex 1.02862 1.41578 0
      vertex 1.75 3.03109 0
    endloop
  endfacet
  facet normal 0 0 -1
    outer loop
      vertex 0.875 1.51554 0
      vertex 1.75 3.03109 0
      vertex 1.02862 1.41578 0
    endloop
  endfacet
  facet normal -0 0 -1
    outer loop
      vertex 1.75 3.03109 0
      vertex 0.875 1.51554 0
      vertex 1.42358 3.19741 0
    endloop
  endfacet
  facet normal 0 0 -1
    outer loop
      vertex 0.711788 1.5987 0
      vertex 1.42358 3.19741 0
      vertex 0.875 1.51554 0
    endloop
  endfacet
  facet normal -0 0 -1
    outer loop
      vertex 1.42358 3.19741 0
      vertex 0.711788 1.5987 0
      vertex 1.08156 3.3287 0
    endloop
  endfacet
  facet normal 0 0 -1
    outer loop
      vertex 0.540779 1.66435 0
      vertex 1.08156 3.3287 0
      vertex 0.711788 1.5987 0
    endloop
  endfacet
  facet normal -0 0 -1
    outer loop
      vertex 1.08156 3.3287 0
      vertex 0.540779 1.66435 0
      vertex 0.727691 3.42352 0
    endloop
  endfacet
  facet normal 0 0 -1
    outer loop
      vertex 0.363845 1.71176 0
      vertex 0.727691 3.42352 0
      vertex 0.540779 1.66435 0
    endloop
  endfacet
  facet normal -0 0 -1
    outer loop
      vertex 0.727691 3.42352 0
      vertex 0.363845 1.71176 0
      vertex 0.365849 3.48083 0
    endloop
  endfacet
  facet normal 0 0 -1
    outer loop
      vertex 0.182924 1.74041 0
      vertex 0.365849 3.48083 0
      vertex 0.363845 1.71176 0
    endloop
  endfacet
  facet normal 0 0 -1
    outer loop
      vertex 0 1.75 0
      vertex 0.365849 3.48083 0
      vertex 0.182924 1.74041 0
    endloop
  endfacet
  facet normal 0 0 -1
    outer loop
      vertex 0 1.75 0
      vertex 0 3.5 0
      vertex 0.365849 3.48083 0
    endloop
  endfacet
  facet normal 0 0 -1
    outer loop
      vertex -0.182924 1.74041 0
      vertex 0 3.5 0
      vertex 0 1.75 0
    endloop
  endfacet
  facet normal 0 0 -1
    outer loop
      vertex -0.365849 3.48083 0
      vertex -0.182924 1.74041 0
      vertex -0.363845 1.71176 0
    endloop
  endfacet
  facet normal 0 0 -1
    outer loop
      vertex -0.182924 1.74041 0
      vertex -0.365849 3.48083 0
      vertex 0 3.5 0
    endloop
  endfacet
  facet normal 0 0 -1
    outer loop
      vertex -0.727691 3.42352 0
      vertex -0.363845 1.71176 0
      vertex -0.540779 1.66435 0
    endloop
  endfacet
  facet normal 0 0 -1
    outer loop
      vertex -1.08156 3.3287 0
      vertex -0.540779 1.66435 0
      vertex -0.711788 1.5987 0
    endloop
  endfacet
  facet normal 0 0 -1
    outer loop
      vertex -0.363845 1.71176 0
      vertex -0.727691 3.42352 0
      vertex -0.365849 3.48083 0
    endloop
  endfacet
  facet normal 0 0 -1
    outer loop
      vertex -1.42358 3.19741 0
      vertex -0.711788 1.5987 0
      vertex -0.875 1.51554 0
    endloop
  endfacet
  facet normal 0 0 -1
    outer loop
      vertex -1.75 3.03109 0
      vertex -0.875 1.51554 0
      vertex -1.02862 1.41578 0
    endloop
  endfacet
  facet normal 0 0 -1
    outer loop
      vertex -0.540779 1.66435 0
      vertex -1.08156 3.3287 0
      vertex -0.727691 3.42352 0
    endloop
  endfacet
  facet normal 0 0 -1
    outer loop
      vertex -1.75 3.03109 0
      vertex -1.02862 1.41578 0
      vertex -1.17098 1.3005 0
    endloop
  endfacet
  facet normal 0 0 -1
    outer loop
      vertex -1.75 3.03109 0
      vertex -1.17098 1.3005 0
      vertex -1.3005 1.17098 0
    endloop
  endfacet
  facet normal 0 0 -1
    outer loop
      vertex -1.75 3.03109 0
      vertex -1.3005 1.17098 0
      vertex -1.41578 1.02862 0
    endloop
  endfacet
  facet normal 0 0 -1
    outer loop
      vertex -0.711788 1.5987 0
      vertex -1.42358 3.19741 0
      vertex -1.08156 3.3287 0
    endloop
  endfacet
  facet normal 0 0 -1
    outer loop
      vertex -1.75 3.03109 0
      vertex -1.41578 1.02862 0
      vertex -1.51554 0.875 0
    endloop
  endfacet
  facet normal 0 0 -1
    outer loop
      vertex -1.75 3.03109 0
      vertex -1.51554 0.875 0
      vertex -1.5987 0.711788 0
    endloop
  endfacet
  facet normal 0 0 -1
    outer loop
      vertex -1.75 3.03109 0
      vertex -1.5987 0.711788 0
      vertex -1.66435 0.540779 0
    endloop
  endfacet
  facet normal 0 0 -1
    outer loop
      vertex -1.75 3.03109 0
      vertex -1.66435 0.540779 0
      vertex -1.71176 0.363845 0
    endloop
  endfacet
  facet normal 0 0 -1
    outer loop
      vertex -1.75 3.03109 0
      vertex -1.71176 0.363845 0
      vertex -1.74041 0.182924 0
    endloop
  endfacet
  facet normal 0 0 -1
    outer loop
      vertex -0.875 1.51554 0
      vertex -1.75 3.03109 0
      vertex -1.42358 3.19741 0
    endloop
  endfacet
  facet normal 0 0 -1
    outer loop
      vertex -1.75 3.03109 0
      vertex -1.74041 0.182924 0
      vertex -1.75 0 0
    endloop
  endfacet
  facet normal -0.156434 -0.987688 0
    outer loop
      vertex -0.727691 -3.42352 0
      vertex -0.365849 -3.48083 2.3
      vertex -0.727691 -3.42352 2.3
    endloop
  endfacet
  facet normal -0.156434 -0.987688 -0
    outer loop
      vertex -0.365849 -3.48083 2.3
      vertex -0.727691 -3.42352 0
      vertex -0.365849 -3.48083 0
    endloop
  endfacet
  facet normal 0 0 1
    outer loop
      vertex 3.48083 0.365849 2.3
      vertex 1.74041 0.182924 2.3
      vertex 1.75 0 2.3
    endloop
  endfacet
  facet normal 0 0 1
    outer loop
      vertex 2.05725 2.83156 2.3
      vertex 1.71176 0.363845 2.3
      vertex 1.74041 0.182924 2.3
    endloop
  endfacet
  facet normal 0 0 1
    outer loop
      vertex 2.05725 2.83156 2.3
      vertex 1.66435 0.540779 2.3
      vertex 1.71176 0.363845 2.3
    endloop
  endfacet
  facet normal 0 0 1
    outer loop
      vertex 2.05725 2.83156 2.3
      vertex 1.5987 0.711788 2.3
      vertex 1.66435 0.540779 2.3
    endloop
  endfacet
  facet normal 0 0 1
    outer loop
      vertex 2.05725 2.83156 2.3
      vertex 1.51554 0.875 2.3
      vertex 1.5987 0.711788 2.3
    endloop
  endfacet
  facet normal 0 0 1
    outer loop
      vertex 0.875 1.51554 2.3
      vertex 1.75 3.03109 2.3
      vertex 1.42358 3.19741 2.3
    endloop
  endfacet
  facet normal 0 0 1
    outer loop
      vertex 2.05725 2.83156 2.3
      vertex 1.41578 1.02862 2.3
      vertex 1.51554 0.875 2.3
    endloop
  endfacet
  facet normal 0 0 1
    outer loop
      vertex 2.05725 2.83156 2.3
      vertex 1.3005 1.17098 2.3
      vertex 1.41578 1.02862 2.3
    endloop
  endfacet
  facet normal 0 0 1
    outer loop
      vertex 2.05725 2.83156 2.3
      vertex 1.17098 1.3005 2.3
      vertex 1.3005 1.17098 2.3
    endloop
  endfacet
  facet normal 0 0 1
    outer loop
      vertex 0.711788 1.5987 2.3
      vertex 1.42358 3.19741 2.3
      vertex 1.08156 3.3287 2.3
    endloop
  endfacet
  facet normal 0 0 1
    outer loop
      vertex 2.05725 2.83156 2.3
      vertex 1.02862 1.41578 2.3
      vertex 1.17098 1.3005 2.3
    endloop
  endfacet
  facet normal 0 0 1
    outer loop
      vertex 1.75 3.03109 2.3
      vertex 0.875 1.51554 2.3
      vertex 1.02862 1.41578 2.3
    endloop
  endfacet
  facet normal 0 0 1
    outer loop
      vertex 0.540779 1.66435 2.3
      vertex 1.08156 3.3287 2.3
      vertex 0.727691 3.42352 2.3
    endloop
  endfacet
  facet normal 0 0 1
    outer loop
      vertex 1.42358 3.19741 2.3
      vertex 0.711788 1.5987 2.3
      vertex 0.875 1.51554 2.3
    endloop
  endfacet
  facet normal 0 0 1
    outer loop
      vertex 1.08156 3.3287 2.3
      vertex 0.540779 1.66435 2.3
      vertex 0.711788 1.5987 2.3
    endloop
  endfacet
  facet normal 0 0 1
    outer loop
      vertex 0.363845 1.71176 2.3
      vertex 0.727691 3.42352 2.3
      vertex 0.365849 3.48083 2.3
    endloop
  endfacet
  facet normal 0 0 1
    outer loop
      vertex 0.727691 3.42352 2.3
      vertex 0.363845 1.71176 2.3
      vertex 0.540779 1.66435 2.3
    endloop
  endfacet
  facet normal 0 0 1
    outer loop
      vertex 0.365849 3.48083 2.3
      vertex 0.182924 1.74041 2.3
      vertex 0.363845 1.71176 2.3
    endloop
  endfacet
  facet normal 0 0 1
    outer loop
      vertex 0 3.5 2.3
      vertex 0.182924 1.74041 2.3
      vertex 0.365849 3.48083 2.3
    endloop
  endfacet
  facet normal 0 0 1
    outer loop
      vertex 0 3.5 2.3
      vertex 0 1.75 2.3
      vertex 0.182924 1.74041 2.3
    endloop
  endfacet
  facet normal 0 0 1
    outer loop
      vertex 0 3.5 2.3
      vertex -0.182924 1.74041 2.3
      vertex 0 1.75 2.3
    endloop
  endfacet
  facet normal -0 0 1
    outer loop
      vertex -0.365849 3.48083 2.3
      vertex -0.182924 1.74041 2.3
      vertex 0 3.5 2.3
    endloop
  endfacet
  facet normal 0 0 1
    outer loop
      vertex -0.182924 1.74041 2.3
      vertex -0.365849 3.48083 2.3
      vertex -0.363845 1.71176 2.3
    endloop
  endfacet
  facet normal -0 0 1
    outer loop
      vertex -0.727691 3.42352 2.3
      vertex -0.363845 1.71176 2.3
      vertex -0.365849 3.48083 2.3
    endloop
  endfacet
  facet normal 0 0 1
    outer loop
      vertex -0.363845 1.71176 2.3
      vertex -0.727691 3.42352 2.3
      vertex -0.540779 1.66435 2.3
    endloop
  endfacet
  facet normal -0 0 1
    outer loop
      vertex -1.08156 3.3287 2.3
      vertex -0.540779 1.66435 2.3
      vertex -0.727691 3.42352 2.3
    endloop
  endfacet
  facet normal 0 0 1
    outer loop
      vertex -0.540779 1.66435 2.3
      vertex -1.08156 3.3287 2.3
      vertex -0.711788 1.5987 2.3
    endloop
  endfacet
  facet normal -0 0 1
    outer loop
      vertex -1.42358 3.19741 2.3
      vertex -0.711788 1.5987 2.3
      vertex -1.08156 3.3287 2.3
    endloop
  endfacet
  facet normal 0 0 1
    outer loop
      vertex -0.711788 1.5987 2.3
      vertex -1.42358 3.19741 2.3
      vertex -0.875 1.51554 2.3
    endloop
  endfacet
  facet normal -0 0 1
    outer loop
      vertex -1.75 3.03109 2.3
      vertex -0.875 1.51554 2.3
      vertex -1.42358 3.19741 2.3
    endloop
  endfacet
  facet normal 0 0 1
    outer loop
      vertex -0.875 1.51554 2.3
      vertex -1.75 3.03109 2.3
      vertex -1.02862 1.41578 2.3
    endloop
  endfacet
  facet normal -0 0 1
    outer loop
      vertex -2.05725 2.83156 2.3
      vertex -1.02862 1.41578 2.3
      vertex -1.75 3.03109 2.3
    endloop
  endfacet
  facet normal 0 0 1
    outer loop
      vertex -1.02862 1.41578 2.3
      vertex -2.05725 2.83156 2.3
      vertex -1.17098 1.3005 2.3
    endloop
  endfacet
  facet normal -0 0 1
    outer loop
      vertex -2.34196 2.60101 2.3
      vertex -1.17098 1.3005 2.3
      vertex -2.05725 2.83156 2.3
    endloop
  endfacet
  facet normal 0 0 1
    outer loop
      vertex -1.17098 1.3005 2.3
      vertex -2.34196 2.60101 2.3
      vertex -1.3005 1.17098 2.3
    endloop
  endfacet
  facet normal -0 0 1
    outer loop
      vertex -2.60101 2.34196 2.3
      vertex -1.3005 1.17098 2.3
      vertex -2.34196 2.60101 2.3
    endloop
  endfacet
  facet normal 0 0 1
    outer loop
      vertex -1.3005 1.17098 2.3
      vertex -2.60101 2.34196 2.3
      vertex -1.41578 1.02862 2.3
    endloop
  endfacet
  facet normal -0 0 1
    outer loop
      vertex -2.83156 2.05725 2.3
      vertex -1.41578 1.02862 2.3
      vertex -2.60101 2.34196 2.3
    endloop
  endfacet
  facet normal 0 0 1
    outer loop
      vertex -1.41578 1.02862 2.3
      vertex -2.83156 2.05725 2.3
      vertex -1.51554 0.875 2.3
    endloop
  endfacet
  facet normal -0 0 1
    outer loop
      vertex -3.03109 1.75 2.3
      vertex -1.51554 0.875 2.3
      vertex -2.83156 2.05725 2.3
    endloop
  endfacet
  facet normal 0 0 1
    outer loop
      vertex -1.51554 0.875 2.3
      vertex -3.03109 1.75 2.3
      vertex -1.5987 0.711788 2.3
    endloop
  endfacet
  facet normal -0 0 1
    outer loop
      vertex -3.19741 1.42358 2.3
      vertex -1.5987 0.711788 2.3
      vertex -3.03109 1.75 2.3
    endloop
  endfacet
  facet normal 0 0 1
    outer loop
      vertex -1.75 0 2.3
      vertex -2.05725 -2.83156 2.3
      vertex -1.75 -3.03109 2.3
    endloop
  endfacet
  facet normal 0 0 1
    outer loop
      vertex -1.5987 0.711788 2.3
      vertex -3.19741 1.42358 2.3
      vertex -1.66435 0.540779 2.3
    endloop
  endfacet
  facet normal 0 0 1
    outer loop
      vertex -1.75 0 2.3
      vertex -2.34196 -2.60101 2.3
      vertex -2.05725 -2.83156 2.3
    endloop
  endfacet
  facet normal -0 0 1
    outer loop
      vertex -3.3287 1.08156 2.3
      vertex -1.66435 0.540779 2.3
      vertex -3.19741 1.42358 2.3
    endloop
  endfacet
  facet normal 0 0 1
    outer loop
      vertex -1.75 0 2.3
      vertex -2.60101 -2.34196 2.3
      vertex -2.34196 -2.60101 2.3
    endloop
  endfacet
  facet normal 0 0 1
    outer loop
      vertex -1.66435 0.540779 2.3
      vertex -3.3287 1.08156 2.3
      vertex -1.71176 0.363845 2.3
    endloop
  endfacet
  facet normal 0 0 1
    outer loop
      vertex -1.75 0 2.3
      vertex -2.83156 -2.05725 2.3
      vertex -2.60101 -2.34196 2.3
    endloop
  endfacet
  facet normal -0 0 1
    outer loop
      vertex -3.42352 0.727691 2.3
      vertex -1.71176 0.363845 2.3
      vertex -3.3287 1.08156 2.3
    endloop
  endfacet
  facet normal 0 0 1
    outer loop
      vertex -1.75 0 2.3
      vertex -3.03109 -1.75 2.3
      vertex -2.83156 -2.05725 2.3
    endloop
  endfacet
  facet normal 0 0 1
    outer loop
      vertex -1.71176 0.363845 2.3
      vertex -3.42352 0.727691 2.3
      vertex -1.74041 0.182924 2.3
    endloop
  endfacet
  facet normal 0 0 1
    outer loop
      vertex -1.75 0 2.3
      vertex -3.19741 -1.42358 2.3
      vertex -3.03109 -1.75 2.3
    endloop
  endfacet
  facet normal -0 0 1
    outer loop
      vertex -3.48083 0.365849 2.3
      vertex -1.74041 0.182924 2.3
      vertex -3.42352 0.727691 2.3
    endloop
  endfacet
  facet normal 0 0 1
    outer loop
      vertex -1.75 0 2.3
      vertex -3.3287 -1.08156 2.3
      vertex -3.19741 -1.42358 2.3
    endloop
  endfacet
  facet normal 0 0 1
    outer loop
      vertex -1.74041 0.182924 2.3
      vertex -3.48083 0.365849 2.3
      vertex -1.75 0 2.3
    endloop
  endfacet
  facet normal 0 0 1
    outer loop
      vertex -1.75 0 2.3
      vertex -3.42352 -0.727691 2.3
      vertex -3.3287 -1.08156 2.3
    endloop
  endfacet
  facet normal 0 0 1
    outer loop
      vertex -3.5 0 2.3
      vertex -1.75 0 2.3
      vertex -3.48083 0.365849 2.3
    endloop
  endfacet
  facet normal 0 0 1
    outer loop
      vertex -1.75 0 2.3
      vertex -3.48083 -0.365849 2.3
      vertex -3.42352 -0.727691 2.3
    endloop
  endfacet
  facet normal 0 0 1
    outer loop
      vertex -1.75 0 2.3
      vertex -3.5 0 2.3
      vertex -3.48083 -0.365849 2.3
    endloop
  endfacet
  facet normal 0 0 1
    outer loop
      vertex 1.75 0 2.3
      vertex 3.5 0 2.3
      vertex 3.48083 0.365849 2.3
    endloop
  endfacet
  facet normal 0 0 1
    outer loop
      vertex 1.74041 0.182924 2.3
      vertex 3.48083 0.365849 2.3
      vertex 3.42352 0.727691 2.3
    endloop
  endfacet
  facet normal 0 0 1
    outer loop
      vertex 3.5 0 2.3
      vertex 1.75 0 2.3
      vertex 3.48083 -0.365849 2.3
    endloop
  endfacet
  facet normal 0 0 1
    outer loop
      vertex 1.74041 0.182924 2.3
      vertex 3.42352 0.727691 2.3
      vertex 3.3287 1.08156 2.3
    endloop
  endfacet
  facet normal -0 0 1
    outer loop
      vertex 1.74041 -0.182924 2.3
      vertex 3.48083 -0.365849 2.3
      vertex 1.75 0 2.3
    endloop
  endfacet
  facet normal 0 0 1
    outer loop
      vertex 1.74041 0.182924 2.3
      vertex 3.3287 1.08156 2.3
      vertex 3.19741 1.42358 2.3
    endloop
  endfacet
  facet normal 0 0 1
    outer loop
      vertex 3.48083 -0.365849 2.3
      vertex 1.74041 -0.182924 2.3
      vertex 3.42352 -0.727691 2.3
    endloop
  endfacet
  facet normal 0 0 1
    outer loop
      vertex 1.74041 0.182924 2.3
      vertex 3.19741 1.42358 2.3
      vertex 3.03109 1.75 2.3
    endloop
  endfacet
  facet normal -0 0 1
    outer loop
      vertex 1.71176 -0.363845 2.3
      vertex 3.42352 -0.727691 2.3
      vertex 1.74041 -0.182924 2.3
    endloop
  endfacet
  facet normal 0 0 1
    outer loop
      vertex 1.74041 0.182924 2.3
      vertex 3.03109 1.75 2.3
      vertex 2.83156 2.05725 2.3
    endloop
  endfacet
  facet normal 0 0 1
    outer loop
      vertex 3.42352 -0.727691 2.3
      vertex 1.71176 -0.363845 2.3
      vertex 3.3287 -1.08156 2.3
    endloop
  endfacet
  facet normal 0 0 1
    outer loop
      vertex 1.74041 0.182924 2.3
      vertex 2.83156 2.05725 2.3
      vertex 2.60101 2.34196 2.3
    endloop
  endfacet
  facet normal -0 0 1
    outer loop
      vertex 1.66435 -0.540779 2.3
      vertex 3.3287 -1.08156 2.3
      vertex 1.71176 -0.363845 2.3
    endloop
  endfacet
  facet normal 0 0 1
    outer loop
      vertex 1.74041 0.182924 2.3
      vertex 2.60101 2.34196 2.3
      vertex 2.34196 2.60101 2.3
    endloop
  endfacet
  facet normal 0 0 1
    outer loop
      vertex 3.3287 -1.08156 2.3
      vertex 1.66435 -0.540779 2.3
      vertex 3.19741 -1.42358 2.3
    endloop
  endfacet
  facet normal 0 0 1
    outer loop
      vertex 1.74041 0.182924 2.3
      vertex 2.34196 2.60101 2.3
      vertex 2.05725 2.83156 2.3
    endloop
  endfacet
  facet normal -0 0 1
    outer loop
      vertex 1.5987 -0.711788 2.3
      vertex 3.19741 -1.42358 2.3
      vertex 1.66435 -0.540779 2.3
    endloop
  endfacet
  facet normal 0 0 1
    outer loop
      vertex 1.02862 1.41578 2.3
      vertex 2.05725 2.83156 2.3
      vertex 1.75 3.03109 2.3
    endloop
  endfacet
  facet normal 0 0 1
    outer loop
      vertex 3.19741 -1.42358 2.3
      vertex 1.5987 -0.711788 2.3
      vertex 3.03109 -1.75 2.3
    endloop
  endfacet
  facet normal -0 0 1
    outer loop
      vertex 1.51554 -0.875 2.3
      vertex 3.03109 -1.75 2.3
      vertex 1.5987 -0.711788 2.3
    endloop
  endfacet
  facet normal 0 0 1
    outer loop
      vertex 3.03109 -1.75 2.3
      vertex 1.51554 -0.875 2.3
      vertex 2.83156 -2.05725 2.3
    endloop
  endfacet
  facet normal -0 0 1
    outer loop
      vertex 1.41578 -1.02862 2.3
      vertex 2.83156 -2.05725 2.3
      vertex 1.51554 -0.875 2.3
    endloop
  endfacet
  facet normal 0 0 1
    outer loop
      vertex 2.83156 -2.05725 2.3
      vertex 1.41578 -1.02862 2.3
      vertex 2.60101 -2.34196 2.3
    endloop
  endfacet
  facet normal -0 0 1
    outer loop
      vertex 1.3005 -1.17098 2.3
      vertex 2.60101 -2.34196 2.3
      vertex 1.41578 -1.02862 2.3
    endloop
  endfacet
  facet normal 0 0 1
    outer loop
      vertex 2.60101 -2.34196 2.3
      vertex 1.3005 -1.17098 2.3
      vertex 2.34196 -2.60101 2.3
    endloop
  endfacet
  facet normal -0 0 1
    outer loop
      vertex 1.17098 -1.3005 2.3
      vertex 2.34196 -2.60101 2.3
      vertex 1.3005 -1.17098 2.3
    endloop
  endfacet
  facet normal 0 0 1
    outer loop
      vertex 2.34196 -2.60101 2.3
      vertex 1.17098 -1.3005 2.3
      vertex 2.05725 -2.83156 2.3
    endloop
  endfacet
  facet normal -0 0 1
    outer loop
      vertex 1.02862 -1.41578 2.3
      vertex 2.05725 -2.83156 2.3
      vertex 1.17098 -1.3005 2.3
    endloop
  endfacet
  facet normal 0 0 1
    outer loop
      vertex 2.05725 -2.83156 2.3
      vertex 1.02862 -1.41578 2.3
      vertex 1.75 -3.03109 2.3
    endloop
  endfacet
  facet normal -0 0 1
    outer loop
      vertex 0.875 -1.51554 2.3
      vertex 1.75 -3.03109 2.3
      vertex 1.02862 -1.41578 2.3
    endloop
  endfacet
  facet normal 0 0 1
    outer loop
      vertex 1.75 -3.03109 2.3
      vertex 0.875 -1.51554 2.3
      vertex 1.42358 -3.19741 2.3
    endloop
  endfacet
  facet normal -0 0 1
    outer loop
      vertex 0.711788 -1.5987 2.3
      vertex 1.42358 -3.19741 2.3
      vertex 0.875 -1.51554 2.3
    endloop
  endfacet
  facet normal 0 0 1
    outer loop
      vertex 1.42358 -3.19741 2.3
      vertex 0.711788 -1.5987 2.3
      vertex 1.08156 -3.3287 2.3
    endloop
  endfacet
  facet normal -0 0 1
    outer loop
      vertex 0.540779 -1.66435 2.3
      vertex 1.08156 -3.3287 2.3
      vertex 0.711788 -1.5987 2.3
    endloop
  endfacet
  facet normal 0 0 1
    outer loop
      vertex 1.08156 -3.3287 2.3
      vertex 0.540779 -1.66435 2.3
      vertex 0.727691 -3.42352 2.3
    endloop
  endfacet
  facet normal -0 0 1
    outer loop
      vertex 0.363845 -1.71176 2.3
      vertex 0.727691 -3.42352 2.3
      vertex 0.540779 -1.66435 2.3
    endloop
  endfacet
  facet normal 0 0 1
    outer loop
      vertex 0.727691 -3.42352 2.3
      vertex 0.363845 -1.71176 2.3
      vertex 0.365849 -3.48083 2.3
    endloop
  endfacet
  facet normal -0 0 1
    outer loop
      vertex 0.182924 -1.74041 2.3
      vertex 0.365849 -3.48083 2.3
      vertex 0.363845 -1.71176 2.3
    endloop
  endfacet
  facet normal -0 0 1
    outer loop
      vertex 0 -1.75 2.3
      vertex 0.365849 -3.48083 2.3
      vertex 0.182924 -1.74041 2.3
    endloop
  endfacet
  facet normal 0 0 1
    outer loop
      vertex 0 -1.75 2.3
      vertex 0 -3.5 2.3
      vertex 0.365849 -3.48083 2.3
    endloop
  endfacet
  facet normal 0 0 1
    outer loop
      vertex -0.182924 -1.74041 2.3
      vertex 0 -3.5 2.3
      vertex 0 -1.75 2.3
    endloop
  endfacet
  facet normal 0 0 1
    outer loop
      vertex -0.365849 -3.48083 2.3
      vertex -0.182924 -1.74041 2.3
      vertex -0.363845 -1.71176 2.3
    endloop
  endfacet
  facet normal 0 0 1
    outer loop
      vertex -0.182924 -1.74041 2.3
      vertex -0.365849 -3.48083 2.3
      vertex 0 -3.5 2.3
    endloop
  endfacet
  facet normal 0 0 1
    outer loop
      vertex -0.727691 -3.42352 2.3
      vertex -0.363845 -1.71176 2.3
      vertex -0.540779 -1.66435 2.3
    endloop
  endfacet
  facet normal 0 0 1
    outer loop
      vertex -1.08156 -3.3287 2.3
      vertex -0.540779 -1.66435 2.3
      vertex -0.711788 -1.5987 2.3
    endloop
  endfacet
  facet normal 0 0 1
    outer loop
      vertex -0.363845 -1.71176 2.3
      vertex -0.727691 -3.42352 2.3
      vertex -0.365849 -3.48083 2.3
    endloop
  endfacet
  facet normal 0 0 1
    outer loop
      vertex -1.42358 -3.19741 2.3
      vertex -0.711788 -1.5987 2.3
      vertex -0.875 -1.51554 2.3
    endloop
  endfacet
  facet normal 0 0 1
    outer loop
      vertex -1.75 -3.03109 2.3
      vertex -0.875 -1.51554 2.3
      vertex -1.02862 -1.41578 2.3
    endloop
  endfacet
  facet normal 0 0 1
    outer loop
      vertex -0.540779 -1.66435 2.3
      vertex -1.08156 -3.3287 2.3
      vertex -0.727691 -3.42352 2.3
    endloop
  endfacet
  facet normal 0 0 1
    outer loop
      vertex -1.75 -3.03109 2.3
      vertex -1.02862 -1.41578 2.3
      vertex -1.17098 -1.3005 2.3
    endloop
  endfacet
  facet normal 0 0 1
    outer loop
      vertex -1.75 -3.03109 2.3
      vertex -1.17098 -1.3005 2.3
      vertex -1.3005 -1.17098 2.3
    endloop
  endfacet
  facet normal 0 0 1
    outer loop
      vertex -1.75 -3.03109 2.3
      vertex -1.3005 -1.17098 2.3
      vertex -1.41578 -1.02862 2.3
    endloop
  endfacet
  facet normal 0 0 1
    outer loop
      vertex -0.711788 -1.5987 2.3
      vertex -1.42358 -3.19741 2.3
      vertex -1.08156 -3.3287 2.3
    endloop
  endfacet
  facet normal 0 0 1
    outer loop
      vertex -1.75 -3.03109 2.3
      vertex -1.41578 -1.02862 2.3
      vertex -1.51554 -0.875 2.3
    endloop
  endfacet
  facet normal 0 0 1
    outer loop
      vertex -1.75 -3.03109 2.3
      vertex -1.51554 -0.875 2.3
      vertex -1.5987 -0.711788 2.3
    endloop
  endfacet
  facet normal 0 0 1
    outer loop
      vertex -1.75 -3.03109 2.3
      vertex -1.5987 -0.711788 2.3
      vertex -1.66435 -0.540779 2.3
    endloop
  endfacet
  facet normal 0 0 1
    outer loop
      vertex -1.75 -3.03109 2.3
      vertex -1.66435 -0.540779 2.3
      vertex -1.71176 -0.363845 2.3
    endloop
  endfacet
  facet normal 0 0 1
    outer loop
      vertex -1.75 -3.03109 2.3
      vertex -1.71176 -0.363845 2.3
      vertex -1.74041 -0.182924 2.3
    endloop
  endfacet
  facet normal 0 0 1
    outer loop
      vertex -0.875 -1.51554 2.3
      vertex -1.75 -3.03109 2.3
      vertex -1.42358 -3.19741 2.3
    endloop
  endfacet
  facet normal 0 0 1
    outer loop
      vertex -1.75 -3.03109 2.3
      vertex -1.74041 -0.182924 2.3
      vertex -1.75 0 2.3
    endloop
  endfacet
  facet normal -0.987693 -0.156407 0
    outer loop
      vertex 1.74041 0.182924 0
      vertex 1.71176 0.363845 2.3
      vertex 1.71176 0.363845 0
    endloop
  endfacet
  facet normal -0.987693 -0.156407 0
    outer loop
      vertex 1.71176 0.363845 2.3
      vertex 1.74041 0.182924 0
      vertex 1.74041 0.182924 2.3
    endloop
  endfacet
  facet normal -0.998629 -0.0523542 0
    outer loop
      vertex 1.75 0 0
      vertex 1.74041 0.182924 2.3
      vertex 1.74041 0.182924 0
    endloop
  endfacet
  facet normal -0.998629 -0.0523542 0
    outer loop
      vertex 1.74041 0.182924 2.3
      vertex 1.75 0 0
      vertex 1.75 0 2.3
    endloop
  endfacet
  facet normal -0.965925 -0.258822 0
    outer loop
      vertex 1.71176 0.363845 0
      vertex 1.66435 0.540779 2.3
      vertex 1.66435 0.540779 0
    endloop
  endfacet
  facet normal -0.965925 -0.258822 0
    outer loop
      vertex 1.66435 0.540779 2.3
      vertex 1.71176 0.363845 0
      vertex 1.71176 0.363845 2.3
    endloop
  endfacet
  facet normal 0.544631 -0.838676 0
    outer loop
      vertex -1.02862 1.41578 0
      vertex -0.875 1.51554 2.3
      vertex -1.02862 1.41578 2.3
    endloop
  endfacet
  facet normal 0.544631 -0.838676 0
    outer loop
      vertex -0.875 1.51554 2.3
      vertex -1.02862 1.41578 0
      vertex -0.875 1.51554 0
    endloop
  endfacet
  facet normal 0.838676 0.544631 0
    outer loop
      vertex -1.41578 -1.02862 2.3
      vertex -1.51554 -0.875 0
      vertex -1.51554 -0.875 2.3
    endloop
  endfacet
  facet normal 0.838676 0.544631 0
    outer loop
      vertex -1.51554 -0.875 0
      vertex -1.41578 -1.02862 2.3
      vertex -1.41578 -1.02862 0
    endloop
  endfacet
  facet normal 0.156407 0.987693 -0
    outer loop
      vertex -0.182924 -1.74041 0
      vertex -0.363845 -1.71176 2.3
      vertex -0.182924 -1.74041 2.3
    endloop
  endfacet
  facet normal 0.156407 0.987693 0
    outer loop
      vertex -0.363845 -1.71176 2.3
      vertex -0.182924 -1.74041 0
      vertex -0.363845 -1.71176 0
    endloop
  endfacet
  facet normal 0.453988 -0.891008 0
    outer loop
      vertex -0.875 1.51554 0
      vertex -0.711788 1.5987 2.3
      vertex -0.875 1.51554 2.3
    endloop
  endfacet
  facet normal 0.453988 -0.891008 0
    outer loop
      vertex -0.711788 1.5987 2.3
      vertex -0.875 1.51554 0
      vertex -0.711788 1.5987 0
    endloop
  endfacet
  facet normal 0.707107 0.707107 0
    outer loop
      vertex -1.17098 -1.3005 2.3
      vertex -1.3005 -1.17098 0
      vertex -1.3005 -1.17098 2.3
    endloop
  endfacet
  facet normal 0.707107 0.707107 0
    outer loop
      vertex -1.3005 -1.17098 0
      vertex -1.17098 -1.3005 2.3
      vertex -1.17098 -1.3005 0
    endloop
  endfacet
  facet normal -0.453988 -0.891008 0
    outer loop
      vertex 0.711788 1.5987 0
      vertex 0.875 1.51554 2.3
      vertex 0.711788 1.5987 2.3
    endloop
  endfacet
  facet normal -0.453988 -0.891008 -0
    outer loop
      vertex 0.875 1.51554 2.3
      vertex 0.711788 1.5987 0
      vertex 0.875 1.51554 0
    endloop
  endfacet
  facet normal 0.777148 -0.629318 0
    outer loop
      vertex -1.41578 1.02862 2.3
      vertex -1.3005 1.17098 0
      vertex -1.3005 1.17098 2.3
    endloop
  endfacet
  facet normal 0.777148 -0.629318 0
    outer loop
      vertex -1.3005 1.17098 0
      vertex -1.41578 1.02862 2.3
      vertex -1.41578 1.02862 0
    endloop
  endfacet
  facet normal -0.629318 -0.777148 0
    outer loop
      vertex 1.02862 1.41578 0
      vertex 1.17098 1.3005 2.3
      vertex 1.02862 1.41578 2.3
    endloop
  endfacet
  facet normal -0.629318 -0.777148 -0
    outer loop
      vertex 1.17098 1.3005 2.3
      vertex 1.02862 1.41578 0
      vertex 1.17098 1.3005 0
    endloop
  endfacet
  facet normal -0.358396 0.93357 0
    outer loop
      vertex 0.711788 -1.5987 0
      vertex 0.540779 -1.66435 2.3
      vertex 0.711788 -1.5987 2.3
    endloop
  endfacet
  facet normal -0.358396 0.93357 0
    outer loop
      vertex 0.540779 -1.66435 2.3
      vertex 0.711788 -1.5987 0
      vertex 0.540779 -1.66435 0
    endloop
  endfacet
  facet normal -0.707107 -0.707107 0
    outer loop
      vertex 1.3005 1.17098 0
      vertex 1.17098 1.3005 2.3
      vertex 1.17098 1.3005 0
    endloop
  endfacet
  facet normal -0.707107 -0.707107 0
    outer loop
      vertex 1.17098 1.3005 2.3
      vertex 1.3005 1.17098 0
      vertex 1.3005 1.17098 2.3
    endloop
  endfacet
  facet normal 0.629318 -0.777148 0
    outer loop
      vertex -1.17098 1.3005 0
      vertex -1.02862 1.41578 2.3
      vertex -1.17098 1.3005 2.3
    endloop
  endfacet
  facet normal 0.629318 -0.777148 0
    outer loop
      vertex -1.02862 1.41578 2.3
      vertex -1.17098 1.3005 0
      vertex -1.02862 1.41578 0
    endloop
  endfacet
  facet normal -0.629318 0.777148 0
    outer loop
      vertex 1.17098 -1.3005 0
      vertex 1.02862 -1.41578 2.3
      vertex 1.17098 -1.3005 2.3
    endloop
  endfacet
  facet normal -0.629318 0.777148 0
    outer loop
      vertex 1.02862 -1.41578 2.3
      vertex 1.17098 -1.3005 0
      vertex 1.02862 -1.41578 0
    endloop
  endfacet
  facet normal -0.544631 0.838676 0
    outer loop
      vertex 1.02862 -1.41578 0
      vertex 0.875 -1.51554 2.3
      vertex 1.02862 -1.41578 2.3
    endloop
  endfacet
  facet normal -0.544631 0.838676 0
    outer loop
      vertex 0.875 -1.51554 2.3
      vertex 1.02862 -1.41578 0
      vertex 0.875 -1.51554 0
    endloop
  endfacet
  facet normal 0.358396 -0.93357 0
    outer loop
      vertex -0.711788 1.5987 0
      vertex -0.540779 1.66435 2.3
      vertex -0.711788 1.5987 2.3
    endloop
  endfacet
  facet normal 0.358396 -0.93357 0
    outer loop
      vertex -0.540779 1.66435 2.3
      vertex -0.711788 1.5987 0
      vertex -0.540779 1.66435 0
    endloop
  endfacet
  facet normal 0.987693 0.156407 0
    outer loop
      vertex -1.71176 -0.363845 2.3
      vertex -1.74041 -0.182924 0
      vertex -1.74041 -0.182924 2.3
    endloop
  endfacet
  facet normal 0.987693 0.156407 0
    outer loop
      vertex -1.74041 -0.182924 0
      vertex -1.71176 -0.363845 2.3
      vertex -1.71176 -0.363845 0
    endloop
  endfacet
  facet normal 0.156407 -0.987693 0
    outer loop
      vertex -0.363845 1.71176 0
      vertex -0.182924 1.74041 2.3
      vertex -0.363845 1.71176 2.3
    endloop
  endfacet
  facet normal 0.156407 -0.987693 0
    outer loop
      vertex -0.182924 1.74041 2.3
      vertex -0.363845 1.71176 0
      vertex -0.182924 1.74041 0
    endloop
  endfacet
  facet normal -0.838676 -0.544631 0
    outer loop
      vertex 1.51554 0.875 0
      vertex 1.41578 1.02862 2.3
      vertex 1.41578 1.02862 0
    endloop
  endfacet
  facet normal -0.838676 -0.544631 0
    outer loop
      vertex 1.41578 1.02862 2.3
      vertex 1.51554 0.875 0
      vertex 1.51554 0.875 2.3
    endloop
  endfacet
  facet normal -0.258822 -0.965925 0
    outer loop
      vertex 0.363845 1.71176 0
      vertex 0.540779 1.66435 2.3
      vertex 0.363845 1.71176 2.3
    endloop
  endfacet
  facet normal -0.258822 -0.965925 -0
    outer loop
      vertex 0.540779 1.66435 2.3
      vertex 0.363845 1.71176 0
      vertex 0.540779 1.66435 0
    endloop
  endfacet
  facet normal -0.544631 -0.838676 0
    outer loop
      vertex 0.875 1.51554 0
      vertex 1.02862 1.41578 2.3
      vertex 0.875 1.51554 2.3
    endloop
  endfacet
  facet normal -0.544631 -0.838676 -0
    outer loop
      vertex 1.02862 1.41578 2.3
      vertex 0.875 1.51554 0
      vertex 1.02862 1.41578 0
    endloop
  endfacet
  facet normal -0.358396 -0.93357 0
    outer loop
      vertex 0.540779 1.66435 0
      vertex 0.711788 1.5987 2.3
      vertex 0.540779 1.66435 2.3
    endloop
  endfacet
  facet normal -0.358396 -0.93357 -0
    outer loop
      vertex 0.711788 1.5987 2.3
      vertex 0.540779 1.66435 0
      vertex 0.711788 1.5987 0
    endloop
  endfacet
  facet normal -0.965925 0.258822 0
    outer loop
      vertex 1.66435 -0.540779 0
      vertex 1.71176 -0.363845 2.3
      vertex 1.71176 -0.363845 0
    endloop
  endfacet
  facet normal -0.965925 0.258822 0
    outer loop
      vertex 1.71176 -0.363845 2.3
      vertex 1.66435 -0.540779 0
      vertex 1.66435 -0.540779 2.3
    endloop
  endfacet
  facet normal -0.453988 0.891008 0
    outer loop
      vertex 0.875 -1.51554 0
      vertex 0.711788 -1.5987 2.3
      vertex 0.875 -1.51554 2.3
    endloop
  endfacet
  facet normal -0.453988 0.891008 0
    outer loop
      vertex 0.711788 -1.5987 2.3
      vertex 0.875 -1.51554 0
      vertex 0.711788 -1.5987 0
    endloop
  endfacet
  facet normal -0.0523542 0.998629 0
    outer loop
      vertex 0.182924 -1.74041 0
      vertex 0 -1.75 2.3
      vertex 0.182924 -1.74041 2.3
    endloop
  endfacet
  facet normal -0.0523542 0.998629 0
    outer loop
      vertex 0 -1.75 2.3
      vertex 0.182924 -1.74041 0
      vertex 0 -1.75 0
    endloop
  endfacet
  facet normal -0.258822 0.965925 0
    outer loop
      vertex 0.540779 -1.66435 0
      vertex 0.363845 -1.71176 2.3
      vertex 0.540779 -1.66435 2.3
    endloop
  endfacet
  facet normal -0.258822 0.965925 0
    outer loop
      vertex 0.363845 -1.71176 2.3
      vertex 0.540779 -1.66435 0
      vertex 0.363845 -1.71176 0
    endloop
  endfacet
  facet normal -0.987693 0.156407 0
    outer loop
      vertex 1.71176 -0.363845 0
      vertex 1.74041 -0.182924 2.3
      vertex 1.74041 -0.182924 0
    endloop
  endfacet
  facet normal -0.987693 0.156407 0
    outer loop
      vertex 1.74041 -0.182924 2.3
      vertex 1.71176 -0.363845 0
      vertex 1.71176 -0.363845 2.3
    endloop
  endfacet
  facet normal 0.93357 0.358396 0
    outer loop
      vertex -1.5987 -0.711788 2.3
      vertex -1.66435 -0.540779 0
      vertex -1.66435 -0.540779 2.3
    endloop
  endfacet
  facet normal 0.93357 0.358396 0
    outer loop
      vertex -1.66435 -0.540779 0
      vertex -1.5987 -0.711788 2.3
      vertex -1.5987 -0.711788 0
    endloop
  endfacet
  facet normal 0.987693 -0.156407 0
    outer loop
      vertex -1.74041 0.182924 2.3
      vertex -1.71176 0.363845 0
      vertex -1.71176 0.363845 2.3
    endloop
  endfacet
  facet normal 0.987693 -0.156407 0
    outer loop
      vertex -1.71176 0.363845 0
      vertex -1.74041 0.182924 2.3
      vertex -1.74041 0.182924 0
    endloop
  endfacet
  facet normal -0.891008 0.453988 0
    outer loop
      vertex 1.51554 -0.875 0
      vertex 1.5987 -0.711788 2.3
      vertex 1.5987 -0.711788 0
    endloop
  endfacet
  facet normal -0.891008 0.453988 0
    outer loop
      vertex 1.5987 -0.711788 2.3
      vertex 1.51554 -0.875 0
      vertex 1.51554 -0.875 2.3
    endloop
  endfacet
  facet normal 0.965925 0.258822 0
    outer loop
      vertex -1.66435 -0.540779 2.3
      vertex -1.71176 -0.363845 0
      vertex -1.71176 -0.363845 2.3
    endloop
  endfacet
  facet normal 0.965925 0.258822 0
    outer loop
      vertex -1.71176 -0.363845 0
      vertex -1.66435 -0.540779 2.3
      vertex -1.66435 -0.540779 0
    endloop
  endfacet
  facet normal 0.453988 0.891008 -0
    outer loop
      vertex -0.711788 -1.5987 0
      vertex -0.875 -1.51554 2.3
      vertex -0.711788 -1.5987 2.3
    endloop
  endfacet
  facet normal 0.453988 0.891008 0
    outer loop
      vertex -0.875 -1.51554 2.3
      vertex -0.711788 -1.5987 0
      vertex -0.875 -1.51554 0
    endloop
  endfacet
  facet normal 0.891008 0.453988 0
    outer loop
      vertex -1.51554 -0.875 2.3
      vertex -1.5987 -0.711788 0
      vertex -1.5987 -0.711788 2.3
    endloop
  endfacet
  facet normal 0.891008 0.453988 0
    outer loop
      vertex -1.5987 -0.711788 0
      vertex -1.51554 -0.875 2.3
      vertex -1.51554 -0.875 0
    endloop
  endfacet
  facet normal -0.998629 0.0523542 0
    outer loop
      vertex 1.74041 -0.182924 0
      vertex 1.75 0 2.3
      vertex 1.75 0 0
    endloop
  endfacet
  facet normal -0.998629 0.0523542 0
    outer loop
      vertex 1.75 0 2.3
      vertex 1.74041 -0.182924 0
      vertex 1.74041 -0.182924 2.3
    endloop
  endfacet
  facet normal -0.777148 -0.629318 0
    outer loop
      vertex 1.41578 1.02862 0
      vertex 1.3005 1.17098 2.3
      vertex 1.3005 1.17098 0
    endloop
  endfacet
  facet normal -0.777148 -0.629318 0
    outer loop
      vertex 1.3005 1.17098 2.3
      vertex 1.41578 1.02862 0
      vertex 1.41578 1.02862 2.3
    endloop
  endfacet
  facet normal 0.258822 0.965925 -0
    outer loop
      vertex -0.363845 -1.71176 0
      vertex -0.540779 -1.66435 2.3
      vertex -0.363845 -1.71176 2.3
    endloop
  endfacet
  facet normal 0.258822 0.965925 0
    outer loop
      vertex -0.540779 -1.66435 2.3
      vertex -0.363845 -1.71176 0
      vertex -0.540779 -1.66435 0
    endloop
  endfacet
  facet normal -0.156407 0.987693 0
    outer loop
      vertex 0.363845 -1.71176 0
      vertex 0.182924 -1.74041 2.3
      vertex 0.363845 -1.71176 2.3
    endloop
  endfacet
  facet normal -0.156407 0.987693 0
    outer loop
      vertex 0.182924 -1.74041 2.3
      vertex 0.363845 -1.71176 0
      vertex 0.182924 -1.74041 0
    endloop
  endfacet
  facet normal -0.93357 -0.358396 0
    outer loop
      vertex 1.66435 0.540779 0
      vertex 1.5987 0.711788 2.3
      vertex 1.5987 0.711788 0
    endloop
  endfacet
  facet normal -0.93357 -0.358396 0
    outer loop
      vertex 1.5987 0.711788 2.3
      vertex 1.66435 0.540779 0
      vertex 1.66435 0.540779 2.3
    endloop
  endfacet
  facet normal -0.777148 0.629318 0
    outer loop
      vertex 1.3005 -1.17098 0
      vertex 1.41578 -1.02862 2.3
      vertex 1.41578 -1.02862 0
    endloop
  endfacet
  facet normal -0.777148 0.629318 0
    outer loop
      vertex 1.41578 -1.02862 2.3
      vertex 1.3005 -1.17098 0
      vertex 1.3005 -1.17098 2.3
    endloop
  endfacet
  facet normal -0.838676 0.544631 0
    outer loop
      vertex 1.41578 -1.02862 0
      vertex 1.51554 -0.875 2.3
      vertex 1.51554 -0.875 0
    endloop
  endfacet
  facet normal -0.838676 0.544631 0
    outer loop
      vertex 1.51554 -0.875 2.3
      vertex 1.41578 -1.02862 0
      vertex 1.41578 -1.02862 2.3
    endloop
  endfacet
  facet normal 0.258822 -0.965925 0
    outer loop
      vertex -0.540779 1.66435 0
      vertex -0.363845 1.71176 2.3
      vertex -0.540779 1.66435 2.3
    endloop
  endfacet
  facet normal 0.258822 -0.965925 0
    outer loop
      vertex -0.363845 1.71176 2.3
      vertex -0.540779 1.66435 0
      vertex -0.363845 1.71176 0
    endloop
  endfacet
  facet normal 0.838676 -0.544631 0
    outer loop
      vertex -1.51554 0.875 2.3
      vertex -1.41578 1.02862 0
      vertex -1.41578 1.02862 2.3
    endloop
  endfacet
  facet normal 0.838676 -0.544631 0
    outer loop
      vertex -1.41578 1.02862 0
      vertex -1.51554 0.875 2.3
      vertex -1.51554 0.875 0
    endloop
  endfacet
  facet normal -0.156407 -0.987693 0
    outer loop
      vertex 0.182924 1.74041 0
      vertex 0.363845 1.71176 2.3
      vertex 0.182924 1.74041 2.3
    endloop
  endfacet
  facet normal -0.156407 -0.987693 -0
    outer loop
      vertex 0.363845 1.71176 2.3
      vertex 0.182924 1.74041 0
      vertex 0.363845 1.71176 0
    endloop
  endfacet
  facet normal -0.707107 0.707107 0
    outer loop
      vertex 1.17098 -1.3005 0
      vertex 1.3005 -1.17098 2.3
      vertex 1.3005 -1.17098 0
    endloop
  endfacet
  facet normal -0.707107 0.707107 0
    outer loop
      vertex 1.3005 -1.17098 2.3
      vertex 1.17098 -1.3005 0
      vertex 1.17098 -1.3005 2.3
    endloop
  endfacet
  facet normal -0.891008 -0.453988 0
    outer loop
      vertex 1.5987 0.711788 0
      vertex 1.51554 0.875 2.3
      vertex 1.51554 0.875 0
    endloop
  endfacet
  facet normal -0.891008 -0.453988 0
    outer loop
      vertex 1.51554 0.875 2.3
      vertex 1.5987 0.711788 0
      vertex 1.5987 0.711788 2.3
    endloop
  endfacet
  facet normal 0.707107 -0.707107 0
    outer loop
      vertex -1.3005 1.17098 2.3
      vertex -1.17098 1.3005 0
      vertex -1.17098 1.3005 2.3
    endloop
  endfacet
  facet normal 0.707107 -0.707107 0
    outer loop
      vertex -1.17098 1.3005 0
      vertex -1.3005 1.17098 2.3
      vertex -1.3005 1.17098 0
    endloop
  endfacet
  facet normal 0.0523542 0.998629 -0
    outer loop
      vertex 0 -1.75 0
      vertex -0.182924 -1.74041 2.3
      vertex 0 -1.75 2.3
    endloop
  endfacet
  facet normal 0.0523542 0.998629 0
    outer loop
      vertex -0.182924 -1.74041 2.3
      vertex 0 -1.75 0
      vertex -0.182924 -1.74041 0
    endloop
  endfacet
  facet normal 0.0523542 -0.998629 0
    outer loop
      vertex -0.182924 1.74041 0
      vertex 0 1.75 2.3
      vertex -0.182924 1.74041 2.3
    endloop
  endfacet
  facet normal 0.0523542 -0.998629 0
    outer loop
      vertex 0 1.75 2.3
      vertex -0.182924 1.74041 0
      vertex 0 1.75 0
    endloop
  endfacet
  facet normal 0.998629 0.0523542 0
    outer loop
      vertex -1.74041 -0.182924 2.3
      vertex -1.75 0 0
      vertex -1.75 0 2.3
    endloop
  endfacet
  facet normal 0.998629 0.0523542 0
    outer loop
      vertex -1.75 0 0
      vertex -1.74041 -0.182924 2.3
      vertex -1.74041 -0.182924 0
    endloop
  endfacet
  facet normal 0.965925 -0.258822 0
    outer loop
      vertex -1.71176 0.363845 2.3
      vertex -1.66435 0.540779 0
      vertex -1.66435 0.540779 2.3
    endloop
  endfacet
  facet normal 0.965925 -0.258822 0
    outer loop
      vertex -1.66435 0.540779 0
      vertex -1.71176 0.363845 2.3
      vertex -1.71176 0.363845 0
    endloop
  endfacet
  facet normal 0.777148 0.629318 0
    outer loop
      vertex -1.3005 -1.17098 2.3
      vertex -1.41578 -1.02862 0
      vertex -1.41578 -1.02862 2.3
    endloop
  endfacet
  facet normal 0.777148 0.629318 0
    outer loop
      vertex -1.41578 -1.02862 0
      vertex -1.3005 -1.17098 2.3
      vertex -1.3005 -1.17098 0
    endloop
  endfacet
  facet normal 0.93357 -0.358396 0
    outer loop
      vertex -1.66435 0.540779 2.3
      vertex -1.5987 0.711788 0
      vertex -1.5987 0.711788 2.3
    endloop
  endfacet
  facet normal 0.93357 -0.358396 0
    outer loop
      vertex -1.5987 0.711788 0
      vertex -1.66435 0.540779 2.3
      vertex -1.66435 0.540779 0
    endloop
  endfacet
  facet normal -0.0523542 -0.998629 0
    outer loop
      vertex 0 1.75 0
      vertex 0.182924 1.74041 2.3
      vertex 0 1.75 2.3
    endloop
  endfacet
  facet normal -0.0523542 -0.998629 -0
    outer loop
      vertex 0.182924 1.74041 2.3
      vertex 0 1.75 0
      vertex 0.182924 1.74041 0
    endloop
  endfacet
  facet normal 0.629318 0.777148 -0
    outer loop
      vertex -1.02862 -1.41578 0
      vertex -1.17098 -1.3005 2.3
      vertex -1.02862 -1.41578 2.3
    endloop
  endfacet
  facet normal 0.629318 0.777148 0
    outer loop
      vertex -1.17098 -1.3005 2.3
      vertex -1.02862 -1.41578 0
      vertex -1.17098 -1.3005 0
    endloop
  endfacet
  facet normal -0.93357 0.358396 0
    outer loop
      vertex 1.5987 -0.711788 0
      vertex 1.66435 -0.540779 2.3
      vertex 1.66435 -0.540779 0
    endloop
  endfacet
  facet normal -0.93357 0.358396 0
    outer loop
      vertex 1.66435 -0.540779 2.3
      vertex 1.5987 -0.711788 0
      vertex 1.5987 -0.711788 2.3
    endloop
  endfacet
  facet normal 0.544631 0.838676 -0
    outer loop
      vertex -0.875 -1.51554 0
      vertex -1.02862 -1.41578 2.3
      vertex -0.875 -1.51554 2.3
    endloop
  endfacet
  facet normal 0.544631 0.838676 0
    outer loop
      vertex -1.02862 -1.41578 2.3
      vertex -0.875 -1.51554 0
      vertex -1.02862 -1.41578 0
    endloop
  endfacet
  facet normal 0.358396 0.93357 -0
    outer loop
      vertex -0.540779 -1.66435 0
      vertex -0.711788 -1.5987 2.3
      vertex -0.540779 -1.66435 2.3
    endloop
  endfacet
  facet normal 0.358396 0.93357 0
    outer loop
      vertex -0.711788 -1.5987 2.3
      vertex -0.540779 -1.66435 0
      vertex -0.711788 -1.5987 0
    endloop
  endfacet
  facet normal 0.998629 -0.0523542 0
    outer loop
      vertex -1.75 0 2.3
      vertex -1.74041 0.182924 0
      vertex -1.74041 0.182924 2.3
    endloop
  endfacet
  facet normal 0.998629 -0.0523542 0
    outer loop
      vertex -1.74041 0.182924 0
      vertex -1.75 0 2.3
      vertex -1.75 0 0
    endloop
  endfacet
  facet normal 0.891008 -0.453988 0
    outer loop
      vertex -1.5987 0.711788 2.3
      vertex -1.51554 0.875 0
      vertex -1.51554 0.875 2.3
    endloop
  endfacet
  facet normal 0.891008 -0.453988 0
    outer loop
      vertex -1.51554 0.875 0
      vertex -1.5987 0.711788 2.3
      vertex -1.5987 0.711788 0
    endloop
  endfacet
endsolid OpenSCAD_Model
