solid OpenSCAD_Model
  facet normal 0.998629 0.0523367 0
    outer loop
      vertex 3.5 0 4
      vertex 3.48083 0.365849 0
      vertex 3.48083 0.365849 4
    endloop
  endfacet
  facet normal 0.998629 0.0523367 0
    outer loop
      vertex 3.48083 0.365849 0
      vertex 3.5 0 4
      vertex 3.5 0 0
    endloop
  endfacet
  facet normal -0.998629 0.0523367 0
    outer loop
      vertex -3.5 0 0
      vertex -3.48083 0.365849 4
      vertex -3.48083 0.365849 0
    endloop
  endfacet
  facet normal -0.998629 0.0523367 0
    outer loop
      vertex -3.48083 0.365849 4
      vertex -3.5 0 0
      vertex -3.5 0 4
    endloop
  endfacet
  facet normal 0.0523367 0.998629 -0
    outer loop
      vertex 0.365849 3.48083 0
      vertex 0 3.5 4
      vertex 0.365849 3.48083 4
    endloop
  endfacet
  facet normal 0.0523367 0.998629 0
    outer loop
      vertex 0 3.5 4
      vertex 0.365849 3.48083 0
      vertex 0 3.5 0
    endloop
  endfacet
  facet normal -0.0523367 -0.998629 0
    outer loop
      vertex -0.365849 -3.48083 0
      vertex 0 -3.5 4
      vertex -0.365849 -3.48083 4
    endloop
  endfacet
  facet normal -0.0523367 -0.998629 -0
    outer loop
      vertex 0 -3.5 4
      vertex -0.365849 -3.48083 0
      vertex 0 -3.5 0
    endloop
  endfacet
  facet normal 0.707107 0.707107 0
    outer loop
      vertex 2.60101 2.34196 4
      vertex 2.34196 2.60101 0
      vertex 2.34196 2.60101 4
    endloop
  endfacet
  facet normal 0.707107 0.707107 0
    outer loop
      vertex 2.34196 2.60101 0
      vertex 2.60101 2.34196 4
      vertex 2.60101 2.34196 0
    endloop
  endfacet
  facet normal -0.62932 0.777146 0
    outer loop
      vertex -2.05725 2.83156 0
      vertex -2.34196 2.60101 4
      vertex -2.05725 2.83156 4
    endloop
  endfacet
  facet normal -0.62932 0.777146 0
    outer loop
      vertex -2.34196 2.60101 4
      vertex -2.05725 2.83156 0
      vertex -2.34196 2.60101 0
    endloop
  endfacet
  facet normal -0.25882 0.965926 0
    outer loop
      vertex -0.727691 3.42352 0
      vertex -1.08156 3.3287 4
      vertex -0.727691 3.42352 4
    endloop
  endfacet
  facet normal -0.25882 0.965926 0
    outer loop
      vertex -1.08156 3.3287 4
      vertex -0.727691 3.42352 0
      vertex -1.08156 3.3287 0
    endloop
  endfacet
  facet normal 0.891007 0.45399 0
    outer loop
      vertex 3.19741 1.42358 4
      vertex 3.03109 1.75 0
      vertex 3.03109 1.75 4
    endloop
  endfacet
  facet normal 0.891007 0.45399 0
    outer loop
      vertex 3.03109 1.75 0
      vertex 3.19741 1.42358 4
      vertex 3.19741 1.42358 0
    endloop
  endfacet
  facet normal 0.838671 0.544639 0
    outer loop
      vertex 3.03109 1.75 4
      vertex 2.83156 2.05725 0
      vertex 2.83156 2.05725 4
    endloop
  endfacet
  facet normal 0.838671 0.544639 0
    outer loop
      vertex 2.83156 2.05725 0
      vertex 3.03109 1.75 4
      vertex 3.03109 1.75 0
    endloop
  endfacet
  facet normal 0.358368 0.93358 -0
    outer loop
      vertex 1.42358 3.19741 0
      vertex 1.08156 3.3287 4
      vertex 1.42358 3.19741 4
    endloop
  endfacet
  facet normal 0.358368 0.93358 0
    outer loop
      vertex 1.08156 3.3287 4
      vertex 1.42358 3.19741 0
      vertex 1.08156 3.3287 0
    endloop
  endfacet
  facet normal 0.25882 0.965926 -0
    outer loop
      vertex 1.08156 3.3287 0
      vertex 0.727691 3.42352 4
      vertex 1.08156 3.3287 4
    endloop
  endfacet
  facet normal 0.25882 0.965926 0
    outer loop
      vertex 0.727691 3.42352 4
      vertex 1.08156 3.3287 0
      vertex 0.727691 3.42352 0
    endloop
  endfacet
  facet normal 0.54464 0.83867 -0
    outer loop
      vertex 2.05725 2.83156 0
      vertex 1.75 3.03109 4
      vertex 2.05725 2.83156 4
    endloop
  endfacet
  facet normal 0.54464 0.83867 0
    outer loop
      vertex 1.75 3.03109 4
      vertex 2.05725 2.83156 0
      vertex 1.75 3.03109 0
    endloop
  endfacet
  facet normal -0.891007 0.45399 0
    outer loop
      vertex -3.19741 1.42358 0
      vertex -3.03109 1.75 4
      vertex -3.03109 1.75 0
    endloop
  endfacet
  facet normal -0.891007 0.45399 0
    outer loop
      vertex -3.03109 1.75 4
      vertex -3.19741 1.42358 0
      vertex -3.19741 1.42358 4
    endloop
  endfacet
  facet normal -0.156435 0.987688 0
    outer loop
      vertex -0.365849 3.48083 0
      vertex -0.727691 3.42352 4
      vertex -0.365849 3.48083 4
    endloop
  endfacet
  facet normal -0.156435 0.987688 0
    outer loop
      vertex -0.727691 3.42352 4
      vertex -0.365849 3.48083 0
      vertex -0.727691 3.42352 0
    endloop
  endfacet
  facet normal 0.965926 -0.25882 0
    outer loop
      vertex 3.3287 -1.08156 4
      vertex 3.42352 -0.727691 0
      vertex 3.42352 -0.727691 4
    endloop
  endfacet
  facet normal 0.965926 -0.25882 0
    outer loop
      vertex 3.42352 -0.727691 0
      vertex 3.3287 -1.08156 4
      vertex 3.3287 -1.08156 0
    endloop
  endfacet
  facet normal 0 0 -1
    outer loop
      vertex 3.48083 -0.365849 0
      vertex 1.74041 -0.182924 0
      vertex 1.75 0 0
    endloop
  endfacet
  facet normal 0 0 -1
    outer loop
      vertex 2.05725 -2.83156 0
      vertex 1.71176 -0.363845 0
      vertex 1.74041 -0.182924 0
    endloop
  endfacet
  facet normal 0 0 -1
    outer loop
      vertex 2.05725 -2.83156 0
      vertex 1.66435 -0.540779 0
      vertex 1.71176 -0.363845 0
    endloop
  endfacet
  facet normal 0 0 -1
    outer loop
      vertex 2.05725 -2.83156 0
      vertex 1.5987 -0.711788 0
      vertex 1.66435 -0.540779 0
    endloop
  endfacet
  facet normal 0 0 -1
    outer loop
      vertex 2.05725 -2.83156 0
      vertex 1.51554 -0.874999 0
      vertex 1.5987 -0.711788 0
    endloop
  endfacet
  facet normal 0 0 -1
    outer loop
      vertex 0.875 -1.51554 0
      vertex 1.75 -3.03109 0
      vertex 1.42358 -3.19741 0
    endloop
  endfacet
  facet normal 0 0 -1
    outer loop
      vertex 2.05725 -2.83156 0
      vertex 1.41578 -1.02862 0
      vertex 1.51554 -0.874999 0
    endloop
  endfacet
  facet normal 0 0 -1
    outer loop
      vertex 2.05725 -2.83156 0
      vertex 1.3005 -1.17098 0
      vertex 1.41578 -1.02862 0
    endloop
  endfacet
  facet normal 0 0 -1
    outer loop
      vertex 2.05725 -2.83156 0
      vertex 1.17098 -1.3005 0
      vertex 1.3005 -1.17098 0
    endloop
  endfacet
  facet normal 0 0 -1
    outer loop
      vertex 0.711788 -1.5987 0
      vertex 1.42358 -3.19741 0
      vertex 1.08156 -3.3287 0
    endloop
  endfacet
  facet normal 0 0 -1
    outer loop
      vertex 2.05725 -2.83156 0
      vertex 1.02862 -1.41578 0
      vertex 1.17098 -1.3005 0
    endloop
  endfacet
  facet normal 0 0 -1
    outer loop
      vertex 1.75 -3.03109 0
      vertex 0.875 -1.51554 0
      vertex 1.02862 -1.41578 0
    endloop
  endfacet
  facet normal 0 0 -1
    outer loop
      vertex 0.540779 -1.66435 0
      vertex 1.08156 -3.3287 0
      vertex 0.727691 -3.42352 0
    endloop
  endfacet
  facet normal 0 0 -1
    outer loop
      vertex 1.42358 -3.19741 0
      vertex 0.711788 -1.5987 0
      vertex 0.875 -1.51554 0
    endloop
  endfacet
  facet normal 0 0 -1
    outer loop
      vertex 1.08156 -3.3287 0
      vertex 0.540779 -1.66435 0
      vertex 0.711788 -1.5987 0
    endloop
  endfacet
  facet normal 0 0 -1
    outer loop
      vertex 0.363845 -1.71176 0
      vertex 0.727691 -3.42352 0
      vertex 0.365849 -3.48083 0
    endloop
  endfacet
  facet normal 0 0 -1
    outer loop
      vertex 0.727691 -3.42352 0
      vertex 0.363845 -1.71176 0
      vertex 0.540779 -1.66435 0
    endloop
  endfacet
  facet normal 0 0 -1
    outer loop
      vertex 0.365849 -3.48083 0
      vertex 0.182924 -1.74041 0
      vertex 0.363845 -1.71176 0
    endloop
  endfacet
  facet normal 0 0 -1
    outer loop
      vertex 0 -3.5 0
      vertex 0.182924 -1.74041 0
      vertex 0.365849 -3.48083 0
    endloop
  endfacet
  facet normal 0 0 -1
    outer loop
      vertex 0 -3.5 0
      vertex 0 -1.75 0
      vertex 0.182924 -1.74041 0
    endloop
  endfacet
  facet normal 0 0 -1
    outer loop
      vertex 0 -3.5 0
      vertex -0.182924 -1.74041 0
      vertex 0 -1.75 0
    endloop
  endfacet
  facet normal 0 0 -1
    outer loop
      vertex -0.365849 -3.48083 0
      vertex -0.182924 -1.74041 0
      vertex 0 -3.5 0
    endloop
  endfacet
  facet normal -0 0 -1
    outer loop
      vertex -0.182924 -1.74041 0
      vertex -0.365849 -3.48083 0
      vertex -0.363845 -1.71176 0
    endloop
  endfacet
  facet normal 0 0 -1
    outer loop
      vertex -0.727691 -3.42352 0
      vertex -0.363845 -1.71176 0
      vertex -0.365849 -3.48083 0
    endloop
  endfacet
  facet normal -0 0 -1
    outer loop
      vertex -0.363845 -1.71176 0
      vertex -0.727691 -3.42352 0
      vertex -0.540779 -1.66435 0
    endloop
  endfacet
  facet normal 0 0 -1
    outer loop
      vertex -1.08156 -3.3287 0
      vertex -0.540779 -1.66435 0
      vertex -0.727691 -3.42352 0
    endloop
  endfacet
  facet normal -0 0 -1
    outer loop
      vertex -0.540779 -1.66435 0
      vertex -1.08156 -3.3287 0
      vertex -0.711788 -1.5987 0
    endloop
  endfacet
  facet normal 0 0 -1
    outer loop
      vertex -1.42358 -3.19741 0
      vertex -0.711788 -1.5987 0
      vertex -1.08156 -3.3287 0
    endloop
  endfacet
  facet normal -0 0 -1
    outer loop
      vertex -0.711788 -1.5987 0
      vertex -1.42358 -3.19741 0
      vertex -0.875 -1.51554 0
    endloop
  endfacet
  facet normal 0 0 -1
    outer loop
      vertex -1.75 -3.03109 0
      vertex -0.875 -1.51554 0
      vertex -1.42358 -3.19741 0
    endloop
  endfacet
  facet normal -0 0 -1
    outer loop
      vertex -0.875 -1.51554 0
      vertex -1.75 -3.03109 0
      vertex -1.02862 -1.41578 0
    endloop
  endfacet
  facet normal 0 0 -1
    outer loop
      vertex -2.05725 -2.83156 0
      vertex -1.02862 -1.41578 0
      vertex -1.75 -3.03109 0
    endloop
  endfacet
  facet normal -0 0 -1
    outer loop
      vertex -1.02862 -1.41578 0
      vertex -2.05725 -2.83156 0
      vertex -1.17098 -1.3005 0
    endloop
  endfacet
  facet normal 0 0 -1
    outer loop
      vertex -2.34196 -2.60101 0
      vertex -1.17098 -1.3005 0
      vertex -2.05725 -2.83156 0
    endloop
  endfacet
  facet normal -0 0 -1
    outer loop
      vertex -1.17098 -1.3005 0
      vertex -2.34196 -2.60101 0
      vertex -1.3005 -1.17098 0
    endloop
  endfacet
  facet normal 0 0 -1
    outer loop
      vertex -2.60101 -2.34196 0
      vertex -1.3005 -1.17098 0
      vertex -2.34196 -2.60101 0
    endloop
  endfacet
  facet normal -0 0 -1
    outer loop
      vertex -1.3005 -1.17098 0
      vertex -2.60101 -2.34196 0
      vertex -1.41578 -1.02862 0
    endloop
  endfacet
  facet normal 0 0 -1
    outer loop
      vertex -2.83156 -2.05725 0
      vertex -1.41578 -1.02862 0
      vertex -2.60101 -2.34196 0
    endloop
  endfacet
  facet normal -0 0 -1
    outer loop
      vertex -1.41578 -1.02862 0
      vertex -2.83156 -2.05725 0
      vertex -1.51554 -0.874999 0
    endloop
  endfacet
  facet normal 0 0 -1
    outer loop
      vertex -3.03109 -1.75 0
      vertex -1.51554 -0.874999 0
      vertex -2.83156 -2.05725 0
    endloop
  endfacet
  facet normal -0 0 -1
    outer loop
      vertex -1.51554 -0.874999 0
      vertex -3.03109 -1.75 0
      vertex -1.5987 -0.711788 0
    endloop
  endfacet
  facet normal 0 0 -1
    outer loop
      vertex 1.75 0 0
      vertex 3.5 0 0
      vertex 3.48083 -0.365849 0
    endloop
  endfacet
  facet normal 0 0 -1
    outer loop
      vertex 1.74041 -0.182924 0
      vertex 3.48083 -0.365849 0
      vertex 3.42352 -0.727691 0
    endloop
  endfacet
  facet normal 0 0 -1
    outer loop
      vertex 3.5 0 0
      vertex 1.75 0 0
      vertex 3.48083 0.365849 0
    endloop
  endfacet
  facet normal 0 0 -1
    outer loop
      vertex 1.74041 -0.182924 0
      vertex 3.42352 -0.727691 0
      vertex 3.3287 -1.08156 0
    endloop
  endfacet
  facet normal 0 0 -1
    outer loop
      vertex 1.74041 0.182924 0
      vertex 3.48083 0.365849 0
      vertex 1.75 0 0
    endloop
  endfacet
  facet normal 0 0 -1
    outer loop
      vertex 1.74041 -0.182924 0
      vertex 3.3287 -1.08156 0
      vertex 3.19741 -1.42358 0
    endloop
  endfacet
  facet normal -0 0 -1
    outer loop
      vertex 3.48083 0.365849 0
      vertex 1.74041 0.182924 0
      vertex 3.42352 0.727691 0
    endloop
  endfacet
  facet normal 0 0 -1
    outer loop
      vertex 1.74041 -0.182924 0
      vertex 3.19741 -1.42358 0
      vertex 3.03109 -1.75 0
    endloop
  endfacet
  facet normal 0 0 -1
    outer loop
      vertex 1.71176 0.363845 0
      vertex 3.42352 0.727691 0
      vertex 1.74041 0.182924 0
    endloop
  endfacet
  facet normal 0 0 -1
    outer loop
      vertex 1.74041 -0.182924 0
      vertex 3.03109 -1.75 0
      vertex 2.83156 -2.05725 0
    endloop
  endfacet
  facet normal -0 0 -1
    outer loop
      vertex 3.42352 0.727691 0
      vertex 1.71176 0.363845 0
      vertex 3.3287 1.08156 0
    endloop
  endfacet
  facet normal 0 0 -1
    outer loop
      vertex 1.74041 -0.182924 0
      vertex 2.83156 -2.05725 0
      vertex 2.60101 -2.34196 0
    endloop
  endfacet
  facet normal 0 0 -1
    outer loop
      vertex 1.66435 0.540779 0
      vertex 3.3287 1.08156 0
      vertex 1.71176 0.363845 0
    endloop
  endfacet
  facet normal 0 0 -1
    outer loop
      vertex 1.74041 -0.182924 0
      vertex 2.60101 -2.34196 0
      vertex 2.34196 -2.60101 0
    endloop
  endfacet
  facet normal -0 0 -1
    outer loop
      vertex 3.3287 1.08156 0
      vertex 1.66435 0.540779 0
      vertex 3.19741 1.42358 0
    endloop
  endfacet
  facet normal 0 0 -1
    outer loop
      vertex 1.74041 -0.182924 0
      vertex 2.34196 -2.60101 0
      vertex 2.05725 -2.83156 0
    endloop
  endfacet
  facet normal 0 0 -1
    outer loop
      vertex 1.5987 0.711788 0
      vertex 3.19741 1.42358 0
      vertex 1.66435 0.540779 0
    endloop
  endfacet
  facet normal 0 0 -1
    outer loop
      vertex 1.02862 -1.41578 0
      vertex 2.05725 -2.83156 0
      vertex 1.75 -3.03109 0
    endloop
  endfacet
  facet normal -0 0 -1
    outer loop
      vertex 3.19741 1.42358 0
      vertex 1.5987 0.711788 0
      vertex 3.03109 1.75 0
    endloop
  endfacet
  facet normal 0 0 -1
    outer loop
      vertex 1.51554 0.874999 0
      vertex 3.03109 1.75 0
      vertex 1.5987 0.711788 0
    endloop
  endfacet
  facet normal -0 0 -1
    outer loop
      vertex 3.03109 1.75 0
      vertex 1.51554 0.874999 0
      vertex 2.83156 2.05725 0
    endloop
  endfacet
  facet normal 0 0 -1
    outer loop
      vertex 1.41578 1.02862 0
      vertex 2.83156 2.05725 0
      vertex 1.51554 0.874999 0
    endloop
  endfacet
  facet normal -0 0 -1
    outer loop
      vertex 2.83156 2.05725 0
      vertex 1.41578 1.02862 0
      vertex 2.60101 2.34196 0
    endloop
  endfacet
  facet normal 0 0 -1
    outer loop
      vertex 1.3005 1.17098 0
      vertex 2.60101 2.34196 0
      vertex 1.41578 1.02862 0
    endloop
  endfacet
  facet normal -0 0 -1
    outer loop
      vertex 2.60101 2.34196 0
      vertex 1.3005 1.17098 0
      vertex 2.34196 2.60101 0
    endloop
  endfacet
  facet normal 0 0 -1
    outer loop
      vertex 1.17098 1.3005 0
      vertex 2.34196 2.60101 0
      vertex 1.3005 1.17098 0
    endloop
  endfacet
  facet normal -0 0 -1
    outer loop
      vertex 2.34196 2.60101 0
      vertex 1.17098 1.3005 0
      vertex 2.05725 2.83156 0
    endloop
  endfacet
  facet normal 0 0 -1
    outer loop
      vertex 1.02862 1.41578 0
      vertex 2.05725 2.83156 0
      vertex 1.17098 1.3005 0
    endloop
  endfacet
  facet normal -0 0 -1
    outer loop
      vertex 2.05725 2.83156 0
      vertex 1.02862 1.41578 0
      vertex 1.75 3.03109 0
    endloop
  endfacet
  facet normal 0 0 -1
    outer loop
      vertex 0.875 1.51554 0
      vertex 1.75 3.03109 0
      vertex 1.02862 1.41578 0
    endloop
  endfacet
  facet normal -0 0 -1
    outer loop
      vertex 1.75 3.03109 0
      vertex 0.875 1.51554 0
      vertex 1.42358 3.19741 0
    endloop
  endfacet
  facet normal 0 0 -1
    outer loop
      vertex 0.711788 1.5987 0
      vertex 1.42358 3.19741 0
      vertex 0.875 1.51554 0
    endloop
  endfacet
  facet normal -0 0 -1
    outer loop
      vertex 1.42358 3.19741 0
      vertex 0.711788 1.5987 0
      vertex 1.08156 3.3287 0
    endloop
  endfacet
  facet normal 0 0 -1
    outer loop
      vertex 0.540779 1.66435 0
      vertex 1.08156 3.3287 0
      vertex 0.711788 1.5987 0
    endloop
  endfacet
  facet normal -0 0 -1
    outer loop
      vertex 1.08156 3.3287 0
      vertex 0.540779 1.66435 0
      vertex 0.727691 3.42352 0
    endloop
  endfacet
  facet normal 0 0 -1
    outer loop
      vertex 0.363845 1.71176 0
      vertex 0.727691 3.42352 0
      vertex 0.540779 1.66435 0
    endloop
  endfacet
  facet normal -0 0 -1
    outer loop
      vertex 0.727691 3.42352 0
      vertex 0.363845 1.71176 0
      vertex 0.365849 3.48083 0
    endloop
  endfacet
  facet normal 0 0 -1
    outer loop
      vertex 0.182924 1.74041 0
      vertex 0.365849 3.48083 0
      vertex 0.363845 1.71176 0
    endloop
  endfacet
  facet normal 0 0 -1
    outer loop
      vertex 0 1.75 0
      vertex 0.365849 3.48083 0
      vertex 0.182924 1.74041 0
    endloop
  endfacet
  facet normal 0 0 -1
    outer loop
      vertex 0 1.75 0
      vertex 0 3.5 0
      vertex 0.365849 3.48083 0
    endloop
  endfacet
  facet normal 0 0 -1
    outer loop
      vertex -0.182924 1.74041 0
      vertex 0 3.5 0
      vertex 0 1.75 0
    endloop
  endfacet
  facet normal 0 0 -1
    outer loop
      vertex -0.365849 3.48083 0
      vertex -0.182924 1.74041 0
      vertex -0.363845 1.71176 0
    endloop
  endfacet
  facet normal 0 0 -1
    outer loop
      vertex -0.182924 1.74041 0
      vertex -0.365849 3.48083 0
      vertex 0 3.5 0
    endloop
  endfacet
  facet normal 0 0 -1
    outer loop
      vertex -0.727691 3.42352 0
      vertex -0.363845 1.71176 0
      vertex -0.540779 1.66435 0
    endloop
  endfacet
  facet normal 0 0 -1
    outer loop
      vertex -1.08156 3.3287 0
      vertex -0.540779 1.66435 0
      vertex -0.711788 1.5987 0
    endloop
  endfacet
  facet normal 0 0 -1
    outer loop
      vertex -0.363845 1.71176 0
      vertex -0.727691 3.42352 0
      vertex -0.365849 3.48083 0
    endloop
  endfacet
  facet normal 0 0 -1
    outer loop
      vertex -1.42358 3.19741 0
      vertex -0.711788 1.5987 0
      vertex -0.874999 1.51554 0
    endloop
  endfacet
  facet normal 0 0 -1
    outer loop
      vertex -1.75 3.03109 0
      vertex -0.874999 1.51554 0
      vertex -1.02862 1.41578 0
    endloop
  endfacet
  facet normal 0 0 -1
    outer loop
      vertex -0.540779 1.66435 0
      vertex -1.08156 3.3287 0
      vertex -0.727691 3.42352 0
    endloop
  endfacet
  facet normal 0 0 -1
    outer loop
      vertex -2.05725 2.83156 0
      vertex -1.02862 1.41578 0
      vertex -1.17098 1.3005 0
    endloop
  endfacet
  facet normal 0 0 -1
    outer loop
      vertex -2.34196 2.60101 0
      vertex -1.17098 1.3005 0
      vertex -1.3005 1.17098 0
    endloop
  endfacet
  facet normal 0 0 -1
    outer loop
      vertex -2.60101 2.34196 0
      vertex -1.3005 1.17098 0
      vertex -1.41578 1.02862 0
    endloop
  endfacet
  facet normal 0 0 -1
    outer loop
      vertex -0.711788 1.5987 0
      vertex -1.42358 3.19741 0
      vertex -1.08156 3.3287 0
    endloop
  endfacet
  facet normal 0 0 -1
    outer loop
      vertex -2.83156 2.05725 0
      vertex -1.41578 1.02862 0
      vertex -1.51554 0.874999 0
    endloop
  endfacet
  facet normal 0 0 -1
    outer loop
      vertex -3.03109 1.75 0
      vertex -1.51554 0.874999 0
      vertex -1.5987 0.711788 0
    endloop
  endfacet
  facet normal 0 0 -1
    outer loop
      vertex -3.19741 1.42358 0
      vertex -1.5987 0.711788 0
      vertex -1.66435 0.540779 0
    endloop
  endfacet
  facet normal 0 0 -1
    outer loop
      vertex -3.3287 1.08156 0
      vertex -1.66435 0.540779 0
      vertex -1.71176 0.363845 0
    endloop
  endfacet
  facet normal 0 0 -1
    outer loop
      vertex -3.42352 0.727691 0
      vertex -1.71176 0.363845 0
      vertex -1.74041 0.182924 0
    endloop
  endfacet
  facet normal 0 0 -1
    outer loop
      vertex -0.874999 1.51554 0
      vertex -1.75 3.03109 0
      vertex -1.42358 3.19741 0
    endloop
  endfacet
  facet normal 0 0 -1
    outer loop
      vertex -3.48083 0.365849 0
      vertex -1.74041 0.182924 0
      vertex -1.75 0 0
    endloop
  endfacet
  facet normal 0 0 -1
    outer loop
      vertex -3.19741 -1.42358 0
      vertex -1.5987 -0.711788 0
      vertex -3.03109 -1.75 0
    endloop
  endfacet
  facet normal 0 0 -1
    outer loop
      vertex -1.02862 1.41578 0
      vertex -2.05725 2.83156 0
      vertex -1.75 3.03109 0
    endloop
  endfacet
  facet normal -0 0 -1
    outer loop
      vertex -1.5987 -0.711788 0
      vertex -3.19741 -1.42358 0
      vertex -1.66435 -0.540779 0
    endloop
  endfacet
  facet normal 0 0 -1
    outer loop
      vertex -1.17098 1.3005 0
      vertex -2.34196 2.60101 0
      vertex -2.05725 2.83156 0
    endloop
  endfacet
  facet normal 0 0 -1
    outer loop
      vertex -3.3287 -1.08156 0
      vertex -1.66435 -0.540779 0
      vertex -3.19741 -1.42358 0
    endloop
  endfacet
  facet normal 0 0 -1
    outer loop
      vertex -1.3005 1.17098 0
      vertex -2.60101 2.34196 0
      vertex -2.34196 2.60101 0
    endloop
  endfacet
  facet normal -0 0 -1
    outer loop
      vertex -1.66435 -0.540779 0
      vertex -3.3287 -1.08156 0
      vertex -1.71176 -0.363845 0
    endloop
  endfacet
  facet normal 0 0 -1
    outer loop
      vertex -1.41578 1.02862 0
      vertex -2.83156 2.05725 0
      vertex -2.60101 2.34196 0
    endloop
  endfacet
  facet normal 0 0 -1
    outer loop
      vertex -3.42352 -0.727691 0
      vertex -1.71176 -0.363845 0
      vertex -3.3287 -1.08156 0
    endloop
  endfacet
  facet normal 0 0 -1
    outer loop
      vertex -1.51554 0.874999 0
      vertex -3.03109 1.75 0
      vertex -2.83156 2.05725 0
    endloop
  endfacet
  facet normal -0 0 -1
    outer loop
      vertex -1.71176 -0.363845 0
      vertex -3.42352 -0.727691 0
      vertex -1.74041 -0.182924 0
    endloop
  endfacet
  facet normal 0 0 -1
    outer loop
      vertex -1.5987 0.711788 0
      vertex -3.19741 1.42358 0
      vertex -3.03109 1.75 0
    endloop
  endfacet
  facet normal 0 0 -1
    outer loop
      vertex -3.48083 -0.365849 0
      vertex -1.74041 -0.182924 0
      vertex -3.42352 -0.727691 0
    endloop
  endfacet
  facet normal 0 0 -1
    outer loop
      vertex -1.66435 0.540779 0
      vertex -3.3287 1.08156 0
      vertex -3.19741 1.42358 0
    endloop
  endfacet
  facet normal -0 0 -1
    outer loop
      vertex -1.74041 -0.182924 0
      vertex -3.48083 -0.365849 0
      vertex -1.75 0 0
    endloop
  endfacet
  facet normal 0 0 -1
    outer loop
      vertex -1.71176 0.363845 0
      vertex -3.42352 0.727691 0
      vertex -3.3287 1.08156 0
    endloop
  endfacet
  facet normal 0 0 -1
    outer loop
      vertex -3.5 0 0
      vertex -1.75 0 0
      vertex -3.48083 -0.365849 0
    endloop
  endfacet
  facet normal 0 0 -1
    outer loop
      vertex -1.74041 0.182924 0
      vertex -3.48083 0.365849 0
      vertex -3.42352 0.727691 0
    endloop
  endfacet
  facet normal 0 0 -1
    outer loop
      vertex -1.75 0 0
      vertex -3.5 0 0
      vertex -3.48083 0.365849 0
    endloop
  endfacet
  facet normal 0.965926 0.25882 0
    outer loop
      vertex 3.42352 0.727691 4
      vertex 3.3287 1.08156 0
      vertex 3.3287 1.08156 4
    endloop
  endfacet
  facet normal 0.965926 0.25882 0
    outer loop
      vertex 3.3287 1.08156 0
      vertex 3.42352 0.727691 4
      vertex 3.42352 0.727691 0
    endloop
  endfacet
  facet normal 0.987688 0.156435 0
    outer loop
      vertex 3.48083 0.365849 4
      vertex 3.42352 0.727691 0
      vertex 3.42352 0.727691 4
    endloop
  endfacet
  facet normal 0.987688 0.156435 0
    outer loop
      vertex 3.42352 0.727691 0
      vertex 3.48083 0.365849 4
      vertex 3.48083 0.365849 0
    endloop
  endfacet
  facet normal 0.93358 0.358368 0
    outer loop
      vertex 3.3287 1.08156 4
      vertex 3.19741 1.42358 0
      vertex 3.19741 1.42358 4
    endloop
  endfacet
  facet normal 0.93358 0.358368 0
    outer loop
      vertex 3.19741 1.42358 0
      vertex 3.3287 1.08156 4
      vertex 3.3287 1.08156 0
    endloop
  endfacet
  facet normal 0.777146 0.62932 0
    outer loop
      vertex 2.83156 2.05725 4
      vertex 2.60101 2.34196 0
      vertex 2.60101 2.34196 4
    endloop
  endfacet
  facet normal 0.777146 0.62932 0
    outer loop
      vertex 2.60101 2.34196 0
      vertex 2.83156 2.05725 4
      vertex 2.83156 2.05725 0
    endloop
  endfacet
  facet normal 0.156435 0.987688 -0
    outer loop
      vertex 0.727691 3.42352 0
      vertex 0.365849 3.48083 4
      vertex 0.727691 3.42352 4
    endloop
  endfacet
  facet normal 0.156435 0.987688 0
    outer loop
      vertex 0.365849 3.48083 4
      vertex 0.727691 3.42352 0
      vertex 0.365849 3.48083 0
    endloop
  endfacet
  facet normal 0.453989 0.891007 -0
    outer loop
      vertex 1.75 3.03109 0
      vertex 1.42358 3.19741 4
      vertex 1.75 3.03109 4
    endloop
  endfacet
  facet normal 0.453989 0.891007 0
    outer loop
      vertex 1.42358 3.19741 4
      vertex 1.75 3.03109 0
      vertex 1.42358 3.19741 0
    endloop
  endfacet
  facet normal 0.62932 0.777146 -0
    outer loop
      vertex 2.34196 2.60101 0
      vertex 2.05725 2.83156 4
      vertex 2.34196 2.60101 4
    endloop
  endfacet
  facet normal 0.62932 0.777146 0
    outer loop
      vertex 2.05725 2.83156 4
      vertex 2.34196 2.60101 0
      vertex 2.05725 2.83156 0
    endloop
  endfacet
  facet normal -0.965926 0.25882 0
    outer loop
      vertex -3.42352 0.727691 0
      vertex -3.3287 1.08156 4
      vertex -3.3287 1.08156 0
    endloop
  endfacet
  facet normal -0.965926 0.25882 0
    outer loop
      vertex -3.3287 1.08156 4
      vertex -3.42352 0.727691 0
      vertex -3.42352 0.727691 4
    endloop
  endfacet
  facet normal -0.777146 0.62932 0
    outer loop
      vertex -2.83156 2.05725 0
      vertex -2.60101 2.34196 4
      vertex -2.60101 2.34196 0
    endloop
  endfacet
  facet normal -0.777146 0.62932 0
    outer loop
      vertex -2.60101 2.34196 4
      vertex -2.83156 2.05725 0
      vertex -2.83156 2.05725 4
    endloop
  endfacet
  facet normal -0.707107 0.707107 0
    outer loop
      vertex -2.60101 2.34196 0
      vertex -2.34196 2.60101 4
      vertex -2.34196 2.60101 0
    endloop
  endfacet
  facet normal -0.707107 0.707107 0
    outer loop
      vertex -2.34196 2.60101 4
      vertex -2.60101 2.34196 0
      vertex -2.60101 2.34196 4
    endloop
  endfacet
  facet normal -0.838671 0.544639 0
    outer loop
      vertex -3.03109 1.75 0
      vertex -2.83156 2.05725 4
      vertex -2.83156 2.05725 0
    endloop
  endfacet
  facet normal -0.838671 0.544639 0
    outer loop
      vertex -2.83156 2.05725 4
      vertex -3.03109 1.75 0
      vertex -3.03109 1.75 4
    endloop
  endfacet
  facet normal -0.93358 0.358368 0
    outer loop
      vertex -3.3287 1.08156 0
      vertex -3.19741 1.42358 4
      vertex -3.19741 1.42358 0
    endloop
  endfacet
  facet normal -0.93358 0.358368 0
    outer loop
      vertex -3.19741 1.42358 4
      vertex -3.3287 1.08156 0
      vertex -3.3287 1.08156 4
    endloop
  endfacet
  facet normal -0.987688 0.156435 0
    outer loop
      vertex -3.48083 0.365849 0
      vertex -3.42352 0.727691 4
      vertex -3.42352 0.727691 0
    endloop
  endfacet
  facet normal -0.987688 0.156435 0
    outer loop
      vertex -3.42352 0.727691 4
      vertex -3.48083 0.365849 0
      vertex -3.48083 0.365849 4
    endloop
  endfacet
  facet normal 0 0 1
    outer loop
      vertex 3.48083 0.365849 4
      vertex 1.74041 0.182924 4
      vertex 1.75 0 4
    endloop
  endfacet
  facet normal 0 0 1
    outer loop
      vertex 2.05725 2.83156 4
      vertex 1.71176 0.363845 4
      vertex 1.74041 0.182924 4
    endloop
  endfacet
  facet normal 0 0 1
    outer loop
      vertex 2.05725 2.83156 4
      vertex 1.66435 0.540779 4
      vertex 1.71176 0.363845 4
    endloop
  endfacet
  facet normal 0 0 1
    outer loop
      vertex 2.05725 2.83156 4
      vertex 1.5987 0.711788 4
      vertex 1.66435 0.540779 4
    endloop
  endfacet
  facet normal 0 0 1
    outer loop
      vertex 2.05725 2.83156 4
      vertex 1.51554 0.874999 4
      vertex 1.5987 0.711788 4
    endloop
  endfacet
  facet normal 0 0 1
    outer loop
      vertex 0.875 1.51554 4
      vertex 1.75 3.03109 4
      vertex 1.42358 3.19741 4
    endloop
  endfacet
  facet normal 0 0 1
    outer loop
      vertex 2.05725 2.83156 4
      vertex 1.41578 1.02862 4
      vertex 1.51554 0.874999 4
    endloop
  endfacet
  facet normal 0 0 1
    outer loop
      vertex 2.05725 2.83156 4
      vertex 1.3005 1.17098 4
      vertex 1.41578 1.02862 4
    endloop
  endfacet
  facet normal 0 0 1
    outer loop
      vertex 2.05725 2.83156 4
      vertex 1.17098 1.3005 4
      vertex 1.3005 1.17098 4
    endloop
  endfacet
  facet normal 0 0 1
    outer loop
      vertex 0.711788 1.5987 4
      vertex 1.42358 3.19741 4
      vertex 1.08156 3.3287 4
    endloop
  endfacet
  facet normal 0 0 1
    outer loop
      vertex 2.05725 2.83156 4
      vertex 1.02862 1.41578 4
      vertex 1.17098 1.3005 4
    endloop
  endfacet
  facet normal 0 0 1
    outer loop
      vertex 1.75 3.03109 4
      vertex 0.875 1.51554 4
      vertex 1.02862 1.41578 4
    endloop
  endfacet
  facet normal 0 0 1
    outer loop
      vertex 0.540779 1.66435 4
      vertex 1.08156 3.3287 4
      vertex 0.727691 3.42352 4
    endloop
  endfacet
  facet normal 0 0 1
    outer loop
      vertex 1.42358 3.19741 4
      vertex 0.711788 1.5987 4
      vertex 0.875 1.51554 4
    endloop
  endfacet
  facet normal 0 0 1
    outer loop
      vertex 1.08156 3.3287 4
      vertex 0.540779 1.66435 4
      vertex 0.711788 1.5987 4
    endloop
  endfacet
  facet normal 0 0 1
    outer loop
      vertex 0.363845 1.71176 4
      vertex 0.727691 3.42352 4
      vertex 0.365849 3.48083 4
    endloop
  endfacet
  facet normal 0 0 1
    outer loop
      vertex 0.727691 3.42352 4
      vertex 0.363845 1.71176 4
      vertex 0.540779 1.66435 4
    endloop
  endfacet
  facet normal 0 0 1
    outer loop
      vertex 0.365849 3.48083 4
      vertex 0.182924 1.74041 4
      vertex 0.363845 1.71176 4
    endloop
  endfacet
  facet normal 0 0 1
    outer loop
      vertex 0 3.5 4
      vertex 0.182924 1.74041 4
      vertex 0.365849 3.48083 4
    endloop
  endfacet
  facet normal 0 0 1
    outer loop
      vertex 0 3.5 4
      vertex 0 1.75 4
      vertex 0.182924 1.74041 4
    endloop
  endfacet
  facet normal 0 0 1
    outer loop
      vertex 0 3.5 4
      vertex -0.182924 1.74041 4
      vertex 0 1.75 4
    endloop
  endfacet
  facet normal -0 0 1
    outer loop
      vertex -0.365849 3.48083 4
      vertex -0.182924 1.74041 4
      vertex 0 3.5 4
    endloop
  endfacet
  facet normal 0 0 1
    outer loop
      vertex -0.182924 1.74041 4
      vertex -0.365849 3.48083 4
      vertex -0.363845 1.71176 4
    endloop
  endfacet
  facet normal -0 0 1
    outer loop
      vertex -0.727691 3.42352 4
      vertex -0.363845 1.71176 4
      vertex -0.365849 3.48083 4
    endloop
  endfacet
  facet normal 0 0 1
    outer loop
      vertex -0.363845 1.71176 4
      vertex -0.727691 3.42352 4
      vertex -0.540779 1.66435 4
    endloop
  endfacet
  facet normal -0 0 1
    outer loop
      vertex -1.08156 3.3287 4
      vertex -0.540779 1.66435 4
      vertex -0.727691 3.42352 4
    endloop
  endfacet
  facet normal 0 0 1
    outer loop
      vertex -0.540779 1.66435 4
      vertex -1.08156 3.3287 4
      vertex -0.711788 1.5987 4
    endloop
  endfacet
  facet normal -0 0 1
    outer loop
      vertex -1.42358 3.19741 4
      vertex -0.711788 1.5987 4
      vertex -1.08156 3.3287 4
    endloop
  endfacet
  facet normal 0 0 1
    outer loop
      vertex -0.711788 1.5987 4
      vertex -1.42358 3.19741 4
      vertex -0.874999 1.51554 4
    endloop
  endfacet
  facet normal -0 0 1
    outer loop
      vertex -1.75 3.03109 4
      vertex -0.874999 1.51554 4
      vertex -1.42358 3.19741 4
    endloop
  endfacet
  facet normal 0 0 1
    outer loop
      vertex -0.874999 1.51554 4
      vertex -1.75 3.03109 4
      vertex -1.02862 1.41578 4
    endloop
  endfacet
  facet normal -0 0 1
    outer loop
      vertex -2.05725 2.83156 4
      vertex -1.02862 1.41578 4
      vertex -1.75 3.03109 4
    endloop
  endfacet
  facet normal 0 0 1
    outer loop
      vertex -1.02862 1.41578 4
      vertex -2.05725 2.83156 4
      vertex -1.17098 1.3005 4
    endloop
  endfacet
  facet normal -0 0 1
    outer loop
      vertex -2.34196 2.60101 4
      vertex -1.17098 1.3005 4
      vertex -2.05725 2.83156 4
    endloop
  endfacet
  facet normal 0 0 1
    outer loop
      vertex -1.17098 1.3005 4
      vertex -2.34196 2.60101 4
      vertex -1.3005 1.17098 4
    endloop
  endfacet
  facet normal -0 0 1
    outer loop
      vertex -2.60101 2.34196 4
      vertex -1.3005 1.17098 4
      vertex -2.34196 2.60101 4
    endloop
  endfacet
  facet normal 0 0 1
    outer loop
      vertex -1.3005 1.17098 4
      vertex -2.60101 2.34196 4
      vertex -1.41578 1.02862 4
    endloop
  endfacet
  facet normal -0 0 1
    outer loop
      vertex -2.83156 2.05725 4
      vertex -1.41578 1.02862 4
      vertex -2.60101 2.34196 4
    endloop
  endfacet
  facet normal 0 0 1
    outer loop
      vertex -1.41578 1.02862 4
      vertex -2.83156 2.05725 4
      vertex -1.51554 0.874999 4
    endloop
  endfacet
  facet normal -0 0 1
    outer loop
      vertex -3.03109 1.75 4
      vertex -1.51554 0.874999 4
      vertex -2.83156 2.05725 4
    endloop
  endfacet
  facet normal 0 0 1
    outer loop
      vertex -1.51554 0.874999 4
      vertex -3.03109 1.75 4
      vertex -1.5987 0.711788 4
    endloop
  endfacet
  facet normal -0 0 1
    outer loop
      vertex -3.19741 1.42358 4
      vertex -1.5987 0.711788 4
      vertex -3.03109 1.75 4
    endloop
  endfacet
  facet normal 0 0 1
    outer loop
      vertex -1.75 0 4
      vertex -2.05725 -2.83156 4
      vertex -1.75 -3.03109 4
    endloop
  endfacet
  facet normal 0 0 1
    outer loop
      vertex -1.5987 0.711788 4
      vertex -3.19741 1.42358 4
      vertex -1.66435 0.540779 4
    endloop
  endfacet
  facet normal 0 0 1
    outer loop
      vertex -1.75 0 4
      vertex -2.34196 -2.60101 4
      vertex -2.05725 -2.83156 4
    endloop
  endfacet
  facet normal -0 0 1
    outer loop
      vertex -3.3287 1.08156 4
      vertex -1.66435 0.540779 4
      vertex -3.19741 1.42358 4
    endloop
  endfacet
  facet normal 0 0 1
    outer loop
      vertex -1.75 0 4
      vertex -2.60101 -2.34196 4
      vertex -2.34196 -2.60101 4
    endloop
  endfacet
  facet normal 0 0 1
    outer loop
      vertex -1.66435 0.540779 4
      vertex -3.3287 1.08156 4
      vertex -1.71176 0.363845 4
    endloop
  endfacet
  facet normal 0 0 1
    outer loop
      vertex -1.75 0 4
      vertex -2.83156 -2.05725 4
      vertex -2.60101 -2.34196 4
    endloop
  endfacet
  facet normal -0 0 1
    outer loop
      vertex -3.42352 0.727691 4
      vertex -1.71176 0.363845 4
      vertex -3.3287 1.08156 4
    endloop
  endfacet
  facet normal 0 0 1
    outer loop
      vertex -1.75 0 4
      vertex -3.03109 -1.75 4
      vertex -2.83156 -2.05725 4
    endloop
  endfacet
  facet normal 0 0 1
    outer loop
      vertex -1.71176 0.363845 4
      vertex -3.42352 0.727691 4
      vertex -1.74041 0.182924 4
    endloop
  endfacet
  facet normal 0 0 1
    outer loop
      vertex -1.75 0 4
      vertex -3.19741 -1.42358 4
      vertex -3.03109 -1.75 4
    endloop
  endfacet
  facet normal -0 0 1
    outer loop
      vertex -3.48083 0.365849 4
      vertex -1.74041 0.182924 4
      vertex -3.42352 0.727691 4
    endloop
  endfacet
  facet normal 0 0 1
    outer loop
      vertex -1.75 0 4
      vertex -3.3287 -1.08156 4
      vertex -3.19741 -1.42358 4
    endloop
  endfacet
  facet normal 0 0 1
    outer loop
      vertex -1.74041 0.182924 4
      vertex -3.48083 0.365849 4
      vertex -1.75 0 4
    endloop
  endfacet
  facet normal 0 0 1
    outer loop
      vertex -1.75 0 4
      vertex -3.42352 -0.727691 4
      vertex -3.3287 -1.08156 4
    endloop
  endfacet
  facet normal 0 0 1
    outer loop
      vertex -3.5 0 4
      vertex -1.75 0 4
      vertex -3.48083 0.365849 4
    endloop
  endfacet
  facet normal 0 0 1
    outer loop
      vertex -1.75 0 4
      vertex -3.48083 -0.365849 4
      vertex -3.42352 -0.727691 4
    endloop
  endfacet
  facet normal 0 0 1
    outer loop
      vertex -1.75 0 4
      vertex -3.5 0 4
      vertex -3.48083 -0.365849 4
    endloop
  endfacet
  facet normal 0 0 1
    outer loop
      vertex 1.75 0 4
      vertex 3.5 0 4
      vertex 3.48083 0.365849 4
    endloop
  endfacet
  facet normal 0 0 1
    outer loop
      vertex 1.74041 0.182924 4
      vertex 3.48083 0.365849 4
      vertex 3.42352 0.727691 4
    endloop
  endfacet
  facet normal 0 0 1
    outer loop
      vertex 3.5 0 4
      vertex 1.75 0 4
      vertex 3.48083 -0.365849 4
    endloop
  endfacet
  facet normal 0 0 1
    outer loop
      vertex 1.74041 0.182924 4
      vertex 3.42352 0.727691 4
      vertex 3.3287 1.08156 4
    endloop
  endfacet
  facet normal -0 0 1
    outer loop
      vertex 1.74041 -0.182924 4
      vertex 3.48083 -0.365849 4
      vertex 1.75 0 4
    endloop
  endfacet
  facet normal 0 0 1
    outer loop
      vertex 1.74041 0.182924 4
      vertex 3.3287 1.08156 4
      vertex 3.19741 1.42358 4
    endloop
  endfacet
  facet normal 0 0 1
    outer loop
      vertex 3.48083 -0.365849 4
      vertex 1.74041 -0.182924 4
      vertex 3.42352 -0.727691 4
    endloop
  endfacet
  facet normal 0 0 1
    outer loop
      vertex 1.74041 0.182924 4
      vertex 3.19741 1.42358 4
      vertex 3.03109 1.75 4
    endloop
  endfacet
  facet normal -0 0 1
    outer loop
      vertex 1.71176 -0.363845 4
      vertex 3.42352 -0.727691 4
      vertex 1.74041 -0.182924 4
    endloop
  endfacet
  facet normal 0 0 1
    outer loop
      vertex 1.74041 0.182924 4
      vertex 3.03109 1.75 4
      vertex 2.83156 2.05725 4
    endloop
  endfacet
  facet normal 0 0 1
    outer loop
      vertex 3.42352 -0.727691 4
      vertex 1.71176 -0.363845 4
      vertex 3.3287 -1.08156 4
    endloop
  endfacet
  facet normal 0 0 1
    outer loop
      vertex 1.74041 0.182924 4
      vertex 2.83156 2.05725 4
      vertex 2.60101 2.34196 4
    endloop
  endfacet
  facet normal -0 0 1
    outer loop
      vertex 1.66435 -0.540779 4
      vertex 3.3287 -1.08156 4
      vertex 1.71176 -0.363845 4
    endloop
  endfacet
  facet normal 0 0 1
    outer loop
      vertex 1.74041 0.182924 4
      vertex 2.60101 2.34196 4
      vertex 2.34196 2.60101 4
    endloop
  endfacet
  facet normal 0 0 1
    outer loop
      vertex 3.3287 -1.08156 4
      vertex 1.66435 -0.540779 4
      vertex 3.19741 -1.42358 4
    endloop
  endfacet
  facet normal 0 0 1
    outer loop
      vertex 1.74041 0.182924 4
      vertex 2.34196 2.60101 4
      vertex 2.05725 2.83156 4
    endloop
  endfacet
  facet normal -0 0 1
    outer loop
      vertex 1.5987 -0.711788 4
      vertex 3.19741 -1.42358 4
      vertex 1.66435 -0.540779 4
    endloop
  endfacet
  facet normal 0 0 1
    outer loop
      vertex 1.02862 1.41578 4
      vertex 2.05725 2.83156 4
      vertex 1.75 3.03109 4
    endloop
  endfacet
  facet normal 0 0 1
    outer loop
      vertex 3.19741 -1.42358 4
      vertex 1.5987 -0.711788 4
      vertex 3.03109 -1.75 4
    endloop
  endfacet
  facet normal -0 0 1
    outer loop
      vertex 1.51554 -0.874999 4
      vertex 3.03109 -1.75 4
      vertex 1.5987 -0.711788 4
    endloop
  endfacet
  facet normal 0 0 1
    outer loop
      vertex 3.03109 -1.75 4
      vertex 1.51554 -0.874999 4
      vertex 2.83156 -2.05725 4
    endloop
  endfacet
  facet normal -0 0 1
    outer loop
      vertex 1.41578 -1.02862 4
      vertex 2.83156 -2.05725 4
      vertex 1.51554 -0.874999 4
    endloop
  endfacet
  facet normal 0 0 1
    outer loop
      vertex 2.83156 -2.05725 4
      vertex 1.41578 -1.02862 4
      vertex 2.60101 -2.34196 4
    endloop
  endfacet
  facet normal -0 0 1
    outer loop
      vertex 1.3005 -1.17098 4
      vertex 2.60101 -2.34196 4
      vertex 1.41578 -1.02862 4
    endloop
  endfacet
  facet normal 0 0 1
    outer loop
      vertex 2.60101 -2.34196 4
      vertex 1.3005 -1.17098 4
      vertex 2.34196 -2.60101 4
    endloop
  endfacet
  facet normal -0 0 1
    outer loop
      vertex 1.17098 -1.3005 4
      vertex 2.34196 -2.60101 4
      vertex 1.3005 -1.17098 4
    endloop
  endfacet
  facet normal 0 0 1
    outer loop
      vertex 2.34196 -2.60101 4
      vertex 1.17098 -1.3005 4
      vertex 2.05725 -2.83156 4
    endloop
  endfacet
  facet normal -0 0 1
    outer loop
      vertex 1.02862 -1.41578 4
      vertex 2.05725 -2.83156 4
      vertex 1.17098 -1.3005 4
    endloop
  endfacet
  facet normal 0 0 1
    outer loop
      vertex 2.05725 -2.83156 4
      vertex 1.02862 -1.41578 4
      vertex 1.75 -3.03109 4
    endloop
  endfacet
  facet normal -0 0 1
    outer loop
      vertex 0.875 -1.51554 4
      vertex 1.75 -3.03109 4
      vertex 1.02862 -1.41578 4
    endloop
  endfacet
  facet normal 0 0 1
    outer loop
      vertex 1.75 -3.03109 4
      vertex 0.875 -1.51554 4
      vertex 1.42358 -3.19741 4
    endloop
  endfacet
  facet normal -0 0 1
    outer loop
      vertex 0.711788 -1.5987 4
      vertex 1.42358 -3.19741 4
      vertex 0.875 -1.51554 4
    endloop
  endfacet
  facet normal 0 0 1
    outer loop
      vertex 1.42358 -3.19741 4
      vertex 0.711788 -1.5987 4
      vertex 1.08156 -3.3287 4
    endloop
  endfacet
  facet normal -0 0 1
    outer loop
      vertex 0.540779 -1.66435 4
      vertex 1.08156 -3.3287 4
      vertex 0.711788 -1.5987 4
    endloop
  endfacet
  facet normal 0 0 1
    outer loop
      vertex 1.08156 -3.3287 4
      vertex 0.540779 -1.66435 4
      vertex 0.727691 -3.42352 4
    endloop
  endfacet
  facet normal -0 0 1
    outer loop
      vertex 0.363845 -1.71176 4
      vertex 0.727691 -3.42352 4
      vertex 0.540779 -1.66435 4
    endloop
  endfacet
  facet normal 0 0 1
    outer loop
      vertex 0.727691 -3.42352 4
      vertex 0.363845 -1.71176 4
      vertex 0.365849 -3.48083 4
    endloop
  endfacet
  facet normal -0 0 1
    outer loop
      vertex 0.182924 -1.74041 4
      vertex 0.365849 -3.48083 4
      vertex 0.363845 -1.71176 4
    endloop
  endfacet
  facet normal -0 0 1
    outer loop
      vertex 0 -1.75 4
      vertex 0.365849 -3.48083 4
      vertex 0.182924 -1.74041 4
    endloop
  endfacet
  facet normal 0 0 1
    outer loop
      vertex 0 -1.75 4
      vertex 0 -3.5 4
      vertex 0.365849 -3.48083 4
    endloop
  endfacet
  facet normal 0 0 1
    outer loop
      vertex -0.182924 -1.74041 4
      vertex 0 -3.5 4
      vertex 0 -1.75 4
    endloop
  endfacet
  facet normal 0 0 1
    outer loop
      vertex -0.365849 -3.48083 4
      vertex -0.182924 -1.74041 4
      vertex -0.363845 -1.71176 4
    endloop
  endfacet
  facet normal 0 0 1
    outer loop
      vertex -0.182924 -1.74041 4
      vertex -0.365849 -3.48083 4
      vertex 0 -3.5 4
    endloop
  endfacet
  facet normal 0 0 1
    outer loop
      vertex -0.727691 -3.42352 4
      vertex -0.363845 -1.71176 4
      vertex -0.540779 -1.66435 4
    endloop
  endfacet
  facet normal 0 0 1
    outer loop
      vertex -1.08156 -3.3287 4
      vertex -0.540779 -1.66435 4
      vertex -0.711788 -1.5987 4
    endloop
  endfacet
  facet normal 0 0 1
    outer loop
      vertex -0.363845 -1.71176 4
      vertex -0.727691 -3.42352 4
      vertex -0.365849 -3.48083 4
    endloop
  endfacet
  facet normal 0 0 1
    outer loop
      vertex -1.42358 -3.19741 4
      vertex -0.711788 -1.5987 4
      vertex -0.875 -1.51554 4
    endloop
  endfacet
  facet normal 0 0 1
    outer loop
      vertex -1.75 -3.03109 4
      vertex -0.875 -1.51554 4
      vertex -1.02862 -1.41578 4
    endloop
  endfacet
  facet normal 0 0 1
    outer loop
      vertex -0.540779 -1.66435 4
      vertex -1.08156 -3.3287 4
      vertex -0.727691 -3.42352 4
    endloop
  endfacet
  facet normal 0 0 1
    outer loop
      vertex -1.75 -3.03109 4
      vertex -1.02862 -1.41578 4
      vertex -1.17098 -1.3005 4
    endloop
  endfacet
  facet normal 0 0 1
    outer loop
      vertex -1.75 -3.03109 4
      vertex -1.17098 -1.3005 4
      vertex -1.3005 -1.17098 4
    endloop
  endfacet
  facet normal 0 0 1
    outer loop
      vertex -1.75 -3.03109 4
      vertex -1.3005 -1.17098 4
      vertex -1.41578 -1.02862 4
    endloop
  endfacet
  facet normal 0 0 1
    outer loop
      vertex -0.711788 -1.5987 4
      vertex -1.42358 -3.19741 4
      vertex -1.08156 -3.3287 4
    endloop
  endfacet
  facet normal 0 0 1
    outer loop
      vertex -1.75 -3.03109 4
      vertex -1.41578 -1.02862 4
      vertex -1.51554 -0.874999 4
    endloop
  endfacet
  facet normal 0 0 1
    outer loop
      vertex -1.75 -3.03109 4
      vertex -1.51554 -0.874999 4
      vertex -1.5987 -0.711788 4
    endloop
  endfacet
  facet normal 0 0 1
    outer loop
      vertex -1.75 -3.03109 4
      vertex -1.5987 -0.711788 4
      vertex -1.66435 -0.540779 4
    endloop
  endfacet
  facet normal 0 0 1
    outer loop
      vertex -1.75 -3.03109 4
      vertex -1.66435 -0.540779 4
      vertex -1.71176 -0.363845 4
    endloop
  endfacet
  facet normal 0 0 1
    outer loop
      vertex -1.75 -3.03109 4
      vertex -1.71176 -0.363845 4
      vertex -1.74041 -0.182924 4
    endloop
  endfacet
  facet normal 0 0 1
    outer loop
      vertex -0.875 -1.51554 4
      vertex -1.75 -3.03109 4
      vertex -1.42358 -3.19741 4
    endloop
  endfacet
  facet normal 0 0 1
    outer loop
      vertex -1.75 -3.03109 4
      vertex -1.74041 -0.182924 4
      vertex -1.75 0 4
    endloop
  endfacet
  facet normal -0.45399 0.891007 0
    outer loop
      vertex -1.42358 3.19741 0
      vertex -1.75 3.03109 4
      vertex -1.42358 3.19741 4
    endloop
  endfacet
  facet normal -0.45399 0.891007 0
    outer loop
      vertex -1.75 3.03109 4
      vertex -1.42358 3.19741 0
      vertex -1.75 3.03109 0
    endloop
  endfacet
  facet normal -0.358368 0.93358 0
    outer loop
      vertex -1.08156 3.3287 0
      vertex -1.42358 3.19741 4
      vertex -1.08156 3.3287 4
    endloop
  endfacet
  facet normal -0.358368 0.93358 0
    outer loop
      vertex -1.42358 3.19741 4
      vertex -1.08156 3.3287 0
      vertex -1.42358 3.19741 0
    endloop
  endfacet
  facet normal -0.544639 0.838671 0
    outer loop
      vertex -1.75 3.03109 0
      vertex -2.05725 2.83156 4
      vertex -1.75 3.03109 4
    endloop
  endfacet
  facet normal -0.544639 0.838671 0
    outer loop
      vertex -2.05725 2.83156 4
      vertex -1.75 3.03109 0
      vertex -2.05725 2.83156 0
    endloop
  endfacet
  facet normal -0.0523367 0.998629 0
    outer loop
      vertex 0 3.5 0
      vertex -0.365849 3.48083 4
      vertex 0 3.5 4
    endloop
  endfacet
  facet normal -0.0523367 0.998629 0
    outer loop
      vertex -0.365849 3.48083 4
      vertex 0 3.5 0
      vertex -0.365849 3.48083 0
    endloop
  endfacet
  facet normal 0.0523367 -0.998629 0
    outer loop
      vertex 0 -3.5 0
      vertex 0.365849 -3.48083 4
      vertex 0 -3.5 4
    endloop
  endfacet
  facet normal 0.0523367 -0.998629 0
    outer loop
      vertex 0.365849 -3.48083 4
      vertex 0 -3.5 0
      vertex 0.365849 -3.48083 0
    endloop
  endfacet
  facet normal 0.25882 -0.965926 0
    outer loop
      vertex 0.727691 -3.42352 0
      vertex 1.08156 -3.3287 4
      vertex 0.727691 -3.42352 4
    endloop
  endfacet
  facet normal 0.25882 -0.965926 0
    outer loop
      vertex 1.08156 -3.3287 4
      vertex 0.727691 -3.42352 0
      vertex 1.08156 -3.3287 0
    endloop
  endfacet
  facet normal 0.62932 -0.777146 0
    outer loop
      vertex 2.05725 -2.83156 0
      vertex 2.34196 -2.60101 4
      vertex 2.05725 -2.83156 4
    endloop
  endfacet
  facet normal 0.62932 -0.777146 0
    outer loop
      vertex 2.34196 -2.60101 4
      vertex 2.05725 -2.83156 0
      vertex 2.34196 -2.60101 0
    endloop
  endfacet
  facet normal 0.453989 -0.891007 0
    outer loop
      vertex 1.42358 -3.19741 0
      vertex 1.75 -3.03109 4
      vertex 1.42358 -3.19741 4
    endloop
  endfacet
  facet normal 0.453989 -0.891007 0
    outer loop
      vertex 1.75 -3.03109 4
      vertex 1.42358 -3.19741 0
      vertex 1.75 -3.03109 0
    endloop
  endfacet
  facet normal 0.777146 -0.62932 0
    outer loop
      vertex 2.60101 -2.34196 4
      vertex 2.83156 -2.05725 0
      vertex 2.83156 -2.05725 4
    endloop
  endfacet
  facet normal 0.777146 -0.62932 0
    outer loop
      vertex 2.83156 -2.05725 0
      vertex 2.60101 -2.34196 4
      vertex 2.60101 -2.34196 0
    endloop
  endfacet
  facet normal 0.891007 -0.45399 0
    outer loop
      vertex 3.03109 -1.75 4
      vertex 3.19741 -1.42358 0
      vertex 3.19741 -1.42358 4
    endloop
  endfacet
  facet normal 0.891007 -0.45399 0
    outer loop
      vertex 3.19741 -1.42358 0
      vertex 3.03109 -1.75 4
      vertex 3.03109 -1.75 0
    endloop
  endfacet
  facet normal -0.707107 -0.707107 0
    outer loop
      vertex -2.34196 -2.60101 0
      vertex -2.60101 -2.34196 4
      vertex -2.60101 -2.34196 0
    endloop
  endfacet
  facet normal -0.707107 -0.707107 0
    outer loop
      vertex -2.60101 -2.34196 4
      vertex -2.34196 -2.60101 0
      vertex -2.34196 -2.60101 4
    endloop
  endfacet
  facet normal -0.54464 -0.83867 0
    outer loop
      vertex -2.05725 -2.83156 0
      vertex -1.75 -3.03109 4
      vertex -2.05725 -2.83156 4
    endloop
  endfacet
  facet normal -0.54464 -0.83867 -0
    outer loop
      vertex -1.75 -3.03109 4
      vertex -2.05725 -2.83156 0
      vertex -1.75 -3.03109 0
    endloop
  endfacet
  facet normal -0.358368 -0.93358 0
    outer loop
      vertex -1.42358 -3.19741 0
      vertex -1.08156 -3.3287 4
      vertex -1.42358 -3.19741 4
    endloop
  endfacet
  facet normal -0.358368 -0.93358 -0
    outer loop
      vertex -1.08156 -3.3287 4
      vertex -1.42358 -3.19741 0
      vertex -1.08156 -3.3287 0
    endloop
  endfacet
  facet normal -0.156435 -0.987688 0
    outer loop
      vertex -0.727691 -3.42352 0
      vertex -0.365849 -3.48083 4
      vertex -0.727691 -3.42352 4
    endloop
  endfacet
  facet normal -0.156435 -0.987688 -0
    outer loop
      vertex -0.365849 -3.48083 4
      vertex -0.727691 -3.42352 0
      vertex -0.365849 -3.48083 0
    endloop
  endfacet
  facet normal -0.93358 -0.358368 0
    outer loop
      vertex -3.19741 -1.42358 0
      vertex -3.3287 -1.08156 4
      vertex -3.3287 -1.08156 0
    endloop
  endfacet
  facet normal -0.93358 -0.358368 0
    outer loop
      vertex -3.3287 -1.08156 4
      vertex -3.19741 -1.42358 0
      vertex -3.19741 -1.42358 4
    endloop
  endfacet
  facet normal -0.838671 -0.544639 0
    outer loop
      vertex -2.83156 -2.05725 0
      vertex -3.03109 -1.75 4
      vertex -3.03109 -1.75 0
    endloop
  endfacet
  facet normal -0.838671 -0.544639 0
    outer loop
      vertex -3.03109 -1.75 4
      vertex -2.83156 -2.05725 0
      vertex -2.83156 -2.05725 4
    endloop
  endfacet
  facet normal -0.965926 -0.25882 0
    outer loop
      vertex -3.3287 -1.08156 0
      vertex -3.42352 -0.727691 4
      vertex -3.42352 -0.727691 0
    endloop
  endfacet
  facet normal -0.965926 -0.25882 0
    outer loop
      vertex -3.42352 -0.727691 4
      vertex -3.3287 -1.08156 0
      vertex -3.3287 -1.08156 4
    endloop
  endfacet
  facet normal -0.998629 -0.0523367 0
    outer loop
      vertex -3.48083 -0.365849 0
      vertex -3.5 0 4
      vertex -3.5 0 0
    endloop
  endfacet
  facet normal -0.998629 -0.0523367 0
    outer loop
      vertex -3.5 0 4
      vertex -3.48083 -0.365849 0
      vertex -3.48083 -0.365849 4
    endloop
  endfacet
  facet normal 0.156435 -0.987688 0
    outer loop
      vertex 0.365849 -3.48083 0
      vertex 0.727691 -3.42352 4
      vertex 0.365849 -3.48083 4
    endloop
  endfacet
  facet normal 0.156435 -0.987688 0
    outer loop
      vertex 0.727691 -3.42352 4
      vertex 0.365849 -3.48083 0
      vertex 0.727691 -3.42352 0
    endloop
  endfacet
  facet normal 0.358368 -0.93358 0
    outer loop
      vertex 1.08156 -3.3287 0
      vertex 1.42358 -3.19741 4
      vertex 1.08156 -3.3287 4
    endloop
  endfacet
  facet normal 0.358368 -0.93358 0
    outer loop
      vertex 1.42358 -3.19741 4
      vertex 1.08156 -3.3287 0
      vertex 1.42358 -3.19741 0
    endloop
  endfacet
  facet normal 0.707107 -0.707107 0
    outer loop
      vertex 2.34196 -2.60101 4
      vertex 2.60101 -2.34196 0
      vertex 2.60101 -2.34196 4
    endloop
  endfacet
  facet normal 0.707107 -0.707107 0
    outer loop
      vertex 2.60101 -2.34196 0
      vertex 2.34196 -2.60101 4
      vertex 2.34196 -2.60101 0
    endloop
  endfacet
  facet normal 0.54464 -0.83867 0
    outer loop
      vertex 1.75 -3.03109 0
      vertex 2.05725 -2.83156 4
      vertex 1.75 -3.03109 4
    endloop
  endfacet
  facet normal 0.54464 -0.83867 0
    outer loop
      vertex 2.05725 -2.83156 4
      vertex 1.75 -3.03109 0
      vertex 2.05725 -2.83156 0
    endloop
  endfacet
  facet normal 0.838671 -0.544639 0
    outer loop
      vertex 2.83156 -2.05725 4
      vertex 3.03109 -1.75 0
      vertex 3.03109 -1.75 4
    endloop
  endfacet
  facet normal 0.838671 -0.544639 0
    outer loop
      vertex 3.03109 -1.75 0
      vertex 2.83156 -2.05725 4
      vertex 2.83156 -2.05725 0
    endloop
  endfacet
  facet normal 0.93358 -0.358368 0
    outer loop
      vertex 3.19741 -1.42358 4
      vertex 3.3287 -1.08156 0
      vertex 3.3287 -1.08156 4
    endloop
  endfacet
  facet normal 0.93358 -0.358368 0
    outer loop
      vertex 3.3287 -1.08156 0
      vertex 3.19741 -1.42358 4
      vertex 3.19741 -1.42358 0
    endloop
  endfacet
  facet normal 0.987688 -0.156435 0
    outer loop
      vertex 3.42352 -0.727691 4
      vertex 3.48083 -0.365849 0
      vertex 3.48083 -0.365849 4
    endloop
  endfacet
  facet normal 0.987688 -0.156435 0
    outer loop
      vertex 3.48083 -0.365849 0
      vertex 3.42352 -0.727691 4
      vertex 3.42352 -0.727691 0
    endloop
  endfacet
  facet normal 0.998629 -0.0523367 0
    outer loop
      vertex 3.48083 -0.365849 4
      vertex 3.5 0 0
      vertex 3.5 0 4
    endloop
  endfacet
  facet normal 0.998629 -0.0523367 0
    outer loop
      vertex 3.5 0 0
      vertex 3.48083 -0.365849 4
      vertex 3.48083 -0.365849 0
    endloop
  endfacet
  facet normal -0.62932 -0.777146 0
    outer loop
      vertex -2.34196 -2.60101 0
      vertex -2.05725 -2.83156 4
      vertex -2.34196 -2.60101 4
    endloop
  endfacet
  facet normal -0.62932 -0.777146 -0
    outer loop
      vertex -2.05725 -2.83156 4
      vertex -2.34196 -2.60101 0
      vertex -2.05725 -2.83156 0
    endloop
  endfacet
  facet normal -0.453989 -0.891007 0
    outer loop
      vertex -1.75 -3.03109 0
      vertex -1.42358 -3.19741 4
      vertex -1.75 -3.03109 4
    endloop
  endfacet
  facet normal -0.453989 -0.891007 -0
    outer loop
      vertex -1.42358 -3.19741 4
      vertex -1.75 -3.03109 0
      vertex -1.42358 -3.19741 0
    endloop
  endfacet
  facet normal -0.25882 -0.965926 0
    outer loop
      vertex -1.08156 -3.3287 0
      vertex -0.727691 -3.42352 4
      vertex -1.08156 -3.3287 4
    endloop
  endfacet
  facet normal -0.25882 -0.965926 -0
    outer loop
      vertex -0.727691 -3.42352 4
      vertex -1.08156 -3.3287 0
      vertex -0.727691 -3.42352 0
    endloop
  endfacet
  facet normal -0.891007 -0.45399 0
    outer loop
      vertex -3.03109 -1.75 0
      vertex -3.19741 -1.42358 4
      vertex -3.19741 -1.42358 0
    endloop
  endfacet
  facet normal -0.891007 -0.45399 0
    outer loop
      vertex -3.19741 -1.42358 4
      vertex -3.03109 -1.75 0
      vertex -3.03109 -1.75 4
    endloop
  endfacet
  facet normal -0.777146 -0.62932 0
    outer loop
      vertex -2.60101 -2.34196 0
      vertex -2.83156 -2.05725 4
      vertex -2.83156 -2.05725 0
    endloop
  endfacet
  facet normal -0.777146 -0.62932 0
    outer loop
      vertex -2.83156 -2.05725 4
      vertex -2.60101 -2.34196 0
      vertex -2.60101 -2.34196 4
    endloop
  endfacet
  facet normal -0.987688 -0.156435 0
    outer loop
      vertex -3.42352 -0.727691 0
      vertex -3.48083 -0.365849 4
      vertex -3.48083 -0.365849 0
    endloop
  endfacet
  facet normal -0.987688 -0.156435 0
    outer loop
      vertex -3.48083 -0.365849 4
      vertex -3.42352 -0.727691 0
      vertex -3.42352 -0.727691 4
    endloop
  endfacet
  facet normal -0.998629 -0.0523394 0
    outer loop
      vertex 1.75 0 0
      vertex 1.74041 0.182924 4
      vertex 1.74041 0.182924 0
    endloop
  endfacet
  facet normal -0.998629 -0.0523394 0
    outer loop
      vertex 1.74041 0.182924 4
      vertex 1.75 0 0
      vertex 1.75 0 4
    endloop
  endfacet
  facet normal 0.998629 -0.0523394 0
    outer loop
      vertex -1.75 0 4
      vertex -1.74041 0.182924 0
      vertex -1.74041 0.182924 4
    endloop
  endfacet
  facet normal 0.998629 -0.0523394 0
    outer loop
      vertex -1.74041 0.182924 0
      vertex -1.75 0 4
      vertex -1.75 0 0
    endloop
  endfacet
  facet normal -0.0523394 -0.998629 0
    outer loop
      vertex 0 1.75 0
      vertex 0.182924 1.74041 4
      vertex 0 1.75 4
    endloop
  endfacet
  facet normal -0.0523394 -0.998629 -0
    outer loop
      vertex 0.182924 1.74041 4
      vertex 0 1.75 0
      vertex 0.182924 1.74041 0
    endloop
  endfacet
  facet normal 0.0523394 0.998629 -0
    outer loop
      vertex 0 -1.75 0
      vertex -0.182924 -1.74041 4
      vertex 0 -1.75 4
    endloop
  endfacet
  facet normal 0.0523394 0.998629 0
    outer loop
      vertex -0.182924 -1.74041 4
      vertex 0 -1.75 0
      vertex -0.182924 -1.74041 0
    endloop
  endfacet
  facet normal -0.707107 -0.707107 0
    outer loop
      vertex 1.3005 1.17098 0
      vertex 1.17098 1.3005 4
      vertex 1.17098 1.3005 0
    endloop
  endfacet
  facet normal -0.707107 -0.707107 0
    outer loop
      vertex 1.17098 1.3005 4
      vertex 1.3005 1.17098 0
      vertex 1.3005 1.17098 4
    endloop
  endfacet
  facet normal 0.629319 -0.777147 0
    outer loop
      vertex -1.17098 1.3005 0
      vertex -1.02862 1.41578 4
      vertex -1.17098 1.3005 4
    endloop
  endfacet
  facet normal 0.629319 -0.777147 0
    outer loop
      vertex -1.02862 1.41578 4
      vertex -1.17098 1.3005 0
      vertex -1.02862 1.41578 0
    endloop
  endfacet
  facet normal 0.358368 -0.93358 0
    outer loop
      vertex -0.711788 1.5987 0
      vertex -0.540779 1.66435 4
      vertex -0.711788 1.5987 4
    endloop
  endfacet
  facet normal 0.358368 -0.93358 0
    outer loop
      vertex -0.540779 1.66435 4
      vertex -0.711788 1.5987 0
      vertex -0.540779 1.66435 0
    endloop
  endfacet
  facet normal 0.965926 0.258817 0
    outer loop
      vertex -1.66435 -0.540779 4
      vertex -1.71176 -0.363845 0
      vertex -1.71176 -0.363845 4
    endloop
  endfacet
  facet normal 0.965926 0.258817 0
    outer loop
      vertex -1.71176 -0.363845 0
      vertex -1.66435 -0.540779 4
      vertex -1.66435 -0.540779 0
    endloop
  endfacet
  facet normal -0.93358 -0.358368 0
    outer loop
      vertex 1.66435 0.540779 0
      vertex 1.5987 0.711788 4
      vertex 1.5987 0.711788 0
    endloop
  endfacet
  facet normal -0.93358 -0.358368 0
    outer loop
      vertex 1.5987 0.711788 4
      vertex 1.66435 0.540779 0
      vertex 1.66435 0.540779 4
    endloop
  endfacet
  facet normal -0.45399 -0.891007 0
    outer loop
      vertex 0.711788 1.5987 0
      vertex 0.875 1.51554 4
      vertex 0.711788 1.5987 4
    endloop
  endfacet
  facet normal -0.45399 -0.891007 -0
    outer loop
      vertex 0.875 1.51554 4
      vertex 0.711788 1.5987 0
      vertex 0.875 1.51554 0
    endloop
  endfacet
  facet normal -0.544641 -0.838669 0
    outer loop
      vertex 0.875 1.51554 0
      vertex 1.02862 1.41578 4
      vertex 0.875 1.51554 4
    endloop
  endfacet
  facet normal -0.544641 -0.838669 -0
    outer loop
      vertex 1.02862 1.41578 4
      vertex 0.875 1.51554 0
      vertex 1.02862 1.41578 0
    endloop
  endfacet
  facet normal 0.838671 -0.544639 0
    outer loop
      vertex -1.51554 0.874999 4
      vertex -1.41578 1.02862 0
      vertex -1.41578 1.02862 4
    endloop
  endfacet
  facet normal 0.838671 -0.544639 0
    outer loop
      vertex -1.41578 1.02862 0
      vertex -1.51554 0.874999 4
      vertex -1.51554 0.874999 0
    endloop
  endfacet
  facet normal 0.777147 -0.629319 0
    outer loop
      vertex -1.41578 1.02862 4
      vertex -1.3005 1.17098 0
      vertex -1.3005 1.17098 4
    endloop
  endfacet
  facet normal 0.777147 -0.629319 0
    outer loop
      vertex -1.3005 1.17098 0
      vertex -1.41578 1.02862 4
      vertex -1.41578 1.02862 0
    endloop
  endfacet
  facet normal 0.544639 -0.838671 0
    outer loop
      vertex -1.02862 1.41578 0
      vertex -0.874999 1.51554 4
      vertex -1.02862 1.41578 4
    endloop
  endfacet
  facet normal 0.544639 -0.838671 0
    outer loop
      vertex -0.874999 1.51554 4
      vertex -1.02862 1.41578 0
      vertex -0.874999 1.51554 0
    endloop
  endfacet
  facet normal 0.156435 -0.987688 0
    outer loop
      vertex -0.363845 1.71176 0
      vertex -0.182924 1.74041 4
      vertex -0.363845 1.71176 4
    endloop
  endfacet
  facet normal 0.156435 -0.987688 0
    outer loop
      vertex -0.182924 1.74041 4
      vertex -0.363845 1.71176 0
      vertex -0.182924 1.74041 0
    endloop
  endfacet
  facet normal -0.891006 0.453992 0
    outer loop
      vertex 1.51554 -0.874999 0
      vertex 1.5987 -0.711788 4
      vertex 1.5987 -0.711788 0
    endloop
  endfacet
  facet normal -0.891006 0.453992 0
    outer loop
      vertex 1.5987 -0.711788 4
      vertex 1.51554 -0.874999 0
      vertex 1.51554 -0.874999 4
    endloop
  endfacet
  facet normal -0.258817 0.965926 0
    outer loop
      vertex 0.540779 -1.66435 0
      vertex 0.363845 -1.71176 4
      vertex 0.540779 -1.66435 4
    endloop
  endfacet
  facet normal -0.258817 0.965926 0
    outer loop
      vertex 0.363845 -1.71176 4
      vertex 0.540779 -1.66435 0
      vertex 0.363845 -1.71176 0
    endloop
  endfacet
  facet normal -0.707107 0.707107 0
    outer loop
      vertex 1.17098 -1.3005 0
      vertex 1.3005 -1.17098 4
      vertex 1.3005 -1.17098 0
    endloop
  endfacet
  facet normal -0.707107 0.707107 0
    outer loop
      vertex 1.3005 -1.17098 4
      vertex 1.17098 -1.3005 0
      vertex 1.17098 -1.3005 4
    endloop
  endfacet
  facet normal -0.965926 0.258817 0
    outer loop
      vertex 1.66435 -0.540779 0
      vertex 1.71176 -0.363845 4
      vertex 1.71176 -0.363845 0
    endloop
  endfacet
  facet normal -0.965926 0.258817 0
    outer loop
      vertex 1.71176 -0.363845 4
      vertex 1.66435 -0.540779 0
      vertex 1.66435 -0.540779 4
    endloop
  endfacet
  facet normal 0.358368 0.93358 -0
    outer loop
      vertex -0.540779 -1.66435 0
      vertex -0.711788 -1.5987 4
      vertex -0.540779 -1.66435 4
    endloop
  endfacet
  facet normal 0.358368 0.93358 0
    outer loop
      vertex -0.711788 -1.5987 4
      vertex -0.540779 -1.66435 0
      vertex -0.711788 -1.5987 0
    endloop
  endfacet
  facet normal 0.777147 0.629319 0
    outer loop
      vertex -1.3005 -1.17098 4
      vertex -1.41578 -1.02862 0
      vertex -1.41578 -1.02862 4
    endloop
  endfacet
  facet normal 0.777147 0.629319 0
    outer loop
      vertex -1.41578 -1.02862 0
      vertex -1.3005 -1.17098 4
      vertex -1.3005 -1.17098 0
    endloop
  endfacet
  facet normal -0.965926 -0.258817 0
    outer loop
      vertex 1.71176 0.363845 0
      vertex 1.66435 0.540779 4
      vertex 1.66435 0.540779 0
    endloop
  endfacet
  facet normal -0.965926 -0.258817 0
    outer loop
      vertex 1.66435 0.540779 4
      vertex 1.71176 0.363845 0
      vertex 1.71176 0.363845 4
    endloop
  endfacet
  facet normal -0.987688 -0.156435 0
    outer loop
      vertex 1.74041 0.182924 0
      vertex 1.71176 0.363845 4
      vertex 1.71176 0.363845 0
    endloop
  endfacet
  facet normal -0.987688 -0.156435 0
    outer loop
      vertex 1.71176 0.363845 4
      vertex 1.74041 0.182924 0
      vertex 1.74041 0.182924 4
    endloop
  endfacet
  facet normal -0.838671 -0.544639 0
    outer loop
      vertex 1.51554 0.874999 0
      vertex 1.41578 1.02862 4
      vertex 1.41578 1.02862 0
    endloop
  endfacet
  facet normal -0.838671 -0.544639 0
    outer loop
      vertex 1.41578 1.02862 4
      vertex 1.51554 0.874999 0
      vertex 1.51554 0.874999 4
    endloop
  endfacet
  facet normal -0.777147 -0.629319 0
    outer loop
      vertex 1.41578 1.02862 0
      vertex 1.3005 1.17098 4
      vertex 1.3005 1.17098 0
    endloop
  endfacet
  facet normal -0.777147 -0.629319 0
    outer loop
      vertex 1.3005 1.17098 4
      vertex 1.41578 1.02862 0
      vertex 1.41578 1.02862 4
    endloop
  endfacet
  facet normal -0.891006 -0.453992 0
    outer loop
      vertex 1.5987 0.711788 0
      vertex 1.51554 0.874999 4
      vertex 1.51554 0.874999 0
    endloop
  endfacet
  facet normal -0.891006 -0.453992 0
    outer loop
      vertex 1.51554 0.874999 4
      vertex 1.5987 0.711788 0
      vertex 1.5987 0.711788 4
    endloop
  endfacet
  facet normal -0.258817 -0.965926 0
    outer loop
      vertex 0.363845 1.71176 0
      vertex 0.540779 1.66435 4
      vertex 0.363845 1.71176 4
    endloop
  endfacet
  facet normal -0.258817 -0.965926 -0
    outer loop
      vertex 0.540779 1.66435 4
      vertex 0.363845 1.71176 0
      vertex 0.540779 1.66435 0
    endloop
  endfacet
  facet normal -0.358368 -0.93358 0
    outer loop
      vertex 0.540779 1.66435 0
      vertex 0.711788 1.5987 4
      vertex 0.540779 1.66435 4
    endloop
  endfacet
  facet normal -0.358368 -0.93358 -0
    outer loop
      vertex 0.711788 1.5987 4
      vertex 0.540779 1.66435 0
      vertex 0.711788 1.5987 0
    endloop
  endfacet
  facet normal -0.156435 -0.987688 0
    outer loop
      vertex 0.182924 1.74041 0
      vertex 0.363845 1.71176 4
      vertex 0.182924 1.74041 4
    endloop
  endfacet
  facet normal -0.156435 -0.987688 -0
    outer loop
      vertex 0.363845 1.71176 4
      vertex 0.182924 1.74041 0
      vertex 0.363845 1.71176 0
    endloop
  endfacet
  facet normal -0.629319 -0.777147 0
    outer loop
      vertex 1.02862 1.41578 0
      vertex 1.17098 1.3005 4
      vertex 1.02862 1.41578 4
    endloop
  endfacet
  facet normal -0.629319 -0.777147 -0
    outer loop
      vertex 1.17098 1.3005 4
      vertex 1.02862 1.41578 0
      vertex 1.17098 1.3005 0
    endloop
  endfacet
  facet normal 0.965926 -0.258817 0
    outer loop
      vertex -1.71176 0.363845 4
      vertex -1.66435 0.540779 0
      vertex -1.66435 0.540779 4
    endloop
  endfacet
  facet normal 0.965926 -0.258817 0
    outer loop
      vertex -1.66435 0.540779 0
      vertex -1.71176 0.363845 4
      vertex -1.71176 0.363845 0
    endloop
  endfacet
  facet normal 0.707107 -0.707107 0
    outer loop
      vertex -1.3005 1.17098 4
      vertex -1.17098 1.3005 0
      vertex -1.17098 1.3005 4
    endloop
  endfacet
  facet normal 0.707107 -0.707107 0
    outer loop
      vertex -1.17098 1.3005 0
      vertex -1.3005 1.17098 4
      vertex -1.3005 1.17098 0
    endloop
  endfacet
  facet normal 0.891006 -0.453992 0
    outer loop
      vertex -1.5987 0.711788 4
      vertex -1.51554 0.874999 0
      vertex -1.51554 0.874999 4
    endloop
  endfacet
  facet normal 0.891006 -0.453992 0
    outer loop
      vertex -1.51554 0.874999 0
      vertex -1.5987 0.711788 4
      vertex -1.5987 0.711788 0
    endloop
  endfacet
  facet normal 0.93358 -0.358368 0
    outer loop
      vertex -1.66435 0.540779 4
      vertex -1.5987 0.711788 0
      vertex -1.5987 0.711788 4
    endloop
  endfacet
  facet normal 0.93358 -0.358368 0
    outer loop
      vertex -1.5987 0.711788 0
      vertex -1.66435 0.540779 4
      vertex -1.66435 0.540779 0
    endloop
  endfacet
  facet normal 0.987688 -0.156435 0
    outer loop
      vertex -1.74041 0.182924 4
      vertex -1.71176 0.363845 0
      vertex -1.71176 0.363845 4
    endloop
  endfacet
  facet normal 0.987688 -0.156435 0
    outer loop
      vertex -1.71176 0.363845 0
      vertex -1.74041 0.182924 4
      vertex -1.74041 0.182924 0
    endloop
  endfacet
  facet normal 0.453992 -0.891006 0
    outer loop
      vertex -0.874999 1.51554 0
      vertex -0.711788 1.5987 4
      vertex -0.874999 1.51554 4
    endloop
  endfacet
  facet normal 0.453992 -0.891006 0
    outer loop
      vertex -0.711788 1.5987 4
      vertex -0.874999 1.51554 0
      vertex -0.711788 1.5987 0
    endloop
  endfacet
  facet normal 0.258817 -0.965926 0
    outer loop
      vertex -0.540779 1.66435 0
      vertex -0.363845 1.71176 4
      vertex -0.540779 1.66435 4
    endloop
  endfacet
  facet normal 0.258817 -0.965926 0
    outer loop
      vertex -0.363845 1.71176 4
      vertex -0.540779 1.66435 0
      vertex -0.363845 1.71176 0
    endloop
  endfacet
  facet normal 0.0523394 -0.998629 0
    outer loop
      vertex -0.182924 1.74041 0
      vertex 0 1.75 4
      vertex -0.182924 1.74041 4
    endloop
  endfacet
  facet normal 0.0523394 -0.998629 0
    outer loop
      vertex 0 1.75 4
      vertex -0.182924 1.74041 0
      vertex 0 1.75 0
    endloop
  endfacet
  facet normal -0.0523394 0.998629 0
    outer loop
      vertex 0.182924 -1.74041 0
      vertex 0 -1.75 4
      vertex 0.182924 -1.74041 4
    endloop
  endfacet
  facet normal -0.0523394 0.998629 0
    outer loop
      vertex 0 -1.75 4
      vertex 0.182924 -1.74041 0
      vertex 0 -1.75 0
    endloop
  endfacet
  facet normal -0.45399 0.891007 0
    outer loop
      vertex 0.875 -1.51554 0
      vertex 0.711788 -1.5987 4
      vertex 0.875 -1.51554 4
    endloop
  endfacet
  facet normal -0.45399 0.891007 0
    outer loop
      vertex 0.711788 -1.5987 4
      vertex 0.875 -1.51554 0
      vertex 0.711788 -1.5987 0
    endloop
  endfacet
  facet normal -0.629319 0.777147 0
    outer loop
      vertex 1.17098 -1.3005 0
      vertex 1.02862 -1.41578 4
      vertex 1.17098 -1.3005 4
    endloop
  endfacet
  facet normal -0.629319 0.777147 0
    outer loop
      vertex 1.02862 -1.41578 4
      vertex 1.17098 -1.3005 0
      vertex 1.02862 -1.41578 0
    endloop
  endfacet
  facet normal -0.544641 0.838669 0
    outer loop
      vertex 1.02862 -1.41578 0
      vertex 0.875 -1.51554 4
      vertex 1.02862 -1.41578 4
    endloop
  endfacet
  facet normal -0.544641 0.838669 0
    outer loop
      vertex 0.875 -1.51554 4
      vertex 1.02862 -1.41578 0
      vertex 0.875 -1.51554 0
    endloop
  endfacet
  facet normal -0.777147 0.629319 0
    outer loop
      vertex 1.3005 -1.17098 0
      vertex 1.41578 -1.02862 4
      vertex 1.41578 -1.02862 0
    endloop
  endfacet
  facet normal -0.777147 0.629319 0
    outer loop
      vertex 1.41578 -1.02862 4
      vertex 1.3005 -1.17098 0
      vertex 1.3005 -1.17098 4
    endloop
  endfacet
  facet normal -0.838671 0.544639 0
    outer loop
      vertex 1.41578 -1.02862 0
      vertex 1.51554 -0.874999 4
      vertex 1.51554 -0.874999 0
    endloop
  endfacet
  facet normal -0.838671 0.544639 0
    outer loop
      vertex 1.51554 -0.874999 4
      vertex 1.41578 -1.02862 0
      vertex 1.41578 -1.02862 4
    endloop
  endfacet
  facet normal 0.707107 0.707107 0
    outer loop
      vertex -1.17098 -1.3005 4
      vertex -1.3005 -1.17098 0
      vertex -1.3005 -1.17098 4
    endloop
  endfacet
  facet normal 0.707107 0.707107 0
    outer loop
      vertex -1.3005 -1.17098 0
      vertex -1.17098 -1.3005 4
      vertex -1.17098 -1.3005 0
    endloop
  endfacet
  facet normal 0.629319 0.777147 -0
    outer loop
      vertex -1.02862 -1.41578 0
      vertex -1.17098 -1.3005 4
      vertex -1.02862 -1.41578 4
    endloop
  endfacet
  facet normal 0.629319 0.777147 0
    outer loop
      vertex -1.17098 -1.3005 4
      vertex -1.02862 -1.41578 0
      vertex -1.17098 -1.3005 0
    endloop
  endfacet
  facet normal 0.544641 0.838669 -0
    outer loop
      vertex -0.875 -1.51554 0
      vertex -1.02862 -1.41578 4
      vertex -0.875 -1.51554 4
    endloop
  endfacet
  facet normal 0.544641 0.838669 0
    outer loop
      vertex -1.02862 -1.41578 4
      vertex -0.875 -1.51554 0
      vertex -1.02862 -1.41578 0
    endloop
  endfacet
  facet normal 0.156435 0.987688 -0
    outer loop
      vertex -0.182924 -1.74041 0
      vertex -0.363845 -1.71176 4
      vertex -0.182924 -1.74041 4
    endloop
  endfacet
  facet normal 0.156435 0.987688 0
    outer loop
      vertex -0.363845 -1.71176 4
      vertex -0.182924 -1.74041 0
      vertex -0.363845 -1.71176 0
    endloop
  endfacet
  facet normal 0.891006 0.453992 0
    outer loop
      vertex -1.51554 -0.874999 4
      vertex -1.5987 -0.711788 0
      vertex -1.5987 -0.711788 4
    endloop
  endfacet
  facet normal 0.891006 0.453992 0
    outer loop
      vertex -1.5987 -0.711788 0
      vertex -1.51554 -0.874999 4
      vertex -1.51554 -0.874999 0
    endloop
  endfacet
  facet normal 0.93358 0.358368 0
    outer loop
      vertex -1.5987 -0.711788 4
      vertex -1.66435 -0.540779 0
      vertex -1.66435 -0.540779 4
    endloop
  endfacet
  facet normal 0.93358 0.358368 0
    outer loop
      vertex -1.66435 -0.540779 0
      vertex -1.5987 -0.711788 4
      vertex -1.5987 -0.711788 0
    endloop
  endfacet
  facet normal 0.998629 0.0523394 0
    outer loop
      vertex -1.74041 -0.182924 4
      vertex -1.75 0 0
      vertex -1.75 0 4
    endloop
  endfacet
  facet normal 0.998629 0.0523394 0
    outer loop
      vertex -1.75 0 0
      vertex -1.74041 -0.182924 4
      vertex -1.74041 -0.182924 0
    endloop
  endfacet
  facet normal -0.156435 0.987688 0
    outer loop
      vertex 0.363845 -1.71176 0
      vertex 0.182924 -1.74041 4
      vertex 0.363845 -1.71176 4
    endloop
  endfacet
  facet normal -0.156435 0.987688 0
    outer loop
      vertex 0.182924 -1.74041 4
      vertex 0.363845 -1.71176 0
      vertex 0.182924 -1.74041 0
    endloop
  endfacet
  facet normal -0.358368 0.93358 0
    outer loop
      vertex 0.711788 -1.5987 0
      vertex 0.540779 -1.66435 4
      vertex 0.711788 -1.5987 4
    endloop
  endfacet
  facet normal -0.358368 0.93358 0
    outer loop
      vertex 0.540779 -1.66435 4
      vertex 0.711788 -1.5987 0
      vertex 0.540779 -1.66435 0
    endloop
  endfacet
  facet normal -0.93358 0.358368 0
    outer loop
      vertex 1.5987 -0.711788 0
      vertex 1.66435 -0.540779 4
      vertex 1.66435 -0.540779 0
    endloop
  endfacet
  facet normal -0.93358 0.358368 0
    outer loop
      vertex 1.66435 -0.540779 4
      vertex 1.5987 -0.711788 0
      vertex 1.5987 -0.711788 4
    endloop
  endfacet
  facet normal -0.987688 0.156435 0
    outer loop
      vertex 1.71176 -0.363845 0
      vertex 1.74041 -0.182924 4
      vertex 1.74041 -0.182924 0
    endloop
  endfacet
  facet normal -0.987688 0.156435 0
    outer loop
      vertex 1.74041 -0.182924 4
      vertex 1.71176 -0.363845 0
      vertex 1.71176 -0.363845 4
    endloop
  endfacet
  facet normal -0.998629 0.0523394 0
    outer loop
      vertex 1.74041 -0.182924 0
      vertex 1.75 0 4
      vertex 1.75 0 0
    endloop
  endfacet
  facet normal -0.998629 0.0523394 0
    outer loop
      vertex 1.75 0 4
      vertex 1.74041 -0.182924 0
      vertex 1.74041 -0.182924 4
    endloop
  endfacet
  facet normal 0.45399 0.891007 -0
    outer loop
      vertex -0.711788 -1.5987 0
      vertex -0.875 -1.51554 4
      vertex -0.711788 -1.5987 4
    endloop
  endfacet
  facet normal 0.45399 0.891007 0
    outer loop
      vertex -0.875 -1.51554 4
      vertex -0.711788 -1.5987 0
      vertex -0.875 -1.51554 0
    endloop
  endfacet
  facet normal 0.258817 0.965926 -0
    outer loop
      vertex -0.363845 -1.71176 0
      vertex -0.540779 -1.66435 4
      vertex -0.363845 -1.71176 4
    endloop
  endfacet
  facet normal 0.258817 0.965926 0
    outer loop
      vertex -0.540779 -1.66435 4
      vertex -0.363845 -1.71176 0
      vertex -0.540779 -1.66435 0
    endloop
  endfacet
  facet normal 0.838671 0.544639 0
    outer loop
      vertex -1.41578 -1.02862 4
      vertex -1.51554 -0.874999 0
      vertex -1.51554 -0.874999 4
    endloop
  endfacet
  facet normal 0.838671 0.544639 0
    outer loop
      vertex -1.51554 -0.874999 0
      vertex -1.41578 -1.02862 4
      vertex -1.41578 -1.02862 0
    endloop
  endfacet
  facet normal 0.987688 0.156435 0
    outer loop
      vertex -1.71176 -0.363845 4
      vertex -1.74041 -0.182924 0
      vertex -1.74041 -0.182924 4
    endloop
  endfacet
  facet normal 0.987688 0.156435 0
    outer loop
      vertex -1.74041 -0.182924 0
      vertex -1.71176 -0.363845 4
      vertex -1.71176 -0.363845 0
    endloop
  endfacet
endsolid OpenSCAD_Model
