solid OpenSCAD_Model
  facet normal -1 0 0
    outer loop
      vertex -60 -7.5 0
      vertex -60 27.5 2
      vertex -60 27.5 0
    endloop
  endfacet
  facet normal -1 -0 0
    outer loop
      vertex -60 27.5 2
      vertex -60 -7.5 0
      vertex -60 -7.5 2
    endloop
  endfacet
  facet normal -0 0 1
    outer loop
      vertex -60 27.5 2
      vertex -30 -7.5 2
      vertex -30 27.5 2
    endloop
  endfacet
  facet normal 0 0 1
    outer loop
      vertex -30 -7.5 2
      vertex -60 27.5 2
      vertex -60 -7.5 2
    endloop
  endfacet
  facet normal -1 0 0
    outer loop
      vertex 40 -47.5 0
      vertex 40 -7.5 4
      vertex 40 -7.5 0
    endloop
  endfacet
  facet normal -1 -0 0
    outer loop
      vertex 40 -7.5 4
      vertex 40 -47.5 0
      vertex 40 -47.5 4
    endloop
  endfacet
  facet normal 0 1 0
    outer loop
      vertex 60 27.5 4
      vertex -30 27.5 2
      vertex -30 27.5 4
    endloop
  endfacet
  facet normal 0 1 -0
    outer loop
      vertex 60 27.5 0
      vertex -30 27.5 2
      vertex 60 27.5 4
    endloop
  endfacet
  facet normal 0 1 0
    outer loop
      vertex -60 27.5 0
      vertex -30 27.5 2
      vertex 60 27.5 0
    endloop
  endfacet
  facet normal 0 1 0
    outer loop
      vertex -30 27.5 2
      vertex -60 27.5 0
      vertex -60 27.5 2
    endloop
  endfacet
  facet normal 0 0 -1
    outer loop
      vertex 55 -47.5 0
      vertex 60 -67 0
      vertex 55 -62 0
    endloop
  endfacet
  facet normal 0 0 -1
    outer loop
      vertex 45 -67 0
      vertex 55 -62 0
      vertex 60 -67 0
    endloop
  endfacet
  facet normal -0 0 -1
    outer loop
      vertex 55 -62 0
      vertex 45 -67 0
      vertex 45 -62 0
    endloop
  endfacet
  facet normal 0 0 -1
    outer loop
      vertex 60 -67 0
      vertex 55 -47.5 0
      vertex 60 27.5 0
    endloop
  endfacet
  facet normal 0 0 -1
    outer loop
      vertex 40 -7.5 0
      vertex 55 -47.5 0
      vertex 40 -47.5 0
    endloop
  endfacet
  facet normal 0 0 -1
    outer loop
      vertex 55 -47.5 0
      vertex 40 -7.5 0
      vertex 60 27.5 0
    endloop
  endfacet
  facet normal 0 0 -1
    outer loop
      vertex -60 27.5 0
      vertex 40 -7.5 0
      vertex -60 -7.5 0
    endloop
  endfacet
  facet normal 0 0 -1
    outer loop
      vertex 40 -7.5 0
      vertex -60 27.5 0
      vertex 60 27.5 0
    endloop
  endfacet
  facet normal 0 -1 0
    outer loop
      vertex -60 -7.5 2
      vertex -60 -7.5 0
      vertex -30 -7.5 2
    endloop
  endfacet
  facet normal 0 -1 0
    outer loop
      vertex -30 -7.5 2
      vertex 40 -7.5 4
      vertex -30 -7.5 4
    endloop
  endfacet
  facet normal 0 -1 0
    outer loop
      vertex 40 -7.5 0
      vertex -30 -7.5 2
      vertex -60 -7.5 0
    endloop
  endfacet
  facet normal 0 -1 0
    outer loop
      vertex -30 -7.5 2
      vertex 40 -7.5 0
      vertex 40 -7.5 4
    endloop
  endfacet
  facet normal -1 0 0
    outer loop
      vertex -30 -7.5 2
      vertex -30 27.5 4
      vertex -30 27.5 2
    endloop
  endfacet
  facet normal -1 -0 0
    outer loop
      vertex -30 27.5 4
      vertex -30 -7.5 2
      vertex -30 -7.5 4
    endloop
  endfacet
  facet normal 0 0 1
    outer loop
      vertex 60 27.5 4
      vertex 55 -47.5 4
      vertex 60 -67 4
    endloop
  endfacet
  facet normal 0 0 1
    outer loop
      vertex 60 27.5 4
      vertex 40 -7.5 4
      vertex 55 -47.5 4
    endloop
  endfacet
  facet normal 0 0 1
    outer loop
      vertex 60 27.5 4
      vertex 35 10 4
      vertex 40 -7.5 4
    endloop
  endfacet
  facet normal 0 0 1
    outer loop
      vertex 60 27.5 4
      vertex 34.6194 11.9134 4
      vertex 35 10 4
    endloop
  endfacet
  facet normal 0 0 1
    outer loop
      vertex 60 27.5 4
      vertex 33.5355 13.5355 4
      vertex 34.6194 11.9134 4
    endloop
  endfacet
  facet normal 0 0 1
    outer loop
      vertex 60 27.5 4
      vertex 31.9134 14.6194 4
      vertex 33.5355 13.5355 4
    endloop
  endfacet
  facet normal 0 0 1
    outer loop
      vertex 60 27.5 4
      vertex 30 15 4
      vertex 31.9134 14.6194 4
    endloop
  endfacet
  facet normal -0 0 1
    outer loop
      vertex -30 27.5 4
      vertex 30 15 4
      vertex 60 27.5 4
    endloop
  endfacet
  facet normal 0 0 1
    outer loop
      vertex 25.3806 11.9134 4
      vertex -30 27.5 4
      vertex 25 10 4
    endloop
  endfacet
  facet normal 0 0 1
    outer loop
      vertex 26.4645 13.5355 4
      vertex -30 27.5 4
      vertex 25.3806 11.9134 4
    endloop
  endfacet
  facet normal 0 0 1
    outer loop
      vertex 28.0866 14.6194 4
      vertex -30 27.5 4
      vertex 26.4645 13.5355 4
    endloop
  endfacet
  facet normal 0 0 1
    outer loop
      vertex 30 15 4
      vertex -30 27.5 4
      vertex 28.0866 14.6194 4
    endloop
  endfacet
  facet normal -0 0 1
    outer loop
      vertex 55 -62 4
      vertex 60 -67 4
      vertex 55 -47.5 4
    endloop
  endfacet
  facet normal 0 0 1
    outer loop
      vertex 45 -67 4
      vertex 55 -62 4
      vertex 45 -62 4
    endloop
  endfacet
  facet normal 0 0 1
    outer loop
      vertex 55 -62 4
      vertex 45 -67 4
      vertex 60 -67 4
    endloop
  endfacet
  facet normal 0 0 1
    outer loop
      vertex 55 -47.5 4
      vertex 40 -7.5 4
      vertex 40 -47.5 4
    endloop
  endfacet
  facet normal -0 0 1
    outer loop
      vertex 34.6194 8.08658 4
      vertex 40 -7.5 4
      vertex 35 10 4
    endloop
  endfacet
  facet normal -0 0 1
    outer loop
      vertex 33.5355 6.46447 4
      vertex 40 -7.5 4
      vertex 34.6194 8.08658 4
    endloop
  endfacet
  facet normal -0 0 1
    outer loop
      vertex 31.9134 5.3806 4
      vertex 40 -7.5 4
      vertex 33.5355 6.46447 4
    endloop
  endfacet
  facet normal -0 0 1
    outer loop
      vertex 30 5 4
      vertex 40 -7.5 4
      vertex 31.9134 5.3806 4
    endloop
  endfacet
  facet normal 0 0 1
    outer loop
      vertex 28.0866 5.3806 4
      vertex 40 -7.5 4
      vertex 30 5 4
    endloop
  endfacet
  facet normal 0 0 1
    outer loop
      vertex 26.4645 6.46447 4
      vertex 40 -7.5 4
      vertex 28.0866 5.3806 4
    endloop
  endfacet
  facet normal 0 0 1
    outer loop
      vertex -30 -7.5 4
      vertex 25 10 4
      vertex -30 27.5 4
    endloop
  endfacet
  facet normal 0 0 1
    outer loop
      vertex 25 10 4
      vertex -30 -7.5 4
      vertex 25.3806 8.08658 4
    endloop
  endfacet
  facet normal 0 0 1
    outer loop
      vertex 25.3806 8.08658 4
      vertex -30 -7.5 4
      vertex 26.4645 6.46447 4
    endloop
  endfacet
  facet normal 0 0 1
    outer loop
      vertex 26.4645 6.46447 4
      vertex -30 -7.5 4
      vertex 40 -7.5 4
    endloop
  endfacet
  facet normal 1 -0 0
    outer loop
      vertex 60 -67 4
      vertex 60 27.5 0
      vertex 60 27.5 4
    endloop
  endfacet
  facet normal 1 0 0
    outer loop
      vertex 60 27.5 0
      vertex 60 -67 4
      vertex 60 -67 0
    endloop
  endfacet
  facet normal 0 -1 0
    outer loop
      vertex 40 -47.5 0
      vertex 55 -47.5 4
      vertex 40 -47.5 4
    endloop
  endfacet
  facet normal 0 -1 -0
    outer loop
      vertex 55 -47.5 4
      vertex 40 -47.5 0
      vertex 55 -47.5 0
    endloop
  endfacet
  facet normal 0.980785 0.195091 0
    outer loop
      vertex 35 10 19
      vertex 34.6194 11.9134 4
      vertex 34.6194 11.9134 19
    endloop
  endfacet
  facet normal 0.980785 0.195091 0
    outer loop
      vertex 34.6194 11.9134 4
      vertex 35 10 19
      vertex 35 10 4
    endloop
  endfacet
  facet normal -0.195091 0.980785 0
    outer loop
      vertex 30 15 4
      vertex 28.0866 14.6194 19
      vertex 30 15 19
    endloop
  endfacet
  facet normal -0.195091 0.980785 0
    outer loop
      vertex 28.0866 14.6194 19
      vertex 30 15 4
      vertex 28.0866 14.6194 4
    endloop
  endfacet
  facet normal 0.195091 -0.980785 0
    outer loop
      vertex 30 5 4
      vertex 31.9134 5.3806 19
      vertex 30 5 19
    endloop
  endfacet
  facet normal 0.195091 -0.980785 0
    outer loop
      vertex 31.9134 5.3806 19
      vertex 30 5 4
      vertex 31.9134 5.3806 4
    endloop
  endfacet
  facet normal 0.55557 -0.83147 0
    outer loop
      vertex 31.9134 5.3806 4
      vertex 33.5355 6.46447 19
      vertex 31.9134 5.3806 19
    endloop
  endfacet
  facet normal 0.55557 -0.83147 0
    outer loop
      vertex 33.5355 6.46447 19
      vertex 31.9134 5.3806 4
      vertex 33.5355 6.46447 4
    endloop
  endfacet
  facet normal 0.55557 0.83147 -0
    outer loop
      vertex 33.5355 13.5355 4
      vertex 31.9134 14.6194 19
      vertex 33.5355 13.5355 19
    endloop
  endfacet
  facet normal 0.55557 0.83147 0
    outer loop
      vertex 31.9134 14.6194 19
      vertex 33.5355 13.5355 4
      vertex 31.9134 14.6194 4
    endloop
  endfacet
  facet normal 0.83147 0.55557 0
    outer loop
      vertex 34.6194 11.9134 19
      vertex 33.5355 13.5355 4
      vertex 33.5355 13.5355 19
    endloop
  endfacet
  facet normal 0.83147 0.55557 0
    outer loop
      vertex 33.5355 13.5355 4
      vertex 34.6194 11.9134 19
      vertex 34.6194 11.9134 4
    endloop
  endfacet
  facet normal 0.195091 0.980785 -0
    outer loop
      vertex 31.9134 14.6194 4
      vertex 30 15 19
      vertex 31.9134 14.6194 19
    endloop
  endfacet
  facet normal 0.195091 0.980785 0
    outer loop
      vertex 30 15 19
      vertex 31.9134 14.6194 4
      vertex 30 15 4
    endloop
  endfacet
  facet normal -0.83147 0.55557 0
    outer loop
      vertex 25.3806 11.9134 4
      vertex 26.4645 13.5355 19
      vertex 26.4645 13.5355 4
    endloop
  endfacet
  facet normal -0.83147 0.55557 0
    outer loop
      vertex 26.4645 13.5355 19
      vertex 25.3806 11.9134 4
      vertex 25.3806 11.9134 19
    endloop
  endfacet
  facet normal -0.980785 0.19509 0
    outer loop
      vertex 25 10 4
      vertex 25.3806 11.9134 19
      vertex 25.3806 11.9134 4
    endloop
  endfacet
  facet normal -0.980785 0.19509 0
    outer loop
      vertex 25.3806 11.9134 19
      vertex 25 10 4
      vertex 25 10 19
    endloop
  endfacet
  facet normal 0 0 1
    outer loop
      vertex 34.6194 11.9134 19
      vertex 34.6194 8.08658 19
      vertex 35 10 19
    endloop
  endfacet
  facet normal 0 0 1
    outer loop
      vertex 33.5355 13.5355 19
      vertex 34.6194 8.08658 19
      vertex 34.6194 11.9134 19
    endloop
  endfacet
  facet normal 0 0 1
    outer loop
      vertex 33.5355 13.5355 19
      vertex 33.5355 6.46447 19
      vertex 34.6194 8.08658 19
    endloop
  endfacet
  facet normal 0 0 1
    outer loop
      vertex 31.9134 14.6194 19
      vertex 33.5355 6.46447 19
      vertex 33.5355 13.5355 19
    endloop
  endfacet
  facet normal 0 0 1
    outer loop
      vertex 31.9134 14.6194 19
      vertex 31.9134 5.3806 19
      vertex 33.5355 6.46447 19
    endloop
  endfacet
  facet normal 0 0 1
    outer loop
      vertex 30 15 19
      vertex 31.9134 5.3806 19
      vertex 31.9134 14.6194 19
    endloop
  endfacet
  facet normal 0 0 1
    outer loop
      vertex 30 15 19
      vertex 30 5 19
      vertex 31.9134 5.3806 19
    endloop
  endfacet
  facet normal -0 0 1
    outer loop
      vertex 28.0866 14.6194 19
      vertex 30 5 19
      vertex 30 15 19
    endloop
  endfacet
  facet normal 0 0 1
    outer loop
      vertex 28.0866 14.6194 19
      vertex 28.0866 5.3806 19
      vertex 30 5 19
    endloop
  endfacet
  facet normal -0 0 1
    outer loop
      vertex 26.4645 13.5355 19
      vertex 28.0866 5.3806 19
      vertex 28.0866 14.6194 19
    endloop
  endfacet
  facet normal 0 0 1
    outer loop
      vertex 26.4645 13.5355 19
      vertex 26.4645 6.46447 19
      vertex 28.0866 5.3806 19
    endloop
  endfacet
  facet normal -0 0 1
    outer loop
      vertex 25.3806 11.9134 19
      vertex 26.4645 6.46447 19
      vertex 26.4645 13.5355 19
    endloop
  endfacet
  facet normal 0 0 1
    outer loop
      vertex 25.3806 11.9134 19
      vertex 25.3806 8.08658 19
      vertex 26.4645 6.46447 19
    endloop
  endfacet
  facet normal 0 -0 1
    outer loop
      vertex 25.3806 8.08658 19
      vertex 25.3806 11.9134 19
      vertex 25 10 19
    endloop
  endfacet
  facet normal -0.55557 0.83147 0
    outer loop
      vertex 28.0866 14.6194 4
      vertex 26.4645 13.5355 19
      vertex 28.0866 14.6194 19
    endloop
  endfacet
  facet normal -0.55557 0.83147 0
    outer loop
      vertex 26.4645 13.5355 19
      vertex 28.0866 14.6194 4
      vertex 26.4645 13.5355 4
    endloop
  endfacet
  facet normal 0.980785 -0.195091 0
    outer loop
      vertex 34.6194 8.08658 19
      vertex 35 10 4
      vertex 35 10 19
    endloop
  endfacet
  facet normal 0.980785 -0.195091 0
    outer loop
      vertex 35 10 4
      vertex 34.6194 8.08658 19
      vertex 34.6194 8.08658 4
    endloop
  endfacet
  facet normal -0.980785 -0.19509 0
    outer loop
      vertex 25.3806 8.08658 4
      vertex 25 10 19
      vertex 25 10 4
    endloop
  endfacet
  facet normal -0.980785 -0.19509 0
    outer loop
      vertex 25 10 19
      vertex 25.3806 8.08658 4
      vertex 25.3806 8.08658 19
    endloop
  endfacet
  facet normal 0.83147 -0.55557 0
    outer loop
      vertex 33.5355 6.46447 19
      vertex 34.6194 8.08658 4
      vertex 34.6194 8.08658 19
    endloop
  endfacet
  facet normal 0.83147 -0.55557 0
    outer loop
      vertex 34.6194 8.08658 4
      vertex 33.5355 6.46447 19
      vertex 33.5355 6.46447 4
    endloop
  endfacet
  facet normal -0.195091 -0.980785 0
    outer loop
      vertex 28.0866 5.3806 4
      vertex 30 5 19
      vertex 28.0866 5.3806 19
    endloop
  endfacet
  facet normal -0.195091 -0.980785 -0
    outer loop
      vertex 30 5 19
      vertex 28.0866 5.3806 4
      vertex 30 5 4
    endloop
  endfacet
  facet normal -0.55557 -0.83147 0
    outer loop
      vertex 26.4645 6.46447 4
      vertex 28.0866 5.3806 19
      vertex 26.4645 6.46447 19
    endloop
  endfacet
  facet normal -0.55557 -0.83147 -0
    outer loop
      vertex 28.0866 5.3806 19
      vertex 26.4645 6.46447 4
      vertex 28.0866 5.3806 4
    endloop
  endfacet
  facet normal -0.83147 -0.55557 0
    outer loop
      vertex 26.4645 6.46447 4
      vertex 25.3806 8.08658 19
      vertex 25.3806 8.08658 4
    endloop
  endfacet
  facet normal -0.83147 -0.55557 0
    outer loop
      vertex 25.3806 8.08658 19
      vertex 26.4645 6.46447 4
      vertex 26.4645 6.46447 19
    endloop
  endfacet
  facet normal -1 0 0
    outer loop
      vertex 45 -67 0
      vertex 45 -62 4
      vertex 45 -62 0
    endloop
  endfacet
  facet normal -1 -0 0
    outer loop
      vertex 45 -62 4
      vertex 45 -67 0
      vertex 45 -67 4
    endloop
  endfacet
  facet normal 0 -1 0
    outer loop
      vertex 45 -67 0
      vertex 60 -67 4
      vertex 45 -67 4
    endloop
  endfacet
  facet normal 0 -1 -0
    outer loop
      vertex 60 -67 4
      vertex 45 -67 0
      vertex 60 -67 0
    endloop
  endfacet
  facet normal 0 1 -0
    outer loop
      vertex 55 -62 0
      vertex 45 -62 4
      vertex 55 -62 4
    endloop
  endfacet
  facet normal 0 1 0
    outer loop
      vertex 45 -62 4
      vertex 55 -62 0
      vertex 45 -62 0
    endloop
  endfacet
  facet normal -1 0 0
    outer loop
      vertex 55 -62 0
      vertex 55 -47.5 4
      vertex 55 -47.5 0
    endloop
  endfacet
  facet normal -1 -0 0
    outer loop
      vertex 55 -47.5 4
      vertex 55 -62 0
      vertex 55 -62 4
    endloop
  endfacet
endsolid OpenSCAD_Model
