solid OpenSCAD_Model
  facet normal -1 0 0
    outer loop
      vertex -60 -17.5 0
      vertex -60 17.5 2
      vertex -60 17.5 0
    endloop
  endfacet
  facet normal -1 -0 0
    outer loop
      vertex -60 17.5 2
      vertex -60 -17.5 0
      vertex -60 -17.5 2
    endloop
  endfacet
  facet normal -0 0 1
    outer loop
      vertex -60 17.5 2
      vertex -30 -17.5 2
      vertex -30 17.5 2
    endloop
  endfacet
  facet normal 0 0 1
    outer loop
      vertex -30 -17.5 2
      vertex -60 17.5 2
      vertex -60 -17.5 2
    endloop
  endfacet
  facet normal -0 0 1
    outer loop
      vertex 30 17.5 2
      vertex 60 -17.5 2
      vertex 60 17.5 2
    endloop
  endfacet
  facet normal 0 0 1
    outer loop
      vertex 60 -17.5 2
      vertex 30 17.5 2
      vertex 30 -17.5 2
    endloop
  endfacet
  facet normal 1 -0 0
    outer loop
      vertex 60 -17.5 2
      vertex 60 17.5 0
      vertex 60 17.5 2
    endloop
  endfacet
  facet normal 1 0 0
    outer loop
      vertex 60 17.5 0
      vertex 60 -17.5 2
      vertex 60 -17.5 0
    endloop
  endfacet
  facet normal 0 1 -0
    outer loop
      vertex 60 17.5 0
      vertex 30 17.5 2
      vertex 60 17.5 2
    endloop
  endfacet
  facet normal 0 1 0
    outer loop
      vertex 30 17.5 2
      vertex 60 17.5 0
      vertex -30 17.5 2
    endloop
  endfacet
  facet normal 0 1 0
    outer loop
      vertex -60 17.5 0
      vertex -30 17.5 2
      vertex 60 17.5 0
    endloop
  endfacet
  facet normal 0 1 0
    outer loop
      vertex -30 17.5 2
      vertex -60 17.5 0
      vertex -60 17.5 2
    endloop
  endfacet
  facet normal 0 1 -0
    outer loop
      vertex 30 17.5 2
      vertex -30 17.5 4
      vertex 30 17.5 4
    endloop
  endfacet
  facet normal 0 1 0
    outer loop
      vertex -30 17.5 4
      vertex 30 17.5 2
      vertex -30 17.5 2
    endloop
  endfacet
  facet normal 0 0 -1
    outer loop
      vertex -60 -17.5 0
      vertex 60 17.5 0
      vertex 60 -17.5 0
    endloop
  endfacet
  facet normal -0 0 -1
    outer loop
      vertex 60 17.5 0
      vertex -60 -17.5 0
      vertex -60 17.5 0
    endloop
  endfacet
  facet normal 0 -1 0
    outer loop
      vertex -60 -17.5 0
      vertex -30 -17.5 2
      vertex -60 -17.5 2
    endloop
  endfacet
  facet normal 0 -1 -0
    outer loop
      vertex -30 -17.5 2
      vertex -60 -17.5 0
      vertex 30 -17.5 2
    endloop
  endfacet
  facet normal 0 -1 0
    outer loop
      vertex 60 -17.5 0
      vertex 30 -17.5 2
      vertex -60 -17.5 0
    endloop
  endfacet
  facet normal 0 -1 0
    outer loop
      vertex 30 -17.5 2
      vertex 60 -17.5 0
      vertex 60 -17.5 2
    endloop
  endfacet
  facet normal 0 -1 0
    outer loop
      vertex -30 -17.5 2
      vertex 30 -17.5 4
      vertex -30 -17.5 4
    endloop
  endfacet
  facet normal 0 -1 -0
    outer loop
      vertex 30 -17.5 4
      vertex -30 -17.5 2
      vertex 30 -17.5 2
    endloop
  endfacet
  facet normal -1 0 0
    outer loop
      vertex -30 -17.5 2
      vertex -30 17.5 4
      vertex -30 17.5 2
    endloop
  endfacet
  facet normal -1 -0 0
    outer loop
      vertex -30 17.5 4
      vertex -30 -17.5 2
      vertex -30 -17.5 4
    endloop
  endfacet
  facet normal -0 0 1
    outer loop
      vertex -30 17.5 4
      vertex 30 -17.5 4
      vertex 30 17.5 4
    endloop
  endfacet
  facet normal 0 0 1
    outer loop
      vertex 30 -17.5 4
      vertex -30 17.5 4
      vertex -30 -17.5 4
    endloop
  endfacet
  facet normal 1 -0 0
    outer loop
      vertex 30 -17.5 4
      vertex 30 17.5 2
      vertex 30 17.5 4
    endloop
  endfacet
  facet normal 1 0 0
    outer loop
      vertex 30 17.5 2
      vertex 30 -17.5 4
      vertex 30 -17.5 2
    endloop
  endfacet
endsolid OpenSCAD_Model
