solid OpenSCAD_Model
  facet normal 0 -1 0
    outer loop
      vertex 3 0 200
      vertex 24.2385 0 179.152
      vertex 47.55 0 200
    endloop
  endfacet
  facet normal 0 -1 0
    outer loop
      vertex 3 0 200
      vertex 22.5615 0 178.607
      vertex 24.2385 0 179.152
    endloop
  endfacet
  facet normal 0 -1 0
    outer loop
      vertex 3 0 200
      vertex 22.5615 0 176.843
      vertex 22.5615 0 178.607
    endloop
  endfacet
  facet normal 0 -1 0
    outer loop
      vertex 22.5615 0 176.843
      vertex 24.2385 0 127.335
      vertex 24.2385 0 176.298
    endloop
  endfacet
  facet normal 0 -1 0
    outer loop
      vertex 22.5615 0 126.79
      vertex 22.5615 0 176.843
      vertex 3 0 200
    endloop
  endfacet
  facet normal 0 -1 0
    outer loop
      vertex 22.5615 0 176.843
      vertex 22.5615 0 126.79
      vertex 24.2385 0 127.335
    endloop
  endfacet
  facet normal 0 -1 0
    outer loop
      vertex 3 0 200
      vertex 22.5615 0 125.027
      vertex 22.5615 0 126.79
    endloop
  endfacet
  facet normal 0 -1 0
    outer loop
      vertex 22.5615 0 125.027
      vertex 24.2385 0 75.5182
      vertex 24.2385 0 124.482
    endloop
  endfacet
  facet normal 0 -1 0
    outer loop
      vertex 22.5615 0 74.9733
      vertex 22.5615 0 125.027
      vertex 3 0 200
    endloop
  endfacet
  facet normal 0 -1 0
    outer loop
      vertex 22.5615 0 125.027
      vertex 22.5615 0 74.9733
      vertex 24.2385 0 75.5182
    endloop
  endfacet
  facet normal 0 -1 0
    outer loop
      vertex 3 0 0
      vertex 22.5615 0 74.9733
      vertex 3 0 200
    endloop
  endfacet
  facet normal 0 -1 0
    outer loop
      vertex 22.5615 0 73.21
      vertex 24.2385 0 23.7016
      vertex 24.2385 0 72.6651
    endloop
  endfacet
  facet normal 0 -1 -0
    outer loop
      vertex 22.5615 0 74.9733
      vertex 3 0 0
      vertex 22.5615 0 73.21
    endloop
  endfacet
  facet normal 0 -1 0
    outer loop
      vertex 22.5615 0 73.21
      vertex 22.5615 0 23.1567
      vertex 24.2385 0 23.7016
    endloop
  endfacet
  facet normal 0 -1 -0
    outer loop
      vertex 22.5615 0 73.21
      vertex 3 0 0
      vertex 22.5615 0 23.1567
    endloop
  endfacet
  facet normal 0 -1 -0
    outer loop
      vertex 22.5615 0 21.3933
      vertex 3 0 0
      vertex 24.2385 0 20.8484
    endloop
  endfacet
  facet normal 0 -1 -0
    outer loop
      vertex 22.5615 0 23.1567
      vertex 3 0 0
      vertex 22.5615 0 21.3933
    endloop
  endfacet
  facet normal 0 -1 0
    outer loop
      vertex 25.275 0 177.725
      vertex 47.55 0 200
      vertex 24.2385 0 179.152
    endloop
  endfacet
  facet normal 0 -1 0
    outer loop
      vertex 25.275 0 125.908
      vertex 25.275 0 177.725
      vertex 24.2385 0 176.298
    endloop
  endfacet
  facet normal 0 -1 0
    outer loop
      vertex 25.275 0 125.908
      vertex 24.2385 0 176.298
      vertex 24.2385 0 127.335
    endloop
  endfacet
  facet normal 0 -1 0
    outer loop
      vertex 25.275 0 177.725
      vertex 25.275 0 125.908
      vertex 47.55 0 200
    endloop
  endfacet
  facet normal 0 -1 0
    outer loop
      vertex 24.2385 0 75.5182
      vertex 25.275 0 125.908
      vertex 24.2385 0 124.482
    endloop
  endfacet
  facet normal 0 -1 0
    outer loop
      vertex 25.275 0 74.0917
      vertex 25.275 0 125.908
      vertex 24.2385 0 75.5182
    endloop
  endfacet
  facet normal 0 -1 0
    outer loop
      vertex 25.275 0 125.908
      vertex 25.275 0 74.0917
      vertex 47.55 0 200
    endloop
  endfacet
  facet normal 0 -1 0
    outer loop
      vertex 24.2385 0 23.7016
      vertex 25.275 0 74.0917
      vertex 24.2385 0 72.6651
    endloop
  endfacet
  facet normal 0 -1 0
    outer loop
      vertex 25.275 0 22.275
      vertex 25.275 0 74.0917
      vertex 24.2385 0 23.7016
    endloop
  endfacet
  facet normal 0 -1 0
    outer loop
      vertex 25.275 0 74.0917
      vertex 25.275 0 22.275
      vertex 47.55 0 0
    endloop
  endfacet
  facet normal 0 -1 0
    outer loop
      vertex 25.275 0 74.0917
      vertex 47.55 0 0
      vertex 47.55 0 200
    endloop
  endfacet
  facet normal 0 -1 0
    outer loop
      vertex 24.2385 0 20.8484
      vertex 47.55 0 0
      vertex 25.275 0 22.275
    endloop
  endfacet
  facet normal 0 -1 0
    outer loop
      vertex 47.55 0 0
      vertex 24.2385 0 20.8484
      vertex 3 0 0
    endloop
  endfacet
  facet normal -0.809017 0 0.587785
    outer loop
      vertex 24.2385 0 20.8484
      vertex 25.275 3 22.275
      vertex 24.2385 3 20.8484
    endloop
  endfacet
  facet normal -0.809017 0 0.587785
    outer loop
      vertex 25.275 3 22.275
      vertex 24.2385 0 20.8484
      vertex 25.275 0 22.275
    endloop
  endfacet
  facet normal 0.309017 0 0.951057
    outer loop
      vertex 22.5615 3 21.3933
      vertex 24.2385 0 20.8484
      vertex 24.2385 3 20.8484
    endloop
  endfacet
  facet normal 0.309017 0 0.951057
    outer loop
      vertex 24.2385 0 20.8484
      vertex 22.5615 3 21.3933
      vertex 22.5615 0 21.3933
    endloop
  endfacet
  facet normal -2.84331e-007 -1 -8.7508e-007
    outer loop
      vertex 25.275 3 22.275
      vertex 24.2385 3 23.7016
      vertex 22.5615 3 23.1567
    endloop
  endfacet
  facet normal 0.309017 0 -0.951057
    outer loop
      vertex 22.5615 0 23.1567
      vertex 24.2385 3 23.7016
      vertex 24.2385 0 23.7016
    endloop
  endfacet
  facet normal 0.309017 0 -0.951057
    outer loop
      vertex 24.2385 3 23.7016
      vertex 22.5615 0 23.1567
      vertex 22.5615 3 23.1567
    endloop
  endfacet
  facet normal 1 -0 0
    outer loop
      vertex 22.5615 0 23.1567
      vertex 22.5615 3 21.3933
      vertex 22.5615 3 23.1567
    endloop
  endfacet
  facet normal 1 0 0
    outer loop
      vertex 22.5615 3 21.3933
      vertex 22.5615 0 23.1567
      vertex 22.5615 0 21.3933
    endloop
  endfacet
  facet normal 0 1 0
    outer loop
      vertex 47.55 3 200
      vertex 22.5615 3 178.607
      vertex 0 3 200
    endloop
  endfacet
  facet normal 0 1 0
    outer loop
      vertex 47.55 3 200
      vertex 25.275 3 177.725
      vertex 22.5615 3 178.607
    endloop
  endfacet
  facet normal 0 1 0
    outer loop
      vertex 25.275 3 125.908
      vertex 25.275 3 177.725
      vertex 47.55 3 200
    endloop
  endfacet
  facet normal 0 1 0
    outer loop
      vertex 25.275 3 177.725
      vertex 25.275 3 125.908
      vertex 24.2385 3 176.298
    endloop
  endfacet
  facet normal 0 1 0
    outer loop
      vertex 24.2385 3 176.298
      vertex 25.275 3 125.908
      vertex 22.5615 3 126.79
    endloop
  endfacet
  facet normal 0 1 -0
    outer loop
      vertex 25.275 3 74.0917
      vertex 24.2385 3 124.482
      vertex 25.275 3 125.908
    endloop
  endfacet
  facet normal 0 1 0
    outer loop
      vertex 25.275 3 74.0917
      vertex 25.275 3 125.908
      vertex 47.55 3 200
    endloop
  endfacet
  facet normal 0 1 0
    outer loop
      vertex 24.2385 3 124.482
      vertex 25.275 3 74.0917
      vertex 22.5615 3 74.9733
    endloop
  endfacet
  facet normal 0 1 -0
    outer loop
      vertex 25.275 3 22.275
      vertex 24.2385 3 72.6651
      vertex 25.275 3 74.0917
    endloop
  endfacet
  facet normal 0 1 -0
    outer loop
      vertex 47.55 3 0
      vertex 25.275 3 74.0917
      vertex 47.55 3 200
    endloop
  endfacet
  facet normal 0 1 0
    outer loop
      vertex 24.2385 3 72.6651
      vertex 25.275 3 22.275
      vertex 22.5615 3 23.1567
    endloop
  endfacet
  facet normal 0 1 0
    outer loop
      vertex 25.275 3 22.275
      vertex 47.55 3 0
      vertex 24.2385 3 20.8484
    endloop
  endfacet
  facet normal 0 1 0
    outer loop
      vertex 25.275 3 74.0917
      vertex 47.55 3 0
      vertex 25.275 3 22.275
    endloop
  endfacet
  facet normal 0 1 -0
    outer loop
      vertex 22.5615 3 176.843
      vertex 0 3 200
      vertex 22.5615 3 178.607
    endloop
  endfacet
  facet normal 0 1 0
    outer loop
      vertex 22.5615 3 126.79
      vertex 22.5615 3 176.843
      vertex 24.2385 3 176.298
    endloop
  endfacet
  facet normal 0 1 -0
    outer loop
      vertex 22.5615 3 126.79
      vertex 0 3 200
      vertex 22.5615 3 176.843
    endloop
  endfacet
  facet normal 0 1 -0
    outer loop
      vertex 22.5615 3 125.027
      vertex 0 3 200
      vertex 22.5615 3 126.79
    endloop
  endfacet
  facet normal 0 1 0
    outer loop
      vertex 22.5615 3 74.9733
      vertex 22.5615 3 125.027
      vertex 24.2385 3 124.482
    endloop
  endfacet
  facet normal 0 1 -0
    outer loop
      vertex 22.5615 3 74.9733
      vertex 0 3 200
      vertex 22.5615 3 125.027
    endloop
  endfacet
  facet normal 0 1 0
    outer loop
      vertex 0 3 0
      vertex 22.5615 3 74.9733
      vertex 22.5615 3 73.21
    endloop
  endfacet
  facet normal 0 1 0
    outer loop
      vertex 22.5615 3 23.1567
      vertex 22.5615 3 73.21
      vertex 24.2385 3 72.6651
    endloop
  endfacet
  facet normal 0 1 0
    outer loop
      vertex 0 3 0
      vertex 22.5615 3 73.21
      vertex 22.5615 3 23.1567
    endloop
  endfacet
  facet normal 0 1 0
    outer loop
      vertex 0 3 0
      vertex 22.5615 3 23.1567
      vertex 22.5615 3 21.3933
    endloop
  endfacet
  facet normal 0 1 0
    outer loop
      vertex 0 3 0
      vertex 24.2385 3 20.8484
      vertex 47.55 3 0
    endloop
  endfacet
  facet normal 0 1 0
    outer loop
      vertex 22.5615 3 74.9733
      vertex 0 3 0
      vertex 0 3 200
    endloop
  endfacet
  facet normal 0 1 0
    outer loop
      vertex 24.2385 3 20.8484
      vertex 0 3 0
      vertex 22.5615 3 21.3933
    endloop
  endfacet
  facet normal -0.809017 0 -0.587785
    outer loop
      vertex 25.275 0 22.275
      vertex 24.2385 3 23.7016
      vertex 25.275 3 22.275
    endloop
  endfacet
  facet normal -0.809017 -0 -0.587785
    outer loop
      vertex 24.2385 3 23.7016
      vertex 25.275 0 22.275
      vertex 24.2385 0 23.7016
    endloop
  endfacet
  facet normal -0.809017 0 0.587786
    outer loop
      vertex 24.2385 0 72.6651
      vertex 25.275 3 74.0917
      vertex 24.2385 3 72.6651
    endloop
  endfacet
  facet normal -0.809017 0 0.587786
    outer loop
      vertex 25.275 3 74.0917
      vertex 24.2385 0 72.6651
      vertex 25.275 0 74.0917
    endloop
  endfacet
  facet normal 0.309017 0 0.951057
    outer loop
      vertex 22.5615 3 73.21
      vertex 24.2385 0 72.6651
      vertex 24.2385 3 72.6651
    endloop
  endfacet
  facet normal 0.309017 0 0.951057
    outer loop
      vertex 24.2385 0 72.6651
      vertex 22.5615 3 73.21
      vertex 22.5615 0 73.21
    endloop
  endfacet
  facet normal -2.8433e-007 -1 -8.75081e-007
    outer loop
      vertex 25.275 3 74.0917
      vertex 24.2385 3 75.5182
      vertex 22.5615 3 74.9733
    endloop
  endfacet
  facet normal 0.309017 0 -0.951057
    outer loop
      vertex 22.5615 0 74.9733
      vertex 24.2385 3 75.5182
      vertex 24.2385 0 75.5182
    endloop
  endfacet
  facet normal 0.309017 0 -0.951057
    outer loop
      vertex 24.2385 3 75.5182
      vertex 22.5615 0 74.9733
      vertex 22.5615 3 74.9733
    endloop
  endfacet
  facet normal 1 -0 0
    outer loop
      vertex 22.5615 0 74.9733
      vertex 22.5615 3 73.21
      vertex 22.5615 3 74.9733
    endloop
  endfacet
  facet normal 1 0 0
    outer loop
      vertex 22.5615 3 73.21
      vertex 22.5615 0 74.9733
      vertex 22.5615 0 73.21
    endloop
  endfacet
  facet normal -0.809017 0 -0.587786
    outer loop
      vertex 25.275 0 74.0917
      vertex 24.2385 3 75.5182
      vertex 25.275 3 74.0917
    endloop
  endfacet
  facet normal -0.809017 -0 -0.587786
    outer loop
      vertex 24.2385 3 75.5182
      vertex 25.275 0 74.0917
      vertex 24.2385 0 75.5182
    endloop
  endfacet
  facet normal -0.809017 0 0.587786
    outer loop
      vertex 24.2385 0 124.482
      vertex 25.275 3 125.908
      vertex 24.2385 3 124.482
    endloop
  endfacet
  facet normal -0.809017 0 0.587786
    outer loop
      vertex 25.275 3 125.908
      vertex 24.2385 0 124.482
      vertex 25.275 0 125.908
    endloop
  endfacet
  facet normal 0.309017 0 0.951057
    outer loop
      vertex 22.5615 3 125.027
      vertex 24.2385 0 124.482
      vertex 24.2385 3 124.482
    endloop
  endfacet
  facet normal 0.309017 0 0.951057
    outer loop
      vertex 24.2385 0 124.482
      vertex 22.5615 3 125.027
      vertex 22.5615 0 125.027
    endloop
  endfacet
  facet normal -2.8433e-007 -1 -8.75081e-007
    outer loop
      vertex 25.275 3 125.908
      vertex 24.2385 3 127.335
      vertex 22.5615 3 126.79
    endloop
  endfacet
  facet normal 0.309017 0 -0.951057
    outer loop
      vertex 22.5615 0 126.79
      vertex 24.2385 3 127.335
      vertex 24.2385 0 127.335
    endloop
  endfacet
  facet normal 0.309017 0 -0.951057
    outer loop
      vertex 24.2385 3 127.335
      vertex 22.5615 0 126.79
      vertex 22.5615 3 126.79
    endloop
  endfacet
  facet normal 1 -0 0
    outer loop
      vertex 22.5615 0 126.79
      vertex 22.5615 3 125.027
      vertex 22.5615 3 126.79
    endloop
  endfacet
  facet normal 1 0 0
    outer loop
      vertex 22.5615 3 125.027
      vertex 22.5615 0 126.79
      vertex 22.5615 0 125.027
    endloop
  endfacet
  facet normal -0.809017 0 -0.587786
    outer loop
      vertex 25.275 0 125.908
      vertex 24.2385 3 127.335
      vertex 25.275 3 125.908
    endloop
  endfacet
  facet normal -0.809017 -0 -0.587786
    outer loop
      vertex 24.2385 3 127.335
      vertex 25.275 0 125.908
      vertex 24.2385 0 127.335
    endloop
  endfacet
  facet normal -0.809018 0 0.587784
    outer loop
      vertex 24.2385 0 176.298
      vertex 25.275 3 177.725
      vertex 24.2385 3 176.298
    endloop
  endfacet
  facet normal -0.809018 0 0.587784
    outer loop
      vertex 25.275 3 177.725
      vertex 24.2385 0 176.298
      vertex 25.275 0 177.725
    endloop
  endfacet
  facet normal 0.309017 0 0.951057
    outer loop
      vertex 22.5615 3 176.843
      vertex 24.2385 0 176.298
      vertex 24.2385 3 176.298
    endloop
  endfacet
  facet normal 0.309017 0 0.951057
    outer loop
      vertex 24.2385 0 176.298
      vertex 22.5615 3 176.843
      vertex 22.5615 0 176.843
    endloop
  endfacet
  facet normal -2.84329e-007 -1 -8.75085e-007
    outer loop
      vertex 25.275 3 177.725
      vertex 24.2385 3 179.152
      vertex 22.5615 3 178.607
    endloop
  endfacet
  facet normal 0.309017 0 -0.951057
    outer loop
      vertex 22.5615 0 178.607
      vertex 24.2385 3 179.152
      vertex 24.2385 0 179.152
    endloop
  endfacet
  facet normal 0.309017 0 -0.951057
    outer loop
      vertex 24.2385 3 179.152
      vertex 22.5615 0 178.607
      vertex 22.5615 3 178.607
    endloop
  endfacet
  facet normal 1 -0 0
    outer loop
      vertex 22.5615 0 178.607
      vertex 22.5615 3 176.843
      vertex 22.5615 3 178.607
    endloop
  endfacet
  facet normal 1 0 0
    outer loop
      vertex 22.5615 3 176.843
      vertex 22.5615 0 178.607
      vertex 22.5615 0 176.843
    endloop
  endfacet
  facet normal -0.809015 0 -0.587788
    outer loop
      vertex 25.275 0 177.725
      vertex 24.2385 3 179.152
      vertex 25.275 3 177.725
    endloop
  endfacet
  facet normal -0.809015 -0 -0.587788
    outer loop
      vertex 24.2385 3 179.152
      vertex 25.275 0 177.725
      vertex 24.2385 0 179.152
    endloop
  endfacet
  facet normal 0 0 -1
    outer loop
      vertex 3 -47.55 0
      vertex 0 -44.55 0
      vertex 3 0 0
    endloop
  endfacet
  facet normal 0 0 -1
    outer loop
      vertex -44.55 -47.55 0
      vertex 0 -44.55 0
      vertex 3 -47.55 0
    endloop
  endfacet
  facet normal -0 0 -1
    outer loop
      vertex 0 -44.55 0
      vertex -44.55 -47.55 0
      vertex -44.55 -44.55 0
    endloop
  endfacet
  facet normal 0 0 -1
    outer loop
      vertex 3 0 0
      vertex 47.55 3 0
      vertex 47.55 0 0
    endloop
  endfacet
  facet normal 0 0 -1
    outer loop
      vertex 3 0 0
      vertex 0 3 0
      vertex 47.55 3 0
    endloop
  endfacet
  facet normal 0 0 -1
    outer loop
      vertex 0 3 0
      vertex 3 0 0
      vertex 0 -44.55 0
    endloop
  endfacet
  facet normal 0 0 1
    outer loop
      vertex 47.55 3 200
      vertex 3 0 200
      vertex 47.55 0 200
    endloop
  endfacet
  facet normal -0 0 1
    outer loop
      vertex 0 3 200
      vertex 3 0 200
      vertex 47.55 3 200
    endloop
  endfacet
  facet normal 0 0 1
    outer loop
      vertex 0 -44.55 200
      vertex 3 0 200
      vertex 0 3 200
    endloop
  endfacet
  facet normal 0 0 1
    outer loop
      vertex 3 0 200
      vertex 0 -44.55 200
      vertex 3 -47.55 200
    endloop
  endfacet
  facet normal 0 0 1
    outer loop
      vertex -44.55 -47.55 200
      vertex 0 -44.55 200
      vertex -44.55 -44.55 200
    endloop
  endfacet
  facet normal 0 0 1
    outer loop
      vertex 0 -44.55 200
      vertex -44.55 -47.55 200
      vertex 3 -47.55 200
    endloop
  endfacet
  facet normal -1 0 0
    outer loop
      vertex -44.55 -47.55 0
      vertex -44.55 -44.55 200
      vertex -44.55 -44.55 0
    endloop
  endfacet
  facet normal -1 -0 0
    outer loop
      vertex -44.55 -44.55 200
      vertex -44.55 -47.55 0
      vertex -44.55 -47.55 200
    endloop
  endfacet
  facet normal 0 -1 0
    outer loop
      vertex -44.55 -47.55 0
      vertex 3 -47.55 200
      vertex -44.55 -47.55 200
    endloop
  endfacet
  facet normal 0 -1 -0
    outer loop
      vertex 3 -47.55 200
      vertex -44.55 -47.55 0
      vertex 3 -47.55 0
    endloop
  endfacet
  facet normal 1 -0 0
    outer loop
      vertex 3 -47.55 200
      vertex 3 0 0
      vertex 3 0 200
    endloop
  endfacet
  facet normal 1 0 0
    outer loop
      vertex 3 0 0
      vertex 3 -47.55 200
      vertex 3 -47.55 0
    endloop
  endfacet
  facet normal 1 -0 0
    outer loop
      vertex 47.55 0 200
      vertex 47.55 3 0
      vertex 47.55 3 200
    endloop
  endfacet
  facet normal 1 0 0
    outer loop
      vertex 47.55 3 0
      vertex 47.55 0 200
      vertex 47.55 0 0
    endloop
  endfacet
  facet normal -1 0 0
    outer loop
      vertex 0 -44.55 0
      vertex 0 3 200
      vertex 0 3 0
    endloop
  endfacet
  facet normal -1 -0 0
    outer loop
      vertex 0 3 200
      vertex 0 -44.55 0
      vertex 0 -44.55 200
    endloop
  endfacet
  facet normal 0 1 -0
    outer loop
      vertex 0 -44.55 0
      vertex -44.55 -44.55 200
      vertex 0 -44.55 200
    endloop
  endfacet
  facet normal 0 1 0
    outer loop
      vertex -44.55 -44.55 200
      vertex 0 -44.55 0
      vertex -44.55 -44.55 0
    endloop
  endfacet
endsolid OpenSCAD_Model
