solid OpenSCAD_Model
  facet normal -0.809017 -0.587785 0
    outer loop
      vertex -10.75 0 25
      vertex -11.441 0.951056 28
      vertex -11.441 0.951056 25
    endloop
  endfacet
  facet normal -0.809017 -0.587785 0
    outer loop
      vertex -11.441 0.951056 28
      vertex -10.75 0 25
      vertex -10.75 0 28
    endloop
  endfacet
  facet normal 1 -0 0
    outer loop
      vertex -12.559 -0.587785 28
      vertex -12.559 0.587785 25
      vertex -12.559 0.587785 28
    endloop
  endfacet
  facet normal 1 0 0
    outer loop
      vertex -12.559 0.587785 25
      vertex -12.559 -0.587785 28
      vertex -12.559 -0.587785 25
    endloop
  endfacet
  facet normal 0.309017 -0.951056 0
    outer loop
      vertex -12.559 0.587785 25
      vertex -11.441 0.951056 28
      vertex -12.559 0.587785 28
    endloop
  endfacet
  facet normal 0.309017 -0.951056 0
    outer loop
      vertex -11.441 0.951056 28
      vertex -12.559 0.587785 25
      vertex -11.441 0.951056 25
    endloop
  endfacet
  facet normal 0.309017 0.951056 -0
    outer loop
      vertex -11.441 -0.951056 25
      vertex -12.559 -0.587785 28
      vertex -11.441 -0.951056 28
    endloop
  endfacet
  facet normal 0.309017 0.951056 0
    outer loop
      vertex -12.559 -0.587785 28
      vertex -11.441 -0.951056 25
      vertex -12.559 -0.587785 25
    endloop
  endfacet
  facet normal -0.809017 0.587785 0
    outer loop
      vertex -11.441 -0.951056 25
      vertex -10.75 0 28
      vertex -10.75 0 25
    endloop
  endfacet
  facet normal -0.809017 0.587785 0
    outer loop
      vertex -10.75 0 28
      vertex -11.441 -0.951056 25
      vertex -11.441 -0.951056 28
    endloop
  endfacet
  facet normal -0.809017 -0.587785 0
    outer loop
      vertex -7.75 0 25
      vertex -8.44098 0.951056 28
      vertex -8.44098 0.951056 25
    endloop
  endfacet
  facet normal -0.809017 -0.587785 0
    outer loop
      vertex -8.44098 0.951056 28
      vertex -7.75 0 25
      vertex -7.75 0 28
    endloop
  endfacet
  facet normal 1 -0 0
    outer loop
      vertex -9.55902 -0.587785 28
      vertex -9.55902 0.587785 25
      vertex -9.55902 0.587785 28
    endloop
  endfacet
  facet normal 1 0 0
    outer loop
      vertex -9.55902 0.587785 25
      vertex -9.55902 -0.587785 28
      vertex -9.55902 -0.587785 25
    endloop
  endfacet
  facet normal 0.309017 -0.951056 0
    outer loop
      vertex -9.55902 0.587785 25
      vertex -8.44098 0.951056 28
      vertex -9.55902 0.587785 28
    endloop
  endfacet
  facet normal 0.309017 -0.951056 0
    outer loop
      vertex -8.44098 0.951056 28
      vertex -9.55902 0.587785 25
      vertex -8.44098 0.951056 25
    endloop
  endfacet
  facet normal 0.309017 0.951056 -0
    outer loop
      vertex -8.44098 -0.951056 25
      vertex -9.55902 -0.587785 28
      vertex -8.44098 -0.951056 28
    endloop
  endfacet
  facet normal 0.309017 0.951056 0
    outer loop
      vertex -9.55902 -0.587785 28
      vertex -8.44098 -0.951056 25
      vertex -9.55902 -0.587785 25
    endloop
  endfacet
  facet normal -0.809017 0.587785 0
    outer loop
      vertex -8.44098 -0.951056 25
      vertex -7.75 0 28
      vertex -7.75 0 25
    endloop
  endfacet
  facet normal -0.809017 0.587785 0
    outer loop
      vertex -7.75 0 28
      vertex -8.44098 -0.951056 25
      vertex -8.44098 -0.951056 28
    endloop
  endfacet
  facet normal -0.809017 -0.587785 0
    outer loop
      vertex -4.75 0 25
      vertex -5.44098 0.951056 28
      vertex -5.44098 0.951056 25
    endloop
  endfacet
  facet normal -0.809017 -0.587785 0
    outer loop
      vertex -5.44098 0.951056 28
      vertex -4.75 0 25
      vertex -4.75 0 28
    endloop
  endfacet
  facet normal 1 -0 0
    outer loop
      vertex -6.55902 -0.587785 28
      vertex -6.55902 0.587785 25
      vertex -6.55902 0.587785 28
    endloop
  endfacet
  facet normal 1 0 0
    outer loop
      vertex -6.55902 0.587785 25
      vertex -6.55902 -0.587785 28
      vertex -6.55902 -0.587785 25
    endloop
  endfacet
  facet normal 0.309017 -0.951056 0
    outer loop
      vertex -6.55902 0.587785 25
      vertex -5.44098 0.951056 28
      vertex -6.55902 0.587785 28
    endloop
  endfacet
  facet normal 0.309017 -0.951056 0
    outer loop
      vertex -5.44098 0.951056 28
      vertex -6.55902 0.587785 25
      vertex -5.44098 0.951056 25
    endloop
  endfacet
  facet normal 0.309017 0.951056 -0
    outer loop
      vertex -5.44098 -0.951056 25
      vertex -6.55902 -0.587785 28
      vertex -5.44098 -0.951056 28
    endloop
  endfacet
  facet normal 0.309017 0.951056 0
    outer loop
      vertex -6.55902 -0.587785 28
      vertex -5.44098 -0.951056 25
      vertex -6.55902 -0.587785 25
    endloop
  endfacet
  facet normal -0.809017 0.587785 0
    outer loop
      vertex -5.44098 -0.951056 25
      vertex -4.75 0 28
      vertex -4.75 0 25
    endloop
  endfacet
  facet normal -0.809017 0.587785 0
    outer loop
      vertex -4.75 0 28
      vertex -5.44098 -0.951056 25
      vertex -5.44098 -0.951056 28
    endloop
  endfacet
  facet normal -0.809017 -0.587785 0
    outer loop
      vertex -1.75 0 25
      vertex -2.44098 0.951056 28
      vertex -2.44098 0.951056 25
    endloop
  endfacet
  facet normal -0.809017 -0.587785 0
    outer loop
      vertex -2.44098 0.951056 28
      vertex -1.75 0 25
      vertex -1.75 0 28
    endloop
  endfacet
  facet normal 1 -0 0
    outer loop
      vertex -3.55902 -0.587785 28
      vertex -3.55902 0.587785 25
      vertex -3.55902 0.587785 28
    endloop
  endfacet
  facet normal 1 0 0
    outer loop
      vertex -3.55902 0.587785 25
      vertex -3.55902 -0.587785 28
      vertex -3.55902 -0.587785 25
    endloop
  endfacet
  facet normal 0.309017 -0.951056 0
    outer loop
      vertex -3.55902 0.587785 25
      vertex -2.44098 0.951056 28
      vertex -3.55902 0.587785 28
    endloop
  endfacet
  facet normal 0.309017 -0.951056 0
    outer loop
      vertex -2.44098 0.951056 28
      vertex -3.55902 0.587785 25
      vertex -2.44098 0.951056 25
    endloop
  endfacet
  facet normal 0.309017 0.951056 -0
    outer loop
      vertex -2.44098 -0.951056 25
      vertex -3.55902 -0.587785 28
      vertex -2.44098 -0.951056 28
    endloop
  endfacet
  facet normal 0.309017 0.951056 0
    outer loop
      vertex -3.55902 -0.587785 28
      vertex -2.44098 -0.951056 25
      vertex -3.55902 -0.587785 25
    endloop
  endfacet
  facet normal -0.809017 0.587785 0
    outer loop
      vertex -2.44098 -0.951056 25
      vertex -1.75 0 28
      vertex -1.75 0 25
    endloop
  endfacet
  facet normal -0.809017 0.587785 0
    outer loop
      vertex -1.75 0 28
      vertex -2.44098 -0.951056 25
      vertex -2.44098 -0.951056 28
    endloop
  endfacet
  facet normal -0.809017 -0.587786 0
    outer loop
      vertex 1.25 0 25
      vertex 0.559016 0.951056 28
      vertex 0.559016 0.951056 25
    endloop
  endfacet
  facet normal -0.809017 -0.587786 0
    outer loop
      vertex 0.559016 0.951056 28
      vertex 1.25 0 25
      vertex 1.25 0 28
    endloop
  endfacet
  facet normal 1 -0 0
    outer loop
      vertex -0.559016 -0.587785 28
      vertex -0.559016 0.587785 25
      vertex -0.559016 0.587785 28
    endloop
  endfacet
  facet normal 1 0 0
    outer loop
      vertex -0.559016 0.587785 25
      vertex -0.559016 -0.587785 28
      vertex -0.559016 -0.587785 25
    endloop
  endfacet
  facet normal 0.309018 -0.951056 0
    outer loop
      vertex -0.559016 0.587785 25
      vertex 0.559016 0.951056 28
      vertex -0.559016 0.587785 28
    endloop
  endfacet
  facet normal 0.309018 -0.951056 0
    outer loop
      vertex 0.559016 0.951056 28
      vertex -0.559016 0.587785 25
      vertex 0.559016 0.951056 25
    endloop
  endfacet
  facet normal -0.809017 0.587786 0
    outer loop
      vertex 0.559016 -0.951056 25
      vertex 1.25 0 28
      vertex 1.25 0 25
    endloop
  endfacet
  facet normal -0.809017 0.587786 0
    outer loop
      vertex 1.25 0 28
      vertex 0.559016 -0.951056 25
      vertex 0.559016 -0.951056 28
    endloop
  endfacet
  facet normal 0.309018 0.951056 -0
    outer loop
      vertex 0.559016 -0.951056 25
      vertex -0.559016 -0.587785 28
      vertex 0.559016 -0.951056 28
    endloop
  endfacet
  facet normal 0.309018 0.951056 0
    outer loop
      vertex -0.559016 -0.587785 28
      vertex 0.559016 -0.951056 25
      vertex -0.559016 -0.587785 25
    endloop
  endfacet
  facet normal -0.809017 -0.587786 0
    outer loop
      vertex 4.25 0 25
      vertex 3.55902 0.951056 28
      vertex 3.55902 0.951056 25
    endloop
  endfacet
  facet normal -0.809017 -0.587786 0
    outer loop
      vertex 3.55902 0.951056 28
      vertex 4.25 0 25
      vertex 4.25 0 28
    endloop
  endfacet
  facet normal 1 -0 0
    outer loop
      vertex 2.44098 -0.587785 28
      vertex 2.44098 0.587785 25
      vertex 2.44098 0.587785 28
    endloop
  endfacet
  facet normal 1 0 0
    outer loop
      vertex 2.44098 0.587785 25
      vertex 2.44098 -0.587785 28
      vertex 2.44098 -0.587785 25
    endloop
  endfacet
  facet normal 0.309017 -0.951056 0
    outer loop
      vertex 2.44098 0.587785 25
      vertex 3.55902 0.951056 28
      vertex 2.44098 0.587785 28
    endloop
  endfacet
  facet normal 0.309017 -0.951056 0
    outer loop
      vertex 3.55902 0.951056 28
      vertex 2.44098 0.587785 25
      vertex 3.55902 0.951056 25
    endloop
  endfacet
  facet normal 0.309017 0.951056 -0
    outer loop
      vertex 3.55902 -0.951056 25
      vertex 2.44098 -0.587785 28
      vertex 3.55902 -0.951056 28
    endloop
  endfacet
  facet normal 0.309017 0.951056 0
    outer loop
      vertex 2.44098 -0.587785 28
      vertex 3.55902 -0.951056 25
      vertex 2.44098 -0.587785 25
    endloop
  endfacet
  facet normal -0.809017 0.587786 0
    outer loop
      vertex 3.55902 -0.951056 25
      vertex 4.25 0 28
      vertex 4.25 0 25
    endloop
  endfacet
  facet normal -0.809017 0.587786 0
    outer loop
      vertex 4.25 0 28
      vertex 3.55902 -0.951056 25
      vertex 3.55902 -0.951056 28
    endloop
  endfacet
  facet normal -0.809017 -0.587786 0
    outer loop
      vertex 7.25 0 25
      vertex 6.55902 0.951056 28
      vertex 6.55902 0.951056 25
    endloop
  endfacet
  facet normal -0.809017 -0.587786 0
    outer loop
      vertex 6.55902 0.951056 28
      vertex 7.25 0 25
      vertex 7.25 0 28
    endloop
  endfacet
  facet normal 1 -0 0
    outer loop
      vertex 5.44098 -0.587785 28
      vertex 5.44098 0.587785 25
      vertex 5.44098 0.587785 28
    endloop
  endfacet
  facet normal 1 0 0
    outer loop
      vertex 5.44098 0.587785 25
      vertex 5.44098 -0.587785 28
      vertex 5.44098 -0.587785 25
    endloop
  endfacet
  facet normal 0.309017 -0.951056 0
    outer loop
      vertex 5.44098 0.587785 25
      vertex 6.55902 0.951056 28
      vertex 5.44098 0.587785 28
    endloop
  endfacet
  facet normal 0.309017 -0.951056 0
    outer loop
      vertex 6.55902 0.951056 28
      vertex 5.44098 0.587785 25
      vertex 6.55902 0.951056 25
    endloop
  endfacet
  facet normal -0.809017 0.587786 0
    outer loop
      vertex 6.55902 -0.951056 25
      vertex 7.25 0 28
      vertex 7.25 0 25
    endloop
  endfacet
  facet normal -0.809017 0.587786 0
    outer loop
      vertex 7.25 0 28
      vertex 6.55902 -0.951056 25
      vertex 6.55902 -0.951056 28
    endloop
  endfacet
  facet normal 0.309017 0.951056 -0
    outer loop
      vertex 6.55902 -0.951056 25
      vertex 5.44098 -0.587785 28
      vertex 6.55902 -0.951056 28
    endloop
  endfacet
  facet normal 0.309017 0.951056 0
    outer loop
      vertex 5.44098 -0.587785 28
      vertex 6.55902 -0.951056 25
      vertex 5.44098 -0.587785 25
    endloop
  endfacet
  facet normal -0.809017 -0.587786 0
    outer loop
      vertex 10.25 0 25
      vertex 9.55902 0.951056 28
      vertex 9.55902 0.951056 25
    endloop
  endfacet
  facet normal -0.809017 -0.587786 0
    outer loop
      vertex 9.55902 0.951056 28
      vertex 10.25 0 25
      vertex 10.25 0 28
    endloop
  endfacet
  facet normal 1 -0 0
    outer loop
      vertex 8.44098 -0.587785 28
      vertex 8.44098 0.587785 25
      vertex 8.44098 0.587785 28
    endloop
  endfacet
  facet normal 1 0 0
    outer loop
      vertex 8.44098 0.587785 25
      vertex 8.44098 -0.587785 28
      vertex 8.44098 -0.587785 25
    endloop
  endfacet
  facet normal 0.309017 -0.951056 0
    outer loop
      vertex 8.44098 0.587785 25
      vertex 9.55902 0.951056 28
      vertex 8.44098 0.587785 28
    endloop
  endfacet
  facet normal 0.309017 -0.951056 0
    outer loop
      vertex 9.55902 0.951056 28
      vertex 8.44098 0.587785 25
      vertex 9.55902 0.951056 25
    endloop
  endfacet
  facet normal 0.309017 0.951056 -0
    outer loop
      vertex 9.55902 -0.951056 25
      vertex 8.44098 -0.587785 28
      vertex 9.55902 -0.951056 28
    endloop
  endfacet
  facet normal 0.309017 0.951056 0
    outer loop
      vertex 8.44098 -0.587785 28
      vertex 9.55902 -0.951056 25
      vertex 8.44098 -0.587785 25
    endloop
  endfacet
  facet normal -0.809017 0.587786 0
    outer loop
      vertex 9.55902 -0.951056 25
      vertex 10.25 0 28
      vertex 10.25 0 25
    endloop
  endfacet
  facet normal -0.809017 0.587786 0
    outer loop
      vertex 10.25 0 28
      vertex 9.55902 -0.951056 25
      vertex 9.55902 -0.951056 28
    endloop
  endfacet
  facet normal -0.809017 -0.587786 0
    outer loop
      vertex 13.25 0 25
      vertex 12.559 0.951056 28
      vertex 12.559 0.951056 25
    endloop
  endfacet
  facet normal -0.809017 -0.587786 0
    outer loop
      vertex 12.559 0.951056 28
      vertex 13.25 0 25
      vertex 13.25 0 28
    endloop
  endfacet
  facet normal 1 -0 0
    outer loop
      vertex 11.441 -0.587785 28
      vertex 11.441 0.587785 25
      vertex 11.441 0.587785 28
    endloop
  endfacet
  facet normal 1 0 0
    outer loop
      vertex 11.441 0.587785 25
      vertex 11.441 -0.587785 28
      vertex 11.441 -0.587785 25
    endloop
  endfacet
  facet normal 0.309017 -0.951056 0
    outer loop
      vertex 11.441 0.587785 25
      vertex 12.559 0.951056 28
      vertex 11.441 0.587785 28
    endloop
  endfacet
  facet normal 0.309017 -0.951056 0
    outer loop
      vertex 12.559 0.951056 28
      vertex 11.441 0.587785 25
      vertex 12.559 0.951056 25
    endloop
  endfacet
  facet normal 0.309017 0.951056 -0
    outer loop
      vertex 12.559 -0.951056 25
      vertex 11.441 -0.587785 28
      vertex 12.559 -0.951056 28
    endloop
  endfacet
  facet normal 0.309017 0.951056 0
    outer loop
      vertex 11.441 -0.587785 28
      vertex 12.559 -0.951056 25
      vertex 11.441 -0.587785 25
    endloop
  endfacet
  facet normal -0.809017 0.587786 0
    outer loop
      vertex 12.559 -0.951056 25
      vertex 13.25 0 28
      vertex 13.25 0 25
    endloop
  endfacet
  facet normal -0.809017 0.587786 0
    outer loop
      vertex 13.25 0 28
      vertex 12.559 -0.951056 25
      vertex 12.559 -0.951056 28
    endloop
  endfacet
  facet normal -1 0 0
    outer loop
      vertex -25 -50 0
      vertex -25 50 30
      vertex -25 50 0
    endloop
  endfacet
  facet normal -1 -0 0
    outer loop
      vertex -25 50 30
      vertex -25 -50 0
      vertex -25 -50 30
    endloop
  endfacet
  facet normal -0 0 1
    outer loop
      vertex -18.2322 -43.2322 30
      vertex -14 -50 30
      vertex -18.2322 43.2322 30
    endloop
  endfacet
  facet normal 0 0 1
    outer loop
      vertex -14 -50 30
      vertex -18.2322 -43.2322 30
      vertex -17.5 -45 30
    endloop
  endfacet
  facet normal -0 0 1
    outer loop
      vertex -20 42.5 30
      vertex -18.2322 -43.2322 30
      vertex -18.2322 43.2322 30
    endloop
  endfacet
  facet normal 0 0 1
    outer loop
      vertex -20 42.5 30
      vertex -20 -42.5 30
      vertex -18.2322 -43.2322 30
    endloop
  endfacet
  facet normal 0 0 1
    outer loop
      vertex -21.7678 43.2322 30
      vertex -20 -42.5 30
      vertex -20 42.5 30
    endloop
  endfacet
  facet normal 0 0 1
    outer loop
      vertex -21.7678 43.2322 30
      vertex -21.7678 -43.2322 30
      vertex -20 -42.5 30
    endloop
  endfacet
  facet normal 0 0 1
    outer loop
      vertex -25 50 30
      vertex -21.7678 43.2322 30
      vertex -22.5 45 30
    endloop
  endfacet
  facet normal 0 0 1
    outer loop
      vertex -21.7678 43.2322 30
      vertex -25 50 30
      vertex -21.7678 -43.2322 30
    endloop
  endfacet
  facet normal 0 0 1
    outer loop
      vertex -18.2322 43.2322 30
      vertex -14 50 30
      vertex -17.5 45 30
    endloop
  endfacet
  facet normal 0 0 1
    outer loop
      vertex -14 50 30
      vertex -18.2322 46.7678 30
      vertex -17.5 45 30
    endloop
  endfacet
  facet normal 0 0 1
    outer loop
      vertex -14 50 30
      vertex -20 47.5 30
      vertex -18.2322 46.7678 30
    endloop
  endfacet
  facet normal -0 0 1
    outer loop
      vertex -25 50 30
      vertex -20 47.5 30
      vertex -14 50 30
    endloop
  endfacet
  facet normal 0 0 1
    outer loop
      vertex -25 -50 30
      vertex -21.7678 -43.2322 30
      vertex -25 50 30
    endloop
  endfacet
  facet normal 0 0 1
    outer loop
      vertex -21.7678 46.7678 30
      vertex -25 50 30
      vertex -22.5 45 30
    endloop
  endfacet
  facet normal 0 0 1
    outer loop
      vertex -20 47.5 30
      vertex -25 50 30
      vertex -21.7678 46.7678 30
    endloop
  endfacet
  facet normal 0 0 1
    outer loop
      vertex -14 50 30
      vertex -18.2322 43.2322 30
      vertex -14 -50 30
    endloop
  endfacet
  facet normal -0 0 1
    outer loop
      vertex -18.2322 -46.7678 30
      vertex -14 -50 30
      vertex -17.5 -45 30
    endloop
  endfacet
  facet normal -0 0 1
    outer loop
      vertex -20 -47.5 30
      vertex -14 -50 30
      vertex -18.2322 -46.7678 30
    endloop
  endfacet
  facet normal 0 0 1
    outer loop
      vertex -25 -50 30
      vertex -20 -47.5 30
      vertex -21.7678 -46.7678 30
    endloop
  endfacet
  facet normal 0 0 1
    outer loop
      vertex -20 -47.5 30
      vertex -25 -50 30
      vertex -14 -50 30
    endloop
  endfacet
  facet normal 0 0 1
    outer loop
      vertex -22.5 -45 30
      vertex -25 -50 30
      vertex -21.7678 -46.7678 30
    endloop
  endfacet
  facet normal 0 0 1
    outer loop
      vertex -21.7678 -43.2322 30
      vertex -25 -50 30
      vertex -22.5 -45 30
    endloop
  endfacet
  facet normal -0 0 1
    outer loop
      vertex 21.7678 -43.2322 30
      vertex 25 -50 30
      vertex 21.7678 43.2322 30
    endloop
  endfacet
  facet normal 0 0 1
    outer loop
      vertex 25 -50 30
      vertex 21.7678 -43.2322 30
      vertex 22.5 -45 30
    endloop
  endfacet
  facet normal -0 0 1
    outer loop
      vertex 20 42.5 30
      vertex 21.7678 -43.2322 30
      vertex 21.7678 43.2322 30
    endloop
  endfacet
  facet normal 0 0 1
    outer loop
      vertex 20 42.5 30
      vertex 20 -42.5 30
      vertex 21.7678 -43.2322 30
    endloop
  endfacet
  facet normal 0 0 1
    outer loop
      vertex 18.2322 43.2322 30
      vertex 20 -42.5 30
      vertex 20 42.5 30
    endloop
  endfacet
  facet normal 0 0 1
    outer loop
      vertex 18.2322 43.2322 30
      vertex 18.2322 -43.2322 30
      vertex 20 -42.5 30
    endloop
  endfacet
  facet normal 0 0 1
    outer loop
      vertex 14 50 30
      vertex 18.2322 43.2322 30
      vertex 17.5 45 30
    endloop
  endfacet
  facet normal 0 0 1
    outer loop
      vertex 18.2322 43.2322 30
      vertex 14 50 30
      vertex 18.2322 -43.2322 30
    endloop
  endfacet
  facet normal 0 0 1
    outer loop
      vertex 21.7678 43.2322 30
      vertex 25 50 30
      vertex 22.5 45 30
    endloop
  endfacet
  facet normal 0 0 1
    outer loop
      vertex 25 50 30
      vertex 21.7678 46.7678 30
      vertex 22.5 45 30
    endloop
  endfacet
  facet normal 0 0 1
    outer loop
      vertex 25 50 30
      vertex 20 47.5 30
      vertex 21.7678 46.7678 30
    endloop
  endfacet
  facet normal -0 0 1
    outer loop
      vertex 14 50 30
      vertex 20 47.5 30
      vertex 25 50 30
    endloop
  endfacet
  facet normal 0 0 1
    outer loop
      vertex 14 -50 30
      vertex 18.2322 -43.2322 30
      vertex 14 50 30
    endloop
  endfacet
  facet normal 0 0 1
    outer loop
      vertex 18.2322 46.7678 30
      vertex 14 50 30
      vertex 17.5 45 30
    endloop
  endfacet
  facet normal 0 0 1
    outer loop
      vertex 20 47.5 30
      vertex 14 50 30
      vertex 18.2322 46.7678 30
    endloop
  endfacet
  facet normal 0 0 1
    outer loop
      vertex 25 50 30
      vertex 21.7678 43.2322 30
      vertex 25 -50 30
    endloop
  endfacet
  facet normal -0 0 1
    outer loop
      vertex 21.7678 -46.7678 30
      vertex 25 -50 30
      vertex 22.5 -45 30
    endloop
  endfacet
  facet normal -0 0 1
    outer loop
      vertex 20 -47.5 30
      vertex 25 -50 30
      vertex 21.7678 -46.7678 30
    endloop
  endfacet
  facet normal 0 0 1
    outer loop
      vertex 14 -50 30
      vertex 20 -47.5 30
      vertex 18.2322 -46.7678 30
    endloop
  endfacet
  facet normal 0 0 1
    outer loop
      vertex 20 -47.5 30
      vertex 14 -50 30
      vertex 25 -50 30
    endloop
  endfacet
  facet normal 0 0 1
    outer loop
      vertex 17.5 -45 30
      vertex 14 -50 30
      vertex 18.2322 -46.7678 30
    endloop
  endfacet
  facet normal 0 0 1
    outer loop
      vertex 18.2322 -43.2322 30
      vertex 14 -50 30
      vertex 17.5 -45 30
    endloop
  endfacet
  facet normal 1 -0 0
    outer loop
      vertex 25 -50 30
      vertex 25 50 0
      vertex 25 50 30
    endloop
  endfacet
  facet normal 1 0 0
    outer loop
      vertex 25 50 0
      vertex 25 -50 30
      vertex 25 -50 0
    endloop
  endfacet
  facet normal 0 1 0
    outer loop
      vertex 25 50 30
      vertex 14 50 28
      vertex 14 50 30
    endloop
  endfacet
  facet normal 0 1 0
    outer loop
      vertex 14 50 28
      vertex 25 50 0
      vertex -14 50 28
    endloop
  endfacet
  facet normal 0 1 -0
    outer loop
      vertex 25 50 0
      vertex 14 50 28
      vertex 25 50 30
    endloop
  endfacet
  facet normal 0 1 -0
    outer loop
      vertex -14 50 28
      vertex -25 50 30
      vertex -14 50 30
    endloop
  endfacet
  facet normal 0 1 0
    outer loop
      vertex -25 50 0
      vertex -14 50 28
      vertex 25 50 0
    endloop
  endfacet
  facet normal 0 1 0
    outer loop
      vertex -14 50 28
      vertex -25 50 0
      vertex -25 50 30
    endloop
  endfacet
  facet normal 0 0 -1
    outer loop
      vertex 25 -50 0
      vertex 20 -45 0
      vertex 25 50 0
    endloop
  endfacet
  facet normal 0 0 -1
    outer loop
      vertex 25 -50 0
      vertex -20 -45 0
      vertex 20 -45 0
    endloop
  endfacet
  facet normal -0 0 -1
    outer loop
      vertex -20 -45 0
      vertex -25 -50 0
      vertex -20 45 0
    endloop
  endfacet
  facet normal 0 0 -1
    outer loop
      vertex -25 -50 0
      vertex -20 -45 0
      vertex 25 -50 0
    endloop
  endfacet
  facet normal 0 0 -1
    outer loop
      vertex 20 45 0
      vertex 25 50 0
      vertex 20 -45 0
    endloop
  endfacet
  facet normal 0 0 -1
    outer loop
      vertex -20 45 0
      vertex 25 50 0
      vertex 20 45 0
    endloop
  endfacet
  facet normal 0 0 -1
    outer loop
      vertex -20 45 0
      vertex -25 50 0
      vertex 25 50 0
    endloop
  endfacet
  facet normal 0 0 -1
    outer loop
      vertex -25 50 0
      vertex -20 45 0
      vertex -25 -50 0
    endloop
  endfacet
  facet normal 0 -1 0
    outer loop
      vertex -25 -50 30
      vertex -14 -50 28
      vertex -14 -50 30
    endloop
  endfacet
  facet normal 0 -1 -0
    outer loop
      vertex -14 -50 28
      vertex -25 -50 0
      vertex 14 -50 28
    endloop
  endfacet
  facet normal 0 -1 0
    outer loop
      vertex -25 -50 0
      vertex -14 -50 28
      vertex -25 -50 30
    endloop
  endfacet
  facet normal 0 -1 0
    outer loop
      vertex 14 -50 28
      vertex 25 -50 30
      vertex 14 -50 30
    endloop
  endfacet
  facet normal 0 -1 0
    outer loop
      vertex 25 -50 0
      vertex 14 -50 28
      vertex -25 -50 0
    endloop
  endfacet
  facet normal 0 -1 0
    outer loop
      vertex 14 -50 28
      vertex 25 -50 0
      vertex 25 -50 30
    endloop
  endfacet
  facet normal 1 -0 0
    outer loop
      vertex -14 -50 30
      vertex -14 50 28
      vertex -14 50 30
    endloop
  endfacet
  facet normal 1 0 0
    outer loop
      vertex -14 50 28
      vertex -14 -50 30
      vertex -14 -50 28
    endloop
  endfacet
  facet normal -1 0 0
    outer loop
      vertex 14 -50 28
      vertex 14 50 30
      vertex 14 50 28
    endloop
  endfacet
  facet normal -1 -0 0
    outer loop
      vertex 14 50 30
      vertex 14 -50 28
      vertex 14 -50 30
    endloop
  endfacet
  facet normal 0 0 1
    outer loop
      vertex 14 50 28
      vertex 13.25 0 28
      vertex 14 -50 28
    endloop
  endfacet
  facet normal 0 0 1
    outer loop
      vertex 14 50 28
      vertex 12.559 0.951056 28
      vertex 13.25 0 28
    endloop
  endfacet
  facet normal 0 0 1
    outer loop
      vertex 9.55902 0.951056 28
      vertex 12.559 0.951056 28
      vertex 14 50 28
    endloop
  endfacet
  facet normal 0 0 1
    outer loop
      vertex 11.441 0.587785 28
      vertex 10.25 0 28
      vertex 11.441 -0.587785 28
    endloop
  endfacet
  facet normal 0 0 1
    outer loop
      vertex 12.559 0.951056 28
      vertex 9.55902 0.951056 28
      vertex 11.441 0.587785 28
    endloop
  endfacet
  facet normal 0 0 1
    outer loop
      vertex 11.441 0.587785 28
      vertex 9.55902 0.951056 28
      vertex 10.25 0 28
    endloop
  endfacet
  facet normal 0 0 1
    outer loop
      vertex 6.55902 0.951056 28
      vertex 9.55902 0.951056 28
      vertex 14 50 28
    endloop
  endfacet
  facet normal 0 0 1
    outer loop
      vertex 8.44098 0.587785 28
      vertex 7.25 0 28
      vertex 8.44098 -0.587785 28
    endloop
  endfacet
  facet normal 0 0 1
    outer loop
      vertex 9.55902 0.951056 28
      vertex 6.55902 0.951056 28
      vertex 8.44098 0.587785 28
    endloop
  endfacet
  facet normal 0 0 1
    outer loop
      vertex 8.44098 0.587785 28
      vertex 6.55902 0.951056 28
      vertex 7.25 0 28
    endloop
  endfacet
  facet normal 0 0 1
    outer loop
      vertex 3.55902 0.951056 28
      vertex 6.55902 0.951056 28
      vertex 14 50 28
    endloop
  endfacet
  facet normal 0 0 1
    outer loop
      vertex 5.44098 0.587785 28
      vertex 4.25 0 28
      vertex 5.44098 -0.587785 28
    endloop
  endfacet
  facet normal 0 0 1
    outer loop
      vertex 6.55902 0.951056 28
      vertex 3.55902 0.951056 28
      vertex 5.44098 0.587785 28
    endloop
  endfacet
  facet normal 0 0 1
    outer loop
      vertex 5.44098 0.587785 28
      vertex 3.55902 0.951056 28
      vertex 4.25 0 28
    endloop
  endfacet
  facet normal 0 0 1
    outer loop
      vertex 0.559016 0.951056 28
      vertex 3.55902 0.951056 28
      vertex 14 50 28
    endloop
  endfacet
  facet normal 0 0 1
    outer loop
      vertex 2.44098 0.587785 28
      vertex 1.25 0 28
      vertex 2.44098 -0.587785 28
    endloop
  endfacet
  facet normal 0 0 1
    outer loop
      vertex 3.55902 0.951056 28
      vertex 0.559016 0.951056 28
      vertex 2.44098 0.587785 28
    endloop
  endfacet
  facet normal 0 0 1
    outer loop
      vertex 2.44098 0.587785 28
      vertex 0.559016 0.951056 28
      vertex 1.25 0 28
    endloop
  endfacet
  facet normal -0 0 1
    outer loop
      vertex -14 50 28
      vertex 0.559016 0.951056 28
      vertex 14 50 28
    endloop
  endfacet
  facet normal 0 0 1
    outer loop
      vertex -0.559016 0.587785 28
      vertex -1.75 0 28
      vertex -0.559016 -0.587785 28
    endloop
  endfacet
  facet normal 0 0 1
    outer loop
      vertex 0.559016 0.951056 28
      vertex -2.44098 0.951056 28
      vertex -0.559016 0.587785 28
    endloop
  endfacet
  facet normal 0 0 1
    outer loop
      vertex -0.559016 0.587785 28
      vertex -2.44098 0.951056 28
      vertex -1.75 0 28
    endloop
  endfacet
  facet normal 0 0 1
    outer loop
      vertex 0.559016 0.951056 28
      vertex -14 50 28
      vertex -2.44098 0.951056 28
    endloop
  endfacet
  facet normal 0 0 1
    outer loop
      vertex -3.55902 0.587785 28
      vertex -4.75 0 28
      vertex -3.55902 -0.587785 28
    endloop
  endfacet
  facet normal 0 0 1
    outer loop
      vertex -2.44098 0.951056 28
      vertex -5.44098 0.951056 28
      vertex -3.55902 0.587785 28
    endloop
  endfacet
  facet normal 0 0 1
    outer loop
      vertex -3.55902 0.587785 28
      vertex -5.44098 0.951056 28
      vertex -4.75 0 28
    endloop
  endfacet
  facet normal 0 0 1
    outer loop
      vertex -2.44098 0.951056 28
      vertex -14 50 28
      vertex -5.44098 0.951056 28
    endloop
  endfacet
  facet normal 0 0 1
    outer loop
      vertex -6.55902 0.587785 28
      vertex -7.75 0 28
      vertex -6.55902 -0.587785 28
    endloop
  endfacet
  facet normal 0 -0 1
    outer loop
      vertex -8.44098 0.951056 28
      vertex -5.44098 0.951056 28
      vertex -14 50 28
    endloop
  endfacet
  facet normal 0 0 1
    outer loop
      vertex -6.55902 0.587785 28
      vertex -8.44098 0.951056 28
      vertex -7.75 0 28
    endloop
  endfacet
  facet normal 0 0 1
    outer loop
      vertex -5.44098 0.951056 28
      vertex -8.44098 0.951056 28
      vertex -6.55902 0.587785 28
    endloop
  endfacet
  facet normal 0 0 1
    outer loop
      vertex -9.55902 0.587785 28
      vertex -10.75 0 28
      vertex -9.55902 -0.587785 28
    endloop
  endfacet
  facet normal 0 -0 1
    outer loop
      vertex -11.441 0.951056 28
      vertex -8.44098 0.951056 28
      vertex -14 50 28
    endloop
  endfacet
  facet normal 0 0 1
    outer loop
      vertex -9.55902 0.587785 28
      vertex -11.441 0.951056 28
      vertex -10.75 0 28
    endloop
  endfacet
  facet normal 0 0 1
    outer loop
      vertex -8.44098 0.951056 28
      vertex -11.441 0.951056 28
      vertex -9.55902 0.587785 28
    endloop
  endfacet
  facet normal 0 0 1
    outer loop
      vertex -12.559 0.587785 28
      vertex -14 50 28
      vertex -12.559 -0.587785 28
    endloop
  endfacet
  facet normal 0 0 1
    outer loop
      vertex -11.441 0.951056 28
      vertex -14 50 28
      vertex -12.559 0.587785 28
    endloop
  endfacet
  facet normal -0 0 1
    outer loop
      vertex 12.559 -0.951056 28
      vertex 14 -50 28
      vertex 13.25 0 28
    endloop
  endfacet
  facet normal 0 0 1
    outer loop
      vertex 9.55902 -0.951056 28
      vertex 12.559 -0.951056 28
      vertex 11.441 -0.587785 28
    endloop
  endfacet
  facet normal 0 0 1
    outer loop
      vertex 9.55902 -0.951056 28
      vertex 11.441 -0.587785 28
      vertex 10.25 0 28
    endloop
  endfacet
  facet normal 0 0 1
    outer loop
      vertex 12.559 -0.951056 28
      vertex 9.55902 -0.951056 28
      vertex 14 -50 28
    endloop
  endfacet
  facet normal 0 0 1
    outer loop
      vertex 6.55902 -0.951056 28
      vertex 9.55902 -0.951056 28
      vertex 8.44098 -0.587785 28
    endloop
  endfacet
  facet normal 0 0 1
    outer loop
      vertex 6.55902 -0.951056 28
      vertex 8.44098 -0.587785 28
      vertex 7.25 0 28
    endloop
  endfacet
  facet normal 0 0 1
    outer loop
      vertex 9.55902 -0.951056 28
      vertex 6.55902 -0.951056 28
      vertex 14 -50 28
    endloop
  endfacet
  facet normal 0 0 1
    outer loop
      vertex 3.55902 -0.951056 28
      vertex 6.55902 -0.951056 28
      vertex 5.44098 -0.587785 28
    endloop
  endfacet
  facet normal 0 0 1
    outer loop
      vertex 3.55902 -0.951056 28
      vertex 5.44098 -0.587785 28
      vertex 4.25 0 28
    endloop
  endfacet
  facet normal 0 0 1
    outer loop
      vertex 6.55902 -0.951056 28
      vertex 3.55902 -0.951056 28
      vertex 14 -50 28
    endloop
  endfacet
  facet normal 0 0 1
    outer loop
      vertex 0.559016 -0.951056 28
      vertex 3.55902 -0.951056 28
      vertex 2.44098 -0.587785 28
    endloop
  endfacet
  facet normal 0 0 1
    outer loop
      vertex 0.559016 -0.951056 28
      vertex 2.44098 -0.587785 28
      vertex 1.25 0 28
    endloop
  endfacet
  facet normal 0 0 1
    outer loop
      vertex 3.55902 -0.951056 28
      vertex 0.559016 -0.951056 28
      vertex 14 -50 28
    endloop
  endfacet
  facet normal 0 0 1
    outer loop
      vertex -2.44098 -0.951056 28
      vertex 0.559016 -0.951056 28
      vertex -0.559016 -0.587785 28
    endloop
  endfacet
  facet normal 0 0 1
    outer loop
      vertex -2.44098 -0.951056 28
      vertex -0.559016 -0.587785 28
      vertex -1.75 0 28
    endloop
  endfacet
  facet normal 0 0 1
    outer loop
      vertex -14 -50 28
      vertex 0.559016 -0.951056 28
      vertex -2.44098 -0.951056 28
    endloop
  endfacet
  facet normal 0 0 1
    outer loop
      vertex -5.44098 -0.951056 28
      vertex -2.44098 -0.951056 28
      vertex -3.55902 -0.587785 28
    endloop
  endfacet
  facet normal 0 0 1
    outer loop
      vertex -5.44098 -0.951056 28
      vertex -3.55902 -0.587785 28
      vertex -4.75 0 28
    endloop
  endfacet
  facet normal 0 0 1
    outer loop
      vertex -14 -50 28
      vertex -2.44098 -0.951056 28
      vertex -5.44098 -0.951056 28
    endloop
  endfacet
  facet normal 0 0 1
    outer loop
      vertex -8.44098 -0.951056 28
      vertex -5.44098 -0.951056 28
      vertex -6.55902 -0.587785 28
    endloop
  endfacet
  facet normal 0 0 1
    outer loop
      vertex -8.44098 -0.951056 28
      vertex -6.55902 -0.587785 28
      vertex -7.75 0 28
    endloop
  endfacet
  facet normal 0 0 1
    outer loop
      vertex -5.44098 -0.951056 28
      vertex -8.44098 -0.951056 28
      vertex -14 -50 28
    endloop
  endfacet
  facet normal 0 0 1
    outer loop
      vertex -11.441 -0.951056 28
      vertex -8.44098 -0.951056 28
      vertex -9.55902 -0.587785 28
    endloop
  endfacet
  facet normal 0 0 1
    outer loop
      vertex -11.441 -0.951056 28
      vertex -9.55902 -0.587785 28
      vertex -10.75 0 28
    endloop
  endfacet
  facet normal 0 0 1
    outer loop
      vertex -8.44098 -0.951056 28
      vertex -11.441 -0.951056 28
      vertex -14 -50 28
    endloop
  endfacet
  facet normal 0 0 1
    outer loop
      vertex -14 -50 28
      vertex -11.441 -0.951056 28
      vertex -12.559 -0.587785 28
    endloop
  endfacet
  facet normal 0 0 1
    outer loop
      vertex 0.559016 -0.951056 28
      vertex -14 -50 28
      vertex 14 -50 28
    endloop
  endfacet
  facet normal 0 0 1
    outer loop
      vertex -14 -50 28
      vertex -12.559 -0.587785 28
      vertex -14 50 28
    endloop
  endfacet
  facet normal 1 -0 0
    outer loop
      vertex -20 -45 25
      vertex -20 45 0
      vertex -20 45 25
    endloop
  endfacet
  facet normal 1 0 0
    outer loop
      vertex -20 45 0
      vertex -20 -45 25
      vertex -20 -45 0
    endloop
  endfacet
  facet normal 0 0 -1
    outer loop
      vertex 20 -45 25
      vertex 13.25 0 25
      vertex 20 45 25
    endloop
  endfacet
  facet normal 0 0 -1
    outer loop
      vertex 20 -45 25
      vertex 12.559 -0.951056 25
      vertex 13.25 0 25
    endloop
  endfacet
  facet normal 0 0 -1
    outer loop
      vertex 9.55902 -0.951056 25
      vertex 12.559 -0.951056 25
      vertex 20 -45 25
    endloop
  endfacet
  facet normal 0 0 -1
    outer loop
      vertex 11.441 -0.587785 25
      vertex 10.25 0 25
      vertex 11.441 0.587785 25
    endloop
  endfacet
  facet normal 0 0 -1
    outer loop
      vertex 12.559 -0.951056 25
      vertex 9.55902 -0.951056 25
      vertex 11.441 -0.587785 25
    endloop
  endfacet
  facet normal -0 0 -1
    outer loop
      vertex 11.441 -0.587785 25
      vertex 9.55902 -0.951056 25
      vertex 10.25 0 25
    endloop
  endfacet
  facet normal 0 0 -1
    outer loop
      vertex 6.55902 -0.951056 25
      vertex 9.55902 -0.951056 25
      vertex 20 -45 25
    endloop
  endfacet
  facet normal 0 0 -1
    outer loop
      vertex 8.44098 -0.587785 25
      vertex 7.25 0 25
      vertex 8.44098 0.587785 25
    endloop
  endfacet
  facet normal 0 0 -1
    outer loop
      vertex 9.55902 -0.951056 25
      vertex 6.55902 -0.951056 25
      vertex 8.44098 -0.587785 25
    endloop
  endfacet
  facet normal -0 0 -1
    outer loop
      vertex 8.44098 -0.587785 25
      vertex 6.55902 -0.951056 25
      vertex 7.25 0 25
    endloop
  endfacet
  facet normal 0 0 -1
    outer loop
      vertex 3.55902 -0.951056 25
      vertex 6.55902 -0.951056 25
      vertex 20 -45 25
    endloop
  endfacet
  facet normal 0 0 -1
    outer loop
      vertex 5.44098 -0.587785 25
      vertex 4.25 0 25
      vertex 5.44098 0.587785 25
    endloop
  endfacet
  facet normal 0 0 -1
    outer loop
      vertex 6.55902 -0.951056 25
      vertex 3.55902 -0.951056 25
      vertex 5.44098 -0.587785 25
    endloop
  endfacet
  facet normal -0 0 -1
    outer loop
      vertex 5.44098 -0.587785 25
      vertex 3.55902 -0.951056 25
      vertex 4.25 0 25
    endloop
  endfacet
  facet normal 0 0 -1
    outer loop
      vertex 0.559016 -0.951056 25
      vertex 3.55902 -0.951056 25
      vertex 20 -45 25
    endloop
  endfacet
  facet normal 0 0 -1
    outer loop
      vertex 2.44098 -0.587785 25
      vertex 1.25 0 25
      vertex 2.44098 0.587785 25
    endloop
  endfacet
  facet normal 0 0 -1
    outer loop
      vertex 3.55902 -0.951056 25
      vertex 0.559016 -0.951056 25
      vertex 2.44098 -0.587785 25
    endloop
  endfacet
  facet normal -0 0 -1
    outer loop
      vertex 2.44098 -0.587785 25
      vertex 0.559016 -0.951056 25
      vertex 1.25 0 25
    endloop
  endfacet
  facet normal 0 0 -1
    outer loop
      vertex -20 -45 25
      vertex 0.559016 -0.951056 25
      vertex 20 -45 25
    endloop
  endfacet
  facet normal 0 0 -1
    outer loop
      vertex -0.559016 -0.587785 25
      vertex -1.75 0 25
      vertex -0.559016 0.587785 25
    endloop
  endfacet
  facet normal 0 0 -1
    outer loop
      vertex 0.559016 -0.951056 25
      vertex -2.44098 -0.951056 25
      vertex -0.559016 -0.587785 25
    endloop
  endfacet
  facet normal -0 0 -1
    outer loop
      vertex -0.559016 -0.587785 25
      vertex -2.44098 -0.951056 25
      vertex -1.75 0 25
    endloop
  endfacet
  facet normal -0 0 -1
    outer loop
      vertex 0.559016 -0.951056 25
      vertex -20 -45 25
      vertex -2.44098 -0.951056 25
    endloop
  endfacet
  facet normal 0 0 -1
    outer loop
      vertex -3.55902 -0.587785 25
      vertex -4.75 0 25
      vertex -3.55902 0.587785 25
    endloop
  endfacet
  facet normal 0 0 -1
    outer loop
      vertex -2.44098 -0.951056 25
      vertex -5.44098 -0.951056 25
      vertex -3.55902 -0.587785 25
    endloop
  endfacet
  facet normal -0 0 -1
    outer loop
      vertex -3.55902 -0.587785 25
      vertex -5.44098 -0.951056 25
      vertex -4.75 0 25
    endloop
  endfacet
  facet normal -0 0 -1
    outer loop
      vertex -2.44098 -0.951056 25
      vertex -20 -45 25
      vertex -5.44098 -0.951056 25
    endloop
  endfacet
  facet normal 0 0 -1
    outer loop
      vertex -6.55902 -0.587785 25
      vertex -7.75 0 25
      vertex -6.55902 0.587785 25
    endloop
  endfacet
  facet normal 0 -0 -1
    outer loop
      vertex -8.44098 -0.951056 25
      vertex -5.44098 -0.951056 25
      vertex -20 -45 25
    endloop
  endfacet
  facet normal -0 0 -1
    outer loop
      vertex -6.55902 -0.587785 25
      vertex -8.44098 -0.951056 25
      vertex -7.75 0 25
    endloop
  endfacet
  facet normal 0 0 -1
    outer loop
      vertex -5.44098 -0.951056 25
      vertex -8.44098 -0.951056 25
      vertex -6.55902 -0.587785 25
    endloop
  endfacet
  facet normal 0 0 -1
    outer loop
      vertex -9.55902 -0.587785 25
      vertex -10.75 0 25
      vertex -9.55902 0.587785 25
    endloop
  endfacet
  facet normal 0 -0 -1
    outer loop
      vertex -11.441 -0.951056 25
      vertex -8.44098 -0.951056 25
      vertex -20 -45 25
    endloop
  endfacet
  facet normal -0 0 -1
    outer loop
      vertex -9.55902 -0.587785 25
      vertex -11.441 -0.951056 25
      vertex -10.75 0 25
    endloop
  endfacet
  facet normal 0 0 -1
    outer loop
      vertex -8.44098 -0.951056 25
      vertex -11.441 -0.951056 25
      vertex -9.55902 -0.587785 25
    endloop
  endfacet
  facet normal -0 0 -1
    outer loop
      vertex -12.559 -0.587785 25
      vertex -20 -45 25
      vertex -12.559 0.587785 25
    endloop
  endfacet
  facet normal -0 0 -1
    outer loop
      vertex -11.441 -0.951056 25
      vertex -20 -45 25
      vertex -12.559 -0.587785 25
    endloop
  endfacet
  facet normal 0 0 -1
    outer loop
      vertex 12.559 0.951056 25
      vertex 20 45 25
      vertex 13.25 0 25
    endloop
  endfacet
  facet normal 0 0 -1
    outer loop
      vertex 9.55902 0.951056 25
      vertex 12.559 0.951056 25
      vertex 11.441 0.587785 25
    endloop
  endfacet
  facet normal 0 0 -1
    outer loop
      vertex 9.55902 0.951056 25
      vertex 11.441 0.587785 25
      vertex 10.25 0 25
    endloop
  endfacet
  facet normal 0 0 -1
    outer loop
      vertex 12.559 0.951056 25
      vertex 9.55902 0.951056 25
      vertex 20 45 25
    endloop
  endfacet
  facet normal 0 0 -1
    outer loop
      vertex 6.55902 0.951056 25
      vertex 9.55902 0.951056 25
      vertex 8.44098 0.587785 25
    endloop
  endfacet
  facet normal 0 0 -1
    outer loop
      vertex 6.55902 0.951056 25
      vertex 8.44098 0.587785 25
      vertex 7.25 0 25
    endloop
  endfacet
  facet normal 0 0 -1
    outer loop
      vertex 9.55902 0.951056 25
      vertex 6.55902 0.951056 25
      vertex 20 45 25
    endloop
  endfacet
  facet normal 0 0 -1
    outer loop
      vertex 3.55902 0.951056 25
      vertex 6.55902 0.951056 25
      vertex 5.44098 0.587785 25
    endloop
  endfacet
  facet normal 0 0 -1
    outer loop
      vertex 3.55902 0.951056 25
      vertex 5.44098 0.587785 25
      vertex 4.25 0 25
    endloop
  endfacet
  facet normal 0 0 -1
    outer loop
      vertex 6.55902 0.951056 25
      vertex 3.55902 0.951056 25
      vertex 20 45 25
    endloop
  endfacet
  facet normal 0 0 -1
    outer loop
      vertex 0.559016 0.951056 25
      vertex 3.55902 0.951056 25
      vertex 2.44098 0.587785 25
    endloop
  endfacet
  facet normal 0 0 -1
    outer loop
      vertex 0.559016 0.951056 25
      vertex 2.44098 0.587785 25
      vertex 1.25 0 25
    endloop
  endfacet
  facet normal 0 0 -1
    outer loop
      vertex 3.55902 0.951056 25
      vertex 0.559016 0.951056 25
      vertex 20 45 25
    endloop
  endfacet
  facet normal 0 0 -1
    outer loop
      vertex -2.44098 0.951056 25
      vertex 0.559016 0.951056 25
      vertex -0.559016 0.587785 25
    endloop
  endfacet
  facet normal 0 0 -1
    outer loop
      vertex -2.44098 0.951056 25
      vertex -0.559016 0.587785 25
      vertex -1.75 0 25
    endloop
  endfacet
  facet normal 0 0 -1
    outer loop
      vertex -20 45 25
      vertex 0.559016 0.951056 25
      vertex -2.44098 0.951056 25
    endloop
  endfacet
  facet normal 0 0 -1
    outer loop
      vertex -5.44098 0.951056 25
      vertex -2.44098 0.951056 25
      vertex -3.55902 0.587785 25
    endloop
  endfacet
  facet normal 0 0 -1
    outer loop
      vertex -5.44098 0.951056 25
      vertex -3.55902 0.587785 25
      vertex -4.75 0 25
    endloop
  endfacet
  facet normal 0 0 -1
    outer loop
      vertex -20 45 25
      vertex -2.44098 0.951056 25
      vertex -5.44098 0.951056 25
    endloop
  endfacet
  facet normal 0 0 -1
    outer loop
      vertex -8.44098 0.951056 25
      vertex -5.44098 0.951056 25
      vertex -6.55902 0.587785 25
    endloop
  endfacet
  facet normal 0 0 -1
    outer loop
      vertex -8.44098 0.951056 25
      vertex -6.55902 0.587785 25
      vertex -7.75 0 25
    endloop
  endfacet
  facet normal 0 0 -1
    outer loop
      vertex -5.44098 0.951056 25
      vertex -8.44098 0.951056 25
      vertex -20 45 25
    endloop
  endfacet
  facet normal 0 0 -1
    outer loop
      vertex -11.441 0.951056 25
      vertex -8.44098 0.951056 25
      vertex -9.55902 0.587785 25
    endloop
  endfacet
  facet normal 0 0 -1
    outer loop
      vertex -11.441 0.951056 25
      vertex -9.55902 0.587785 25
      vertex -10.75 0 25
    endloop
  endfacet
  facet normal 0 0 -1
    outer loop
      vertex -8.44098 0.951056 25
      vertex -11.441 0.951056 25
      vertex -20 45 25
    endloop
  endfacet
  facet normal 0 0 -1
    outer loop
      vertex -20 45 25
      vertex -11.441 0.951056 25
      vertex -12.559 0.587785 25
    endloop
  endfacet
  facet normal 0 0 -1
    outer loop
      vertex 0.559016 0.951056 25
      vertex -20 45 25
      vertex 20 45 25
    endloop
  endfacet
  facet normal 0 0 -1
    outer loop
      vertex -20 45 25
      vertex -12.559 0.587785 25
      vertex -20 -45 25
    endloop
  endfacet
  facet normal -1 0 0
    outer loop
      vertex 20 -45 0
      vertex 20 45 25
      vertex 20 45 0
    endloop
  endfacet
  facet normal -1 -0 0
    outer loop
      vertex 20 45 25
      vertex 20 -45 0
      vertex 20 -45 25
    endloop
  endfacet
  facet normal 0 1 -0
    outer loop
      vertex 20 -45 0
      vertex -20 -45 25
      vertex 20 -45 25
    endloop
  endfacet
  facet normal 0 1 0
    outer loop
      vertex -20 -45 25
      vertex 20 -45 0
      vertex -20 -45 0
    endloop
  endfacet
  facet normal 0 -1 0
    outer loop
      vertex -20 45 0
      vertex 20 45 25
      vertex -20 45 25
    endloop
  endfacet
  facet normal 0 -1 -0
    outer loop
      vertex 20 45 25
      vertex -20 45 0
      vertex 20 45 0
    endloop
  endfacet
  facet normal 0.92388 0.382682 0
    outer loop
      vertex -17.5 -45 35
      vertex -18.2322 -43.2322 30
      vertex -18.2322 -43.2322 35
    endloop
  endfacet
  facet normal 0.92388 0.382682 0
    outer loop
      vertex -18.2322 -43.2322 30
      vertex -17.5 -45 35
      vertex -17.5 -45 30
    endloop
  endfacet
  facet normal -0.92388 0.382683 0
    outer loop
      vertex -22.5 -45 30
      vertex -21.7678 -43.2322 35
      vertex -21.7678 -43.2322 30
    endloop
  endfacet
  facet normal -0.92388 0.382683 0
    outer loop
      vertex -21.7678 -43.2322 35
      vertex -22.5 -45 30
      vertex -22.5 -45 35
    endloop
  endfacet
  facet normal 0.382682 -0.92388 0
    outer loop
      vertex -20 -47.5 30
      vertex -18.2322 -46.7678 35
      vertex -20 -47.5 35
    endloop
  endfacet
  facet normal 0.382682 -0.92388 0
    outer loop
      vertex -18.2322 -46.7678 35
      vertex -20 -47.5 30
      vertex -18.2322 -46.7678 30
    endloop
  endfacet
  facet normal -0.382683 0.92388 0
    outer loop
      vertex -20 -42.5 30
      vertex -21.7678 -43.2322 35
      vertex -20 -42.5 35
    endloop
  endfacet
  facet normal -0.382683 0.92388 0
    outer loop
      vertex -21.7678 -43.2322 35
      vertex -20 -42.5 30
      vertex -21.7678 -43.2322 30
    endloop
  endfacet
  facet normal 0.382682 0.92388 -0
    outer loop
      vertex -18.2322 -43.2322 30
      vertex -20 -42.5 35
      vertex -18.2322 -43.2322 35
    endloop
  endfacet
  facet normal 0.382682 0.92388 0
    outer loop
      vertex -20 -42.5 35
      vertex -18.2322 -43.2322 30
      vertex -20 -42.5 30
    endloop
  endfacet
  facet normal 0 0 1
    outer loop
      vertex -18.2322 -43.2322 35
      vertex -18.2322 -46.7678 35
      vertex -17.5 -45 35
    endloop
  endfacet
  facet normal 0 0 1
    outer loop
      vertex -20 -42.5 35
      vertex -18.2322 -46.7678 35
      vertex -18.2322 -43.2322 35
    endloop
  endfacet
  facet normal 0 0 1
    outer loop
      vertex -20 -42.5 35
      vertex -20 -47.5 35
      vertex -18.2322 -46.7678 35
    endloop
  endfacet
  facet normal -0 0 1
    outer loop
      vertex -21.7678 -43.2322 35
      vertex -20 -47.5 35
      vertex -20 -42.5 35
    endloop
  endfacet
  facet normal 0 0 1
    outer loop
      vertex -21.7678 -43.2322 35
      vertex -21.7678 -46.7678 35
      vertex -20 -47.5 35
    endloop
  endfacet
  facet normal 0 -0 1
    outer loop
      vertex -21.7678 -46.7678 35
      vertex -21.7678 -43.2322 35
      vertex -22.5 -45 35
    endloop
  endfacet
  facet normal 0.92388 -0.382682 0
    outer loop
      vertex -18.2322 -46.7678 35
      vertex -17.5 -45 30
      vertex -17.5 -45 35
    endloop
  endfacet
  facet normal 0.92388 -0.382682 0
    outer loop
      vertex -17.5 -45 30
      vertex -18.2322 -46.7678 35
      vertex -18.2322 -46.7678 30
    endloop
  endfacet
  facet normal -0.92388 -0.382683 0
    outer loop
      vertex -21.7678 -46.7678 30
      vertex -22.5 -45 35
      vertex -22.5 -45 30
    endloop
  endfacet
  facet normal -0.92388 -0.382683 0
    outer loop
      vertex -22.5 -45 35
      vertex -21.7678 -46.7678 30
      vertex -21.7678 -46.7678 35
    endloop
  endfacet
  facet normal -0.382683 -0.92388 0
    outer loop
      vertex -21.7678 -46.7678 30
      vertex -20 -47.5 35
      vertex -21.7678 -46.7678 35
    endloop
  endfacet
  facet normal -0.382683 -0.92388 -0
    outer loop
      vertex -20 -47.5 35
      vertex -21.7678 -46.7678 30
      vertex -20 -47.5 30
    endloop
  endfacet
  facet normal 0.92388 0.382683 0
    outer loop
      vertex 22.5 -45 35
      vertex 21.7678 -43.2322 30
      vertex 21.7678 -43.2322 35
    endloop
  endfacet
  facet normal 0.92388 0.382683 0
    outer loop
      vertex 21.7678 -43.2322 30
      vertex 22.5 -45 35
      vertex 22.5 -45 30
    endloop
  endfacet
  facet normal -0.92388 -0.382682 0
    outer loop
      vertex 18.2322 -46.7678 30
      vertex 17.5 -45 35
      vertex 17.5 -45 30
    endloop
  endfacet
  facet normal -0.92388 -0.382682 0
    outer loop
      vertex 17.5 -45 35
      vertex 18.2322 -46.7678 30
      vertex 18.2322 -46.7678 35
    endloop
  endfacet
  facet normal -0.382682 -0.92388 0
    outer loop
      vertex 18.2322 -46.7678 30
      vertex 20 -47.5 35
      vertex 18.2322 -46.7678 35
    endloop
  endfacet
  facet normal -0.382682 -0.92388 -0
    outer loop
      vertex 20 -47.5 35
      vertex 18.2322 -46.7678 30
      vertex 20 -47.5 30
    endloop
  endfacet
  facet normal -0.382682 0.92388 0
    outer loop
      vertex 20 -42.5 30
      vertex 18.2322 -43.2322 35
      vertex 20 -42.5 35
    endloop
  endfacet
  facet normal -0.382682 0.92388 0
    outer loop
      vertex 18.2322 -43.2322 35
      vertex 20 -42.5 30
      vertex 18.2322 -43.2322 30
    endloop
  endfacet
  facet normal 0.382683 0.92388 -0
    outer loop
      vertex 21.7678 -43.2322 30
      vertex 20 -42.5 35
      vertex 21.7678 -43.2322 35
    endloop
  endfacet
  facet normal 0.382683 0.92388 0
    outer loop
      vertex 20 -42.5 35
      vertex 21.7678 -43.2322 30
      vertex 20 -42.5 30
    endloop
  endfacet
  facet normal 0 0 1
    outer loop
      vertex 21.7678 -43.2322 35
      vertex 21.7678 -46.7678 35
      vertex 22.5 -45 35
    endloop
  endfacet
  facet normal 0 0 1
    outer loop
      vertex 20 -42.5 35
      vertex 21.7678 -46.7678 35
      vertex 21.7678 -43.2322 35
    endloop
  endfacet
  facet normal 0 0 1
    outer loop
      vertex 20 -42.5 35
      vertex 20 -47.5 35
      vertex 21.7678 -46.7678 35
    endloop
  endfacet
  facet normal -0 0 1
    outer loop
      vertex 18.2322 -43.2322 35
      vertex 20 -47.5 35
      vertex 20 -42.5 35
    endloop
  endfacet
  facet normal 0 0 1
    outer loop
      vertex 18.2322 -43.2322 35
      vertex 18.2322 -46.7678 35
      vertex 20 -47.5 35
    endloop
  endfacet
  facet normal 0 -0 1
    outer loop
      vertex 18.2322 -46.7678 35
      vertex 18.2322 -43.2322 35
      vertex 17.5 -45 35
    endloop
  endfacet
  facet normal -0.92388 0.382682 0
    outer loop
      vertex 17.5 -45 30
      vertex 18.2322 -43.2322 35
      vertex 18.2322 -43.2322 30
    endloop
  endfacet
  facet normal -0.92388 0.382682 0
    outer loop
      vertex 18.2322 -43.2322 35
      vertex 17.5 -45 30
      vertex 17.5 -45 35
    endloop
  endfacet
  facet normal 0.382683 -0.92388 0
    outer loop
      vertex 20 -47.5 30
      vertex 21.7678 -46.7678 35
      vertex 20 -47.5 35
    endloop
  endfacet
  facet normal 0.382683 -0.92388 0
    outer loop
      vertex 21.7678 -46.7678 35
      vertex 20 -47.5 30
      vertex 21.7678 -46.7678 30
    endloop
  endfacet
  facet normal 0.92388 -0.382683 0
    outer loop
      vertex 21.7678 -46.7678 35
      vertex 22.5 -45 30
      vertex 22.5 -45 35
    endloop
  endfacet
  facet normal 0.92388 -0.382683 0
    outer loop
      vertex 22.5 -45 30
      vertex 21.7678 -46.7678 35
      vertex 21.7678 -46.7678 30
    endloop
  endfacet
  facet normal 0.92388 0.382682 0
    outer loop
      vertex -17.5 45 35
      vertex -18.2322 46.7678 30
      vertex -18.2322 46.7678 35
    endloop
  endfacet
  facet normal 0.92388 0.382682 0
    outer loop
      vertex -18.2322 46.7678 30
      vertex -17.5 45 35
      vertex -17.5 45 30
    endloop
  endfacet
  facet normal -0.92388 0.382683 0
    outer loop
      vertex -22.5 45 30
      vertex -21.7678 46.7678 35
      vertex -21.7678 46.7678 30
    endloop
  endfacet
  facet normal -0.92388 0.382683 0
    outer loop
      vertex -21.7678 46.7678 35
      vertex -22.5 45 30
      vertex -22.5 45 35
    endloop
  endfacet
  facet normal 0.382682 0.92388 -0
    outer loop
      vertex -18.2322 46.7678 30
      vertex -20 47.5 35
      vertex -18.2322 46.7678 35
    endloop
  endfacet
  facet normal 0.382682 0.92388 0
    outer loop
      vertex -20 47.5 35
      vertex -18.2322 46.7678 30
      vertex -20 47.5 30
    endloop
  endfacet
  facet normal 0 0 1
    outer loop
      vertex -18.2322 46.7678 35
      vertex -18.2322 43.2322 35
      vertex -17.5 45 35
    endloop
  endfacet
  facet normal 0 0 1
    outer loop
      vertex -20 47.5 35
      vertex -18.2322 43.2322 35
      vertex -18.2322 46.7678 35
    endloop
  endfacet
  facet normal 0 0 1
    outer loop
      vertex -20 47.5 35
      vertex -20 42.5 35
      vertex -18.2322 43.2322 35
    endloop
  endfacet
  facet normal -0 0 1
    outer loop
      vertex -21.7678 46.7678 35
      vertex -20 42.5 35
      vertex -20 47.5 35
    endloop
  endfacet
  facet normal 0 0 1
    outer loop
      vertex -21.7678 46.7678 35
      vertex -21.7678 43.2322 35
      vertex -20 42.5 35
    endloop
  endfacet
  facet normal 0 -0 1
    outer loop
      vertex -21.7678 43.2322 35
      vertex -21.7678 46.7678 35
      vertex -22.5 45 35
    endloop
  endfacet
  facet normal -0.382683 0.92388 0
    outer loop
      vertex -20 47.5 30
      vertex -21.7678 46.7678 35
      vertex -20 47.5 35
    endloop
  endfacet
  facet normal -0.382683 0.92388 0
    outer loop
      vertex -21.7678 46.7678 35
      vertex -20 47.5 30
      vertex -21.7678 46.7678 30
    endloop
  endfacet
  facet normal 0.92388 -0.382682 0
    outer loop
      vertex -18.2322 43.2322 35
      vertex -17.5 45 30
      vertex -17.5 45 35
    endloop
  endfacet
  facet normal 0.92388 -0.382682 0
    outer loop
      vertex -17.5 45 30
      vertex -18.2322 43.2322 35
      vertex -18.2322 43.2322 30
    endloop
  endfacet
  facet normal 0.382682 -0.92388 0
    outer loop
      vertex -20 42.5 30
      vertex -18.2322 43.2322 35
      vertex -20 42.5 35
    endloop
  endfacet
  facet normal 0.382682 -0.92388 0
    outer loop
      vertex -18.2322 43.2322 35
      vertex -20 42.5 30
      vertex -18.2322 43.2322 30
    endloop
  endfacet
  facet normal -0.382683 -0.92388 0
    outer loop
      vertex -21.7678 43.2322 30
      vertex -20 42.5 35
      vertex -21.7678 43.2322 35
    endloop
  endfacet
  facet normal -0.382683 -0.92388 -0
    outer loop
      vertex -20 42.5 35
      vertex -21.7678 43.2322 30
      vertex -20 42.5 30
    endloop
  endfacet
  facet normal -0.92388 -0.382683 0
    outer loop
      vertex -21.7678 43.2322 30
      vertex -22.5 45 35
      vertex -22.5 45 30
    endloop
  endfacet
  facet normal -0.92388 -0.382683 0
    outer loop
      vertex -22.5 45 35
      vertex -21.7678 43.2322 30
      vertex -21.7678 43.2322 35
    endloop
  endfacet
  facet normal 0.92388 0.382683 0
    outer loop
      vertex 22.5 45 35
      vertex 21.7678 46.7678 30
      vertex 21.7678 46.7678 35
    endloop
  endfacet
  facet normal 0.92388 0.382683 0
    outer loop
      vertex 21.7678 46.7678 30
      vertex 22.5 45 35
      vertex 22.5 45 30
    endloop
  endfacet
  facet normal -0.382682 0.92388 0
    outer loop
      vertex 20 47.5 30
      vertex 18.2322 46.7678 35
      vertex 20 47.5 35
    endloop
  endfacet
  facet normal -0.382682 0.92388 0
    outer loop
      vertex 18.2322 46.7678 35
      vertex 20 47.5 30
      vertex 18.2322 46.7678 30
    endloop
  endfacet
  facet normal 0.382683 0.92388 -0
    outer loop
      vertex 21.7678 46.7678 30
      vertex 20 47.5 35
      vertex 21.7678 46.7678 35
    endloop
  endfacet
  facet normal 0.382683 0.92388 0
    outer loop
      vertex 20 47.5 35
      vertex 21.7678 46.7678 30
      vertex 20 47.5 30
    endloop
  endfacet
  facet normal 0 0 1
    outer loop
      vertex 21.7678 46.7678 35
      vertex 21.7678 43.2322 35
      vertex 22.5 45 35
    endloop
  endfacet
  facet normal 0 0 1
    outer loop
      vertex 20 47.5 35
      vertex 21.7678 43.2322 35
      vertex 21.7678 46.7678 35
    endloop
  endfacet
  facet normal 0 0 1
    outer loop
      vertex 20 47.5 35
      vertex 20 42.5 35
      vertex 21.7678 43.2322 35
    endloop
  endfacet
  facet normal -0 0 1
    outer loop
      vertex 18.2322 46.7678 35
      vertex 20 42.5 35
      vertex 20 47.5 35
    endloop
  endfacet
  facet normal 0 0 1
    outer loop
      vertex 18.2322 46.7678 35
      vertex 18.2322 43.2322 35
      vertex 20 42.5 35
    endloop
  endfacet
  facet normal 0 -0 1
    outer loop
      vertex 18.2322 43.2322 35
      vertex 18.2322 46.7678 35
      vertex 17.5 45 35
    endloop
  endfacet
  facet normal -0.92388 0.382682 0
    outer loop
      vertex 17.5 45 30
      vertex 18.2322 46.7678 35
      vertex 18.2322 46.7678 30
    endloop
  endfacet
  facet normal -0.92388 0.382682 0
    outer loop
      vertex 18.2322 46.7678 35
      vertex 17.5 45 30
      vertex 17.5 45 35
    endloop
  endfacet
  facet normal 0.92388 -0.382683 0
    outer loop
      vertex 21.7678 43.2322 35
      vertex 22.5 45 30
      vertex 22.5 45 35
    endloop
  endfacet
  facet normal 0.92388 -0.382683 0
    outer loop
      vertex 22.5 45 30
      vertex 21.7678 43.2322 35
      vertex 21.7678 43.2322 30
    endloop
  endfacet
  facet normal -0.382682 -0.92388 0
    outer loop
      vertex 18.2322 43.2322 30
      vertex 20 42.5 35
      vertex 18.2322 43.2322 35
    endloop
  endfacet
  facet normal -0.382682 -0.92388 -0
    outer loop
      vertex 20 42.5 35
      vertex 18.2322 43.2322 30
      vertex 20 42.5 30
    endloop
  endfacet
  facet normal -0.92388 -0.382682 0
    outer loop
      vertex 18.2322 43.2322 30
      vertex 17.5 45 35
      vertex 17.5 45 30
    endloop
  endfacet
  facet normal -0.92388 -0.382682 0
    outer loop
      vertex 17.5 45 35
      vertex 18.2322 43.2322 30
      vertex 18.2322 43.2322 35
    endloop
  endfacet
  facet normal 0.382683 -0.92388 0
    outer loop
      vertex 20 42.5 30
      vertex 21.7678 43.2322 35
      vertex 20 42.5 35
    endloop
  endfacet
  facet normal 0.382683 -0.92388 0
    outer loop
      vertex 21.7678 43.2322 35
      vertex 20 42.5 30
      vertex 21.7678 43.2322 30
    endloop
  endfacet
endsolid OpenSCAD_Model
