solid OpenSCAD_Model
  facet normal -0.951056 -0.309017 0
    outer loop
      vertex 12.5 9.5 0
      vertex 11.9271 11.2634 11
      vertex 11.9271 11.2634 0
    endloop
  endfacet
  facet normal -0.951056 -0.309017 0
    outer loop
      vertex 11.9271 11.2634 11
      vertex 12.5 9.5 0
      vertex 12.5 9.5 11
    endloop
  endfacet
  facet normal 0.951056 -0.309017 0
    outer loop
      vertex 6.5 9.5 11
      vertex 7.07295 11.2634 0
      vertex 7.07295 11.2634 11
    endloop
  endfacet
  facet normal 0.951056 -0.309017 0
    outer loop
      vertex 7.07295 11.2634 0
      vertex 6.5 9.5 11
      vertex 6.5 9.5 0
    endloop
  endfacet
  facet normal 0 1 -0
    outer loop
      vertex 10.4271 6.64683 0
      vertex 8.57295 6.64683 11
      vertex 10.4271 6.64683 11
    endloop
  endfacet
  facet normal 0 1 0
    outer loop
      vertex 8.57295 6.64683 11
      vertex 10.4271 6.64683 0
      vertex 8.57295 6.64683 0
    endloop
  endfacet
  facet normal -0.587786 -0.809017 0
    outer loop
      vertex 11.6013 11.5 0
      vertex 11.9271 11.2634 11
      vertex 11.6013 11.5 11
    endloop
  endfacet
  facet normal -0.587786 -0.809017 -0
    outer loop
      vertex 11.9271 11.2634 11
      vertex 11.6013 11.5 0
      vertex 11.9271 11.2634 0
    endloop
  endfacet
  facet normal 0 0 -1
    outer loop
      vertex 11.6013 11.5 11
      vertex 12.5 9.5 11
      vertex 11.9271 7.73664 11
    endloop
  endfacet
  facet normal 0 0 -1
    outer loop
      vertex 12.5 9.5 11
      vertex 11.6013 11.5 11
      vertex 11.9271 11.2634 11
    endloop
  endfacet
  facet normal 0 0 -1
    outer loop
      vertex 10.4271 6.64683 11
      vertex 11.6013 11.5 11
      vertex 11.9271 7.73664 11
    endloop
  endfacet
  facet normal 0 0 -1
    outer loop
      vertex 8.57295 6.64683 11
      vertex 11.6013 11.5 11
      vertex 10.4271 6.64683 11
    endloop
  endfacet
  facet normal 0 0 -1
    outer loop
      vertex 8.57295 6.64683 11
      vertex 7.39866 11.5 11
      vertex 11.6013 11.5 11
    endloop
  endfacet
  facet normal 0 0 -1
    outer loop
      vertex 7.07295 7.73664 11
      vertex 7.39866 11.5 11
      vertex 8.57295 6.64683 11
    endloop
  endfacet
  facet normal 0 0 -1
    outer loop
      vertex 6.5 9.5 11
      vertex 7.39866 11.5 11
      vertex 7.07295 7.73664 11
    endloop
  endfacet
  facet normal 0 0 -1
    outer loop
      vertex 7.39866 11.5 11
      vertex 6.5 9.5 11
      vertex 7.07295 11.2634 11
    endloop
  endfacet
  facet normal 0.587785 -0.809017 0
    outer loop
      vertex 7.07295 11.2634 0
      vertex 7.39866 11.5 11
      vertex 7.07295 11.2634 11
    endloop
  endfacet
  facet normal 0.587785 -0.809017 0
    outer loop
      vertex 7.39866 11.5 11
      vertex 7.07295 11.2634 0
      vertex 7.39866 11.5 0
    endloop
  endfacet
  facet normal 0.951056 0.309017 0
    outer loop
      vertex 7.07295 7.73664 11
      vertex 6.5 9.5 0
      vertex 6.5 9.5 11
    endloop
  endfacet
  facet normal 0.951056 0.309017 0
    outer loop
      vertex 6.5 9.5 0
      vertex 7.07295 7.73664 11
      vertex 7.07295 7.73664 0
    endloop
  endfacet
  facet normal 0 0 -1
    outer loop
      vertex 12.5 9.5 0
      vertex 19 9.5 0
      vertex 18.7924 7.52484 0
    endloop
  endfacet
  facet normal 0 0 -1
    outer loop
      vertex 12.5 9.5 0
      vertex 18.7924 7.52484 0
      vertex 18.1787 5.636 0
    endloop
  endfacet
  facet normal 0 0 -1
    outer loop
      vertex 19 9.5 0
      vertex 12.5 9.5 0
      vertex 18.7924 11.4752 0
    endloop
  endfacet
  facet normal 0 0 -1
    outer loop
      vertex 11.9271 7.73664 0
      vertex 18.1787 5.636 0
      vertex 17.1857 3.91604 0
    endloop
  endfacet
  facet normal -0 0 -1
    outer loop
      vertex 18.7924 11.4752 0
      vertex 12.5 9.5 0
      vertex 18.1787 13.364 0
    endloop
  endfacet
  facet normal 0 0 -1
    outer loop
      vertex 11.9271 7.73664 0
      vertex 17.1857 3.91604 0
      vertex 15.8567 2.44012 0
    endloop
  endfacet
  facet normal 0 0 -1
    outer loop
      vertex 11.9271 11.2634 0
      vertex 18.1787 13.364 0
      vertex 12.5 9.5 0
    endloop
  endfacet
  facet normal 0 0 -1
    outer loop
      vertex 11.9271 7.73664 0
      vertex 15.8567 2.44012 0
      vertex 14.25 1.27276 0
    endloop
  endfacet
  facet normal -0 0 -1
    outer loop
      vertex 18.1787 13.364 0
      vertex 11.9271 11.2634 0
      vertex 17.1857 15.084 0
    endloop
  endfacet
  facet normal -0 0 -1
    outer loop
      vertex 17.1857 15.084 0
      vertex 11.9271 11.2634 0
      vertex 15.8567 16.5599 0
    endloop
  endfacet
  facet normal 0 0 -1
    outer loop
      vertex 10.4271 6.64683 0
      vertex 14.25 1.27276 0
      vertex 12.4357 0.464963 0
    endloop
  endfacet
  facet normal 0 0 -1
    outer loop
      vertex 18.1787 5.636 0
      vertex 11.9271 7.73664 0
      vertex 12.5 9.5 0
    endloop
  endfacet
  facet normal 0 0 -1
    outer loop
      vertex 10.4271 6.64683 0
      vertex 12.4357 0.464963 0
      vertex 10.493 0.0520411 0
    endloop
  endfacet
  facet normal 0 0 -1
    outer loop
      vertex 14.25 1.27276 0
      vertex 10.4271 6.64683 0
      vertex 11.9271 7.73664 0
    endloop
  endfacet
  facet normal 0 0 -1
    outer loop
      vertex 10.493 0.0520411 0
      vertex 8.57295 6.64683 0
      vertex 10.4271 6.64683 0
    endloop
  endfacet
  facet normal 0 0 -1
    outer loop
      vertex 8.50698 0.0520411 0
      vertex 8.57295 6.64683 0
      vertex 10.493 0.0520411 0
    endloop
  endfacet
  facet normal 0 0 -1
    outer loop
      vertex 6.56434 0.464963 0
      vertex 8.57295 6.64683 0
      vertex 8.50698 0.0520411 0
    endloop
  endfacet
  facet normal 0 0 -1
    outer loop
      vertex 4.75 1.27276 0
      vertex 8.57295 6.64683 0
      vertex 6.56434 0.464963 0
    endloop
  endfacet
  facet normal -0 0 -1
    outer loop
      vertex 8.57295 6.64683 0
      vertex 4.75 1.27276 0
      vertex 7.07295 7.73664 0
    endloop
  endfacet
  facet normal 0 0 -1
    outer loop
      vertex 3.14326 2.44012 0
      vertex 7.07295 7.73664 0
      vertex 4.75 1.27276 0
    endloop
  endfacet
  facet normal 0 0 -1
    outer loop
      vertex 1.81434 3.91604 0
      vertex 7.07295 7.73664 0
      vertex 3.14326 2.44012 0
    endloop
  endfacet
  facet normal 0 0 -1
    outer loop
      vertex 0.821318 5.636 0
      vertex 7.07295 7.73664 0
      vertex 1.81434 3.91604 0
    endloop
  endfacet
  facet normal 0 0 -1
    outer loop
      vertex 6.5 9.5 0
      vertex 3.14326 16.5599 0
      vertex 4.75 17.7272 0
    endloop
  endfacet
  facet normal -0 0 -1
    outer loop
      vertex 7.07295 7.73664 0
      vertex 0.821318 5.636 0
      vertex 6.5 9.5 0
    endloop
  endfacet
  facet normal 0 0 -1
    outer loop
      vertex 6.5 9.5 0
      vertex 1.81434 15.084 0
      vertex 3.14326 16.5599 0
    endloop
  endfacet
  facet normal 0 0 -1
    outer loop
      vertex 0.207598 7.52484 0
      vertex 6.5 9.5 0
      vertex 0.821318 5.636 0
    endloop
  endfacet
  facet normal 0 0 -1
    outer loop
      vertex 6.5 9.5 0
      vertex 0.821318 13.364 0
      vertex 1.81434 15.084 0
    endloop
  endfacet
  facet normal 0 0 -1
    outer loop
      vertex 0 9.5 0
      vertex 6.5 9.5 0
      vertex 0.207598 7.52484 0
    endloop
  endfacet
  facet normal 0 0 -1
    outer loop
      vertex 6.5 9.5 0
      vertex 0.207598 11.4752 0
      vertex 0.821318 13.364 0
    endloop
  endfacet
  facet normal 0 0 -1
    outer loop
      vertex 6.5 9.5 0
      vertex 0 9.5 0
      vertex 0.207598 11.4752 0
    endloop
  endfacet
  facet normal 0 0 -1
    outer loop
      vertex 11.6013 11.5 0
      vertex 15.8567 16.5599 0
      vertex 11.9271 11.2634 0
    endloop
  endfacet
  facet normal -0 0 -1
    outer loop
      vertex 15.8567 16.5599 0
      vertex 11.6013 11.5 0
      vertex 14.25 17.7272 0
    endloop
  endfacet
  facet normal -0 0 -1
    outer loop
      vertex 14.25 17.7272 0
      vertex 11.6013 11.5 0
      vertex 12.4357 18.535 0
    endloop
  endfacet
  facet normal 0 0 -1
    outer loop
      vertex 11.6013 11.5 0
      vertex 10.493 18.948 0
      vertex 12.4357 18.535 0
    endloop
  endfacet
  facet normal 0 0 -1
    outer loop
      vertex 11.6013 11.5 0
      vertex 8.50698 18.948 0
      vertex 10.493 18.948 0
    endloop
  endfacet
  facet normal 0 0 -1
    outer loop
      vertex 7.39866 11.5 0
      vertex 8.50698 18.948 0
      vertex 11.6013 11.5 0
    endloop
  endfacet
  facet normal 0 0 -1
    outer loop
      vertex 4.75 17.7272 0
      vertex 7.39866 11.5 0
      vertex 7.07295 11.2634 0
    endloop
  endfacet
  facet normal 0 0 -1
    outer loop
      vertex 7.39866 11.5 0
      vertex 6.56434 18.535 0
      vertex 8.50698 18.948 0
    endloop
  endfacet
  facet normal 0 0 -1
    outer loop
      vertex 4.75 17.7272 0
      vertex 7.07295 11.2634 0
      vertex 6.5 9.5 0
    endloop
  endfacet
  facet normal 0 0 -1
    outer loop
      vertex 7.39866 11.5 0
      vertex 4.75 17.7272 0
      vertex 6.56434 18.535 0
    endloop
  endfacet
  facet normal -0.587785 0.809017 0
    outer loop
      vertex 11.9271 7.73664 0
      vertex 10.4271 6.64683 11
      vertex 11.9271 7.73664 11
    endloop
  endfacet
  facet normal -0.587785 0.809017 0
    outer loop
      vertex 10.4271 6.64683 11
      vertex 11.9271 7.73664 0
      vertex 10.4271 6.64683 0
    endloop
  endfacet
  facet normal 0.587785 0.809017 -0
    outer loop
      vertex 8.57295 6.64683 0
      vertex 7.07295 7.73664 11
      vertex 8.57295 6.64683 11
    endloop
  endfacet
  facet normal 0.587785 0.809017 0
    outer loop
      vertex 7.07295 7.73664 11
      vertex 8.57295 6.64683 0
      vertex 7.07295 7.73664 0
    endloop
  endfacet
  facet normal -0.951056 0.309017 0
    outer loop
      vertex 11.9271 7.73664 0
      vertex 12.5 9.5 11
      vertex 12.5 9.5 0
    endloop
  endfacet
  facet normal -0.951056 0.309017 0
    outer loop
      vertex 12.5 9.5 11
      vertex 11.9271 7.73664 0
      vertex 11.9271 7.73664 11
    endloop
  endfacet
  facet normal 0 -1 0
    outer loop
      vertex 7.39866 11.5 0
      vertex 11.6013 11.5 11
      vertex 7.39866 11.5 11
    endloop
  endfacet
  facet normal 0 -1 -0
    outer loop
      vertex 11.6013 11.5 11
      vertex 7.39866 11.5 0
      vertex 11.6013 11.5 0
    endloop
  endfacet
  facet normal 0.994522 0.104529 0
    outer loop
      vertex 19 9.5 25
      vertex 18.7924 11.4752 0
      vertex 18.7924 11.4752 25
    endloop
  endfacet
  facet normal 0.994522 0.104529 0
    outer loop
      vertex 18.7924 11.4752 0
      vertex 19 9.5 25
      vertex 19 9.5 0
    endloop
  endfacet
  facet normal 0 1 -0
    outer loop
      vertex 10.493 18.948 0
      vertex 8.50698 18.948 25
      vertex 10.493 18.948 25
    endloop
  endfacet
  facet normal 0 1 0
    outer loop
      vertex 8.50698 18.948 25
      vertex 10.493 18.948 0
      vertex 8.50698 18.948 0
    endloop
  endfacet
  facet normal 0.587786 0.809017 -0
    outer loop
      vertex 15.8567 16.5599 0
      vertex 14.25 17.7272 25
      vertex 15.8567 16.5599 25
    endloop
  endfacet
  facet normal 0.587786 0.809017 0
    outer loop
      vertex 14.25 17.7272 25
      vertex 15.8567 16.5599 0
      vertex 14.25 17.7272 0
    endloop
  endfacet
  facet normal -0.743145 0.669131 0
    outer loop
      vertex 1.81434 15.084 0
      vertex 3.14326 16.5599 25
      vertex 3.14326 16.5599 0
    endloop
  endfacet
  facet normal -0.743145 0.669131 0
    outer loop
      vertex 3.14326 16.5599 25
      vertex 1.81434 15.084 0
      vertex 1.81434 15.084 25
    endloop
  endfacet
  facet normal -0.406736 0.913546 0
    outer loop
      vertex 6.56434 18.535 0
      vertex 4.75 17.7272 25
      vertex 6.56434 18.535 25
    endloop
  endfacet
  facet normal -0.406736 0.913546 0
    outer loop
      vertex 4.75 17.7272 25
      vertex 6.56434 18.535 0
      vertex 4.75 17.7272 0
    endloop
  endfacet
  facet normal 0.743145 -0.669131 0
    outer loop
      vertex 15.8567 2.44012 25
      vertex 17.1857 3.91604 0
      vertex 17.1857 3.91604 25
    endloop
  endfacet
  facet normal 0.743145 -0.669131 0
    outer loop
      vertex 17.1857 3.91604 0
      vertex 15.8567 2.44012 25
      vertex 15.8567 2.44012 0
    endloop
  endfacet
  facet normal 0.866026 0.499999 0
    outer loop
      vertex 18.1787 13.364 25
      vertex 17.1857 15.084 0
      vertex 17.1857 15.084 25
    endloop
  endfacet
  facet normal 0.866026 0.499999 0
    outer loop
      vertex 17.1857 15.084 0
      vertex 18.1787 13.364 25
      vertex 18.1787 13.364 0
    endloop
  endfacet
  facet normal 0.951057 0.309017 0
    outer loop
      vertex 18.7924 11.4752 25
      vertex 18.1787 13.364 0
      vertex 18.1787 13.364 25
    endloop
  endfacet
  facet normal 0.951057 0.309017 0
    outer loop
      vertex 18.1787 13.364 0
      vertex 18.7924 11.4752 25
      vertex 18.7924 11.4752 0
    endloop
  endfacet
  facet normal 0.743145 0.669131 0
    outer loop
      vertex 17.1857 15.084 25
      vertex 15.8567 16.5599 0
      vertex 15.8567 16.5599 25
    endloop
  endfacet
  facet normal 0.743145 0.669131 0
    outer loop
      vertex 15.8567 16.5599 0
      vertex 17.1857 15.084 25
      vertex 17.1857 15.084 0
    endloop
  endfacet
  facet normal 0.207912 0.978148 -0
    outer loop
      vertex 12.4357 18.535 0
      vertex 10.493 18.948 25
      vertex 12.4357 18.535 25
    endloop
  endfacet
  facet normal 0.207912 0.978148 0
    outer loop
      vertex 10.493 18.948 25
      vertex 12.4357 18.535 0
      vertex 10.493 18.948 0
    endloop
  endfacet
  facet normal 0.406736 0.913546 -0
    outer loop
      vertex 14.25 17.7272 0
      vertex 12.4357 18.535 25
      vertex 14.25 17.7272 25
    endloop
  endfacet
  facet normal 0.406736 0.913546 0
    outer loop
      vertex 12.4357 18.535 25
      vertex 14.25 17.7272 0
      vertex 12.4357 18.535 0
    endloop
  endfacet
  facet normal -0.951057 0.309017 0
    outer loop
      vertex 0.207598 11.4752 0
      vertex 0.821318 13.364 25
      vertex 0.821318 13.364 0
    endloop
  endfacet
  facet normal -0.951057 0.309017 0
    outer loop
      vertex 0.821318 13.364 25
      vertex 0.207598 11.4752 0
      vertex 0.207598 11.4752 25
    endloop
  endfacet
  facet normal -0.866026 0.5 0
    outer loop
      vertex 0.821318 13.364 0
      vertex 1.81434 15.084 25
      vertex 1.81434 15.084 0
    endloop
  endfacet
  facet normal -0.866026 0.5 0
    outer loop
      vertex 1.81434 15.084 25
      vertex 0.821318 13.364 0
      vertex 0.821318 13.364 25
    endloop
  endfacet
  facet normal -0.994522 0.104528 0
    outer loop
      vertex 0 9.5 0
      vertex 0.207598 11.4752 25
      vertex 0.207598 11.4752 0
    endloop
  endfacet
  facet normal -0.994522 0.104528 0
    outer loop
      vertex 0.207598 11.4752 25
      vertex 0 9.5 0
      vertex 0 9.5 25
    endloop
  endfacet
  facet normal 0 0 1
    outer loop
      vertex 13.5 9.5 25
      vertex 19 9.5 25
      vertex 18.7924 11.4752 25
    endloop
  endfacet
  facet normal 0 0 1
    outer loop
      vertex 13.0418 11.3589 25
      vertex 18.7924 11.4752 25
      vertex 18.1787 13.364 25
    endloop
  endfacet
  facet normal 0 0 1
    outer loop
      vertex 19 9.5 25
      vertex 13.5 9.5 25
      vertex 18.7924 7.52484 25
    endloop
  endfacet
  facet normal 0 0 1
    outer loop
      vertex 13.0418 11.3589 25
      vertex 18.1787 13.364 25
      vertex 17.1857 15.084 25
    endloop
  endfacet
  facet normal -0 0 1
    outer loop
      vertex 13.0418 7.64111 25
      vertex 18.7924 7.52484 25
      vertex 13.5 9.5 25
    endloop
  endfacet
  facet normal 0 0 1
    outer loop
      vertex 11.7723 12.7919 25
      vertex 17.1857 15.084 25
      vertex 15.8567 16.5599 25
    endloop
  endfacet
  facet normal 0 0 1
    outer loop
      vertex 18.7924 7.52484 25
      vertex 13.0418 7.64111 25
      vertex 18.1787 5.636 25
    endloop
  endfacet
  facet normal 0 0 1
    outer loop
      vertex 11.7723 12.7919 25
      vertex 15.8567 16.5599 25
      vertex 14.25 17.7272 25
    endloop
  endfacet
  facet normal 0 0 1
    outer loop
      vertex 18.1787 5.636 25
      vertex 13.0418 7.64111 25
      vertex 17.1857 3.91604 25
    endloop
  endfacet
  facet normal -0 0 1
    outer loop
      vertex 11.7723 6.20806 25
      vertex 17.1857 3.91604 25
      vertex 13.0418 7.64111 25
    endloop
  endfacet
  facet normal 0 0 1
    outer loop
      vertex 18.7924 11.4752 25
      vertex 13.0418 11.3589 25
      vertex 13.5 9.5 25
    endloop
  endfacet
  facet normal 0 0 1
    outer loop
      vertex 11.7723 12.7919 25
      vertex 14.25 17.7272 25
      vertex 12.4357 18.535 25
    endloop
  endfacet
  facet normal 0 0 1
    outer loop
      vertex 17.1857 15.084 25
      vertex 11.7723 12.7919 25
      vertex 13.0418 11.3589 25
    endloop
  endfacet
  facet normal 0 0 1
    outer loop
      vertex 9.98215 13.4708 25
      vertex 12.4357 18.535 25
      vertex 10.493 18.948 25
    endloop
  endfacet
  facet normal 0 0 1
    outer loop
      vertex 12.4357 18.535 25
      vertex 9.98215 13.4708 25
      vertex 11.7723 12.7919 25
    endloop
  endfacet
  facet normal -0 0 1
    outer loop
      vertex 8.50698 18.948 25
      vertex 9.98215 13.4708 25
      vertex 10.493 18.948 25
    endloop
  endfacet
  facet normal 0 0 1
    outer loop
      vertex 8.50698 18.948 25
      vertex 8.08158 13.2401 25
      vertex 9.98215 13.4708 25
    endloop
  endfacet
  facet normal -0 0 1
    outer loop
      vertex 6.56434 18.535 25
      vertex 8.08158 13.2401 25
      vertex 8.50698 18.948 25
    endloop
  endfacet
  facet normal -0 0 1
    outer loop
      vertex 4.75 17.7272 25
      vertex 8.08158 13.2401 25
      vertex 6.56434 18.535 25
    endloop
  endfacet
  facet normal 0 0 1
    outer loop
      vertex 8.08158 13.2401 25
      vertex 4.75 17.7272 25
      vertex 6.50596 12.1525 25
    endloop
  endfacet
  facet normal -0 0 1
    outer loop
      vertex 1.81434 15.084 25
      vertex 6.50596 12.1525 25
      vertex 3.14326 16.5599 25
    endloop
  endfacet
  facet normal -0 0 1
    outer loop
      vertex 3.14326 16.5599 25
      vertex 6.50596 12.1525 25
      vertex 4.75 17.7272 25
    endloop
  endfacet
  facet normal 0 0 1
    outer loop
      vertex 17.1857 3.91604 25
      vertex 11.7723 6.20806 25
      vertex 15.8567 2.44012 25
    endloop
  endfacet
  facet normal 0 0 1
    outer loop
      vertex 15.8567 2.44012 25
      vertex 11.7723 6.20806 25
      vertex 14.25 1.27276 25
    endloop
  endfacet
  facet normal 0 0 1
    outer loop
      vertex 14.25 1.27276 25
      vertex 11.7723 6.20806 25
      vertex 12.4357 0.464963 25
    endloop
  endfacet
  facet normal -0 0 1
    outer loop
      vertex 9.98215 5.52916 25
      vertex 12.4357 0.464963 25
      vertex 11.7723 6.20806 25
    endloop
  endfacet
  facet normal 0 0 1
    outer loop
      vertex 12.4357 0.464963 25
      vertex 9.98215 5.52916 25
      vertex 10.493 0.0520411 25
    endloop
  endfacet
  facet normal 0 0 1
    outer loop
      vertex 9.98215 5.52916 25
      vertex 8.50698 0.0520411 25
      vertex 10.493 0.0520411 25
    endloop
  endfacet
  facet normal 0 0 1
    outer loop
      vertex 8.08158 5.75993 25
      vertex 8.50698 0.0520411 25
      vertex 9.98215 5.52916 25
    endloop
  endfacet
  facet normal 0 0 1
    outer loop
      vertex 8.08158 5.75993 25
      vertex 6.56434 0.464963 25
      vertex 8.50698 0.0520411 25
    endloop
  endfacet
  facet normal 0 0 1
    outer loop
      vertex 4.75 1.27276 25
      vertex 8.08158 5.75993 25
      vertex 6.50596 6.84751 25
    endloop
  endfacet
  facet normal 0 0 1
    outer loop
      vertex 0.821318 5.636 25
      vertex 6.50596 6.84751 25
      vertex 5.61623 8.54274 25
    endloop
  endfacet
  facet normal 0 0 1
    outer loop
      vertex 8.08158 5.75993 25
      vertex 4.75 1.27276 25
      vertex 6.56434 0.464963 25
    endloop
  endfacet
  facet normal -0 0 1
    outer loop
      vertex 0.821318 13.364 25
      vertex 6.50596 12.1525 25
      vertex 1.81434 15.084 25
    endloop
  endfacet
  facet normal 0 0 1
    outer loop
      vertex 6.50596 12.1525 25
      vertex 0.821318 13.364 25
      vertex 5.61623 10.4573 25
    endloop
  endfacet
  facet normal 0 0 1
    outer loop
      vertex 6.50596 6.84751 25
      vertex 3.14326 2.44012 25
      vertex 4.75 1.27276 25
    endloop
  endfacet
  facet normal -0 0 1
    outer loop
      vertex 0.207598 11.4752 25
      vertex 5.61623 10.4573 25
      vertex 0.821318 13.364 25
    endloop
  endfacet
  facet normal 0 0 1
    outer loop
      vertex 6.50596 6.84751 25
      vertex 1.81434 3.91604 25
      vertex 3.14326 2.44012 25
    endloop
  endfacet
  facet normal 0 0 1
    outer loop
      vertex 0 9.5 25
      vertex 5.61623 10.4573 25
      vertex 0.207598 11.4752 25
    endloop
  endfacet
  facet normal 0 0 1
    outer loop
      vertex 6.50596 6.84751 25
      vertex 0.821318 5.636 25
      vertex 1.81434 3.91604 25
    endloop
  endfacet
  facet normal 0 0 1
    outer loop
      vertex 5.61623 10.4573 25
      vertex 0 9.5 25
      vertex 5.61623 8.54274 25
    endloop
  endfacet
  facet normal 0 0 1
    outer loop
      vertex 5.61623 8.54274 25
      vertex 0.207598 7.52484 25
      vertex 0.821318 5.636 25
    endloop
  endfacet
  facet normal 0 0 1
    outer loop
      vertex 5.61623 8.54274 25
      vertex 0 9.5 25
      vertex 0.207598 7.52484 25
    endloop
  endfacet
  facet normal -0.587785 0.809017 0
    outer loop
      vertex 4.75 17.7272 0
      vertex 3.14326 16.5599 25
      vertex 4.75 17.7272 25
    endloop
  endfacet
  facet normal -0.587785 0.809017 0
    outer loop
      vertex 3.14326 16.5599 25
      vertex 4.75 17.7272 0
      vertex 3.14326 16.5599 0
    endloop
  endfacet
  facet normal -0.207912 0.978148 0
    outer loop
      vertex 8.50698 18.948 0
      vertex 6.56434 18.535 25
      vertex 8.50698 18.948 25
    endloop
  endfacet
  facet normal -0.207912 0.978148 0
    outer loop
      vertex 6.56434 18.535 25
      vertex 8.50698 18.948 0
      vertex 6.56434 18.535 0
    endloop
  endfacet
  facet normal 0.994522 -0.104529 0
    outer loop
      vertex 18.7924 7.52484 25
      vertex 19 9.5 0
      vertex 19 9.5 25
    endloop
  endfacet
  facet normal 0.994522 -0.104529 0
    outer loop
      vertex 19 9.5 0
      vertex 18.7924 7.52484 25
      vertex 18.7924 7.52484 0
    endloop
  endfacet
  facet normal 0.207912 -0.978148 0
    outer loop
      vertex 10.493 0.0520411 0
      vertex 12.4357 0.464963 25
      vertex 10.493 0.0520411 25
    endloop
  endfacet
  facet normal 0.207912 -0.978148 0
    outer loop
      vertex 12.4357 0.464963 25
      vertex 10.493 0.0520411 0
      vertex 12.4357 0.464963 0
    endloop
  endfacet
  facet normal 0.587785 -0.809017 0
    outer loop
      vertex 14.25 1.27276 0
      vertex 15.8567 2.44012 25
      vertex 14.25 1.27276 25
    endloop
  endfacet
  facet normal 0.587785 -0.809017 0
    outer loop
      vertex 15.8567 2.44012 25
      vertex 14.25 1.27276 0
      vertex 15.8567 2.44012 0
    endloop
  endfacet
  facet normal -0.406737 -0.913545 0
    outer loop
      vertex 4.75 1.27276 0
      vertex 6.56434 0.464963 25
      vertex 4.75 1.27276 25
    endloop
  endfacet
  facet normal -0.406737 -0.913545 -0
    outer loop
      vertex 6.56434 0.464963 25
      vertex 4.75 1.27276 0
      vertex 6.56434 0.464963 0
    endloop
  endfacet
  facet normal 0 -1 0
    outer loop
      vertex 8.50698 0.0520411 0
      vertex 10.493 0.0520411 25
      vertex 8.50698 0.0520411 25
    endloop
  endfacet
  facet normal 0 -1 -0
    outer loop
      vertex 10.493 0.0520411 25
      vertex 8.50698 0.0520411 0
      vertex 10.493 0.0520411 0
    endloop
  endfacet
  facet normal -0.743145 -0.669131 0
    outer loop
      vertex 3.14326 2.44012 0
      vertex 1.81434 3.91604 25
      vertex 1.81434 3.91604 0
    endloop
  endfacet
  facet normal -0.743145 -0.669131 0
    outer loop
      vertex 1.81434 3.91604 25
      vertex 3.14326 2.44012 0
      vertex 3.14326 2.44012 25
    endloop
  endfacet
  facet normal -0.951057 -0.309017 0
    outer loop
      vertex 0.821318 5.636 0
      vertex 0.207598 7.52484 25
      vertex 0.207598 7.52484 0
    endloop
  endfacet
  facet normal -0.951057 -0.309017 0
    outer loop
      vertex 0.207598 7.52484 25
      vertex 0.821318 5.636 0
      vertex 0.821318 5.636 25
    endloop
  endfacet
  facet normal -0.994522 -0.104528 0
    outer loop
      vertex 0.207598 7.52484 0
      vertex 0 9.5 25
      vertex 0 9.5 0
    endloop
  endfacet
  facet normal -0.994522 -0.104528 0
    outer loop
      vertex 0 9.5 25
      vertex 0.207598 7.52484 0
      vertex 0.207598 7.52484 25
    endloop
  endfacet
  facet normal 0.406737 -0.913545 0
    outer loop
      vertex 12.4357 0.464963 0
      vertex 14.25 1.27276 25
      vertex 12.4357 0.464963 25
    endloop
  endfacet
  facet normal 0.406737 -0.913545 0
    outer loop
      vertex 14.25 1.27276 25
      vertex 12.4357 0.464963 0
      vertex 14.25 1.27276 0
    endloop
  endfacet
  facet normal 0.951057 -0.309017 0
    outer loop
      vertex 18.1787 5.636 25
      vertex 18.7924 7.52484 0
      vertex 18.7924 7.52484 25
    endloop
  endfacet
  facet normal 0.951057 -0.309017 0
    outer loop
      vertex 18.7924 7.52484 0
      vertex 18.1787 5.636 25
      vertex 18.1787 5.636 0
    endloop
  endfacet
  facet normal 0.866026 -0.499999 0
    outer loop
      vertex 17.1857 3.91604 25
      vertex 18.1787 5.636 0
      vertex 18.1787 5.636 25
    endloop
  endfacet
  facet normal 0.866026 -0.499999 0
    outer loop
      vertex 18.1787 5.636 0
      vertex 17.1857 3.91604 25
      vertex 17.1857 3.91604 0
    endloop
  endfacet
  facet normal -0.207912 -0.978148 0
    outer loop
      vertex 6.56434 0.464963 0
      vertex 8.50698 0.0520411 25
      vertex 6.56434 0.464963 25
    endloop
  endfacet
  facet normal -0.207912 -0.978148 -0
    outer loop
      vertex 8.50698 0.0520411 25
      vertex 6.56434 0.464963 0
      vertex 8.50698 0.0520411 0
    endloop
  endfacet
  facet normal -0.587785 -0.809017 0
    outer loop
      vertex 3.14326 2.44012 0
      vertex 4.75 1.27276 25
      vertex 3.14326 2.44012 25
    endloop
  endfacet
  facet normal -0.587785 -0.809017 -0
    outer loop
      vertex 4.75 1.27276 25
      vertex 3.14326 2.44012 0
      vertex 4.75 1.27276 0
    endloop
  endfacet
  facet normal -0.866026 -0.5 0
    outer loop
      vertex 1.81434 3.91604 0
      vertex 0.821318 5.636 25
      vertex 0.821318 5.636 0
    endloop
  endfacet
  facet normal -0.866026 -0.5 0
    outer loop
      vertex 0.821318 5.636 25
      vertex 1.81434 3.91604 0
      vertex 1.81434 3.91604 25
    endloop
  endfacet
  facet normal -0.970942 -0.239316 0
    outer loop
      vertex 13.5 9.5 14
      vertex 13.0418 11.3589 25
      vertex 13.0418 11.3589 14
    endloop
  endfacet
  facet normal -0.970942 -0.239316 0
    outer loop
      vertex 13.0418 11.3589 25
      vertex 13.5 9.5 14
      vertex 13.5 9.5 25
    endloop
  endfacet
  facet normal 1 -0 0
    outer loop
      vertex 5.61623 8.54274 25
      vertex 5.61623 10.4573 14
      vertex 5.61623 10.4573 25
    endloop
  endfacet
  facet normal 1 0 0
    outer loop
      vertex 5.61623 10.4573 14
      vertex 5.61623 8.54274 25
      vertex 5.61623 8.54274 14
    endloop
  endfacet
  facet normal 0.120536 -0.992709 0
    outer loop
      vertex 8.08158 13.2401 14
      vertex 9.98215 13.4708 25
      vertex 8.08158 13.2401 25
    endloop
  endfacet
  facet normal 0.120536 -0.992709 0
    outer loop
      vertex 9.98215 13.4708 25
      vertex 8.08158 13.2401 14
      vertex 9.98215 13.4708 14
    endloop
  endfacet
  facet normal -0.748511 -0.663123 0
    outer loop
      vertex 13.0418 11.3589 14
      vertex 11.7723 12.7919 25
      vertex 11.7723 12.7919 14
    endloop
  endfacet
  facet normal -0.748511 -0.663123 0
    outer loop
      vertex 11.7723 12.7919 25
      vertex 13.0418 11.3589 14
      vertex 13.0418 11.3589 25
    endloop
  endfacet
  facet normal 0.568065 -0.822984 0
    outer loop
      vertex 6.50596 12.1525 14
      vertex 8.08158 13.2401 25
      vertex 6.50596 12.1525 25
    endloop
  endfacet
  facet normal 0.568065 -0.822984 0
    outer loop
      vertex 8.08158 13.2401 25
      vertex 6.50596 12.1525 14
      vertex 8.08158 13.2401 14
    endloop
  endfacet
  facet normal -0.354605 0.935016 0
    outer loop
      vertex 11.7723 6.20806 14
      vertex 9.98215 5.52916 25
      vertex 11.7723 6.20806 25
    endloop
  endfacet
  facet normal -0.354605 0.935016 0
    outer loop
      vertex 9.98215 5.52916 25
      vertex 11.7723 6.20806 14
      vertex 9.98215 5.52916 14
    endloop
  endfacet
  facet normal -0.354605 -0.935016 0
    outer loop
      vertex 9.98215 13.4708 14
      vertex 11.7723 12.7919 25
      vertex 9.98215 13.4708 25
    endloop
  endfacet
  facet normal -0.354605 -0.935016 -0
    outer loop
      vertex 11.7723 12.7919 25
      vertex 9.98215 13.4708 14
      vertex 11.7723 12.7919 14
    endloop
  endfacet
  facet normal 0.885456 -0.464723 0
    outer loop
      vertex 5.61623 10.4573 25
      vertex 6.50596 12.1525 14
      vertex 6.50596 12.1525 25
    endloop
  endfacet
  facet normal 0.885456 -0.464723 0
    outer loop
      vertex 6.50596 12.1525 14
      vertex 5.61623 10.4573 25
      vertex 5.61623 10.4573 14
    endloop
  endfacet
  facet normal -0.970942 0.239316 0
    outer loop
      vertex 13.0418 7.64111 14
      vertex 13.5 9.5 25
      vertex 13.5 9.5 14
    endloop
  endfacet
  facet normal -0.970942 0.239316 0
    outer loop
      vertex 13.5 9.5 25
      vertex 13.0418 7.64111 14
      vertex 13.0418 7.64111 25
    endloop
  endfacet
  facet normal -0.748511 0.663123 0
    outer loop
      vertex 11.7723 6.20806 14
      vertex 13.0418 7.64111 25
      vertex 13.0418 7.64111 14
    endloop
  endfacet
  facet normal -0.748511 0.663123 0
    outer loop
      vertex 13.0418 7.64111 25
      vertex 11.7723 6.20806 14
      vertex 11.7723 6.20806 25
    endloop
  endfacet
  facet normal 0 0 1
    outer loop
      vertex 13.0418 11.3589 14
      vertex 13.0418 7.64111 14
      vertex 13.5 9.5 14
    endloop
  endfacet
  facet normal 0 0 1
    outer loop
      vertex 11.7723 12.7919 14
      vertex 13.0418 7.64111 14
      vertex 13.0418 11.3589 14
    endloop
  endfacet
  facet normal 0 0 1
    outer loop
      vertex 11.7723 12.7919 14
      vertex 11.7723 6.20806 14
      vertex 13.0418 7.64111 14
    endloop
  endfacet
  facet normal 0 0 1
    outer loop
      vertex 9.98215 13.4708 14
      vertex 11.7723 6.20806 14
      vertex 11.7723 12.7919 14
    endloop
  endfacet
  facet normal 0 0 1
    outer loop
      vertex 9.98215 13.4708 14
      vertex 9.98215 5.52916 14
      vertex 11.7723 6.20806 14
    endloop
  endfacet
  facet normal -0 0 1
    outer loop
      vertex 8.08158 13.2401 14
      vertex 9.98215 5.52916 14
      vertex 9.98215 13.4708 14
    endloop
  endfacet
  facet normal 0 0 1
    outer loop
      vertex 8.08158 13.2401 14
      vertex 8.08158 5.75993 14
      vertex 9.98215 5.52916 14
    endloop
  endfacet
  facet normal -0 0 1
    outer loop
      vertex 6.50596 12.1525 14
      vertex 8.08158 5.75993 14
      vertex 8.08158 13.2401 14
    endloop
  endfacet
  facet normal 0 0 1
    outer loop
      vertex 6.50596 12.1525 14
      vertex 6.50596 6.84751 14
      vertex 8.08158 5.75993 14
    endloop
  endfacet
  facet normal -0 0 1
    outer loop
      vertex 5.61623 10.4573 14
      vertex 6.50596 6.84751 14
      vertex 6.50596 12.1525 14
    endloop
  endfacet
  facet normal 0 0 1
    outer loop
      vertex 6.50596 6.84751 14
      vertex 5.61623 10.4573 14
      vertex 5.61623 8.54274 14
    endloop
  endfacet
  facet normal 0.120536 0.992709 -0
    outer loop
      vertex 9.98215 5.52916 14
      vertex 8.08158 5.75993 25
      vertex 9.98215 5.52916 25
    endloop
  endfacet
  facet normal 0.120536 0.992709 0
    outer loop
      vertex 8.08158 5.75993 25
      vertex 9.98215 5.52916 14
      vertex 8.08158 5.75993 14
    endloop
  endfacet
  facet normal 0.568065 0.822984 -0
    outer loop
      vertex 8.08158 5.75993 14
      vertex 6.50596 6.84751 25
      vertex 8.08158 5.75993 25
    endloop
  endfacet
  facet normal 0.568065 0.822984 0
    outer loop
      vertex 6.50596 6.84751 25
      vertex 8.08158 5.75993 14
      vertex 6.50596 6.84751 14
    endloop
  endfacet
  facet normal 0.885456 0.464723 0
    outer loop
      vertex 6.50596 6.84751 25
      vertex 5.61623 8.54274 14
      vertex 5.61623 8.54274 25
    endloop
  endfacet
  facet normal 0.885456 0.464723 0
    outer loop
      vertex 5.61623 8.54274 14
      vertex 6.50596 6.84751 25
      vertex 6.50596 6.84751 14
    endloop
  endfacet
endsolid OpenSCAD_Model
